<svg id="svg" version="1.1" width="500" height="500" xmlns="http://www.w3.org/2000/svg" xmlns:xlink="http://www.w3.org/1999/xlink" style="display: block;"><g id="svgg"><path id="path0" d="M0.000 52.800 L 0.000 105.600 6.273 105.600 L 12.545 105.600 13.552 101.000 C 14.106 98.470,15.423 94.212,16.480 91.537 C 17.536 88.863,18.400 86.163,18.401 85.537 C 18.404 79.646,26.299 70.598,33.129 68.658 C 38.802 67.046,39.884 65.584,42.800 55.600 C 45.104 47.710,50.282 43.609,60.870 41.288 C 64.556 40.481,67.066 37.768,68.570 32.966 C 70.375 27.203,75.638 21.545,80.800 19.819 C 82.780 19.157,86.200 17.973,88.400 17.189 C 90.600 16.404,95.190 15.010,98.600 14.091 L 104.800 12.421 104.800 6.210 L 104.800 0.000 52.400 0.000 L 0.000 0.000 0.000 52.800 M294.400 6.311 L 294.400 12.622 297.400 13.160 C 315.419 16.393,327.452 23.262,331.102 32.400 C 333.384 38.111,336.792 41.600,340.088 41.600 C 348.793 41.600,356.159 49.222,358.712 60.870 C 359.503 64.480,362.141 66.892,367.363 68.778 C 376.451 72.059,383.582 84.443,386.840 102.600 L 387.378 105.600 393.689 105.600 L 400.000 105.600 400.000 52.800 L 400.000 0.000 347.200 0.000 L 294.400 0.000 294.400 6.311 M185.559 132.453 C 183.311 138.273,183.456 146.195,185.967 154.782 L 187.142 158.800 193.964 160.675 C 197.716 161.706,203.641 162.746,207.132 162.985 L 213.479 163.420 214.311 160.310 C 216.671 151.491,216.807 138.296,214.597 132.600 L 212.501 127.200 200.045 127.200 L 187.588 127.200 185.559 132.453 M235.673 185.776 C 234.723 187.226,234.112 191.058,233.516 199.300 C 231.313 229.779,226.430 234.383,196.292 234.395 C 172.343 234.405,168.153 229.960,166.037 202.296 C 164.633 183.931,162.367 178.957,161.249 191.788 C 160.952 195.205,160.213 202.320,159.608 207.600 C 156.407 235.537,156.290 243.091,158.977 248.389 C 161.347 253.061,161.487 253.062,165.884 248.456 C 172.109 241.936,176.924 240.616,196.000 240.199 C 222.864 239.612,233.110 243.972,236.082 257.256 C 237.305 262.720,237.525 262.824,249.200 263.424 C 254.040 263.673,258.990 264.256,260.200 264.719 C 262.211 265.488,262.400 265.400,262.400 263.699 C 262.400 261.935,262.047 261.813,255.623 261.359 C 244.942 260.606,244.004 259.406,243.994 246.481 C 243.991 242.256,243.645 236.640,243.227 234.000 C 242.808 231.360,242.100 225.060,241.653 220.000 C 238.760 187.229,237.910 182.363,235.673 185.776 M137.245 262.328 C 135.987 264.362,137.684 265.478,140.007 264.144 C 141.544 263.262,141.985 262.632,141.348 262.227 C 140.039 261.395,137.787 261.450,137.245 262.328 M0.000 347.600 L 0.000 400.000 52.400 400.000 L 104.800 400.000 104.800 393.790 L 104.800 387.579 98.600 385.877 C 77.691 380.134,72.671 377.045,68.898 367.600 C 66.616 361.889,63.208 358.400,59.912 358.400 C 51.207 358.400,43.841 350.778,41.288 339.130 C 40.497 335.520,37.859 333.108,32.637 331.222 C 23.280 327.844,19.882 322.370,14.123 301.400 L 12.421 295.200 6.210 295.200 L 0.000 295.200 0.000 347.600 M385.909 301.400 C 384.990 304.810,383.596 309.400,382.811 311.600 C 382.027 313.800,380.843 317.220,380.181 319.200 C 378.455 324.362,372.797 329.625,367.034 331.430 C 362.232 332.934,359.519 335.444,358.712 339.130 C 356.391 349.718,352.290 354.896,344.400 357.200 C 334.416 360.116,332.954 361.198,331.342 366.871 C 329.402 373.701,320.354 381.596,314.463 381.599 C 313.837 381.600,311.137 382.464,308.463 383.520 C 305.788 384.577,301.530 385.894,299.000 386.448 L 294.400 387.455 294.400 393.727 L 294.400 400.000 347.200 400.000 L 400.000 400.000 400.000 347.600 L 400.000 295.200 393.790 295.200 L 387.579 295.200 385.909 301.400 " stroke="none" fill="#fefefe" fill-rule="evenodd"></path><path id="path1" d="M132.591 36.725 C 130.936 37.069,129.405 37.529,129.187 37.746 C 128.646 38.287,136.313 42.400,137.862 42.400 C 140.422 42.400,150.575 38.161,149.481 37.550 C 147.796 36.607,135.939 36.027,132.591 36.725 M254.234 36.692 C 252.162 37.008,250.259 37.475,250.004 37.729 C 249.470 38.264,260.249 42.400,262.175 42.400 C 264.197 42.400,270.645 38.325,269.862 37.542 C 268.879 36.559,258.731 36.007,254.234 36.692 M84.691 60.664 L 82.157 62.928 83.476 66.798 C 86.143 74.627,89.434 74.694,96.833 67.070 C 101.121 62.652,100.908 61.945,94.716 60.032 C 87.963 57.946,87.715 57.962,84.691 60.664 M310.400 59.021 C 307.359 59.426,300.875 61.631,300.382 62.429 C 299.703 63.529,305.540 69.537,309.006 71.305 C 313.081 73.384,315.468 71.428,317.081 64.689 C 317.708 62.065,313.616 58.593,310.400 59.021 M333.273 83.585 C 325.993 86.179,326.129 90.620,333.688 97.090 C 337.614 100.450,337.897 100.367,339.494 95.391 C 341.358 89.582,341.330 87.791,339.327 84.978 C 337.240 82.047,337.451 82.096,333.273 83.585 M60.600 85.176 C 58.569 87.969,60.227 99.200,62.671 99.200 C 65.939 99.200,73.869 88.249,71.798 86.596 C 67.256 82.972,62.629 82.385,60.600 85.176 M359.680 132.991 C 357.106 137.383,357.107 137.780,359.723 144.835 C 362.460 152.220,363.424 150.865,363.526 139.486 C 363.617 129.396,362.697 127.843,359.680 132.991 M37.147 132.070 C 36.236 133.525,36.485 146.405,37.443 147.363 C 38.501 148.421,41.894 138.881,41.301 136.518 C 40.517 133.396,38.003 130.703,37.147 132.070 M134.823 143.622 C 129.050 156.668,128.109 161.951,130.592 167.353 C 132.532 171.573,136.677 177.190,137.352 176.515 C 138.705 175.162,139.652 161.503,139.053 151.992 C 138.202 138.492,137.611 137.322,134.823 143.622 M262.098 143.284 C 260.885 149.289,260.604 162.924,261.574 168.662 L 262.565 174.524 264.378 172.821 C 267.895 169.517,270.614 163.397,270.010 160.147 C 269.290 156.282,266.237 147.567,264.235 143.665 L 262.646 140.568 262.098 143.284 M110.246 220.508 C 109.086 222.649,107.190 227.337,106.032 230.927 L 103.928 237.453 105.952 242.436 C 107.066 245.176,108.972 248.719,110.188 250.309 L 112.400 253.200 113.601 245.200 C 114.803 237.193,114.526 224.996,113.008 219.140 L 112.354 216.616 110.246 220.508 M286.828 219.721 C 285.398 227.315,285.228 237.389,286.400 245.200 L 287.600 253.200 289.812 250.309 C 291.028 248.719,292.934 245.176,294.048 242.436 L 296.072 237.453 293.976 230.976 C 292.076 225.108,290.118 220.664,288.135 217.721 C 287.613 216.946,287.244 217.511,286.828 219.721 M359.723 255.165 C 357.104 262.231,357.104 262.472,359.747 267.329 C 362.657 272.674,363.583 270.956,363.509 260.354 C 363.430 249.139,362.453 247.799,359.723 255.165 M37.298 252.642 C 36.345 254.183,36.378 266.664,37.339 268.342 C 38.548 270.453,41.973 264.055,41.333 260.882 C 40.559 257.049,37.914 251.645,37.298 252.642 M184.568 284.248 L 181.743 287.695 183.115 291.750 C 183.870 293.980,185.107 296.749,185.862 297.902 L 187.237 300.000 200.000 300.000 C 214.588 300.000,213.919 300.324,216.316 292.109 L 217.568 287.817 215.048 284.309 L 212.529 280.800 199.961 280.800 L 187.393 280.800 184.568 284.248 M61.623 302.358 C 55.867 313.112,60.405 320.099,69.800 314.950 C 73.410 312.971,73.528 311.646,70.471 307.425 C 66.468 301.899,62.947 299.883,61.623 302.358 M334.259 302.223 C 328.598 305.956,325.670 312.179,328.606 314.238 C 337.530 320.499,343.407 316.239,339.994 305.983 C 338.143 300.420,337.566 300.042,334.259 302.223 M85.050 330.200 C 80.211 339.029,84.587 342.962,95.391 339.494 C 100.288 337.923,100.394 337.643,97.458 334.081 C 91.865 327.296,87.407 325.901,85.050 330.200 M307.274 330.186 C 299.070 336.017,299.014 338.040,307.000 340.050 L 312.367 341.401 314.915 339.458 C 317.734 337.308,317.676 335.417,314.631 330.204 C 312.624 326.768,312.084 326.767,307.274 330.186 M133.263 360.307 C 129.167 362.786,131.059 363.609,140.342 363.388 C 148.606 363.191,149.417 362.225,143.109 360.095 C 136.908 358.001,137.079 357.997,133.263 360.307 M256.530 360.153 C 250.432 362.277,251.530 363.245,260.251 363.433 C 268.512 363.612,270.255 362.630,266.164 360.101 C 262.874 358.068,262.510 358.070,256.530 360.153 " stroke="none" fill="#3e6fb5" fill-rule="evenodd"></path><path id="path2" d="M163.200 6.384 L 163.200 12.768 159.000 15.184 C 156.690 16.512,151.920 18.471,148.400 19.536 C 135.379 23.477,124.722 26.413,118.025 27.905 C 109.974 29.699,104.070 32.933,97.692 39.043 C 95.255 41.377,91.254 44.357,88.799 45.665 C 74.535 53.268,52.821 75.381,45.559 89.700 C 44.583 91.625,41.583 95.546,38.892 98.413 C 33.179 104.500,29.439 111.264,28.061 118.000 C 27.155 122.432,24.263 132.758,19.590 148.248 C 18.553 151.684,16.564 156.274,15.169 158.448 L 12.633 162.400 6.317 162.400 L 0.000 162.400 0.000 199.600 L 0.000 236.800 6.234 236.800 L 12.468 236.800 15.344 241.800 C 16.927 244.550,18.954 249.320,19.850 252.400 C 23.942 266.469,27.171 278.398,28.078 282.800 C 29.546 289.920,34.260 297.998,39.598 302.540 C 40.981 303.717,43.265 306.841,44.673 309.482 C 53.017 325.139,75.105 347.105,91.117 355.672 C 93.492 356.942,96.162 358.966,97.052 360.169 C 100.787 365.222,110.479 370.576,119.200 372.403 C 122.500 373.095,127.900 374.504,131.200 375.535 C 134.500 376.565,138.280 377.646,139.600 377.935 C 146.354 379.417,153.724 382.080,158.200 384.656 L 163.200 387.532 163.200 393.766 L 163.200 400.000 200.000 400.000 L 236.800 400.000 236.800 393.766 L 236.800 387.532 241.800 384.656 C 246.252 382.094,253.396 379.506,260.400 377.917 C 261.720 377.618,265.860 376.399,269.600 375.208 C 273.340 374.017,278.740 372.578,281.600 372.011 C 288.664 370.609,295.351 366.961,301.587 361.106 C 304.454 358.414,308.600 355.297,310.800 354.181 C 324.849 347.048,346.718 325.492,354.259 311.343 C 355.609 308.810,358.623 304.745,360.957 302.308 C 367.067 295.930,370.301 290.026,372.095 281.975 C 373.587 275.278,376.523 264.621,380.464 251.600 C 381.529 248.080,383.488 243.310,384.816 241.000 L 387.232 236.800 393.616 236.800 L 400.000 236.800 400.000 200.000 L 400.000 163.200 393.616 163.200 L 387.232 163.200 384.817 159.000 C 383.489 156.690,381.559 151.920,380.529 148.400 C 379.498 144.880,377.865 139.300,376.899 136.000 C 375.933 132.700,374.232 126.220,373.120 121.600 C 370.344 110.074,365.587 101.057,360.169 97.052 C 358.966 96.162,356.942 93.492,355.672 91.117 C 347.060 75.021,324.979 52.940,308.883 44.328 C 306.508 43.058,303.838 41.034,302.948 39.831 C 301.366 37.691,294.377 32.523,290.400 30.552 C 289.300 30.006,284.260 28.503,279.200 27.211 C 274.140 25.918,267.300 24.070,264.000 23.103 C 260.700 22.136,255.120 20.502,251.600 19.471 C 248.080 18.441,243.310 16.511,241.000 15.183 L 236.800 12.768 236.800 6.384 L 236.800 0.000 200.000 0.000 L 163.200 0.000 163.200 6.384 M149.481 37.550 C 150.575 38.161,140.422 42.400,137.862 42.400 C 136.313 42.400,128.646 38.287,129.187 37.746 C 130.798 36.135,146.678 35.981,149.481 37.550 M269.862 37.542 C 270.645 38.325,264.197 42.400,262.175 42.400 C 260.249 42.400,249.470 38.264,250.004 37.729 C 251.618 36.116,268.279 35.959,269.862 37.542 M94.716 60.032 C 100.908 61.945,101.121 62.652,96.833 67.070 C 89.434 74.694,86.143 74.627,83.476 66.798 L 82.157 62.928 84.691 60.664 C 87.715 57.962,87.963 57.946,94.716 60.032 M317.081 64.689 C 314.886 73.859,310.157 74.438,302.918 66.426 C 299.441 62.577,299.571 62.123,304.609 60.505 C 312.407 58.000,318.215 59.949,317.081 64.689 M339.327 84.978 C 341.330 87.791,341.358 89.582,339.494 95.391 C 337.897 100.367,337.614 100.450,333.688 97.090 C 326.129 90.620,325.993 86.179,333.273 83.585 C 337.451 82.096,337.240 82.047,339.327 84.978 M68.240 84.500 C 72.951 86.892,72.996 87.023,70.618 91.392 C 68.584 95.130,64.441 99.200,62.671 99.200 C 61.776 99.200,59.200 91.539,59.200 88.880 C 59.200 84.108,63.431 82.058,68.240 84.500 M217.268 99.904 C 223.519 102.861,227.368 106.872,229.895 113.060 C 234.090 123.335,237.380 130.154,240.355 134.741 C 245.916 143.316,247.476 148.688,253.962 181.611 C 256.944 196.750,261.364 210.748,264.429 214.767 C 265.484 216.150,267.209 219.244,268.262 221.641 C 269.966 225.518,271.186 229.749,276.904 251.600 C 278.400 257.318,279.203 262.904,280.877 279.239 L 281.824 288.477 279.786 291.705 C 273.586 301.527,265.318 304.188,250.249 301.212 C 237.515 298.698,234.510 296.858,230.631 289.200 C 228.620 285.229,218.879 271.520,214.622 266.669 L 212.400 264.137 200.000 263.604 L 187.600 263.071 182.733 268.536 C 177.307 274.627,166.869 288.059,164.386 292.145 C 159.654 299.930,139.092 304.747,129.868 300.230 C 120.080 295.437,117.742 290.606,119.136 278.053 C 121.046 260.847,121.653 257.047,123.620 249.961 C 124.713 246.022,126.508 239.299,127.608 235.019 C 130.175 225.035,132.252 219.781,135.600 214.800 C 139.752 208.624,143.527 196.003,148.293 172.361 C 152.863 149.699,154.775 143.664,159.927 135.645 C 162.903 131.013,164.717 127.158,170.375 113.441 C 173.260 106.445,176.877 102.608,183.488 99.530 C 190.187 96.411,210.356 96.634,217.268 99.904 M363.526 139.486 C 363.424 150.865,362.460 152.220,359.723 144.835 C 357.107 137.780,357.106 137.383,359.680 132.991 C 362.697 127.843,363.617 129.396,363.526 139.486 M41.301 136.518 C 41.894 138.881,38.501 148.421,37.443 147.363 C 36.485 146.405,36.236 133.525,37.147 132.070 C 38.003 130.703,40.517 133.396,41.301 136.518 M139.053 151.992 C 139.652 161.503,138.705 175.162,137.352 176.515 C 136.677 177.190,132.532 171.573,130.592 167.353 C 128.109 161.951,129.050 156.668,134.823 143.622 C 137.611 137.322,138.202 138.492,139.053 151.992 M267.643 151.981 C 271.207 162.211,270.437 167.129,264.378 172.821 L 262.565 174.524 261.574 168.662 C 260.604 162.924,260.885 149.289,262.098 143.284 L 262.646 140.568 264.235 143.665 C 265.109 145.368,266.642 149.110,267.643 151.981 M114.232 229.432 C 114.633 234.898,114.446 239.571,113.601 245.200 L 112.400 253.200 110.188 250.309 C 108.972 248.719,107.066 245.176,105.952 242.436 L 103.928 237.453 106.032 230.927 C 107.190 227.337,109.086 222.649,110.246 220.508 L 112.354 216.616 113.008 219.140 C 113.368 220.528,113.919 225.159,114.232 229.432 M290.370 221.649 C 291.200 223.216,292.822 227.413,293.976 230.976 L 296.072 237.453 294.048 242.436 C 292.934 245.176,291.028 248.719,289.812 250.309 L 287.600 253.200 286.400 245.200 C 285.228 237.389,285.398 227.315,286.828 219.721 C 287.453 216.402,287.649 216.508,290.370 221.649 M363.509 260.354 C 363.583 270.956,362.657 272.674,359.747 267.329 C 357.104 262.472,357.104 262.231,359.723 255.165 C 362.453 247.799,363.430 249.139,363.509 260.354 M41.333 260.882 C 41.973 264.055,38.548 270.453,37.339 268.342 C 36.378 266.664,36.345 254.183,37.298 252.642 C 37.914 251.645,40.559 257.049,41.333 260.882 M215.048 284.309 L 217.568 287.817 216.316 292.109 C 213.919 300.324,214.588 300.000,200.000 300.000 L 187.237 300.000 185.862 297.902 C 185.107 296.749,183.870 293.980,183.115 291.750 L 181.743 287.695 184.568 284.248 L 187.393 280.800 199.961 280.800 L 212.529 280.800 215.048 284.309 M65.748 302.505 C 72.422 307.258,74.150 312.565,69.800 314.950 C 60.405 320.099,55.867 313.112,61.623 302.358 C 62.663 300.414,62.818 300.419,65.748 302.505 M339.994 305.983 C 343.407 316.239,337.530 320.499,328.606 314.238 C 325.670 312.179,328.598 305.956,334.259 302.223 C 337.566 300.042,338.143 300.420,339.994 305.983 M91.912 329.144 C 95.270 331.264,100.149 336.712,99.553 337.676 C 99.349 338.007,97.475 338.825,95.391 339.494 C 84.587 342.962,80.211 339.029,85.050 330.200 C 86.983 326.674,87.800 326.549,91.912 329.144 M314.631 330.204 C 317.676 335.417,317.734 337.308,314.915 339.458 L 312.367 341.401 307.000 340.050 C 299.014 338.040,299.070 336.017,307.274 330.186 C 312.084 326.767,312.624 326.768,314.631 330.204 M143.109 360.095 C 149.417 362.225,148.606 363.191,140.342 363.388 C 131.059 363.609,129.167 362.786,133.263 360.307 C 137.079 357.997,136.908 358.001,143.109 360.095 M266.164 360.101 C 270.255 362.630,268.512 363.612,260.251 363.433 C 251.530 363.245,250.432 362.277,256.530 360.153 C 262.510 358.070,262.874 358.068,266.164 360.101 " stroke="none" fill="#6684bd" fill-rule="evenodd"></path><path id="path3" d="M127.200 6.343 L 127.200 12.685 122.600 14.415 C 120.070 15.367,114.580 17.242,110.400 18.583 C 98.055 22.542,86.336 29.242,81.313 35.212 C 79.284 37.622,66.483 47.790,60.671 51.607 C 57.176 53.902,54.078 56.913,52.186 59.852 C 48.660 65.332,38.401 78.556,33.655 83.739 C 26.516 91.535,23.633 96.592,19.487 108.593 C 17.547 114.207,15.207 120.690,14.287 123.000 L 12.614 127.200 6.307 127.200 L 0.000 127.200 0.000 144.800 L 0.000 162.400 6.317 162.400 L 12.633 162.400 15.169 158.448 C 16.564 156.274,18.553 151.684,19.590 148.248 C 24.263 132.758,27.155 122.432,28.061 118.000 C 29.439 111.264,33.179 104.500,38.892 98.413 C 41.583 95.546,44.583 91.625,45.559 89.700 C 52.821 75.381,74.535 53.268,88.799 45.665 C 91.254 44.357,95.255 41.377,97.692 39.043 C 104.070 32.933,109.974 29.699,118.025 27.905 C 124.722 26.413,135.379 23.477,148.400 19.536 C 151.920 18.471,156.690 16.512,159.000 15.184 L 163.200 12.768 163.200 6.384 L 163.200 0.000 145.200 0.000 L 127.200 0.000 127.200 6.343 M236.800 6.384 L 236.800 12.768 241.000 15.183 C 243.310 16.511,248.080 18.441,251.600 19.471 C 255.120 20.502,260.700 22.136,264.000 23.103 C 267.300 24.070,274.140 25.918,279.200 27.211 C 284.260 28.503,289.300 30.006,290.400 30.552 C 294.377 32.523,301.366 37.691,302.948 39.831 C 303.838 41.034,306.508 43.058,308.883 44.328 C 324.979 52.940,347.060 75.021,355.672 91.117 C 356.942 93.492,358.966 96.162,360.169 97.052 C 365.587 101.057,370.344 110.074,373.120 121.600 C 374.232 126.220,375.933 132.700,376.899 136.000 C 377.865 139.300,379.498 144.880,380.529 148.400 C 381.559 151.920,383.489 156.690,384.817 159.000 L 387.232 163.200 393.616 163.200 L 400.000 163.200 400.000 145.200 L 400.000 127.200 393.670 127.200 L 387.340 127.200 385.294 121.800 C 384.169 118.830,382.140 112.980,380.785 108.800 C 377.255 97.912,368.248 82.787,364.418 81.318 C 363.512 80.970,352.663 66.952,347.376 59.297 C 345.041 55.917,344.083 54.959,340.703 52.624 C 333.048 47.337,319.030 36.488,318.682 35.582 C 317.095 31.445,301.980 22.707,289.191 18.533 C 283.916 16.811,278.070 14.777,276.200 14.014 L 272.800 12.626 272.800 6.313 L 272.800 0.000 254.800 0.000 L 236.800 0.000 236.800 6.384 M183.488 99.530 C 176.877 102.608,173.260 106.445,170.375 113.441 C 164.717 127.158,162.903 131.013,159.927 135.645 C 154.775 143.664,152.863 149.699,148.293 172.361 C 143.527 196.003,139.752 208.624,135.600 214.800 C 132.252 219.781,130.175 225.035,127.608 235.019 C 126.508 239.299,124.713 246.022,123.620 249.961 C 121.653 257.047,121.046 260.847,119.136 278.053 C 117.742 290.606,120.080 295.437,129.868 300.230 C 139.092 304.747,159.654 299.930,164.386 292.145 C 166.869 288.059,177.307 274.627,182.733 268.536 L 187.600 263.071 200.000 263.604 L 212.400 264.137 214.622 266.669 C 218.879 271.520,228.620 285.229,230.631 289.200 C 234.510 296.858,237.515 298.698,250.249 301.212 C 265.318 304.188,273.586 301.527,279.786 291.705 L 281.824 288.477 280.877 279.239 C 279.203 262.904,278.400 257.318,276.904 251.600 C 271.186 229.749,269.966 225.518,268.262 221.641 C 267.209 219.244,265.484 216.150,264.429 214.767 C 261.364 210.748,256.944 196.750,253.962 181.611 C 247.476 148.688,245.916 143.316,240.355 134.741 C 237.380 130.154,234.090 123.335,229.895 113.060 C 227.368 106.872,223.519 102.861,217.268 99.904 C 210.356 96.634,190.187 96.411,183.488 99.530 M214.182 111.400 C 216.120 113.501,224.911 135.110,226.813 142.450 C 228.537 149.102,231.222 154.260,235.021 158.213 C 238.685 162.027,242.401 174.648,246.029 195.600 C 250.524 221.560,254.243 233.668,260.104 241.431 C 269.405 253.750,272.567 284.327,265.127 290.002 L 262.484 292.018 257.067 289.979 C 253.377 288.590,250.936 287.074,249.411 285.223 C 248.179 283.729,244.928 281.045,242.186 279.258 C 238.028 276.549,236.000 274.315,229.975 265.805 C 224.042 257.425,221.848 254.992,217.703 252.200 L 212.655 248.800 199.739 248.800 C 181.956 248.800,180.313 249.667,167.341 265.898 C 164.981 268.850,161.107 272.490,158.654 274.059 C 153.780 277.176,150.460 280.436,147.526 284.984 C 143.996 290.454,137.959 292.449,134.172 289.396 L 131.944 287.600 131.482 274.400 L 131.021 261.200 133.915 253.292 C 135.840 248.033,137.764 244.326,139.661 242.228 C 145.469 235.799,149.272 223.041,155.110 190.400 C 158.337 172.363,161.448 162.703,165.313 158.726 C 169.676 154.237,171.466 150.749,173.523 142.731 C 175.193 136.221,184.030 113.491,185.650 111.539 C 186.313 110.741,189.401 110.378,197.079 110.197 C 202.866 110.061,208.707 109.871,210.061 109.775 C 211.743 109.655,213.046 110.169,214.182 111.400 M184.197 181.800 C 180.168 185.963,177.942 193.558,176.384 208.457 C 175.816 213.891,177.791 217.507,184.106 222.589 L 187.013 224.928 199.706 223.535 C 213.762 221.993,215.351 221.331,219.555 215.265 L 221.693 212.180 219.709 203.372 C 215.713 185.635,215.283 185.236,195.408 180.836 C 186.228 178.804,187.176 178.722,184.197 181.800 M0.000 254.800 L 0.000 272.800 6.343 272.800 L 12.685 272.800 14.415 277.400 C 15.367 279.930,17.242 285.420,18.583 289.600 C 22.497 301.803,30.375 315.301,35.573 318.710 C 36.468 319.296,40.440 324.228,44.400 329.670 C 53.431 342.079,57.921 346.569,70.330 355.600 C 75.772 359.560,80.704 363.532,81.290 364.427 C 84.699 369.625,98.197 377.503,110.400 381.417 C 114.580 382.758,120.070 384.633,122.600 385.585 L 127.200 387.315 127.200 393.657 L 127.200 400.000 145.200 400.000 L 163.200 400.000 163.200 393.766 L 163.200 387.532 158.200 384.656 C 153.724 382.080,146.354 379.417,139.600 377.935 C 138.280 377.646,134.500 376.565,131.200 375.535 C 127.900 374.504,122.500 373.095,119.200 372.403 C 110.479 370.576,100.787 365.222,97.052 360.169 C 96.162 358.966,93.492 356.942,91.117 355.672 C 75.105 347.105,53.017 325.139,44.673 309.482 C 43.265 306.841,40.981 303.717,39.598 302.540 C 34.260 297.998,29.546 289.920,28.078 282.800 C 27.171 278.398,23.942 266.469,19.850 252.400 C 18.954 249.320,16.927 244.550,15.344 241.800 L 12.468 236.800 6.234 236.800 L 0.000 236.800 0.000 254.800 M384.816 241.000 C 383.488 243.310,381.529 248.080,380.464 251.600 C 376.523 264.621,373.587 275.278,372.095 281.975 C 370.301 290.026,367.067 295.930,360.957 302.308 C 358.623 304.745,355.609 308.810,354.259 311.343 C 346.718 325.492,324.849 347.048,310.800 354.181 C 308.600 355.297,304.454 358.414,301.587 361.106 C 295.351 366.961,288.664 370.609,281.600 372.011 C 278.740 372.578,273.340 374.017,269.600 375.208 C 265.860 376.399,261.720 377.618,260.400 377.917 C 253.396 379.506,246.252 382.094,241.800 384.656 L 236.800 387.532 236.800 393.766 L 236.800 400.000 254.800 400.000 L 272.800 400.000 272.800 393.693 L 272.800 387.386 277.000 385.713 C 279.310 384.793,285.793 382.453,291.407 380.513 C 303.408 376.367,308.465 373.484,316.261 366.345 C 321.326 361.708,334.379 351.560,340.000 347.890 C 343.231 345.781,345.224 343.812,347.686 340.297 C 353.466 332.048,362.545 320.575,364.787 318.688 C 370.758 313.664,377.457 301.945,381.417 289.600 C 382.758 285.420,384.633 279.930,385.585 277.400 L 387.315 272.800 393.657 272.800 L 400.000 272.800 400.000 254.800 L 400.000 236.800 393.616 236.800 L 387.232 236.800 384.816 241.000 " stroke="none" fill="#b7c1db" fill-rule="evenodd"></path><path id="path4" d="M104.800 6.210 L 104.800 12.421 98.600 14.091 C 95.190 15.010,90.600 16.404,88.400 17.189 C 86.200 17.973,82.780 19.157,80.800 19.819 C 75.638 21.545,70.375 27.203,68.570 32.966 C 67.066 37.768,64.556 40.481,60.870 41.288 C 50.282 43.609,45.104 47.710,42.800 55.600 C 39.884 65.584,38.802 67.046,33.129 68.658 C 26.299 70.598,18.404 79.646,18.401 85.537 C 18.400 86.163,17.536 88.863,16.480 91.537 C 15.423 94.212,14.106 98.470,13.552 101.000 L 12.545 105.600 6.273 105.600 L 0.000 105.600 0.000 116.400 L 0.000 127.200 6.307 127.200 L 12.614 127.200 14.287 123.000 C 15.207 120.690,17.547 114.207,19.487 108.593 C 23.633 96.592,26.516 91.535,33.655 83.739 C 38.401 78.556,48.660 65.332,52.186 59.852 C 54.078 56.913,57.176 53.902,60.671 51.607 C 66.483 47.790,79.284 37.622,81.313 35.212 C 86.336 29.242,98.055 22.542,110.400 18.583 C 114.580 17.242,120.070 15.367,122.600 14.415 L 127.200 12.685 127.200 6.343 L 127.200 0.000 116.000 0.000 L 104.800 0.000 104.800 6.210 M272.800 6.313 L 272.800 12.626 276.200 14.014 C 278.070 14.777,283.916 16.811,289.191 18.533 C 301.980 22.707,317.095 31.445,318.682 35.582 C 319.030 36.488,333.048 47.337,340.703 52.624 C 344.083 54.959,345.041 55.917,347.376 59.297 C 352.663 66.952,363.512 80.970,364.418 81.318 C 368.248 82.787,377.255 97.912,380.785 108.800 C 382.140 112.980,384.169 118.830,385.294 121.800 L 387.340 127.200 393.670 127.200 L 400.000 127.200 400.000 116.400 L 400.000 105.600 393.689 105.600 L 387.378 105.600 386.840 102.600 C 383.582 84.443,376.451 72.059,367.363 68.778 C 362.141 66.892,359.503 64.480,358.712 60.870 C 356.159 49.222,348.793 41.600,340.088 41.600 C 336.792 41.600,333.384 38.111,331.102 32.400 C 327.452 23.262,315.419 16.393,297.400 13.160 L 294.400 12.622 294.400 6.311 L 294.400 0.000 283.600 0.000 L 272.800 0.000 272.800 6.313 M197.079 110.197 C 189.401 110.378,186.313 110.741,185.650 111.539 C 184.030 113.491,175.193 136.221,173.523 142.731 C 171.466 150.749,169.676 154.237,165.313 158.726 C 161.448 162.703,158.337 172.363,155.110 190.400 C 149.272 223.041,145.469 235.799,139.661 242.228 C 137.764 244.326,135.840 248.033,133.915 253.292 L 131.021 261.200 131.482 274.400 L 131.944 287.600 134.172 289.396 C 137.959 292.449,143.996 290.454,147.526 284.984 C 150.460 280.436,153.780 277.176,158.654 274.059 C 161.107 272.490,164.981 268.850,167.341 265.898 C 180.313 249.667,181.956 248.800,199.739 248.800 L 212.655 248.800 217.703 252.200 C 221.848 254.992,224.042 257.425,229.975 265.805 C 236.000 274.315,238.028 276.549,242.186 279.258 C 244.928 281.045,248.179 283.729,249.411 285.223 C 250.936 287.074,253.377 288.590,257.067 289.979 L 262.484 292.018 265.127 290.002 C 272.567 284.327,269.405 253.750,260.104 241.431 C 254.243 233.668,250.524 221.560,246.029 195.600 C 242.401 174.648,238.685 162.027,235.021 158.213 C 231.222 154.260,228.537 149.102,226.813 142.450 C 224.911 135.110,216.120 113.501,214.182 111.400 C 213.046 110.169,211.743 109.655,210.061 109.775 C 208.707 109.871,202.866 110.061,197.079 110.197 M214.597 132.600 C 216.807 138.296,216.671 151.491,214.311 160.310 L 213.479 163.420 207.132 162.985 C 203.641 162.746,197.716 161.706,193.964 160.675 L 187.142 158.800 185.967 154.782 C 183.456 146.195,183.311 138.273,185.559 132.453 L 187.588 127.200 200.045 127.200 L 212.501 127.200 214.597 132.600 M195.408 180.836 C 215.283 185.236,215.713 185.635,219.709 203.372 L 221.693 212.180 219.555 215.265 C 215.351 221.331,213.762 221.993,199.706 223.535 L 187.013 224.928 184.106 222.589 C 177.791 217.507,175.816 213.891,176.384 208.457 C 177.942 193.558,180.168 185.963,184.197 181.800 C 187.176 178.722,186.228 178.804,195.408 180.836 M239.536 198.400 C 240.254 205.220,241.206 214.940,241.653 220.000 C 242.100 225.060,242.808 231.360,243.227 234.000 C 243.645 236.640,243.991 242.256,243.994 246.481 C 244.004 259.406,244.942 260.606,255.623 261.359 C 262.047 261.813,262.400 261.935,262.400 263.699 C 262.400 265.400,262.211 265.488,260.200 264.719 C 258.990 264.256,254.040 263.673,249.200 263.424 C 237.525 262.824,237.305 262.720,236.082 257.256 C 233.110 243.972,222.864 239.612,196.000 240.199 C 176.924 240.616,172.109 241.936,165.884 248.456 C 161.487 253.062,161.347 253.061,158.977 248.389 C 156.290 243.091,156.407 235.537,159.608 207.600 C 160.213 202.320,160.952 195.205,161.249 191.788 C 162.367 178.957,164.633 183.931,166.037 202.296 C 168.153 229.960,172.343 234.405,196.292 234.395 C 226.430 234.383,231.313 229.779,233.516 199.300 C 234.968 179.213,237.478 178.838,239.536 198.400 M141.348 262.227 C 141.985 262.632,141.544 263.262,140.007 264.144 C 137.995 265.299,137.661 265.312,137.256 264.257 C 136.372 261.955,138.927 260.688,141.348 262.227 M0.000 284.000 L 0.000 295.200 6.210 295.200 L 12.421 295.200 14.123 301.400 C 19.866 322.309,22.955 327.329,32.400 331.102 C 38.111 333.384,41.600 336.792,41.600 340.088 C 41.600 348.793,49.222 356.159,60.870 358.712 C 64.480 359.503,66.892 362.141,68.778 367.363 C 72.156 376.720,77.630 380.118,98.600 385.877 L 104.800 387.579 104.800 393.790 L 104.800 400.000 116.000 400.000 L 127.200 400.000 127.200 393.657 L 127.200 387.315 122.600 385.585 C 120.070 384.633,114.580 382.758,110.400 381.417 C 98.197 377.503,84.699 369.625,81.290 364.427 C 80.704 363.532,75.772 359.560,70.330 355.600 C 57.921 346.569,53.431 342.079,44.400 329.670 C 40.440 324.228,36.468 319.296,35.573 318.710 C 30.375 315.301,22.497 301.803,18.583 289.600 C 17.242 285.420,15.367 279.930,14.415 277.400 L 12.685 272.800 6.343 272.800 L 0.000 272.800 0.000 284.000 M385.585 277.400 C 384.633 279.930,382.758 285.420,381.417 289.600 C 377.457 301.945,370.758 313.664,364.787 318.688 C 362.545 320.575,353.466 332.048,347.686 340.297 C 345.224 343.812,343.231 345.781,340.000 347.890 C 334.379 351.560,321.326 361.708,316.261 366.345 C 308.465 373.484,303.408 376.367,291.407 380.513 C 285.793 382.453,279.310 384.793,277.000 385.713 L 272.800 387.386 272.800 393.693 L 272.800 400.000 283.600 400.000 L 294.400 400.000 294.400 393.727 L 294.400 387.455 299.000 386.448 C 301.530 385.894,305.788 384.577,308.463 383.520 C 311.137 382.464,313.837 381.600,314.463 381.599 C 320.354 381.596,329.402 373.701,331.342 366.871 C 332.954 361.198,334.416 360.116,344.400 357.200 C 352.290 354.896,356.391 349.718,358.712 339.130 C 359.519 335.444,362.232 332.934,367.034 331.430 C 372.797 329.625,378.455 324.362,380.181 319.200 C 380.843 317.220,382.027 313.800,382.811 311.600 C 383.596 309.400,384.990 304.810,385.909 301.400 L 387.579 295.200 393.790 295.200 L 400.000 295.200 400.000 284.000 L 400.000 272.800 393.657 272.800 L 387.315 272.800 385.585 277.400 " stroke="none" fill="#e1e5ef" fill-rule="evenodd"></path></g></svg>