<svg id="svg" version="1.1" width="500" height="500" xmlns="http://www.w3.org/2000/svg" xmlns:xlink="http://www.w3.org/1999/xlink" style="display: block;"><g id="svgg"><path id="path0" d="M179.200 6.361 L 179.200 12.722 174.200 15.478 C 164.033 21.082,147.289 25.224,124.591 27.751 L 111.983 29.154 106.655 32.787 C 103.386 35.016,101.107 37.188,100.758 38.410 C 100.445 39.504,99.772 41.928,99.263 43.795 C 98.242 47.544,96.169 49.066,90.772 50.029 C 85.219 51.020,75.761 58.817,70.936 66.381 C 69.960 67.910,67.910 69.960,66.381 70.936 C 61.227 74.223,59.312 76.021,55.209 81.421 L 51.123 86.800 51.366 92.964 C 51.764 103.080,57.329 104.549,70.447 97.998 C 85.502 90.480,86.791 89.461,90.454 82.198 C 94.027 75.112,97.230 70.130,101.345 65.256 C 102.805 63.527,104.000 61.654,104.000 61.094 C 104.000 57.399,109.419 52.927,112.653 53.953 C 113.430 54.200,116.425 56.831,119.310 59.801 C 122.909 63.506,126.580 66.273,131.009 68.619 L 137.462 72.038 143.578 69.609 C 152.556 66.042,157.685 63.331,160.481 60.674 C 162.685 58.580,164.339 58.059,175.263 56.014 L 187.563 53.712 191.267 55.305 C 199.859 59.001,201.726 62.903,202.825 79.457 C 203.795 94.079,207.228 96.996,224.959 98.264 C 245.837 99.758,248.612 103.013,248.988 126.443 L 249.200 139.687 246.783 143.616 C 245.453 145.777,242.753 148.766,240.783 150.258 C 230.886 157.754,231.047 167.076,241.151 171.544 C 246.894 174.084,251.278 178.229,253.636 183.347 C 256.571 189.717,258.716 191.117,269.880 193.949 C 273.971 194.987,279.685 196.783,282.579 197.941 C 285.766 199.216,292.753 200.815,300.301 201.997 C 322.447 205.464,324.408 207.645,326.290 230.890 C 327.026 239.986,332.831 252.990,339.007 259.382 L 341.889 262.364 340.490 268.582 C 339.721 272.002,338.426 277.860,337.613 281.600 C 336.639 286.080,334.201 292.536,330.467 300.522 C 324.526 313.230,323.943 315.909,325.313 324.200 L 325.809 327.200 331.905 327.197 L 338.000 327.194 341.656 322.597 C 347.441 315.324,348.791 313.120,350.044 308.903 C 351.387 304.380,355.013 300.714,359.659 299.180 C 368.184 296.367,371.495 286.681,374.419 256.000 C 376.067 238.708,378.042 232.557,384.030 226.060 L 387.404 222.400 393.702 222.400 L 400.000 222.400 400.000 200.000 L 400.000 177.600 393.667 177.600 L 387.334 177.600 384.977 174.600 C 380.331 168.688,377.776 161.102,375.226 145.648 C 370.197 115.171,366.628 104.582,360.679 102.486 C 356.735 101.096,352.185 96.177,350.749 91.750 C 349.603 88.217,345.048 81.343,339.443 74.686 C 338.649 73.744,336.883 72.412,335.519 71.727 C 332.917 70.421,328.000 65.324,328.000 63.934 C 328.000 61.651,313.698 51.019,308.250 49.251 C 303.823 47.815,298.904 43.265,297.514 39.321 C 295.409 33.348,285.935 30.159,254.000 24.675 C 229.273 20.429,223.200 16.865,223.200 6.600 L 223.200 0.000 201.200 0.000 L 179.200 0.000 179.200 6.361 M33.667 107.101 C 30.911 111.160,30.305 112.880,29.226 119.701 C 24.740 148.071,19.875 166.868,14.760 175.596 L 12.648 179.200 6.324 179.200 L 0.000 179.200 0.000 200.800 L 0.000 222.400 6.329 222.400 C 16.804 222.400,21.891 231.250,25.124 255.096 C 28.858 282.637,33.169 294.913,40.228 298.101 C 44.368 299.970,48.295 304.539,49.519 308.909 C 50.822 313.564,58.415 323.462,63.611 327.281 C 68.552 330.912,69.088 331.448,72.719 336.389 C 76.654 341.744,86.219 348.999,91.566 350.684 C 96.128 352.122,101.062 356.638,102.486 360.679 C 104.545 366.521,116.396 370.577,144.000 374.886 C 168.516 378.712,176.800 383.477,176.800 393.750 L 176.800 400.000 199.600 400.000 L 222.400 400.000 222.400 393.605 L 222.400 387.210 225.567 384.916 C 228.943 382.470,230.244 381.903,238.400 379.318 C 244.753 377.306,263.994 373.371,277.873 371.246 C 291.725 369.125,296.575 366.215,299.506 358.263 C 301.101 353.939,306.609 348.433,310.109 347.664 C 311.395 347.381,315.243 344.970,318.660 342.306 L 324.873 337.461 324.636 332.531 L 324.400 327.600 319.037 327.364 C 314.745 327.176,312.349 327.596,307.037 329.468 C 303.387 330.755,297.520 332.437,294.000 333.206 C 286.053 334.942,284.160 336.032,281.462 340.421 C 276.588 348.352,266.942 352.665,257.144 351.297 C 241.053 349.050,232.511 345.733,227.834 339.913 C 224.436 335.684,217.342 331.803,208.475 329.321 C 196.587 325.993,195.783 324.926,191.140 306.332 L 187.852 293.163 183.251 288.253 C 177.279 281.879,173.600 272.657,173.600 264.062 C 173.600 262.162,169.582 257.383,165.491 254.415 L 162.581 252.305 149.952 253.754 C 136.827 255.260,115.826 260.917,113.657 263.532 C 112.855 264.497,111.883 264.260,107.240 261.966 C 100.160 258.466,98.593 255.980,97.020 245.754 C 95.741 237.437,93.939 232.975,90.048 228.497 L 87.600 225.679 75.200 224.744 C 62.519 223.786,60.460 223.230,56.140 219.595 C 43.590 209.035,45.079 177.877,58.705 165.958 C 60.911 164.028,62.555 162.334,62.358 162.192 C 49.110 152.681,45.358 142.138,48.482 123.200 C 51.549 104.607,50.826 102.400,41.666 102.400 L 36.860 102.400 33.667 107.101 M133.600 131.433 C 127.992 135.695,127.172 137.003,125.599 144.201 C 124.790 147.903,123.235 153.597,122.143 156.853 C 120.221 162.582,120.203 162.838,121.576 164.787 C 123.971 168.185,126.908 174.492,129.220 181.200 C 133.380 193.271,134.690 193.575,159.914 188.320 C 162.724 187.734,168.303 177.785,172.428 166.000 C 174.288 160.689,172.404 138.983,169.795 135.667 C 165.207 129.833,164.461 129.584,150.252 129.122 L 137.200 128.698 133.600 131.433 M256.383 256.233 C 253.734 257.662,250.428 259.641,249.037 260.631 L 246.509 262.432 253.054 275.141 C 262.396 293.280,263.054 293.392,267.994 277.695 C 272.945 261.962,272.948 263.010,267.940 257.939 C 262.931 252.867,262.692 252.832,256.383 256.233 " stroke="none" fill="#e84942" fill-rule="evenodd"></path><path id="path1" d="M152.000 6.294 L 152.000 12.588 145.800 14.631 C 138.216 17.131,128.882 19.531,118.578 21.630 C 107.237 23.941,101.681 26.915,94.000 34.788 C 90.480 38.395,84.842 43.193,81.471 45.450 C 68.355 54.230,48.728 74.831,43.194 85.626 C 42.397 87.180,40.200 89.880,38.312 91.626 C 28.938 100.291,23.990 107.803,22.783 115.200 C 21.986 120.079,16.333 140.910,14.261 146.600 L 12.586 151.200 6.293 151.200 L 0.000 151.200 0.000 165.200 L 0.000 179.200 6.324 179.200 L 12.648 179.200 14.760 175.596 C 19.875 166.868,24.740 148.071,29.226 119.701 C 30.305 112.880,30.911 111.160,33.667 107.101 L 36.860 102.400 41.666 102.400 C 50.826 102.400,51.549 104.607,48.482 123.200 C 45.358 142.138,49.110 152.681,62.358 162.192 C 62.555 162.334,60.911 164.028,58.705 165.958 C 47.321 175.917,43.826 201.575,52.043 214.870 C 56.409 221.934,60.374 223.624,75.200 224.744 L 87.600 225.679 90.048 228.497 C 93.939 232.975,95.741 237.437,97.020 245.754 C 98.593 255.980,100.160 258.466,107.240 261.966 C 111.883 264.260,112.855 264.497,113.657 263.532 C 115.826 260.917,136.827 255.260,149.952 253.754 L 162.581 252.305 165.491 254.415 C 169.582 257.383,173.600 262.162,173.600 264.062 C 173.600 272.657,177.279 281.879,183.251 288.253 L 187.852 293.163 191.140 306.332 C 195.783 324.926,196.587 325.993,208.475 329.321 C 217.342 331.803,224.436 335.684,227.834 339.913 C 232.511 345.733,241.053 349.050,257.144 351.297 C 266.942 352.665,276.588 348.352,281.462 340.421 C 284.160 336.032,286.053 334.942,294.000 333.206 C 297.520 332.437,303.387 330.755,307.037 329.468 C 312.349 327.596,314.745 327.176,319.037 327.364 L 324.400 327.600 324.636 332.531 L 324.873 337.461 318.660 342.306 C 315.243 344.970,311.395 347.381,310.109 347.664 C 306.609 348.433,301.101 353.939,299.506 358.263 C 296.575 366.215,291.725 369.125,277.873 371.246 C 263.994 373.371,244.753 377.306,238.400 379.318 C 230.244 381.903,228.943 382.470,225.567 384.916 L 222.400 387.210 222.400 393.605 L 222.400 400.000 235.600 400.000 L 248.800 400.000 248.800 393.707 L 248.800 387.414 253.400 385.752 C 259.600 383.512,274.149 379.536,282.000 377.937 C 291.636 375.974,299.662 371.485,306.229 364.386 C 309.184 361.192,317.424 354.214,324.548 348.874 C 339.071 337.988,346.261 330.727,352.800 320.348 C 355.419 316.191,360.143 310.416,364.471 306.082 C 372.865 297.674,376.025 292.065,378.037 282.000 C 379.732 273.523,383.796 258.243,385.750 253.000 L 387.315 248.800 393.657 248.800 L 400.000 248.800 400.000 235.600 L 400.000 222.400 393.702 222.400 L 387.404 222.400 384.030 226.060 C 378.042 232.557,376.067 238.708,374.419 256.000 C 371.495 286.681,368.184 296.367,359.659 299.180 C 355.013 300.714,351.387 304.380,350.044 308.903 C 348.791 313.120,347.441 315.324,341.656 322.597 L 338.000 327.194 331.905 327.197 L 325.809 327.200 325.313 324.200 C 323.943 315.909,324.526 313.230,330.467 300.522 C 334.201 292.536,336.639 286.080,337.613 281.600 C 338.426 277.860,339.721 272.002,340.490 268.582 L 341.889 262.364 339.007 259.382 C 332.831 252.990,327.026 239.986,326.290 230.890 C 324.408 207.645,322.447 205.464,300.301 201.997 C 292.753 200.815,285.766 199.216,282.579 197.941 C 279.685 196.783,273.971 194.987,269.880 193.949 C 258.716 191.117,256.571 189.717,253.636 183.347 C 251.278 178.229,246.894 174.084,241.151 171.544 C 231.047 167.076,230.886 157.754,240.783 150.258 C 242.753 148.766,245.453 145.777,246.783 143.616 L 249.200 139.687 248.988 126.443 C 248.612 103.013,245.837 99.758,224.959 98.264 C 207.228 96.996,203.795 94.079,202.825 79.457 C 201.726 62.903,199.859 59.001,191.267 55.305 L 187.563 53.712 175.263 56.014 C 164.339 58.059,162.685 58.580,160.481 60.674 C 157.685 63.331,152.556 66.042,143.578 69.609 L 137.462 72.038 131.009 68.619 C 126.580 66.273,122.909 63.506,119.310 59.801 C 116.425 56.831,113.430 54.200,112.653 53.953 C 109.419 52.927,104.000 57.399,104.000 61.094 C 104.000 61.654,102.805 63.527,101.345 65.256 C 97.230 70.130,94.027 75.112,90.454 82.198 C 86.791 89.461,85.502 90.480,70.447 97.998 C 57.329 104.549,51.764 103.080,51.366 92.964 L 51.123 86.800 55.209 81.421 C 59.312 76.021,61.227 74.223,66.381 70.936 C 67.910 69.960,69.960 67.910,70.936 66.381 C 75.761 58.817,85.219 51.020,90.772 50.029 C 96.169 49.066,98.242 47.544,99.263 43.795 C 99.772 41.928,100.445 39.504,100.758 38.410 C 101.107 37.188,103.386 35.016,106.655 32.787 L 111.983 29.154 124.591 27.751 C 147.289 25.224,164.033 21.082,174.200 15.478 L 179.200 12.722 179.200 6.361 L 179.200 0.000 165.600 0.000 L 152.000 0.000 152.000 6.294 M223.200 6.600 C 223.200 16.865,229.273 20.429,254.000 24.675 C 285.935 30.159,295.409 33.348,297.514 39.321 C 298.904 43.265,303.823 47.815,308.250 49.251 C 311.783 50.397,318.657 54.952,325.314 60.557 C 326.256 61.351,327.588 63.117,328.273 64.481 C 329.579 67.083,334.676 72.000,336.066 72.000 C 338.349 72.000,348.981 86.302,350.749 91.750 C 352.185 96.177,356.735 101.096,360.679 102.486 C 366.628 104.582,370.197 115.171,375.226 145.648 C 377.776 161.102,380.331 168.688,384.977 174.600 L 387.334 177.600 393.667 177.600 L 400.000 177.600 400.000 164.400 L 400.000 151.200 393.666 151.200 L 387.331 151.200 385.321 145.000 C 382.429 136.080,379.561 126.219,377.585 118.400 C 375.121 108.651,371.693 102.293,365.115 95.270 C 361.989 91.931,357.709 86.500,355.606 83.200 C 346.215 68.467,331.606 53.862,316.800 44.403 C 313.500 42.294,308.069 38.011,304.730 34.885 C 297.707 28.307,291.349 24.879,281.600 22.415 C 273.781 20.439,263.920 17.571,255.000 14.679 L 248.800 12.669 248.800 6.334 L 248.800 0.000 236.000 0.000 L 223.200 0.000 223.200 6.600 M130.978 76.712 L 137.557 79.362 145.378 76.790 C 149.680 75.375,155.388 73.229,158.062 72.022 C 161.913 70.282,164.656 69.714,171.262 69.290 C 175.848 68.995,181.452 68.547,183.716 68.295 C 188.884 67.719,190.763 70.030,194.445 81.489 C 199.880 98.407,205.170 103.684,219.833 106.813 C 224.545 107.819,230.433 109.409,232.917 110.347 L 237.434 112.053 238.012 124.390 L 238.590 136.726 235.717 140.640 C 222.883 158.124,223.288 166.574,237.644 180.800 C 241.418 184.540,245.464 188.916,246.636 190.524 C 249.557 194.534,252.676 196.285,263.288 199.872 C 272.889 203.117,281.144 206.961,285.276 210.112 C 286.637 211.150,288.204 212.000,288.758 212.000 C 291.098 212.000,304.561 217.046,308.488 219.395 C 313.208 222.218,314.105 223.797,317.941 236.034 C 319.119 239.793,322.320 247.372,325.055 252.878 L 330.028 262.888 328.207 275.477 C 326.694 285.942,325.936 288.972,323.716 293.433 C 322.248 296.385,319.672 302.147,317.993 306.238 C 313.836 316.368,309.428 319.650,292.000 325.597 C 282.547 328.822,279.264 330.720,272.933 336.615 C 262.281 346.533,255.688 345.520,229.600 329.959 C 226.300 327.990,220.256 325.082,216.168 323.495 C 203.947 318.751,202.513 316.843,198.455 299.939 C 194.881 285.051,194.555 284.232,188.450 274.800 C 186.172 271.280,183.094 265.574,181.611 262.120 C 175.687 248.325,168.533 244.323,151.304 245.169 C 139.673 245.740,137.419 246.173,117.453 251.671 C 110.099 253.697,107.391 251.147,102.413 237.507 C 96.852 222.268,91.759 217.446,78.350 214.726 C 64.725 211.961,62.741 210.748,59.504 203.200 C 53.446 189.075,54.086 184.652,63.800 173.514 C 66.136 170.836,68.774 167.220,69.662 165.479 L 71.277 162.313 69.464 159.380 C 68.467 157.767,65.630 154.216,63.158 151.489 C 53.375 140.694,52.723 136.472,58.516 121.432 C 61.503 113.677,62.562 112.485,68.000 110.765 C 84.781 105.456,90.203 101.090,96.291 87.983 C 98.614 82.982,103.555 75.723,108.650 69.825 L 112.101 65.831 118.250 69.946 C 121.633 72.209,127.360 75.254,130.978 76.712 M132.410 124.921 C 125.395 128.577,119.157 135.355,117.367 141.267 C 116.578 143.870,114.081 149.669,111.818 154.153 L 107.703 162.306 113.013 170.181 C 115.934 174.513,119.447 180.458,120.820 183.392 C 126.310 195.124,133.575 199.807,144.240 198.490 C 166.091 195.792,168.527 194.565,174.045 183.484 C 180.256 171.011,183.165 162.744,182.371 159.821 C 181.979 158.379,180.784 152.429,179.714 146.598 C 176.249 127.707,171.209 123.632,150.400 122.894 L 137.200 122.425 132.410 124.921 M165.783 131.631 C 170.938 135.969,171.244 136.788,172.579 149.808 C 174.024 163.905,174.105 163.497,166.828 178.877 C 162.915 187.148,162.442 187.793,159.914 188.320 C 134.690 193.575,133.380 193.271,129.220 181.200 C 126.908 174.492,123.971 168.185,121.576 164.787 C 120.203 162.838,120.221 162.582,122.143 156.853 C 123.235 153.597,124.790 147.903,125.599 144.201 C 127.172 137.003,127.992 135.695,133.600 131.433 L 137.200 128.698 150.252 129.122 C 162.857 129.531,163.390 129.618,165.783 131.631 M0.000 236.000 L 0.000 249.600 6.313 249.600 L 12.626 249.600 13.821 252.600 C 15.305 256.325,20.097 272.513,22.406 281.600 C 24.879 291.332,28.315 297.713,34.864 304.730 C 37.979 308.069,42.535 313.860,44.988 317.600 C 53.859 331.128,68.872 346.141,82.400 355.012 C 86.140 357.465,91.931 362.021,95.270 365.136 C 102.287 371.685,108.668 375.121,118.400 377.594 C 127.487 379.903,143.675 384.695,147.400 386.179 L 150.400 387.374 150.400 393.687 L 150.400 400.000 163.600 400.000 L 176.800 400.000 176.800 393.750 C 176.800 383.477,168.516 378.712,144.000 374.886 C 116.396 370.577,104.545 366.521,102.486 360.679 C 101.062 356.638,96.128 352.122,91.566 350.684 C 86.219 348.999,76.654 341.744,72.719 336.389 C 69.088 331.448,68.552 330.912,63.611 327.281 C 58.415 323.462,50.822 313.564,49.519 308.909 C 48.295 304.539,44.368 299.970,40.228 298.101 C 33.169 294.913,28.858 282.637,25.124 255.096 C 21.891 231.250,16.804 222.400,6.329 222.400 L 0.000 222.400 0.000 236.000 M254.736 249.092 C 248.244 251.767,240.748 256.394,236.540 260.325 L 234.279 262.436 239.951 273.217 C 248.790 290.020,249.275 290.610,257.989 295.194 L 262.557 297.597 265.079 295.870 C 272.722 290.634,273.735 288.811,277.165 274.123 C 280.174 261.237,280.160 261.142,274.271 254.753 C 266.530 246.355,263.507 245.479,254.736 249.092 M267.940 257.939 C 272.948 263.010,272.945 261.962,267.994 277.695 C 263.054 293.392,262.396 293.280,253.054 275.141 L 246.509 262.432 249.037 260.631 C 259.856 252.928,262.604 252.536,267.940 257.939 " stroke="none" fill="#ed807c" fill-rule="evenodd"></path><path id="path2" d="M131.200 6.307 C 131.200 11.621,130.980 12.679,129.800 13.029 C 129.030 13.258,122.935 14.902,116.255 16.683 C 100.503 20.883,95.743 23.337,87.213 31.657 C 83.466 35.312,78.394 39.674,75.942 41.351 C 60.658 51.804,50.566 62.105,41.193 76.817 C 39.096 80.108,34.576 85.550,31.147 88.912 C 23.406 96.500,21.098 100.925,16.751 116.511 C 14.927 123.050,13.250 129.030,13.024 129.800 C 12.678 130.980,11.623 131.200,6.307 131.200 L 0.000 131.200 0.000 141.200 L 0.000 151.200 6.293 151.200 L 12.586 151.200 14.261 146.600 C 16.333 140.910,21.986 120.079,22.783 115.200 C 23.990 107.803,28.938 100.291,38.312 91.626 C 40.200 89.880,42.397 87.180,43.194 85.626 C 48.728 74.831,68.355 54.230,81.471 45.450 C 84.842 43.193,90.480 38.395,94.000 34.788 C 101.681 26.915,107.237 23.941,118.578 21.630 C 128.882 19.531,138.216 17.131,145.800 14.631 L 152.000 12.588 152.000 6.294 L 152.000 0.000 141.600 0.000 L 131.200 0.000 131.200 6.307 M248.800 6.334 L 248.800 12.669 255.000 14.679 C 263.920 17.571,273.781 20.439,281.600 22.415 C 291.349 24.879,297.707 28.307,304.730 34.885 C 308.069 38.011,313.500 42.291,316.800 44.394 C 331.533 53.785,346.138 68.394,355.597 83.200 C 357.706 86.500,361.989 91.931,365.115 95.270 C 371.693 102.293,375.121 108.651,377.585 118.400 C 379.561 126.219,382.429 136.080,385.321 145.000 L 387.331 151.200 393.666 151.200 L 400.000 151.200 400.000 140.800 L 400.000 130.400 393.634 130.400 L 387.269 130.400 384.906 122.600 C 383.606 118.310,381.945 112.677,381.215 110.083 C 378.711 101.186,375.286 95.252,368.693 88.385 C 365.259 84.808,360.654 79.208,358.460 75.941 C 346.903 58.732,341.204 53.033,324.059 41.535 C 320.792 39.343,315.192 34.741,311.615 31.307 C 304.748 24.714,298.814 21.289,289.917 18.785 C 287.323 18.055,281.690 16.394,277.400 15.094 L 269.600 12.731 269.600 6.366 L 269.600 0.000 259.200 0.000 L 248.800 0.000 248.800 6.334 M108.650 69.825 C 103.555 75.723,98.614 82.982,96.291 87.983 C 90.203 101.090,84.781 105.456,68.000 110.765 C 62.562 112.485,61.503 113.677,58.516 121.432 C 52.723 136.472,53.375 140.694,63.158 151.489 C 65.630 154.216,68.467 157.767,69.464 159.380 L 71.277 162.313 69.662 165.479 C 68.774 167.220,66.136 170.836,63.800 173.514 C 54.086 184.652,53.446 189.075,59.504 203.200 C 62.741 210.748,64.725 211.961,78.350 214.726 C 91.759 217.446,96.852 222.268,102.413 237.507 C 107.391 251.147,110.099 253.697,117.453 251.671 C 137.419 246.173,139.673 245.740,151.304 245.169 C 168.533 244.323,175.687 248.325,181.611 262.120 C 183.094 265.574,186.172 271.280,188.450 274.800 C 194.555 284.232,194.881 285.051,198.455 299.939 C 202.513 316.843,203.947 318.751,216.168 323.495 C 220.256 325.082,226.300 327.990,229.600 329.959 C 255.688 345.520,262.281 346.533,272.933 336.615 C 279.264 330.720,282.547 328.822,292.000 325.597 C 309.428 319.650,313.836 316.368,317.993 306.238 C 319.672 302.147,322.248 296.385,323.716 293.433 C 325.936 288.972,326.694 285.942,328.207 275.477 L 330.028 262.888 325.055 252.878 C 322.320 247.372,319.119 239.793,317.941 236.034 C 314.105 223.797,313.208 222.218,308.488 219.395 C 304.561 217.046,291.098 212.000,288.758 212.000 C 288.204 212.000,286.637 211.150,285.276 210.112 C 281.144 206.961,272.889 203.117,263.288 199.872 C 252.676 196.285,249.557 194.534,246.636 190.524 C 245.464 188.916,241.418 184.540,237.644 180.800 C 223.288 166.574,222.883 158.124,235.717 140.640 L 238.590 136.726 238.012 124.390 L 237.434 112.053 232.917 110.347 C 230.433 109.409,224.545 107.819,219.833 106.813 C 205.170 103.684,199.880 98.407,194.445 81.489 C 190.763 70.030,188.884 67.719,183.716 68.295 C 181.452 68.547,175.848 68.995,171.262 69.290 C 164.656 69.714,161.913 70.282,158.062 72.022 C 155.388 73.229,149.680 75.375,145.378 76.790 L 137.557 79.362 130.978 76.712 C 127.360 75.254,121.633 72.209,118.250 69.946 L 112.101 65.831 108.650 69.825 M119.854 78.686 C 134.754 85.938,139.258 86.029,157.784 79.449 C 163.466 77.431,164.709 77.444,183.039 79.708 C 187.914 80.311,188.168 80.638,191.514 90.615 C 195.591 102.771,202.740 109.647,213.423 111.686 C 218.020 112.563,223.093 120.130,226.413 131.063 L 228.188 136.906 225.728 142.253 C 224.375 145.194,222.372 150.954,221.278 155.052 L 219.287 162.505 221.160 168.039 C 223.640 175.370,226.670 180.479,230.926 184.506 C 234.147 187.553,234.476 188.242,235.131 193.306 C 236.559 204.351,236.691 204.441,252.464 205.174 C 265.778 205.792,274.328 209.080,278.577 215.213 C 280.306 217.709,282.596 219.267,289.712 222.785 C 305.732 230.706,310.436 235.454,316.277 249.600 C 318.366 254.660,320.529 259.625,321.084 260.633 C 323.911 265.776,316.094 296.385,310.241 303.089 C 308.949 304.568,307.107 307.399,306.146 309.380 C 304.104 313.591,296.079 318.147,284.000 321.951 C 273.913 325.127,267.516 329.648,263.483 336.453 C 262.805 337.595,262.260 337.790,261.402 337.200 C 253.360 331.666,250.793 330.190,246.000 328.344 C 242.920 327.157,236.800 324.647,232.400 322.765 C 228.000 320.883,222.060 318.718,219.200 317.955 C 216.340 317.192,212.837 315.875,211.416 315.028 C 208.546 313.319,208.710 313.793,204.880 296.123 C 201.827 282.042,198.725 274.088,193.479 266.889 C 191.270 263.858,188.367 258.507,187.027 254.997 C 184.115 247.372,181.328 243.968,176.184 241.755 C 165.458 237.141,142.868 237.222,124.800 241.940 C 118.860 243.491,113.555 244.769,113.011 244.780 C 111.408 244.813,107.982 238.915,106.677 233.876 C 103.284 220.768,94.734 210.551,82.000 204.387 C 70.421 198.782,62.694 193.314,61.579 189.937 L 60.639 187.087 66.650 181.344 C 81.006 167.628,80.137 152.926,64.397 143.198 C 60.508 140.795,59.540 137.797,61.119 133.044 C 62.472 128.972,63.629 128.093,83.154 116.310 C 92.993 110.373,98.808 102.750,102.035 91.558 C 103.442 86.681,104.673 84.529,109.452 78.600 C 112.735 74.527,111.283 74.515,119.854 78.686 M132.777 118.700 C 123.470 122.306,118.308 126.293,114.592 132.745 C 113.435 134.755,111.386 137.712,110.040 139.315 C 107.067 142.855,103.146 150.602,100.817 157.536 L 99.091 162.672 102.035 168.628 C 103.768 172.135,106.773 176.437,109.344 179.092 C 111.745 181.571,114.760 185.697,116.044 188.260 C 123.091 202.330,130.587 205.702,150.326 203.681 C 172.144 201.447,175.427 199.085,183.311 179.948 C 185.846 173.793,188.586 168.588,190.497 166.297 L 193.586 162.595 190.413 157.920 C 187.870 154.173,186.815 151.413,185.100 144.022 C 181.491 128.468,178.154 123.457,169.092 119.987 C 163.132 117.705,137.673 116.803,132.777 118.700 M167.734 125.810 C 175.073 130.156,177.456 134.291,179.714 146.598 C 180.784 152.429,181.979 158.379,182.371 159.821 C 183.165 162.744,180.256 171.011,174.045 183.484 C 168.527 194.565,166.091 195.792,144.240 198.490 C 133.575 199.807,126.310 195.124,120.820 183.392 C 119.447 180.458,115.934 174.513,113.013 170.181 L 107.703 162.306 111.818 154.153 C 114.081 149.669,116.578 143.870,117.367 141.267 C 119.157 135.355,125.395 128.577,132.410 124.921 L 137.200 122.425 150.400 122.894 C 163.307 123.352,163.692 123.417,167.734 125.810 M211.983 212.011 C 209.588 213.491,212.806 214.489,216.494 213.410 L 220.400 212.267 216.541 211.923 C 214.418 211.734,212.367 211.773,211.983 212.011 M253.200 243.144 C 224.853 252.995,219.495 265.009,235.017 283.909 C 236.658 285.907,238.952 289.037,240.116 290.866 C 246.024 300.150,260.044 305.323,268.322 301.273 C 276.909 297.072,280.282 291.058,283.699 273.860 L 285.951 262.520 283.608 257.618 C 277.218 244.248,265.743 238.786,253.200 243.144 M267.269 248.844 C 271.542 251.586,276.867 257.050,278.637 260.509 C 279.712 262.610,279.591 263.737,277.165 274.123 C 273.735 288.811,272.722 290.634,265.079 295.870 L 262.557 297.597 257.989 295.194 C 249.275 290.610,248.790 290.020,239.951 273.217 L 234.279 262.436 236.540 260.325 C 240.748 256.394,248.244 251.767,254.736 249.092 C 262.649 245.832,262.578 245.834,267.269 248.844 M385.750 253.000 C 383.796 258.243,379.732 273.523,378.037 282.000 C 376.025 292.065,372.865 297.674,364.471 306.082 C 360.143 310.416,355.419 316.191,352.800 320.348 C 346.261 330.727,339.071 337.988,324.548 348.874 C 317.424 354.214,309.184 361.192,306.229 364.386 C 299.662 371.485,291.636 375.974,282.000 377.937 C 274.149 379.536,259.600 383.512,253.400 385.752 L 248.800 387.414 248.800 393.707 L 248.800 400.000 258.800 400.000 L 268.800 400.000 268.800 393.693 C 268.800 388.377,269.020 387.322,270.200 386.976 C 270.970 386.750,277.000 385.061,283.600 383.223 C 299.595 378.768,303.956 376.582,311.678 369.149 C 317.467 363.576,331.401 352.570,339.833 346.910 C 343.345 344.553,352.524 333.050,359.019 322.866 C 361.007 319.750,365.592 314.320,369.207 310.800 C 376.698 303.506,379.608 298.290,382.370 287.200 C 383.301 283.460,384.822 277.790,385.748 274.600 L 387.433 268.800 393.717 268.800 L 400.000 268.800 400.000 258.800 L 400.000 248.800 393.657 248.800 L 387.315 248.800 385.750 253.000 M0.000 259.600 L 0.000 269.600 6.366 269.600 L 12.731 269.600 15.094 277.400 C 16.394 281.690,18.055 287.323,18.785 289.917 C 21.264 298.726,24.726 304.757,31.202 311.556 C 34.579 315.100,38.897 320.340,40.798 323.200 C 50.631 337.995,62.535 349.916,76.400 358.855 C 79.040 360.557,84.272 364.868,88.028 368.435 C 95.227 375.274,101.131 378.695,110.083 381.215 C 112.677 381.945,118.310 383.606,122.600 384.906 L 130.400 387.269 130.400 393.634 L 130.400 400.000 140.400 400.000 L 150.400 400.000 150.400 393.687 L 150.400 387.374 147.400 386.179 C 143.675 384.695,127.487 379.903,118.400 377.594 C 108.668 375.121,102.287 371.685,95.270 365.136 C 91.931 362.021,86.140 357.465,82.400 355.012 C 68.872 346.141,53.859 331.128,44.988 317.600 C 42.535 313.860,37.979 308.069,34.864 304.730 C 28.315 297.713,24.879 291.332,22.406 281.600 C 20.097 272.513,15.305 256.325,13.821 252.600 L 12.626 249.600 6.313 249.600 L 0.000 249.600 0.000 259.600 " stroke="none" fill="#f2aeac" fill-rule="evenodd"></path><path id="path3" d="M112.800 6.262 L 112.800 12.523 106.460 13.494 C 88.265 16.279,73.292 24.995,70.303 34.542 C 69.376 37.503,62.576 43.190,59.941 43.208 C 53.708 43.250,43.315 53.642,43.218 59.930 C 43.166 63.220,38.082 68.939,33.008 71.412 C 24.612 75.506,16.565 89.473,13.728 104.875 L 12.415 112.000 6.208 112.000 L 0.000 112.000 0.000 121.600 L 0.000 131.200 6.307 131.200 C 11.623 131.200,12.678 130.980,13.024 129.800 C 13.250 129.030,14.927 123.050,16.751 116.511 C 21.098 100.925,23.406 96.500,31.147 88.912 C 34.576 85.550,39.096 80.108,41.193 76.817 C 50.566 62.105,60.658 51.804,75.942 41.351 C 78.394 39.674,83.466 35.312,87.213 31.657 C 95.743 23.337,100.503 20.883,116.255 16.683 C 122.935 14.902,129.030 13.258,129.800 13.029 C 130.980 12.679,131.200 11.621,131.200 6.307 L 131.200 0.000 122.000 0.000 L 112.800 0.000 112.800 6.262 M269.600 6.366 L 269.600 12.731 277.400 15.094 C 281.690 16.394,287.323 18.055,289.917 18.785 C 298.814 21.289,304.748 24.714,311.615 31.307 C 315.192 34.741,320.792 39.343,324.059 41.535 C 341.204 53.033,346.903 58.732,358.460 75.941 C 360.654 79.208,365.259 84.808,368.693 88.385 C 375.286 95.252,378.711 101.186,381.215 110.083 C 381.945 112.677,383.606 118.310,384.906 122.600 L 387.269 130.400 393.634 130.400 L 400.000 130.400 400.000 121.200 L 400.000 112.000 393.600 112.000 C 387.498 112.000,387.200 111.916,387.194 110.200 C 387.184 106.987,384.052 95.212,382.074 90.952 C 381.013 88.668,379.344 84.899,378.364 82.576 C 376.255 77.576,370.469 72.007,365.771 70.457 C 361.783 69.140,358.504 64.724,356.058 57.374 C 353.693 50.268,349.732 46.307,342.626 43.942 C 335.276 41.496,330.860 38.217,329.543 34.229 C 327.993 29.531,322.424 23.745,317.424 21.636 C 315.101 20.656,311.332 18.987,309.048 17.926 C 304.788 15.948,293.013 12.816,289.800 12.806 C 288.084 12.800,288.000 12.502,288.000 6.400 L 288.000 0.000 278.800 0.000 L 269.600 0.000 269.600 6.366 M109.452 78.600 C 104.673 84.529,103.442 86.681,102.035 91.558 C 98.808 102.750,92.993 110.373,83.154 116.310 C 63.629 128.093,62.472 128.972,61.119 133.044 C 59.540 137.797,60.508 140.795,64.397 143.198 C 80.137 152.926,81.006 167.628,66.650 181.344 L 60.639 187.087 61.579 189.937 C 62.694 193.314,70.421 198.782,82.000 204.387 C 94.734 210.551,103.284 220.768,106.677 233.876 C 107.982 238.915,111.408 244.813,113.011 244.780 C 113.555 244.769,118.860 243.491,124.800 241.940 C 142.868 237.222,165.458 237.141,176.184 241.755 C 181.328 243.968,184.115 247.372,187.027 254.997 C 188.367 258.507,191.270 263.858,193.479 266.889 C 198.725 274.088,201.827 282.042,204.880 296.123 C 208.710 313.793,208.546 313.319,211.416 315.028 C 212.837 315.875,216.340 317.192,219.200 317.955 C 222.060 318.718,228.000 320.883,232.400 322.765 C 236.800 324.647,242.920 327.157,246.000 328.344 C 250.793 330.190,253.360 331.666,261.402 337.200 C 262.260 337.790,262.805 337.595,263.483 336.453 C 267.516 329.648,273.913 325.127,284.000 321.951 C 296.079 318.147,304.104 313.591,306.146 309.380 C 307.107 307.399,308.949 304.568,310.241 303.089 C 316.094 296.385,323.911 265.776,321.084 260.633 C 320.529 259.625,318.366 254.660,316.277 249.600 C 310.436 235.454,305.732 230.706,289.712 222.785 C 282.596 219.267,280.306 217.709,278.577 215.213 C 274.328 209.080,265.778 205.792,252.464 205.174 C 236.691 204.441,236.559 204.351,235.131 193.306 C 234.476 188.242,234.147 187.553,230.926 184.506 C 226.670 180.479,223.640 175.370,221.160 168.039 L 219.287 162.505 221.278 155.052 C 222.372 150.954,224.375 145.194,225.728 142.253 L 228.188 136.906 226.413 131.063 C 223.093 120.130,218.020 112.563,213.423 111.686 C 202.740 109.647,195.591 102.771,191.514 90.615 C 188.168 80.638,187.914 80.311,183.039 79.708 C 164.709 77.444,163.466 77.431,157.784 79.449 C 139.258 86.029,134.754 85.938,119.854 78.686 C 111.283 74.515,112.735 74.527,109.452 78.600 M118.442 85.993 C 122.868 87.388,122.890 87.410,124.738 92.565 C 126.987 98.835,130.622 105.800,133.655 109.652 L 135.901 112.505 129.859 113.520 C 123.431 114.600,118.083 116.578,114.293 119.276 C 109.962 122.360,102.661 115.347,105.141 110.485 C 106.446 107.928,108.492 98.867,109.225 92.400 C 109.805 87.284,111.515 83.643,113.060 84.234 C 113.577 84.432,115.999 85.224,118.442 85.993 M168.267 86.510 C 171.520 87.164,172.802 87.785,172.808 88.710 C 172.840 93.969,179.296 101.450,185.001 102.838 C 186.579 103.222,187.618 104.312,188.671 106.687 C 189.479 108.509,190.738 110.494,191.470 111.098 C 193.939 113.136,192.340 121.235,189.112 123.041 C 187.898 123.721,187.455 123.354,186.261 120.688 C 183.767 115.118,173.949 112.819,152.515 112.787 L 143.600 112.773 146.040 111.209 C 150.351 108.447,152.885 101.535,153.809 90.021 C 154.112 86.246,159.924 84.835,168.267 86.510 M169.092 119.987 C 178.154 123.457,181.491 128.468,185.100 144.022 C 186.815 151.413,187.870 154.173,190.413 157.920 L 193.586 162.595 190.497 166.297 C 188.586 168.588,185.846 173.793,183.311 179.948 C 175.427 199.085,172.144 201.447,150.326 203.681 C 130.587 205.702,123.091 202.330,116.044 188.260 C 114.760 185.697,111.745 181.571,109.344 179.092 C 106.773 176.437,103.768 172.135,102.035 168.628 L 99.091 162.672 100.817 157.536 C 103.146 150.602,107.067 142.855,110.040 139.315 C 111.386 137.712,113.435 134.755,114.592 132.745 C 118.308 126.293,123.470 122.306,132.777 118.700 C 137.673 116.803,163.132 117.705,169.092 119.987 M215.708 132.422 L 218.349 137.245 217.176 141.622 C 212.842 157.801,213.608 173.624,219.271 184.895 C 221.722 189.773,215.262 196.785,208.285 196.819 C 197.814 196.871,194.892 199.178,193.214 208.719 C 192.525 212.641,191.195 216.832,189.987 218.894 L 187.933 222.400 174.566 222.405 C 167.215 222.408,155.779 221.996,149.154 221.490 C 133.475 220.292,125.679 222.572,116.681 230.988 C 114.533 232.998,112.667 234.498,112.536 234.321 C 112.404 234.144,111.837 231.120,111.277 227.600 C 110.716 224.080,109.397 219.029,108.345 216.377 C 106.130 210.794,106.585 207.405,110.109 203.216 L 112.156 200.783 113.754 202.814 C 119.049 209.545,133.806 211.361,162.921 208.863 C 180.755 207.333,184.568 205.281,186.425 196.209 C 187.773 189.619,188.762 187.320,190.480 186.775 C 199.921 183.778,210.200 166.733,207.588 158.406 C 205.678 152.318,201.945 145.055,198.624 140.965 C 192.758 133.740,198.528 126.836,209.933 127.435 C 212.886 127.590,213.219 127.878,215.708 132.422 M91.261 130.618 C 95.603 133.544,96.572 135.947,95.268 140.554 C 89.443 161.144,90.867 176.960,99.376 186.160 L 101.003 187.920 98.639 190.284 C 96.357 192.566,91.794 194.386,88.331 194.396 C 87.413 194.398,84.313 192.870,81.441 191.000 L 76.220 187.600 78.422 184.603 C 83.370 177.866,85.601 163.919,83.287 154.178 C 81.349 146.017,80.183 143.506,76.726 140.049 C 75.339 138.663,74.425 137.308,74.695 137.039 C 75.882 135.851,86.887 128.926,87.682 128.866 C 88.167 128.830,89.777 129.618,91.261 130.618 M216.494 213.410 C 213.275 214.352,212.474 214.367,211.937 213.497 C 210.982 211.953,212.200 211.536,216.541 211.923 L 220.400 212.267 216.494 213.410 M263.535 211.686 C 265.661 212.501,264.253 221.278,262.109 220.575 C 260.771 220.136,257.600 215.190,257.600 213.540 C 257.600 211.722,260.923 210.683,263.535 211.686 M242.894 231.131 C 245.858 232.477,248.800 235.378,248.800 236.955 C 248.800 240.086,230.897 241.558,226.653 238.777 C 224.292 237.230,224.376 237.122,231.200 232.906 C 237.134 229.240,238.330 229.059,242.894 231.131 M292.165 234.802 C 295.841 237.500,295.908 237.625,295.032 240.182 C 292.689 247.020,288.030 250.325,286.072 246.539 C 284.763 244.007,281.167 241.036,276.559 238.679 C 273.626 237.178,273.571 237.075,275.012 235.770 C 279.772 231.462,287.053 231.051,292.165 234.802 M268.380 242.757 C 274.422 245.429,280.721 251.575,283.608 257.618 L 285.951 262.520 283.699 273.860 C 280.282 291.058,276.909 297.072,268.322 301.273 C 260.044 305.323,246.024 300.150,240.116 290.866 C 238.952 289.037,236.658 285.907,235.017 283.909 C 222.324 268.454,223.831 256.975,239.600 249.007 C 255.086 241.181,261.612 239.764,268.380 242.757 M215.372 251.804 C 219.328 260.747,218.824 291.554,214.645 296.171 C 212.565 298.469,212.315 298.020,210.872 289.400 C 208.896 277.597,207.374 270.876,205.651 266.340 C 203.606 260.958,204.995 255.694,210.044 249.694 C 212.532 246.737,213.259 247.025,215.372 251.804 M313.281 268.006 L 312.316 273.200 309.758 269.243 C 306.452 264.130,306.462 262.028,309.800 259.985 L 312.400 258.393 313.323 260.603 C 314.025 262.282,314.015 264.058,313.281 268.006 M385.748 274.600 C 384.822 277.790,383.301 283.460,382.370 287.200 C 379.608 298.290,376.698 303.506,369.207 310.800 C 365.592 314.320,361.007 319.750,359.019 322.866 C 352.524 333.050,343.345 344.553,339.833 346.910 C 331.401 352.570,317.467 363.576,311.678 369.149 C 303.956 376.582,299.595 378.768,283.600 383.223 C 277.000 385.061,270.970 386.750,270.200 386.976 C 269.020 387.322,268.800 388.377,268.800 393.693 L 268.800 400.000 278.400 400.000 L 288.000 400.000 288.000 393.763 L 288.000 387.526 293.800 386.546 C 312.182 383.440,326.741 374.895,329.690 365.482 C 330.842 361.804,335.453 358.445,342.626 356.058 C 349.761 353.684,353.693 349.736,356.076 342.557 C 358.780 334.409,361.083 331.469,367.027 328.570 C 375.387 324.494,383.441 310.498,386.272 295.125 L 387.585 288.000 393.792 288.000 L 400.000 288.000 400.000 278.400 L 400.000 268.800 393.717 268.800 L 387.433 268.800 385.748 274.600 M0.000 278.800 L 0.000 288.000 6.400 288.000 C 12.502 288.000,12.800 288.084,12.806 289.800 C 12.816 293.013,15.948 304.788,17.926 309.048 C 18.987 311.332,20.656 315.101,21.636 317.424 C 23.749 322.434,29.534 327.994,34.254 329.552 C 37.487 330.619,43.175 337.285,43.218 340.059 C 43.315 346.356,53.702 356.749,59.941 356.792 C 62.696 356.811,69.379 362.506,70.448 365.746 C 72.006 370.466,77.566 376.251,82.576 378.364 C 84.899 379.344,88.668 381.013,90.952 382.074 C 95.212 384.052,106.987 387.184,110.200 387.194 C 111.916 387.200,112.000 387.498,112.000 393.600 L 112.000 400.000 121.200 400.000 L 130.400 400.000 130.400 393.634 L 130.400 387.269 122.600 384.906 C 118.310 383.606,112.677 381.945,110.083 381.215 C 101.131 378.695,95.227 375.274,88.028 368.435 C 84.272 364.868,79.040 360.557,76.400 358.855 C 62.535 349.916,50.631 337.995,40.798 323.200 C 38.897 320.340,34.579 315.100,31.202 311.556 C 24.726 304.757,21.264 298.726,18.785 289.917 C 18.055 287.323,16.394 281.690,15.094 277.400 L 12.731 269.600 6.366 269.600 L 0.000 269.600 0.000 278.800 M289.592 291.400 C 291.030 294.654,291.391 296.743,292.400 307.667 L 292.849 312.535 289.825 313.789 C 288.161 314.479,283.393 315.456,279.229 315.959 C 275.065 316.463,269.608 317.703,267.103 318.714 L 262.548 320.554 256.822 319.100 C 253.672 318.300,248.123 317.250,244.491 316.767 C 240.858 316.283,235.093 315.082,231.680 314.097 L 225.473 312.305 227.792 309.822 C 231.090 306.292,235.826 305.154,240.656 306.732 C 246.145 308.526,258.770 309.854,265.200 309.314 C 280.140 308.060,285.111 303.961,286.926 291.400 C 287.196 289.530,287.569 288.000,287.754 288.000 C 287.939 288.000,288.766 289.530,289.592 291.400 " stroke="none" fill="#f7d1d0" fill-rule="evenodd"></path><path id="path4" d="M0.000 56.000 L 0.000 112.000 6.208 112.000 L 12.415 112.000 13.728 104.875 C 16.565 89.473,24.612 75.506,33.008 71.412 C 38.088 68.936,43.185 63.198,43.208 59.930 C 43.251 53.701,53.651 43.314,59.941 43.218 C 62.594 43.177,69.377 37.497,70.303 34.542 C 73.292 24.995,88.265 16.279,106.460 13.494 L 112.800 12.523 112.800 6.262 L 112.800 0.000 56.400 0.000 L 0.000 0.000 0.000 56.000 M288.000 6.400 C 288.000 12.502,288.084 12.800,289.800 12.806 C 293.013 12.816,304.788 15.948,309.048 17.926 C 311.332 18.987,315.101 20.656,317.424 21.636 C 322.424 23.745,327.993 29.531,329.543 34.229 C 330.860 38.217,335.276 41.496,342.626 43.942 C 349.732 46.307,353.693 50.268,356.058 57.374 C 358.504 64.724,361.783 69.140,365.771 70.457 C 370.469 72.007,376.255 77.576,378.364 82.576 C 379.344 84.899,381.013 88.668,382.074 90.952 C 384.052 95.212,387.184 106.987,387.194 110.200 C 387.200 111.916,387.498 112.000,393.600 112.000 L 400.000 112.000 400.000 56.000 L 400.000 0.000 344.000 0.000 L 288.000 0.000 288.000 6.400 M110.944 85.737 C 110.298 86.762,109.524 89.760,109.225 92.400 C 108.492 98.867,106.446 107.928,105.141 110.485 C 102.661 115.347,109.962 122.360,114.293 119.276 C 118.083 116.578,123.431 114.600,129.859 113.520 L 135.901 112.505 133.655 109.652 C 130.622 105.800,126.987 98.835,124.738 92.565 C 122.890 87.410,122.868 87.388,118.442 85.993 C 115.999 85.224,113.577 84.432,113.060 84.234 C 112.542 84.036,111.590 84.713,110.944 85.737 M157.200 86.683 C 154.479 87.499,153.971 87.999,153.809 90.021 C 152.885 101.535,150.351 108.447,146.040 111.209 L 143.600 112.773 152.515 112.787 C 173.949 112.819,183.767 115.118,186.261 120.688 C 187.455 123.354,187.898 123.721,189.112 123.041 C 192.340 121.235,193.939 113.136,191.470 111.098 C 190.738 110.494,189.479 108.509,188.671 106.687 C 187.618 104.312,186.579 103.222,185.001 102.838 C 179.296 101.450,172.840 93.969,172.808 88.710 C 172.793 86.268,162.877 84.980,157.200 86.683 M202.852 128.349 C 195.871 130.256,194.135 135.436,198.624 140.965 C 201.945 145.055,205.678 152.318,207.588 158.406 C 210.200 166.733,199.921 183.778,190.480 186.775 C 188.762 187.320,187.773 189.619,186.425 196.209 C 184.568 205.281,180.755 207.333,162.921 208.863 C 133.806 211.361,119.049 209.545,113.754 202.814 L 112.156 200.783 110.109 203.216 C 106.585 207.405,106.130 210.794,108.345 216.377 C 109.397 219.029,110.716 224.080,111.277 227.600 C 111.837 231.120,112.404 234.144,112.536 234.321 C 112.667 234.498,114.533 232.998,116.681 230.988 C 125.679 222.572,133.475 220.292,149.154 221.490 C 155.779 221.996,167.215 222.408,174.566 222.405 L 187.933 222.400 189.987 218.894 C 191.195 216.832,192.525 212.641,193.214 208.719 C 194.892 199.178,197.814 196.871,208.285 196.819 C 215.262 196.785,221.722 189.773,219.271 184.895 C 213.608 173.624,212.842 157.801,217.176 141.622 L 218.349 137.245 215.708 132.422 C 212.691 126.914,210.568 126.242,202.852 128.349 M80.992 132.741 C 77.798 134.835,74.964 136.769,74.695 137.039 C 74.425 137.308,75.339 138.663,76.726 140.049 C 80.183 143.506,81.349 146.017,83.287 154.178 C 85.601 163.919,83.370 177.866,78.422 184.603 L 76.220 187.600 81.441 191.000 C 84.313 192.870,87.413 194.398,88.331 194.396 C 91.794 194.386,96.357 192.566,98.639 190.284 L 101.003 187.920 99.376 186.160 C 90.867 176.960,89.443 161.144,95.268 140.554 C 96.572 135.947,95.603 133.544,91.261 130.618 C 87.781 128.272,87.819 128.264,80.992 132.741 M259.000 211.751 C 257.093 212.250,257.242 214.435,259.400 217.620 C 261.823 221.196,262.850 221.355,263.909 218.317 C 265.963 212.425,264.403 210.339,259.000 211.751 M231.200 232.906 C 224.376 237.122,224.292 237.230,226.653 238.777 C 230.897 241.558,248.800 240.086,248.800 236.955 C 248.800 234.331,241.785 229.595,238.000 229.664 C 237.120 229.681,234.060 231.139,231.200 232.906 M279.653 233.265 C 273.822 235.401,272.992 236.854,276.559 238.679 C 281.167 241.036,284.763 244.007,286.072 246.539 C 288.030 250.325,292.689 247.020,295.032 240.182 C 296.901 234.730,287.365 230.441,279.653 233.265 M210.044 249.694 C 204.995 255.694,203.606 260.958,205.651 266.340 C 207.374 270.876,208.896 277.597,210.872 289.400 C 212.315 298.020,212.565 298.469,214.645 296.171 C 218.083 292.372,218.400 289.855,217.663 272.172 C 216.758 250.467,214.643 244.228,210.044 249.694 M309.800 259.985 C 306.462 262.028,306.452 264.130,309.758 269.243 L 312.316 273.200 313.281 268.006 C 314.015 264.058,314.025 262.282,313.323 260.603 L 312.400 258.393 309.800 259.985 M0.000 344.000 L 0.000 400.000 56.000 400.000 L 112.000 400.000 112.000 393.600 C 112.000 387.498,111.916 387.200,110.200 387.194 C 106.987 387.184,95.212 384.052,90.952 382.074 C 88.668 381.013,84.899 379.344,82.576 378.364 C 77.566 376.251,72.006 370.466,70.448 365.746 C 69.381 362.513,62.715 356.825,59.941 356.782 C 53.644 356.685,43.251 346.298,43.208 340.059 C 43.189 337.304,37.494 330.621,34.254 329.552 C 29.534 327.994,23.749 322.434,21.636 317.424 C 20.656 315.101,18.987 311.332,17.926 309.048 C 15.948 304.788,12.816 293.013,12.806 289.800 C 12.800 288.084,12.502 288.000,6.400 288.000 L 0.000 288.000 0.000 344.000 M286.926 291.400 C 285.111 303.961,280.140 308.060,265.200 309.314 C 258.770 309.854,246.145 308.526,240.656 306.732 C 235.826 305.154,231.090 306.292,227.792 309.822 L 225.473 312.305 231.680 314.097 C 235.093 315.082,240.858 316.283,244.491 316.767 C 248.123 317.250,253.672 318.300,256.822 319.100 L 262.548 320.554 267.103 318.714 C 269.608 317.703,275.065 316.463,279.229 315.959 C 283.393 315.456,288.161 314.479,289.825 313.789 L 292.849 312.535 292.400 307.667 C 291.391 296.743,291.030 294.654,289.592 291.400 C 288.766 289.530,287.939 288.000,287.754 288.000 C 287.569 288.000,287.196 289.530,286.926 291.400 M386.272 295.125 C 383.441 310.498,375.387 324.494,367.027 328.570 C 361.083 331.469,358.780 334.409,356.076 342.557 C 353.693 349.736,349.761 353.684,342.626 356.058 C 335.453 358.445,330.842 361.804,329.690 365.482 C 326.741 374.895,312.182 383.440,293.800 386.546 L 288.000 387.526 288.000 393.763 L 288.000 400.000 344.000 400.000 L 400.000 400.000 400.000 344.000 L 400.000 288.000 393.792 288.000 L 387.585 288.000 386.272 295.125 " stroke="none" fill="#fffefe" fill-rule="evenodd"></path></g></svg>