<svg id="svg" version="1.1" width="1000" height="437" xmlns="http://www.w3.org/2000/svg" xmlns:xlink="http://www.w3.org/1999/xlink" style="display: block;"><g id="svgg"><path id="path0" d="M0.000 24.200 L 0.000 48.400 3.300 48.394 C 5.168 48.391,7.338 48.131,8.302 47.796 C 13.674 45.924,6.460 45.999,180.771 46.007 L 344.143 46.015 346.871 44.973 C 348.372 44.399,349.600 43.872,349.600 43.801 C 349.600 43.730,349.160 41.990,348.621 39.936 C 345.201 26.877,345.700 12.740,349.771 7.403 C 350.667 6.228,350.800 5.662,350.800 3.027 L 350.800 0.000 175.400 0.000 L 0.000 0.000 0.000 24.200 M366.800 3.127 L 366.800 6.254 368.944 6.930 C 374.669 8.734,378.802 16.331,380.398 27.982 C 380.982 32.247,380.919 32.131,383.247 33.222 C 386.296 34.650,388.433 37.271,389.589 41.000 C 389.862 41.880,390.679 44.220,391.405 46.200 C 392.132 48.180,392.957 51.195,393.241 52.900 L 393.756 56.000 396.878 56.000 L 400.000 56.000 400.000 28.000 L 400.000 0.000 383.400 0.000 L 366.800 0.000 366.800 3.127 M393.394 93.900 C 392.640 98.581,391.834 102.076,391.022 104.200 C 390.517 105.520,389.609 108.004,389.004 109.720 C 387.798 113.140,385.234 116.410,382.675 117.787 C 381.362 118.494,381.243 118.735,380.602 121.965 C 380.227 123.850,379.471 126.564,378.922 127.996 C 378.373 129.428,377.431 132.143,376.830 134.028 C 374.427 141.565,370.036 144.992,359.169 147.808 C 356.033 148.621,355.696 148.479,353.666 145.500 C 352.728 144.125,351.433 142.280,350.787 141.400 C 348.146 137.804,347.125 132.627,346.407 119.200 C 345.802 107.878,345.621 106.469,344.624 105.310 L 343.769 104.316 337.984 105.252 C 334.803 105.767,331.210 106.135,330.000 106.069 C 328.790 106.004,257.690 105.880,172.000 105.793 L 16.200 105.636 12.671 104.611 C 10.730 104.048,8.442 103.230,7.587 102.793 C 6.443 102.210,5.234 102.000,3.016 102.000 L 0.000 102.000 0.000 138.400 L 0.000 174.800 200.000 174.800 L 400.000 174.800 400.000 133.600 L 400.000 92.400 396.818 92.400 L 393.636 92.400 393.394 93.900 " stroke="none" fill="#ffffff" fill-rule="evenodd"></path><path id="path1" d="M367.601 37.888 C 365.690 42.995,365.663 44.607,367.388 50.475 C 368.351 53.754,368.628 54.010,369.789 52.699 C 372.259 49.908,372.550 44.922,370.548 39.667 C 368.739 34.916,368.718 34.903,367.601 37.888 M373.887 61.169 C 372.174 61.554,370.215 62.282,369.532 62.787 C 367.389 64.371,366.332 64.382,203.600 64.393 C 50.329 64.404,44.362 64.432,38.000 65.161 C 31.414 65.915,31.387 65.915,25.037 65.073 L 18.674 64.230 16.937 66.204 C 15.982 67.290,15.200 68.489,15.200 68.868 C 15.200 69.734,17.000 75.466,18.016 77.837 L 18.779 79.618 20.890 78.445 C 22.050 77.799,24.793 76.515,26.985 75.591 L 30.969 73.911 37.585 74.982 L 44.200 76.053 201.800 75.896 C 363.619 75.735,364.653 75.724,367.567 74.217 L 368.712 73.625 369.507 75.512 C 369.944 76.551,370.702 78.628,371.192 80.128 C 372.448 83.971,374.935 85.618,380.197 86.092 C 382.592 86.308,383.888 82.727,384.230 74.951 L 384.513 68.518 382.963 64.459 L 381.414 60.400 379.207 60.435 C 377.993 60.454,375.599 60.785,373.887 61.169 M367.020 100.793 C 365.209 106.394,365.294 107.235,368.024 110.718 L 368.743 111.636 370.387 108.868 L 372.032 106.100 371.447 103.297 C 370.819 100.286,369.311 96.400,368.771 96.400 C 368.589 96.400,367.801 98.377,367.020 100.793 " stroke="none" fill="#fc0e02" fill-rule="evenodd"></path><path id="path2" d="M367.400 24.493 C 362.709 26.091,361.630 28.475,361.167 38.262 C 360.772 46.607,359.936 51.439,358.328 54.659 C 356.552 58.215,368.056 57.994,185.881 57.977 C 61.518 57.965,26.846 57.855,23.327 57.459 C 17.076 56.755,13.269 59.125,10.055 65.722 L 8.728 68.444 9.377 74.430 C 10.223 82.231,11.893 85.228,17.093 88.276 L 18.866 89.315 24.382 88.445 L 29.898 87.575 192.049 87.605 C 281.232 87.622,354.830 87.769,355.600 87.932 C 358.056 88.451,360.917 92.698,360.599 95.352 C 359.508 104.436,359.911 112.785,361.633 116.789 C 362.812 119.529,368.012 123.429,368.998 122.314 C 371.708 119.250,376.673 109.453,378.108 104.341 C 378.642 102.438,379.421 100.337,379.839 99.673 C 387.907 86.853,388.633 85.012,389.436 75.342 L 390.006 68.485 387.956 62.542 C 385.451 55.280,384.651 53.663,381.826 50.150 C 379.122 46.788,378.568 45.694,375.975 38.600 C 372.062 27.896,369.549 23.761,367.400 24.493 M370.548 39.667 C 372.550 44.922,372.259 49.908,369.789 52.699 C 368.628 54.010,368.351 53.754,367.388 50.475 C 365.663 44.607,365.690 42.995,367.601 37.888 C 368.718 34.903,368.739 34.916,370.548 39.667 M382.963 64.459 L 384.513 68.518 384.230 74.951 C 383.888 82.727,382.592 86.308,380.197 86.092 C 374.935 85.618,372.448 83.971,371.192 80.128 C 370.702 78.628,369.944 76.551,369.507 75.512 L 368.712 73.625 367.567 74.217 C 364.653 75.724,363.619 75.735,201.800 75.896 L 44.200 76.053 37.585 74.982 L 30.969 73.911 26.985 75.591 C 24.793 76.515,22.050 77.799,20.890 78.445 L 18.779 79.618 18.016 77.837 C 17.000 75.466,15.200 69.734,15.200 68.868 C 15.200 68.489,15.982 67.290,16.937 66.204 L 18.674 64.230 25.037 65.073 C 31.387 65.915,31.414 65.915,38.000 65.161 C 44.362 64.432,50.329 64.404,203.600 64.393 C 366.332 64.382,367.389 64.371,369.532 62.787 C 370.982 61.715,376.043 60.485,379.207 60.435 L 381.414 60.400 382.963 64.459 M369.982 98.447 C 370.466 99.573,371.126 101.755,371.447 103.297 L 372.032 106.100 370.387 108.868 L 368.743 111.636 368.024 110.718 C 365.294 107.235,365.209 106.394,367.020 100.793 C 368.643 95.771,368.783 95.660,369.982 98.447 " stroke="none" fill="#e2665e" fill-rule="evenodd"></path><path id="path3" d="M354.702 12.789 C 353.954 13.663,352.844 15.363,352.235 16.565 L 351.129 18.753 352.218 24.476 C 353.266 29.985,354.627 34.466,355.794 36.247 C 356.099 36.713,356.627 38.559,356.967 40.349 C 358.145 46.563,356.876 47.893,347.400 50.375 L 344.249 51.200 186.025 51.172 C 99.001 51.157,25.730 51.001,23.200 50.827 C 16.645 50.374,10.224 52.949,7.278 57.210 L 6.200 58.770 3.100 58.785 L 0.000 58.800 0.000 73.000 L 0.000 87.200 3.029 87.200 L 6.059 87.200 8.053 89.382 C 9.267 90.710,10.940 91.995,12.324 92.663 C 13.576 93.267,15.500 94.349,16.600 95.067 L 18.600 96.373 24.000 95.789 C 28.642 95.287,50.797 95.207,181.800 95.224 C 265.620 95.234,336.540 95.127,339.400 94.984 C 350.268 94.444,355.977 100.172,353.652 109.285 C 351.765 116.684,351.701 118.456,353.085 125.086 C 355.086 134.674,354.780 134.437,363.646 133.266 L 368.692 132.600 370.577 130.400 C 372.849 127.748,374.716 124.636,375.974 121.400 C 376.487 120.080,377.343 118.046,377.875 116.879 C 378.407 115.713,379.460 112.853,380.215 110.525 C 381.400 106.869,381.857 106.006,383.556 104.210 C 388.007 99.502,392.192 87.596,393.224 76.700 L 393.707 71.600 396.854 71.600 L 400.000 71.600 400.000 69.600 L 400.000 67.600 396.876 67.600 L 393.751 67.600 393.222 65.500 C 390.424 54.409,387.924 48.597,384.067 44.220 C 381.091 40.842,381.096 40.852,376.152 26.575 C 375.184 23.779,374.137 22.035,370.961 17.922 C 368.700 14.994,368.884 15.099,362.411 13.041 C 355.477 10.836,356.350 10.864,354.702 12.789 M372.356 29.800 C 373.221 31.560,374.849 35.520,375.975 38.600 C 378.568 45.694,379.122 46.788,381.826 50.150 C 384.651 53.663,385.451 55.280,387.956 62.542 L 390.006 68.485 389.436 75.342 C 388.633 85.012,387.907 86.853,379.839 99.673 C 379.421 100.337,378.642 102.438,378.108 104.341 C 376.673 109.453,371.708 119.250,368.998 122.314 C 368.012 123.429,362.812 119.529,361.633 116.789 C 359.911 112.785,359.508 104.436,360.599 95.352 C 360.917 92.698,358.056 88.451,355.600 87.932 C 354.830 87.769,281.232 87.622,192.049 87.605 L 29.898 87.575 24.382 88.445 L 18.866 89.315 17.093 88.276 C 11.893 85.228,10.223 82.231,9.377 74.430 L 8.728 68.444 10.055 65.722 C 13.269 59.125,17.076 56.755,23.327 57.459 C 26.846 57.855,61.518 57.965,185.881 57.977 C 368.056 57.994,356.552 58.215,358.328 54.659 C 359.936 51.439,360.772 46.607,361.167 38.262 C 361.582 29.494,362.029 28.011,364.909 25.865 C 368.352 23.298,369.446 23.876,372.356 29.800 " stroke="none" fill="#fcada9" fill-rule="evenodd"></path><path id="path4" d="M350.800 3.027 C 350.800 5.662,350.667 6.228,349.771 7.403 C 345.700 12.740,345.201 26.877,348.621 39.936 C 349.160 41.990,349.600 43.730,349.600 43.801 C 349.600 43.872,348.372 44.399,346.871 44.973 L 344.143 46.015 180.771 46.007 C 6.460 45.999,13.674 45.924,8.302 47.796 C 7.338 48.131,5.168 48.391,3.300 48.394 L 0.000 48.400 0.000 53.600 L 0.000 58.800 3.100 58.785 L 6.200 58.770 7.278 57.210 C 10.224 52.949,16.645 50.374,23.200 50.827 C 25.730 51.001,99.001 51.157,186.025 51.172 L 344.249 51.200 347.400 50.375 C 356.876 47.893,358.145 46.563,356.967 40.349 C 356.627 38.559,356.099 36.713,355.794 36.247 C 354.627 34.466,353.266 29.985,352.218 24.476 L 351.129 18.753 352.256 16.524 C 352.876 15.299,354.025 13.574,354.809 12.690 L 356.234 11.084 362.217 12.981 C 368.895 15.100,368.694 14.987,370.961 17.922 C 374.137 22.035,375.184 23.779,376.152 26.575 C 381.096 40.852,381.091 40.842,384.067 44.220 C 387.924 48.597,390.424 54.409,393.222 65.500 L 393.751 67.600 396.876 67.600 L 400.000 67.600 400.000 61.800 L 400.000 56.000 396.878 56.000 L 393.756 56.000 393.241 52.900 C 392.957 51.195,392.132 48.180,391.405 46.200 C 390.679 44.220,389.862 41.880,389.589 41.000 C 388.433 37.271,386.296 34.650,383.247 33.222 C 380.919 32.131,380.982 32.247,380.398 27.982 C 378.802 16.331,374.669 8.734,368.944 6.930 L 366.800 6.254 366.800 3.127 L 366.800 0.000 358.800 0.000 L 350.800 0.000 350.800 3.027 M393.224 76.700 C 392.192 87.596,388.007 99.502,383.556 104.210 C 381.857 106.006,381.400 106.869,380.215 110.525 C 379.460 112.853,378.407 115.713,377.875 116.879 C 377.343 118.046,376.487 120.080,375.974 121.400 C 374.716 124.636,372.849 127.748,370.577 130.400 L 368.692 132.600 363.646 133.266 C 354.780 134.437,355.086 134.674,353.085 125.086 C 351.701 118.456,351.765 116.684,353.652 109.285 C 355.977 100.172,350.268 94.444,339.400 94.984 C 336.540 95.127,265.620 95.234,181.800 95.224 C 50.797 95.207,28.642 95.287,24.000 95.789 L 18.600 96.373 16.600 95.067 C 15.500 94.349,13.576 93.267,12.324 92.663 C 10.940 91.995,9.267 90.710,8.053 89.382 L 6.059 87.200 3.029 87.200 L 0.000 87.200 0.000 94.600 L 0.000 102.000 3.016 102.000 C 5.234 102.000,6.443 102.210,7.587 102.793 C 8.442 103.230,10.730 104.048,12.671 104.611 L 16.200 105.636 172.000 105.793 C 257.690 105.880,328.790 106.004,330.000 106.069 C 331.210 106.135,334.803 105.767,337.984 105.252 L 343.769 104.316 344.624 105.310 C 345.621 106.469,345.802 107.878,346.407 119.200 C 347.125 132.627,348.146 137.804,350.787 141.400 C 351.433 142.280,352.728 144.125,353.666 145.500 C 355.696 148.479,356.033 148.621,359.169 147.808 C 370.036 144.992,374.427 141.565,376.830 134.028 C 377.431 132.143,378.373 129.428,378.922 127.996 C 379.471 126.564,380.227 123.850,380.602 121.965 C 381.243 118.735,381.362 118.494,382.675 117.787 C 385.234 116.410,387.798 113.140,389.004 109.720 C 389.609 108.004,390.517 105.520,391.022 104.200 C 391.834 102.076,392.640 98.581,393.394 93.900 L 393.636 92.400 396.818 92.400 L 400.000 92.400 400.000 82.000 L 400.000 71.600 396.854 71.600 L 393.707 71.600 393.224 76.700 " stroke="none" fill="#fdd7d5" fill-rule="evenodd"></path></g></svg>