<svg id="svg" version="1.1" width="500" height="500" xmlns="http://www.w3.org/2000/svg" xmlns:xlink="http://www.w3.org/1999/xlink" style="display: block;"><g id="svgg"><path id="path0" d="M179.298 28.833 C 174.732 30.161,165.552 33.546,158.898 36.356 C 152.244 39.167,144.640 42.078,142.000 42.826 C 130.485 46.088,110.265 57.029,104.869 62.917 C 99.471 68.809,94.391 72.789,88.978 75.367 C 84.532 77.485,77.377 85.430,75.596 90.228 C 73.270 96.494,69.633 102.306,64.797 107.486 C 53.425 119.667,45.384 144.896,43.852 173.200 C 42.760 193.386,43.795 234.871,45.599 243.200 C 46.409 246.940,47.485 252.792,47.991 256.204 C 49.579 266.919,57.684 284.612,64.507 292.258 C 68.454 296.683,71.567 302.002,74.878 309.981 C 77.758 316.922,83.973 323.515,90.785 326.854 C 93.766 328.316,98.212 331.729,102.583 335.913 C 110.205 343.207,126.297 352.435,143.200 359.204 C 147.380 360.878,154.009 363.568,157.931 365.182 C 190.324 378.510,214.280 377.619,251.297 361.708 C 255.531 359.889,259.273 358.400,259.613 358.400 C 259.954 358.400,264.050 356.472,268.716 354.115 C 273.382 351.759,279.900 348.793,283.200 347.524 C 288.541 345.470,290.037 344.376,296.822 337.555 C 301.985 332.364,305.916 329.172,309.008 327.659 C 317.503 323.503,324.079 316.314,326.713 308.303 C 328.450 303.021,332.619 296.126,337.069 291.177 C 340.521 287.337,345.238 279.139,349.943 268.800 C 355.928 255.646,359.571 179.552,355.208 158.800 C 354.745 156.600,353.697 150.427,352.878 145.082 C 350.717 130.987,344.019 115.836,335.952 106.803 C 330.900 101.145,329.025 98.027,323.702 86.436 C 321.981 82.688,314.379 75.955,308.934 73.357 C 305.206 71.578,301.364 68.682,296.176 63.742 C 287.872 55.835,273.243 47.950,257.890 43.106 C 253.869 41.838,246.309 38.969,241.090 36.732 C 215.088 25.585,197.991 23.400,179.298 28.833 M214.506 45.492 C 216.406 46.969,219.924 48.668,224.400 50.273 C 227.358 51.333,242.241 54.102,253.902 55.760 C 263.250 57.090,274.011 61.215,274.988 63.844 C 275.854 66.174,281.702 71.850,284.310 72.891 C 285.679 73.437,288.272 75.214,290.071 76.840 C 293.737 80.152,301.372 84.022,308.019 85.936 L 312.437 87.208 315.102 95.648 C 316.665 100.595,318.945 105.809,320.611 108.244 C 322.175 110.530,323.886 113.609,324.414 115.086 C 326.011 119.559,331.338 126.211,334.564 127.761 C 340.896 130.802,340.700 128.622,341.027 200.000 L 341.315 262.800 339.482 266.967 C 338.190 269.905,336.876 271.531,335.025 272.481 C 328.837 275.659,320.128 290.442,316.352 304.176 C 313.640 314.040,314.082 313.523,306.486 315.716 C 298.095 318.138,294.402 320.327,288.555 326.342 C 286.000 328.970,283.300 331.320,282.555 331.564 C 281.810 331.808,280.435 333.192,279.500 334.640 C 277.400 337.891,263.272 343.631,255.600 344.350 C 237.982 346.001,217.163 352.906,214.160 358.095 C 213.658 358.962,210.769 359.200,200.721 359.200 L 187.921 359.200 185.201 356.559 C 181.959 353.410,173.737 349.879,166.000 348.312 C 156.379 346.364,142.376 344.000,140.459 344.000 C 136.620 344.000,124.965 337.810,122.792 334.617 C 121.662 332.958,119.302 330.520,117.546 329.200 C 115.790 327.880,112.473 325.239,110.176 323.332 C 105.293 319.277,100.028 316.450,92.832 314.019 L 87.664 312.273 85.575 305.137 C 81.233 290.303,72.049 275.041,64.258 269.712 C 59.859 266.703,59.425 261.677,58.864 207.200 C 58.300 152.475,59.716 134.022,64.723 130.831 C 69.280 127.927,73.070 123.811,75.116 119.543 C 76.156 117.374,77.660 114.340,78.459 112.800 C 83.118 103.818,85.616 98.244,86.430 95.011 C 87.543 90.591,90.250 87.910,95.600 85.928 C 101.421 83.771,105.388 81.393,110.765 76.837 C 113.386 74.617,115.811 72.800,116.154 72.800 C 117.232 72.800,124.000 65.422,124.000 64.247 C 124.000 62.066,136.603 56.870,144.000 56.001 C 163.229 53.743,181.182 49.385,185.089 46.028 C 187.977 43.546,211.449 43.119,214.506 45.492 M223.600 158.499 C 209.080 158.870,182.620 158.967,164.800 158.714 C 136.047 158.307,132.059 158.401,129.369 159.551 C 124.980 161.428,114.012 163.082,108.076 162.763 C 99.006 162.275,90.851 161.624,88.884 161.230 C 87.830 161.020,86.030 161.347,84.884 161.959 C 83.738 162.570,81.170 163.484,79.179 163.989 C 68.954 166.583,66.460 173.469,66.182 199.864 C 65.889 227.780,67.261 231.332,80.854 237.830 C 88.285 241.382,88.535 241.439,97.200 241.571 C 109.636 241.761,124.589 243.280,126.667 244.565 C 128.995 246.004,260.513 245.436,275.663 243.921 C 284.058 243.082,291.798 242.411,292.863 242.431 C 310.547 242.753,312.407 242.555,315.257 240.041 C 316.766 238.711,319.260 237.213,320.800 236.712 C 331.589 233.205,334.787 223.886,334.174 197.738 C 333.408 165.060,331.266 163.059,296.800 162.821 C 279.694 162.702,277.672 162.542,274.361 161.043 C 271.037 159.538,268.301 159.148,253.600 158.086 C 251.620 157.943,238.120 158.129,223.600 158.499 M309.200 173.245 C 325.000 175.116,329.316 209.097,315.695 224.375 C 311.680 228.879,308.928 228.992,203.765 228.996 C 80.897 229.000,86.338 229.453,80.330 218.723 L 77.600 213.846 77.600 200.497 C 77.600 185.589,78.229 183.303,84.232 176.400 L 87.015 173.200 111.707 172.724 C 141.506 172.149,303.555 172.577,309.200 173.245 " stroke="none" fill="#b84f4e" fill-rule="evenodd"></path><path id="path1" d="M185.089 46.028 C 181.182 49.385,163.229 53.743,144.000 56.001 C 136.603 56.870,124.000 62.066,124.000 64.247 C 124.000 65.422,117.232 72.800,116.154 72.800 C 115.811 72.800,113.386 74.617,110.765 76.837 C 105.388 81.393,101.421 83.771,95.600 85.928 C 90.250 87.910,87.543 90.591,86.430 95.011 C 85.616 98.244,83.118 103.818,78.459 112.800 C 77.660 114.340,76.156 117.374,75.116 119.543 C 73.070 123.811,69.280 127.927,64.723 130.831 C 59.716 134.022,58.300 152.475,58.864 207.200 C 59.425 261.677,59.859 266.703,64.258 269.712 C 72.049 275.041,81.233 290.303,85.575 305.137 L 87.664 312.273 92.832 314.019 C 100.028 316.450,105.293 319.277,110.176 323.332 C 112.473 325.239,115.790 327.880,117.546 329.200 C 119.302 330.520,121.662 332.958,122.792 334.617 C 124.965 337.810,136.620 344.000,140.459 344.000 C 142.376 344.000,156.379 346.364,166.000 348.312 C 173.737 349.879,181.959 353.410,185.201 356.559 L 187.921 359.200 200.721 359.200 C 210.769 359.200,213.658 358.962,214.160 358.095 C 217.163 352.906,237.982 346.001,255.600 344.350 C 263.272 343.631,277.400 337.891,279.500 334.640 C 280.435 333.192,281.810 331.808,282.555 331.564 C 283.300 331.320,286.000 328.970,288.555 326.342 C 294.402 320.327,298.095 318.138,306.486 315.716 C 314.082 313.523,313.640 314.040,316.352 304.176 C 320.128 290.442,328.837 275.659,335.025 272.481 C 336.876 271.531,338.190 269.905,339.482 266.967 L 341.315 262.800 341.027 200.000 C 340.700 128.622,340.896 130.802,334.564 127.761 C 331.338 126.211,326.011 119.559,324.414 115.086 C 323.886 113.609,322.175 110.530,320.611 108.244 C 318.945 105.809,316.665 100.595,315.102 95.648 L 312.437 87.208 308.019 85.936 C 301.372 84.022,293.737 80.152,290.071 76.840 C 288.272 75.214,285.679 73.437,284.310 72.891 C 281.702 71.850,275.854 66.174,274.988 63.844 C 274.011 61.215,263.250 57.090,253.902 55.760 C 242.241 54.102,227.358 51.333,224.400 50.273 C 219.924 48.668,216.406 46.969,214.506 45.492 C 211.449 43.119,187.977 43.546,185.089 46.028 M263.961 158.870 C 268.065 159.189,272.153 160.043,274.361 161.043 C 277.672 162.542,279.694 162.702,296.800 162.821 C 331.266 163.059,333.408 165.060,334.174 197.738 C 334.787 223.886,331.589 233.205,320.800 236.712 C 319.260 237.213,316.766 238.711,315.257 240.041 C 312.407 242.555,310.547 242.753,292.863 242.431 C 291.798 242.411,284.058 243.082,275.663 243.921 C 260.513 245.436,128.995 246.004,126.667 244.565 C 124.589 243.280,109.636 241.761,97.200 241.571 C 88.535 241.439,88.285 241.382,80.854 237.830 C 67.261 231.332,65.889 227.780,66.182 199.864 C 66.460 173.469,68.954 166.583,79.179 163.989 C 81.170 163.484,83.738 162.570,84.884 161.959 C 86.030 161.347,87.830 161.020,88.884 161.230 C 90.851 161.624,99.006 162.275,108.076 162.763 C 114.012 163.082,124.980 161.428,129.369 159.551 C 132.059 158.401,136.047 158.307,164.800 158.714 C 182.620 158.967,209.080 158.870,223.600 158.499 C 238.120 158.129,251.620 157.943,253.600 158.086 C 255.580 158.229,260.243 158.582,263.961 158.870 " stroke="none" fill="#dd2525" fill-rule="evenodd"></path><path id="path2" d="M173.600 17.227 C 154.166 20.627,137.736 26.533,128.857 33.311 C 125.588 35.806,118.890 39.760,113.972 42.098 C 101.616 47.971,95.047 53.193,90.818 60.503 C 89.846 62.182,87.426 64.005,83.461 66.045 C 75.674 70.051,71.275 74.866,66.704 84.388 C 64.694 88.575,62.752 92.000,62.389 92.000 C 56.468 92.000,43.968 114.385,38.869 134.121 C 38.169 136.827,36.556 141.147,35.284 143.721 C 34.012 146.294,31.820 151.640,30.412 155.600 L 27.854 162.800 28.232 200.000 C 28.638 239.944,28.956 242.948,33.874 253.200 C 36.623 258.931,37.677 261.659,40.053 269.200 C 46.666 290.187,50.580 298.033,58.014 305.200 C 62.934 309.943,64.226 311.779,66.458 317.200 C 69.724 325.135,76.325 332.196,83.319 335.236 C 86.688 336.700,88.367 338.035,89.919 340.484 C 93.903 346.770,99.839 351.409,111.600 357.429 C 117.760 360.581,123.880 364.281,125.200 365.651 C 139.630 380.622,193.047 389.813,227.408 383.237 C 256.087 377.748,266.094 374.034,275.749 365.297 C 278.121 363.151,282.577 360.345,286.149 358.747 C 289.587 357.209,293.996 355.152,295.947 354.175 C 300.624 351.834,308.016 344.443,309.913 340.211 C 310.775 338.289,312.153 336.621,313.113 336.337 C 321.985 333.716,329.600 326.704,333.176 317.864 C 336.622 309.348,336.796 309.074,340.437 306.459 C 346.752 301.924,353.254 290.524,360.548 271.200 C 361.628 268.340,362.974 265.280,363.540 264.400 C 364.943 262.220,368.332 252.193,370.335 244.296 C 372.611 235.326,373.791 195.576,372.390 175.133 C 371.361 160.134,370.350 155.632,364.766 141.200 C 363.063 136.800,359.474 127.260,356.789 120.000 C 350.245 102.304,346.277 96.059,339.277 92.440 C 337.011 91.268,336.618 90.639,332.905 82.238 C 329.679 74.940,324.551 69.658,317.133 65.993 C 312.131 63.521,310.705 62.353,308.493 58.916 C 303.908 51.794,298.475 47.501,287.376 42.231 C 281.812 39.590,275.807 36.245,274.030 34.797 C 255.011 19.303,208.374 11.144,173.600 17.227 M223.600 29.806 C 228.000 31.378,235.870 34.494,241.090 36.732 C 246.309 38.969,253.869 41.838,257.890 43.106 C 273.243 47.950,287.872 55.835,296.176 63.742 C 301.364 68.682,305.206 71.578,308.934 73.357 C 314.379 75.955,321.981 82.688,323.702 86.436 C 329.025 98.027,330.900 101.145,335.952 106.803 C 344.019 115.836,350.717 130.987,352.878 145.082 C 353.697 150.427,354.745 156.600,355.208 158.800 C 359.571 179.552,355.928 255.646,349.943 268.800 C 345.238 279.139,340.521 287.337,337.069 291.177 C 332.619 296.126,328.450 303.021,326.713 308.303 C 324.079 316.314,317.503 323.503,309.008 327.659 C 305.916 329.172,301.985 332.364,296.822 337.555 C 290.037 344.376,288.541 345.470,283.200 347.524 C 279.900 348.793,273.382 351.759,268.716 354.115 C 264.050 356.472,259.954 358.400,259.613 358.400 C 259.273 358.400,255.531 359.889,251.297 361.708 C 214.280 377.619,190.324 378.510,157.931 365.182 C 154.009 363.568,147.380 360.878,143.200 359.204 C 126.297 352.435,110.205 343.207,102.583 335.913 C 98.212 331.729,93.766 328.316,90.785 326.854 C 83.973 323.515,77.758 316.922,74.878 309.981 C 71.567 302.002,68.454 296.683,64.507 292.258 C 57.684 284.612,49.579 266.919,47.991 256.204 C 47.485 252.792,46.409 246.940,45.599 243.200 C 43.795 234.871,42.760 193.386,43.852 173.200 C 45.384 144.896,53.425 119.667,64.797 107.486 C 69.633 102.306,73.270 96.494,75.596 90.228 C 77.377 85.430,84.532 77.485,88.978 75.367 C 94.391 72.789,99.471 68.809,104.869 62.917 C 110.265 57.029,130.485 46.088,142.000 42.826 C 144.640 42.078,152.244 39.167,158.898 36.356 C 185.229 25.235,205.156 23.218,223.600 29.806 M111.707 172.724 L 87.015 173.200 84.232 176.400 C 78.229 183.303,77.600 185.589,77.600 200.497 L 77.600 213.846 80.330 218.723 C 85.345 227.680,84.861 227.480,103.457 228.293 C 136.006 229.716,301.393 229.096,311.107 227.514 C 321.417 225.836,327.805 196.464,320.742 183.213 C 317.160 176.492,314.068 173.821,309.200 173.245 C 303.555 172.577,141.506 172.149,111.707 172.724 M288.404 182.758 C 293.801 183.424,312.021 186.954,312.492 187.426 C 312.661 187.594,312.376 193.365,311.859 200.250 L 310.920 212.768 306.798 213.966 C 290.270 218.771,297.576 218.484,199.003 218.196 L 109.200 217.934 100.000 215.796 C 86.690 212.703,87.196 212.912,87.230 210.507 C 87.297 205.760,88.689 187.845,89.016 187.518 C 89.428 187.105,98.156 185.203,105.600 183.904 C 115.788 182.125,275.172 181.126,288.404 182.758 " stroke="none" fill="#d78686" fill-rule="evenodd"></path><path id="path3" d="M122.400 6.239 L 122.400 12.479 119.400 13.529 C 105.955 18.236,94.571 25.859,89.726 33.398 C 87.615 36.683,86.587 37.449,82.169 39.026 C 74.240 41.858,68.366 47.088,63.732 55.443 C 60.905 60.540,58.948 63.047,56.458 64.760 C 45.136 72.550,34.072 87.297,27.918 102.800 C 26.521 106.320,23.800 112.480,21.872 116.489 C 17.990 124.561,15.207 135.441,13.544 149.047 L 12.499 157.600 6.249 157.600 L 0.000 157.600 0.000 194.000 L 0.000 230.400 6.287 230.400 L 12.574 230.400 13.134 241.000 C 14.529 267.390,16.061 273.446,26.859 295.251 C 36.612 314.944,43.803 326.351,50.782 333.200 C 53.472 335.840,57.870 340.880,60.556 344.400 C 68.389 354.668,70.501 356.579,77.722 359.933 C 83.457 362.597,85.206 363.928,90.109 369.358 C 97.032 377.024,110.342 384.247,122.200 386.773 L 124.800 387.327 124.800 393.664 L 124.800 400.000 202.800 400.000 L 280.800 400.000 280.800 393.698 L 280.800 387.395 285.800 385.553 C 295.049 382.146,302.246 377.512,310.688 369.526 C 315.149 365.306,320.219 361.182,321.953 360.363 C 329.358 356.863,354.498 329.819,359.117 320.384 C 361.051 316.433,364.526 309.960,366.840 306.000 C 369.153 302.040,372.125 296.438,373.445 293.551 C 374.764 290.664,376.788 286.911,377.941 285.210 C 381.816 279.500,384.066 269.019,386.487 245.400 L 387.451 236.000 393.726 236.000 L 400.000 236.000 400.000 197.600 L 400.000 159.200 393.767 159.200 L 387.535 159.200 385.765 147.000 C 383.616 132.185,381.658 123.993,378.797 117.845 C 377.608 115.290,374.371 107.531,371.603 100.601 C 364.922 83.870,355.600 70.463,346.747 64.848 C 342.805 62.348,339.947 59.102,334.826 51.308 C 332.123 47.193,329.484 44.364,326.078 41.927 C 317.143 35.534,314.190 33.233,309.430 28.951 C 304.630 24.632,296.959 20.522,283.768 15.200 L 276.828 12.400 276.814 6.200 L 276.800 0.000 199.600 0.000 L 122.400 0.000 122.400 6.239 M224.559 16.851 C 248.582 21.441,264.903 27.362,274.030 34.797 C 275.807 36.245,281.812 39.590,287.376 42.231 C 298.475 47.501,303.908 51.794,308.493 58.916 C 310.705 62.353,312.131 63.521,317.133 65.993 C 324.551 69.658,329.679 74.940,332.905 82.238 C 336.618 90.639,337.011 91.268,339.277 92.440 C 346.277 96.059,350.245 102.304,356.789 120.000 C 359.474 127.260,363.063 136.800,364.766 141.200 C 370.350 155.632,371.361 160.134,372.390 175.133 C 373.791 195.576,372.611 235.326,370.335 244.296 C 368.332 252.193,364.943 262.220,363.540 264.400 C 362.974 265.280,361.628 268.340,360.548 271.200 C 353.254 290.524,346.752 301.924,340.437 306.459 C 336.796 309.074,336.622 309.348,333.176 317.864 C 329.600 326.704,321.985 333.716,313.113 336.337 C 312.153 336.621,310.775 338.289,309.913 340.211 C 308.016 344.443,300.624 351.834,295.947 354.175 C 293.996 355.152,289.587 357.209,286.149 358.747 C 282.577 360.345,278.121 363.151,275.749 365.297 C 266.094 374.034,256.087 377.748,227.408 383.237 C 193.047 389.813,139.630 380.622,125.200 365.651 C 123.880 364.281,117.760 360.581,111.600 357.429 C 99.839 351.409,93.903 346.770,89.919 340.484 C 88.367 338.035,86.688 336.700,83.319 335.236 C 76.325 332.196,69.724 325.135,66.458 317.200 C 64.226 311.779,62.934 309.943,58.014 305.200 C 50.580 298.033,46.666 290.187,40.053 269.200 C 37.677 261.659,36.623 258.931,33.874 253.200 C 28.956 242.948,28.638 239.944,28.232 200.000 L 27.854 162.800 30.412 155.600 C 31.820 151.640,34.012 146.294,35.284 143.721 C 36.556 141.147,38.169 136.827,38.869 134.121 C 43.968 114.385,56.468 92.000,62.389 92.000 C 62.752 92.000,64.694 88.575,66.704 84.388 C 71.275 74.866,75.674 70.051,83.461 66.045 C 87.426 64.005,89.846 62.182,90.818 60.503 C 95.047 53.193,101.616 47.971,113.972 42.098 C 118.890 39.760,125.588 35.806,128.857 33.311 C 147.378 19.173,194.393 11.087,224.559 16.851 M132.400 182.498 C 120.520 182.772,108.460 183.404,105.600 183.904 C 98.156 185.203,89.428 187.105,89.016 187.518 C 88.689 187.845,87.297 205.760,87.230 210.507 C 87.196 212.912,86.690 212.703,100.000 215.796 L 109.200 217.934 199.003 218.196 C 297.576 218.484,290.270 218.771,306.798 213.966 L 310.920 212.768 311.859 200.250 C 312.376 193.365,312.661 187.594,312.492 187.426 C 312.021 186.954,293.801 183.424,288.404 182.758 C 282.440 182.023,161.751 181.821,132.400 182.498 " stroke="none" fill="#fdcbcb" fill-rule="evenodd"></path><path id="path4" d="M0.000 78.800 L 0.000 157.600 6.249 157.600 L 12.499 157.600 13.544 149.047 C 15.207 135.441,17.990 124.561,21.872 116.489 C 23.800 112.480,26.521 106.320,27.918 102.800 C 34.072 87.297,45.136 72.550,56.458 64.760 C 58.948 63.047,60.905 60.540,63.732 55.443 C 68.366 47.088,74.240 41.858,82.169 39.026 C 86.587 37.449,87.615 36.683,89.726 33.398 C 94.571 25.859,105.955 18.236,119.400 13.529 L 122.400 12.479 122.400 6.239 L 122.400 0.000 61.200 0.000 L 0.000 0.000 0.000 78.800 M276.814 6.200 L 276.828 12.400 283.768 15.200 C 296.959 20.522,304.630 24.632,309.430 28.951 C 314.190 33.233,317.143 35.534,326.078 41.927 C 329.484 44.364,332.123 47.193,334.826 51.308 C 339.947 59.102,342.805 62.348,346.747 64.848 C 355.600 70.463,364.922 83.870,371.603 100.601 C 374.371 107.531,377.608 115.290,378.797 117.845 C 381.658 123.993,383.616 132.185,385.765 147.000 L 387.535 159.200 393.767 159.200 L 400.000 159.200 400.000 79.600 L 400.000 0.000 338.400 0.000 L 276.800 0.000 276.814 6.200 M0.000 315.200 L 0.000 400.000 62.400 400.000 L 124.800 400.000 124.800 393.664 L 124.800 387.327 122.200 386.773 C 110.342 384.247,97.032 377.024,90.109 369.358 C 85.206 363.928,83.457 362.597,77.722 359.933 C 70.501 356.579,68.389 354.668,60.556 344.400 C 57.870 340.880,53.472 335.840,50.782 333.200 C 43.803 326.351,36.612 314.944,26.859 295.251 C 16.061 273.446,14.529 267.390,13.134 241.000 L 12.574 230.400 6.287 230.400 L 0.000 230.400 0.000 315.200 M386.487 245.400 C 384.066 269.019,381.816 279.500,377.941 285.210 C 376.788 286.911,374.764 290.664,373.445 293.551 C 372.125 296.438,369.153 302.040,366.840 306.000 C 364.526 309.960,361.051 316.433,359.117 320.384 C 354.498 329.819,329.358 356.863,321.953 360.363 C 320.219 361.182,315.149 365.306,310.688 369.526 C 302.246 377.512,295.049 382.146,285.800 385.553 L 280.800 387.395 280.800 393.698 L 280.800 400.000 340.400 400.000 L 400.000 400.000 400.000 318.000 L 400.000 236.000 393.726 236.000 L 387.451 236.000 386.487 245.400 " stroke="none" fill="#fffaff" fill-rule="evenodd"></path></g></svg>