<svg id="svg" version="1.1" width="500" height="500" xmlns="http://www.w3.org/2000/svg" xmlns:xlink="http://www.w3.org/1999/xlink" style="display: block;"><g id="svgg"><path id="path0" d="M132.800 6.240 L 132.800 12.480 127.800 13.468 C 123.145 14.388,116.559 16.375,105.402 20.226 C 98.687 22.544,92.901 27.191,89.753 32.794 C 87.181 37.373,86.979 37.532,82.553 38.447 C 76.039 39.794,69.372 43.403,66.262 47.268 C 64.798 49.086,61.916 52.490,59.858 54.832 C 57.799 57.174,55.725 59.820,55.247 60.712 C 54.769 61.605,53.085 62.949,51.504 63.699 C 47.339 65.676,41.430 72.025,39.178 76.942 C 37.832 79.882,34.957 83.428,29.890 88.400 C 22.217 95.927,19.905 99.541,17.598 107.608 C 16.835 110.275,15.395 114.694,14.398 117.428 L 12.586 122.400 6.293 122.400 L 0.000 122.400 0.000 137.200 L 0.000 152.000 6.334 152.000 L 12.668 152.000 15.636 143.000 C 20.390 128.582,28.292 113.676,35.247 106.000 C 36.045 105.120,40.297 99.000,44.697 92.400 C 54.100 78.295,53.953 78.469,61.314 72.614 C 64.457 70.114,68.417 66.364,70.114 64.281 C 79.239 53.079,91.854 44.779,108.883 38.771 C 110.535 38.188,113.902 36.069,116.366 34.062 C 125.757 26.413,147.310 19.088,168.400 16.378 C 170.600 16.095,175.986 15.149,180.370 14.277 C 191.741 12.013,208.245 13.129,222.076 17.099 C 227.314 18.602,238.620 21.333,247.200 23.166 C 264.693 26.905,267.462 28.139,276.686 36.303 C 280.439 39.624,284.658 42.261,291.050 45.279 C 314.056 56.143,334.598 74.842,355.999 104.400 C 357.910 107.040,361.744 111.458,364.520 114.218 C 375.567 125.206,381.723 138.938,386.207 162.600 L 387.534 169.600 393.767 169.600 L 400.000 169.600 400.000 148.400 L 400.000 127.200 393.731 127.200 L 387.462 127.200 386.108 122.330 C 382.200 108.272,375.704 98.556,366.888 93.580 C 361.271 90.410,359.622 88.444,358.096 83.095 C 355.660 74.558,347.998 66.504,340.019 64.093 C 337.721 63.398,336.759 62.387,334.813 58.620 C 330.268 49.821,326.014 46.590,310.000 39.771 C 307.800 38.834,303.833 36.032,301.184 33.544 C 298.535 31.056,294.755 28.211,292.784 27.223 C 290.813 26.234,286.860 23.866,284.000 21.961 C 278.767 18.475,270.499 15.554,260.200 13.553 L 255.200 12.581 255.200 6.291 L 255.200 0.000 194.000 0.000 L 132.800 0.000 132.800 6.240 M199.845 99.463 L 187.289 101.888 185.122 106.718 C 182.996 111.455,182.957 111.828,183.128 126.011 C 183.369 146.112,180.254 161.320,174.363 168.800 C 169.373 175.136,164.791 176.845,151.480 177.336 C 140.794 177.730,138.258 178.128,126.246 181.287 C 118.901 183.219,112.703 184.800,112.474 184.800 C 109.199 184.800,110.970 192.676,114.725 194.808 C 119.310 197.412,126.768 203.390,131.525 208.274 L 136.249 213.126 150.325 213.163 C 177.723 213.235,185.237 221.120,184.857 249.400 C 184.710 260.352,184.938 264.003,185.966 267.096 L 187.260 270.993 194.230 272.352 C 201.196 273.710,209.381 275.659,211.440 276.449 C 212.180 276.733,213.410 274.988,215.258 271.034 C 218.308 264.508,218.420 263.125,217.271 246.343 L 216.582 236.285 219.194 230.813 C 224.791 219.086,231.598 214.978,248.349 213.219 C 261.646 211.822,265.875 210.450,279.571 203.086 L 287.542 198.800 289.286 193.201 C 292.443 183.068,289.065 180.377,267.712 176.012 C 262.027 174.850,256.710 174.400,248.672 174.400 C 235.658 174.400,234.803 174.103,228.978 167.568 C 226.093 164.331,224.830 162.163,224.421 159.745 C 222.527 148.555,221.486 138.700,220.855 126.000 C 220.089 110.592,219.539 108.333,214.688 100.658 L 212.400 97.038 199.845 99.463 M214.668 170.547 C 217.937 181.591,224.213 184.547,248.400 186.430 C 255.000 186.944,260.513 187.471,260.651 187.600 C 260.790 187.730,258.270 188.261,255.051 188.780 C 232.228 192.460,221.419 197.341,215.049 206.844 L 212.338 210.888 209.169 209.466 C 207.426 208.684,202.111 206.738,197.358 205.142 C 192.605 203.546,187.925 201.441,186.958 200.464 C 182.936 196.400,174.194 192.658,164.466 190.835 C 160.801 190.148,156.407 189.096,154.701 188.496 L 151.600 187.405 158.000 186.853 C 180.109 184.947,184.058 183.333,186.493 175.204 C 187.378 172.252,187.924 171.839,196.469 167.651 C 201.828 165.025,206.098 162.382,206.955 161.161 C 207.750 160.027,209.236 158.050,210.257 156.766 C 211.279 155.483,211.877 154.048,211.586 153.578 C 211.296 153.108,211.341 152.111,211.687 151.362 C 212.070 150.533,212.513 153.132,212.819 158.000 C 213.096 162.400,213.928 168.046,214.668 170.547 M386.547 251.329 C 385.506 264.549,383.246 271.265,375.288 284.791 C 373.603 287.656,371.219 291.777,369.990 293.950 C 368.762 296.122,366.427 299.362,364.800 301.150 C 363.174 302.937,359.206 308.000,355.983 312.400 C 348.336 322.840,340.966 330.463,333.869 335.272 C 330.717 337.408,324.569 341.999,320.207 345.474 L 312.278 351.791 304.739 352.351 C 300.592 352.658,296.300 353.004,295.200 353.119 C 293.150 353.333,288.881 355.283,288.891 356.000 C 288.911 357.439,287.284 360.243,287.151 359.000 C 287.068 358.230,286.955 357.227,286.900 356.771 C 286.845 356.315,286.319 355.645,285.732 355.281 C 285.144 354.918,284.768 354.481,284.895 354.311 C 285.334 353.723,282.043 350.400,281.022 350.400 C 280.460 350.400,280.000 350.098,280.000 349.728 C 280.000 349.358,278.470 348.564,276.600 347.962 C 274.730 347.360,273.020 346.632,272.800 346.345 C 272.387 345.806,255.888 343.893,238.431 342.361 C 232.948 341.880,228.268 341.366,228.031 341.220 C 223.374 338.349,194.812 339.804,182.000 343.564 C 167.534 347.810,152.418 351.008,136.750 353.139 C 132.158 353.763,124.341 354.858,119.379 355.571 C 114.417 356.285,110.069 356.690,109.715 356.471 C 109.121 356.104,101.053 354.633,95.700 353.916 C 91.208 353.314,86.778 351.837,85.200 350.414 C 82.365 347.857,72.549 341.858,67.200 339.414 C 63.834 337.876,61.314 336.079,60.055 334.319 C 56.984 330.027,47.301 318.756,38.830 309.614 C 28.678 298.660,19.218 280.803,13.804 262.380 L 12.400 257.602 6.200 257.601 L 0.000 257.600 0.000 273.600 L 0.000 289.600 6.271 289.600 L 12.542 289.600 14.300 296.167 C 18.405 311.507,26.339 323.851,34.971 328.331 C 39.441 330.651,42.849 334.565,46.228 341.260 C 49.041 346.831,54.252 351.953,59.863 354.660 C 64.132 356.719,71.200 361.544,71.200 362.398 C 71.200 366.408,83.043 376.806,89.895 378.813 C 92.153 379.474,97.060 381.542,100.800 383.408 L 107.600 386.800 107.832 393.400 L 108.065 400.000 194.432 400.000 L 280.800 400.000 280.800 393.621 C 280.800 386.111,280.866 386.051,292.721 382.675 C 312.459 377.055,317.853 374.156,324.078 365.818 C 327.999 360.566,335.325 354.281,343.187 349.424 C 346.698 347.255,348.840 345.155,351.089 341.675 C 355.312 335.141,362.069 327.881,366.400 325.224 C 377.024 318.707,383.448 308.133,386.462 292.200 L 387.408 287.200 393.704 287.200 L 400.000 287.200 400.000 263.200 L 400.000 239.200 393.751 239.200 L 387.502 239.200 386.547 251.329 " stroke="none" fill="#d8e5c2" fill-rule="evenodd"></path><path id="path1" d="M0.000 61.200 L 0.000 122.400 6.293 122.400 L 12.586 122.400 14.398 117.428 C 15.395 114.694,16.835 110.275,17.598 107.608 C 19.905 99.541,22.217 95.927,29.890 88.400 C 34.957 83.428,37.832 79.882,39.178 76.942 C 41.430 72.025,47.339 65.676,51.504 63.699 C 53.085 62.949,54.769 61.605,55.247 60.712 C 55.725 59.820,57.799 57.174,59.858 54.832 C 61.916 52.490,64.798 49.086,66.262 47.268 C 69.372 43.403,76.039 39.794,82.553 38.447 C 86.979 37.532,87.181 37.373,89.753 32.794 C 92.901 27.191,98.687 22.544,105.402 20.226 C 116.559 16.375,123.145 14.388,127.800 13.468 L 132.800 12.480 132.800 6.240 L 132.800 0.000 66.400 0.000 L 0.000 0.000 0.000 61.200 M255.200 6.291 L 255.200 12.581 260.200 13.553 C 270.499 15.554,278.767 18.475,284.000 21.961 C 286.860 23.866,290.813 26.234,292.784 27.223 C 294.755 28.211,298.535 31.056,301.184 33.544 C 303.833 36.032,307.800 38.834,310.000 39.771 C 326.014 46.590,330.268 49.821,334.813 58.620 C 336.759 62.387,337.721 63.398,340.019 64.093 C 347.998 66.504,355.660 74.558,358.096 83.095 C 359.622 88.444,361.271 90.410,366.888 93.580 C 375.704 98.556,382.200 108.272,386.108 122.330 L 387.462 127.200 393.731 127.200 L 400.000 127.200 400.000 63.600 L 400.000 0.000 327.600 0.000 L 255.200 0.000 255.200 6.291 M211.687 151.362 C 211.341 152.111,211.296 153.108,211.586 153.578 C 211.877 154.048,211.279 155.483,210.257 156.766 C 209.236 158.050,207.750 160.027,206.955 161.161 C 206.098 162.382,201.828 165.025,196.469 167.651 C 187.924 171.839,187.378 172.252,186.493 175.204 C 184.058 183.333,180.109 184.947,158.000 186.853 L 151.600 187.405 154.701 188.496 C 156.407 189.096,160.801 190.148,164.466 190.835 C 174.194 192.658,182.936 196.400,186.958 200.464 C 187.925 201.441,192.605 203.546,197.358 205.142 C 202.111 206.738,207.426 208.684,209.169 209.466 L 212.338 210.888 215.049 206.844 C 221.419 197.341,232.228 192.460,255.051 188.780 C 258.270 188.261,260.790 187.730,260.651 187.600 C 260.513 187.471,255.000 186.944,248.400 186.430 C 219.238 184.159,214.211 180.142,212.819 158.000 C 212.513 153.132,212.070 150.533,211.687 151.362 M386.462 292.200 C 383.448 308.133,377.024 318.707,366.400 325.224 C 362.069 327.881,355.312 335.141,351.089 341.675 C 348.840 345.155,346.698 347.255,343.187 349.424 C 335.325 354.281,327.999 360.566,324.078 365.818 C 317.853 374.156,312.459 377.055,292.721 382.675 C 280.866 386.051,280.800 386.111,280.800 393.621 L 280.800 400.000 340.400 400.000 L 400.000 400.000 400.000 343.600 L 400.000 287.200 393.704 287.200 L 387.408 287.200 386.462 292.200 M0.000 344.800 L 0.000 400.000 54.032 400.000 L 108.065 400.000 107.832 393.400 L 107.600 386.800 100.800 383.408 C 97.060 381.542,92.153 379.474,89.895 378.813 C 83.043 376.806,71.200 366.408,71.200 362.398 C 71.200 361.544,64.132 356.719,59.863 354.660 C 54.252 351.953,49.041 346.831,46.228 341.260 C 42.849 334.565,39.441 330.651,34.971 328.331 C 26.339 323.851,18.405 311.507,14.300 296.167 L 12.542 289.600 6.271 289.600 L 0.000 289.600 0.000 344.800 " stroke="none" fill="#fcfdfb" fill-rule="evenodd"></path><path id="path2" d="M154.719 35.711 C 146.686 37.463,144.953 38.295,133.806 45.749 C 130.030 48.274,122.407 50.906,115.775 51.974 C 112.650 52.478,108.181 54.250,102.530 57.227 C 93.822 61.813,91.536 63.778,81.707 75.126 C 79.346 77.852,73.967 82.854,69.754 86.241 C 61.570 92.822,53.273 103.633,47.328 115.464 C 45.682 118.739,43.139 122.145,40.703 124.335 C 33.584 130.736,31.819 134.722,28.563 151.754 C 22.470 183.622,20.849 206.822,23.708 221.200 C 24.671 226.040,26.769 237.481,28.372 246.624 C 32.410 269.670,35.023 275.889,42.100 279.306 C 44.795 280.607,50.015 284.169,53.700 287.223 C 61.570 293.745,64.204 295.276,71.657 297.659 C 74.705 298.634,79.540 300.549,82.400 301.916 C 85.260 303.282,88.680 304.432,90.000 304.472 C 101.300 304.809,105.215 305.392,108.989 307.298 C 111.587 308.611,112.758 308.005,114.340 304.531 C 115.210 302.623,116.475 300.602,117.152 300.040 C 117.829 299.478,118.199 298.721,117.974 298.358 C 117.249 297.185,121.612 293.875,127.884 290.841 C 131.248 289.214,134.900 287.423,136.000 286.862 C 137.100 286.302,139.710 285.381,141.800 284.817 C 144.178 284.176,145.600 283.345,145.600 282.598 C 145.600 281.627,145.824 281.590,146.800 282.400 C 147.764 283.200,148.000 283.188,148.000 282.338 C 148.000 281.603,148.255 281.535,148.835 282.115 C 149.825 283.105,157.197 282.131,158.803 280.798 C 159.568 280.162,160.010 280.168,160.412 280.820 C 161.678 282.867,163.177 278.272,163.708 270.720 C 164.127 264.748,164.781 261.681,166.415 258.023 C 167.600 255.370,169.561 249.656,170.773 245.325 L 172.978 237.451 170.573 234.125 C 169.250 232.296,166.893 229.766,165.335 228.501 L 162.502 226.203 149.451 227.605 C 137.156 228.925,135.821 228.929,126.400 227.667 C 103.310 224.573,99.875 220.433,95.665 190.624 C 94.803 184.513,99.676 174.816,105.569 170.916 C 108.369 169.063,112.007 167.795,124.101 164.456 C 126.576 163.772,130.484 161.918,132.785 160.335 C 135.086 158.752,137.561 157.635,138.284 157.851 C 139.008 158.068,142.695 159.341,146.477 160.681 C 162.571 166.380,163.882 165.667,168.529 148.686 L 171.454 138.000 170.213 125.156 C 167.014 92.059,174.858 76.334,195.790 73.878 C 229.912 69.875,233.847 74.683,235.170 122.000 C 235.490 133.440,235.958 143.340,236.209 144.000 C 236.461 144.660,236.871 146.142,237.122 147.293 L 237.577 149.386 248.588 147.201 C 254.645 145.999,262.300 144.968,265.600 144.910 C 268.900 144.852,275.470 144.242,280.200 143.554 C 284.929 142.867,289.175 142.537,289.635 142.821 C 290.094 143.105,290.992 142.904,291.630 142.375 C 292.269 141.845,293.676 141.581,294.758 141.788 C 302.525 143.273,293.767 130.644,279.756 120.157 C 269.448 112.440,269.901 113.269,271.511 105.075 C 272.253 101.295,273.448 97.077,274.165 95.701 C 274.882 94.326,275.894 91.760,276.414 90.000 C 277.150 87.508,277.910 86.616,279.847 85.970 C 281.215 85.514,283.183 84.344,284.219 83.370 C 285.255 82.397,286.848 81.600,287.758 81.600 C 289.940 81.600,290.376 79.730,290.389 70.298 C 290.402 60.956,290.618 61.180,280.540 60.056 C 276.219 59.574,270.640 58.460,268.142 57.579 C 265.644 56.699,259.453 54.756,254.385 53.261 C 243.599 50.080,237.269 47.407,232.579 44.053 C 224.187 38.050,220.529 37.209,202.400 37.116 C 193.380 37.069,183.300 36.610,180.000 36.096 C 165.909 33.899,163.221 33.858,154.719 35.711 M293.000 84.025 C 290.876 84.879,290.854 85.010,292.359 87.921 C 295.140 93.299,301.775 97.321,308.450 97.675 C 313.646 97.951,314.125 97.593,315.668 92.285 L 316.957 87.851 314.729 85.526 C 312.373 83.067,297.875 82.065,293.000 84.025 M335.424 112.059 C 334.393 112.449,333.450 113.668,333.176 114.965 C 332.916 116.194,332.365 117.825,331.952 118.589 C 331.538 119.353,331.200 120.361,331.200 120.828 C 331.200 121.295,330.480 123.168,329.600 124.989 C 328.720 126.810,328.000 128.932,328.000 129.703 C 328.000 130.474,327.650 131.322,327.221 131.587 C 326.793 131.851,325.870 133.275,325.170 134.750 C 322.837 139.667,306.835 144.984,302.506 142.281 C 299.222 140.230,298.664 141.622,298.476 152.332 C 298.322 161.158,298.491 162.685,299.837 164.606 C 308.978 177.649,307.266 217.076,297.274 223.618 C 290.669 227.943,274.625 230.000,245.054 230.314 L 236.907 230.400 233.959 233.998 L 231.011 237.596 233.639 247.628 C 237.177 261.135,235.584 259.985,251.761 260.699 L 265.474 261.304 269.337 264.431 C 271.462 266.150,273.670 268.197,274.245 268.978 C 274.820 269.760,275.952 270.400,276.760 270.400 C 277.568 270.400,278.436 270.940,278.689 271.600 C 278.943 272.260,279.992 272.800,281.022 272.800 C 282.052 272.800,283.593 273.329,284.447 273.975 C 285.301 274.621,286.475 275.161,287.056 275.175 C 288.546 275.210,294.261 279.262,299.309 283.861 C 304.936 288.987,307.022 289.982,318.204 292.879 C 335.705 297.413,337.095 297.648,338.000 296.225 C 338.440 295.533,339.922 293.254,341.294 291.161 C 342.665 289.067,344.044 286.330,344.356 285.077 C 345.721 279.611,350.729 275.694,359.096 273.549 C 362.700 272.626,363.226 272.163,365.847 267.606 L 368.689 262.664 371.544 236.857 C 374.566 209.552,374.846 201.338,373.674 174.400 L 373.065 160.400 368.855 149.447 C 363.502 135.520,363.789 135.874,356.863 134.707 C 344.998 132.708,340.081 127.837,338.802 116.819 C 338.177 111.431,337.946 111.106,335.424 112.059 " stroke="none" fill="#6a9d58" fill-rule="evenodd"></path><path id="path3" d="M173.200 22.853 C 148.975 24.379,136.007 27.917,123.149 36.506 C 120.260 38.435,113.960 41.758,109.149 43.889 C 90.946 51.954,85.496 55.095,80.802 60.231 C 74.283 67.362,66.545 75.015,60.668 80.143 C 56.778 83.537,53.454 87.755,47.530 96.813 C 43.169 103.482,38.057 110.978,36.171 113.470 C 29.042 122.888,24.142 131.802,22.409 138.506 C 21.912 140.427,19.896 147.940,17.928 155.200 C 15.961 162.460,13.988 169.750,13.544 171.400 L 12.736 174.400 6.368 174.400 L 0.000 174.400 0.000 202.000 L 0.000 229.600 6.400 229.600 C 9.920 229.600,12.800 229.782,12.800 230.003 C 12.800 233.018,22.668 267.652,25.677 275.200 C 31.758 290.451,35.269 296.052,42.497 302.031 C 45.858 304.812,51.621 310.656,55.304 315.017 C 61.209 322.011,62.614 323.214,67.200 325.208 C 70.060 326.452,76.000 329.176,80.400 331.262 L 88.400 335.054 101.200 335.572 C 115.746 336.160,119.711 336.450,130.424 337.714 C 138.650 338.685,143.123 337.473,150.000 332.411 C 157.968 326.545,170.958 321.600,178.398 321.600 C 179.763 321.600,187.972 320.188,196.640 318.463 C 218.069 314.198,233.245 313.362,241.327 316.001 C 251.103 319.193,269.788 322.767,281.200 323.627 C 291.637 324.414,303.262 328.990,308.552 334.394 C 312.275 338.196,314.400 338.622,314.400 335.564 C 314.400 332.021,330.035 323.200,336.314 323.200 C 338.053 323.200,346.657 313.509,349.890 307.907 C 351.571 304.996,354.526 300.676,356.457 298.307 C 368.324 283.751,378.125 267.105,378.873 260.235 C 379.055 258.566,379.733 251.260,380.379 244.000 C 381.025 236.740,382.326 226.743,383.271 221.784 C 384.878 213.344,384.933 211.811,384.138 197.784 C 381.662 154.123,375.818 133.964,361.590 120.000 C 357.779 116.260,350.922 108.340,346.351 102.400 C 327.365 77.725,306.233 58.528,288.161 49.540 C 279.331 45.148,275.773 42.896,272.561 39.666 C 265.681 32.746,264.384 32.131,252.232 30.023 C 237.068 27.393,223.796 24.932,217.600 23.602 C 210.752 22.131,190.160 21.784,173.200 22.853 M180.000 36.096 C 183.300 36.610,193.380 37.069,202.400 37.116 C 220.529 37.209,224.187 38.050,232.579 44.053 C 237.269 47.407,243.599 50.080,254.385 53.261 C 259.453 54.756,265.644 56.699,268.142 57.579 C 270.640 58.460,276.219 59.574,280.540 60.056 C 290.618 61.180,290.402 60.956,290.389 70.298 C 290.376 79.730,289.940 81.600,287.758 81.600 C 286.848 81.600,285.255 82.397,284.219 83.370 C 283.183 84.344,281.215 85.514,279.847 85.970 C 277.910 86.616,277.150 87.508,276.414 90.000 C 275.894 91.760,274.882 94.326,274.165 95.701 C 273.448 97.077,272.253 101.295,271.511 105.075 C 269.901 113.269,269.448 112.440,279.756 120.157 C 293.767 130.644,302.525 143.273,294.758 141.788 C 293.676 141.581,292.269 141.845,291.630 142.375 C 290.992 142.904,290.094 143.105,289.635 142.821 C 289.175 142.537,284.929 142.867,280.200 143.554 C 275.470 144.242,268.900 144.852,265.600 144.910 C 262.300 144.968,254.645 145.999,248.588 147.201 L 237.577 149.386 237.122 147.293 C 236.871 146.142,236.461 144.660,236.209 144.000 C 235.958 143.340,235.490 133.440,235.170 122.000 C 233.847 74.683,229.912 69.875,195.790 73.878 C 174.858 76.334,167.014 92.059,170.213 125.156 L 171.454 138.000 168.529 148.686 C 163.882 165.667,162.571 166.380,146.477 160.681 C 142.695 159.341,139.008 158.068,138.284 157.851 C 137.561 157.635,135.086 158.752,132.785 160.335 C 130.484 161.918,126.576 163.772,124.101 164.456 C 112.007 167.795,108.369 169.063,105.569 170.916 C 99.676 174.816,94.803 184.513,95.665 190.624 C 99.875 220.433,103.310 224.573,126.400 227.667 C 135.821 228.929,137.156 228.925,149.451 227.605 L 162.502 226.203 165.335 228.501 C 166.893 229.766,169.250 232.296,170.573 234.125 L 172.978 237.451 170.773 245.325 C 169.561 249.656,167.600 255.370,166.415 258.023 C 164.781 261.681,164.127 264.748,163.708 270.720 C 163.177 278.272,161.678 282.867,160.412 280.820 C 160.010 280.168,159.568 280.162,158.803 280.798 C 157.197 282.131,149.825 283.105,148.835 282.115 C 148.255 281.535,148.000 281.603,148.000 282.338 C 148.000 283.188,147.764 283.200,146.800 282.400 C 145.824 281.590,145.600 281.627,145.600 282.598 C 145.600 283.345,144.178 284.176,141.800 284.817 C 139.710 285.381,137.100 286.302,136.000 286.862 C 134.900 287.423,131.248 289.214,127.884 290.841 C 121.612 293.875,117.249 297.185,117.974 298.358 C 118.199 298.721,117.829 299.478,117.152 300.040 C 116.475 300.602,115.210 302.623,114.340 304.531 C 112.758 308.005,111.587 308.611,108.989 307.298 C 105.215 305.392,101.300 304.809,90.000 304.472 C 88.680 304.432,85.260 303.282,82.400 301.916 C 79.540 300.549,74.705 298.634,71.657 297.659 C 64.204 295.276,61.570 293.745,53.700 287.223 C 50.015 284.169,44.795 280.607,42.100 279.306 C 35.023 275.889,32.410 269.670,28.372 246.624 C 26.769 237.481,24.671 226.040,23.708 221.200 C 20.849 206.822,22.470 183.622,28.563 151.754 C 31.819 134.722,33.584 130.736,40.703 124.335 C 43.139 122.145,45.682 118.739,47.328 115.464 C 53.273 103.633,61.570 92.822,69.754 86.241 C 73.967 82.854,79.346 77.852,81.707 75.126 C 91.536 63.778,93.822 61.813,102.530 57.227 C 108.181 54.250,112.650 52.478,115.775 51.974 C 122.407 50.906,130.030 48.274,133.806 45.749 C 151.214 34.107,158.063 32.676,180.000 36.096 M314.729 85.526 L 316.957 87.851 315.668 92.285 C 314.125 97.593,313.646 97.951,308.450 97.675 C 300.880 97.273,291.200 90.281,291.200 85.214 C 291.200 82.145,311.751 82.417,314.729 85.526 M215.960 88.750 C 222.665 97.215,225.302 107.203,225.975 126.674 C 226.261 134.965,227.188 146.465,228.034 152.230 L 229.572 162.711 232.986 166.202 L 236.400 169.693 250.895 169.137 C 281.189 167.974,288.400 170.023,294.134 181.418 L 297.061 187.236 295.242 196.535 C 292.999 208.001,291.630 212.121,289.359 214.237 C 286.891 216.538,269.371 219.091,251.773 219.715 C 236.170 220.269,235.579 220.463,229.389 227.081 C 221.982 234.999,221.780 236.341,225.263 254.400 C 227.087 263.859,225.946 275.094,222.131 285.227 C 221.474 286.972,220.716 291.083,220.448 294.361 C 219.920 300.799,218.475 304.082,215.044 306.640 L 212.888 308.247 207.844 306.427 C 205.070 305.426,202.440 304.332,202.000 303.996 C 201.560 303.660,199.940 303.123,198.400 302.803 C 196.860 302.484,195.060 301.753,194.400 301.179 C 193.740 300.606,191.940 299.815,190.400 299.422 C 187.428 298.664,184.478 294.549,183.161 289.325 C 182.811 287.936,181.552 284.477,180.365 281.637 C 177.007 273.611,175.263 263.644,176.430 259.147 C 176.951 257.138,178.032 251.412,178.832 246.421 L 180.287 237.348 177.648 232.258 C 171.504 220.407,166.239 217.960,149.558 219.203 C 135.464 220.253,133.531 219.978,120.304 215.038 C 111.917 211.905,111.284 211.063,106.711 196.954 C 103.373 186.656,103.403 186.457,109.097 180.945 C 112.150 177.990,133.355 171.245,138.133 171.709 C 138.646 171.759,144.586 172.056,151.333 172.369 L 163.600 172.937 168.543 168.453 C 174.121 163.393,174.315 162.946,177.243 148.400 C 179.300 138.183,179.320 137.767,178.380 124.800 C 177.315 110.109,177.743 107.641,183.298 96.400 C 187.005 88.900,186.683 89.109,197.235 87.348 C 211.895 84.902,212.977 84.983,215.960 88.750 M338.802 116.819 C 340.081 127.837,344.998 132.708,356.863 134.707 C 363.789 135.874,363.502 135.520,368.855 149.447 L 373.065 160.400 373.674 174.400 C 374.846 201.338,374.566 209.552,371.544 236.857 L 368.689 262.664 365.847 267.606 C 363.226 272.163,362.700 272.626,359.096 273.549 C 350.729 275.694,345.721 279.611,344.356 285.077 C 344.044 286.330,342.665 289.067,341.294 291.161 C 339.922 293.254,338.440 295.533,338.000 296.225 C 337.095 297.648,335.705 297.413,318.204 292.879 C 307.022 289.982,304.936 288.987,299.309 283.861 C 294.261 279.262,288.546 275.210,287.056 275.175 C 286.475 275.161,285.301 274.621,284.447 273.975 C 283.593 273.329,282.052 272.800,281.022 272.800 C 279.992 272.800,278.943 272.260,278.689 271.600 C 278.436 270.940,277.568 270.400,276.760 270.400 C 275.952 270.400,274.820 269.760,274.245 268.978 C 273.670 268.197,271.462 266.150,269.337 264.431 L 265.474 261.304 251.761 260.699 C 235.584 259.985,237.177 261.135,233.639 247.628 L 231.011 237.596 233.959 233.998 L 236.907 230.400 245.054 230.314 C 274.625 230.000,290.669 227.943,297.274 223.618 C 307.266 217.076,308.978 177.649,299.837 164.606 C 298.491 162.685,298.322 161.158,298.476 152.332 C 298.664 141.622,299.222 140.230,302.506 142.281 C 306.835 144.984,322.837 139.667,325.170 134.750 C 325.870 133.275,326.793 131.851,327.221 131.587 C 327.650 131.322,328.000 130.474,328.000 129.703 C 328.000 128.932,328.720 126.810,329.600 124.989 C 330.480 123.168,331.200 121.295,331.200 120.828 C 331.200 120.361,331.538 119.353,331.952 118.589 C 332.365 117.825,332.916 116.194,333.176 114.965 C 333.607 112.922,336.393 110.917,337.721 111.692 C 338.008 111.860,338.494 114.167,338.802 116.819 " stroke="none" fill="#a1ce87" fill-rule="evenodd"></path><path id="path4" d="M185.518 13.149 C 185.326 13.341,180.496 14.274,174.784 15.224 C 142.632 20.569,126.576 25.746,116.366 34.062 C 113.902 36.069,110.535 38.188,108.883 38.771 C 91.854 44.779,79.239 53.079,70.114 64.281 C 68.417 66.364,64.457 70.114,61.314 72.614 C 53.953 78.469,54.100 78.295,44.697 92.400 C 40.297 99.000,36.045 105.120,35.247 106.000 C 28.292 113.676,20.390 128.582,15.636 143.000 L 12.668 152.000 6.334 152.000 L 0.000 152.000 0.000 163.200 L 0.000 174.400 6.368 174.400 L 12.736 174.400 13.544 171.400 C 13.988 169.750,15.961 162.460,17.928 155.200 C 19.896 147.940,21.912 140.427,22.409 138.506 C 24.142 131.802,29.042 122.888,36.171 113.470 C 38.057 110.978,43.169 103.482,47.530 96.813 C 53.454 87.755,56.778 83.537,60.668 80.143 C 66.545 75.015,74.283 67.362,80.802 60.231 C 85.496 55.095,90.946 51.954,109.149 43.889 C 113.960 41.758,120.260 38.435,123.149 36.506 C 139.312 25.709,158.671 22.000,197.200 22.320 C 206.000 22.392,214.460 22.786,216.000 23.194 C 219.288 24.064,236.602 27.332,252.232 30.031 C 264.386 32.130,265.677 32.742,272.561 39.666 C 275.773 42.896,279.331 45.148,288.161 49.540 C 306.233 58.528,327.365 77.725,346.351 102.400 C 350.922 108.340,357.779 116.260,361.590 120.000 C 375.818 133.964,381.662 154.123,384.138 197.784 C 384.933 211.811,384.878 213.344,383.271 221.784 C 382.326 226.743,381.025 236.740,380.379 244.000 C 379.733 251.260,379.055 258.566,378.873 260.235 C 378.125 267.105,368.324 283.751,356.457 298.307 C 354.526 300.676,351.571 304.996,349.890 307.907 C 346.657 313.509,338.053 323.200,336.314 323.200 C 330.035 323.200,314.400 332.021,314.400 335.564 C 314.400 338.622,312.275 338.196,308.552 334.394 C 303.262 328.990,291.637 324.414,281.200 323.627 C 269.788 322.767,251.103 319.193,241.327 316.001 C 233.245 313.362,218.069 314.198,196.640 318.463 C 187.972 320.188,179.763 321.600,178.398 321.600 C 170.958 321.600,157.968 326.545,150.000 332.411 C 143.123 337.473,138.650 338.685,130.424 337.714 C 119.711 336.450,115.746 336.160,101.200 335.572 L 88.400 335.054 80.400 331.262 C 76.000 329.176,70.060 326.452,67.200 325.208 C 62.614 323.214,61.209 322.011,55.304 315.017 C 51.621 310.656,45.858 304.812,42.497 302.031 C 35.269 296.052,31.758 290.451,25.677 275.200 C 22.668 267.652,12.800 233.018,12.800 230.003 C 12.800 229.782,9.920 229.600,6.400 229.600 L 0.000 229.600 0.000 243.600 L 0.000 257.600 6.200 257.601 L 12.400 257.602 13.804 262.380 C 19.218 280.803,28.678 298.660,38.830 309.614 C 47.301 318.756,56.984 330.027,60.055 334.319 C 61.314 336.079,63.834 337.876,67.200 339.414 C 72.549 341.858,82.365 347.857,85.200 350.414 C 86.778 351.837,91.208 353.314,95.700 353.916 C 101.053 354.633,109.121 356.104,109.715 356.471 C 110.069 356.690,114.417 356.285,119.379 355.571 C 124.341 354.858,132.158 353.763,136.750 353.139 C 152.418 351.008,167.534 347.810,182.000 343.564 C 194.812 339.804,223.374 338.349,228.031 341.220 C 228.268 341.366,232.948 341.880,238.431 342.361 C 255.888 343.893,272.387 345.806,272.800 346.345 C 273.020 346.632,274.730 347.360,276.600 347.962 C 278.470 348.564,280.000 349.358,280.000 349.728 C 280.000 350.098,280.460 350.400,281.022 350.400 C 282.081 350.400,284.358 352.664,284.553 353.911 C 284.614 354.301,285.144 354.918,285.732 355.281 C 286.319 355.645,286.845 356.315,286.900 356.771 C 286.955 357.227,287.068 358.230,287.151 359.000 C 287.301 360.401,288.330 358.722,288.743 356.400 C 288.937 355.312,292.748 353.375,295.200 353.119 C 296.300 353.004,300.592 352.658,304.739 352.351 L 312.278 351.791 320.207 345.474 C 324.569 341.999,330.717 337.408,333.869 335.272 C 340.966 330.463,348.336 322.840,355.983 312.400 C 359.206 308.000,363.174 302.937,364.800 301.150 C 366.427 299.362,368.762 296.122,369.990 293.950 C 371.219 291.777,373.603 287.656,375.288 284.791 C 383.246 271.265,385.506 264.549,386.547 251.329 L 387.502 239.200 393.751 239.200 L 400.000 239.200 400.000 204.400 L 400.000 169.600 393.767 169.600 L 387.534 169.600 386.207 162.600 C 381.723 138.938,375.567 125.206,364.520 114.218 C 361.744 111.458,357.910 107.040,355.999 104.400 C 334.598 74.842,314.056 56.143,291.050 45.279 C 284.658 42.261,280.439 39.624,276.686 36.303 C 267.462 28.139,264.693 26.905,247.200 23.166 C 238.620 21.333,227.332 18.607,222.116 17.110 C 212.095 14.234,187.134 11.533,185.518 13.149 M197.235 87.348 C 186.683 89.109,187.005 88.900,183.298 96.400 C 177.743 107.641,177.315 110.109,178.380 124.800 C 179.320 137.767,179.300 138.183,177.243 148.400 C 174.315 162.946,174.121 163.393,168.543 168.453 L 163.600 172.937 151.333 172.369 C 144.586 172.056,138.646 171.759,138.133 171.709 C 133.355 171.245,112.150 177.990,109.097 180.945 C 103.403 186.457,103.373 186.656,106.711 196.954 C 111.284 211.063,111.917 211.905,120.304 215.038 C 133.531 219.978,135.464 220.253,149.558 219.203 C 166.239 217.960,171.504 220.407,177.648 232.258 L 180.287 237.348 178.832 246.421 C 178.032 251.412,176.951 257.138,176.430 259.147 C 175.263 263.644,177.007 273.611,180.365 281.637 C 181.552 284.477,182.811 287.936,183.161 289.325 C 184.478 294.549,187.428 298.664,190.400 299.422 C 191.940 299.815,193.740 300.606,194.400 301.179 C 195.060 301.753,196.860 302.484,198.400 302.803 C 199.940 303.123,201.560 303.660,202.000 303.996 C 202.440 304.332,205.070 305.426,207.844 306.427 L 212.888 308.247 215.044 306.640 C 218.475 304.082,219.920 300.799,220.448 294.361 C 220.716 291.083,221.474 286.972,222.131 285.227 C 225.946 275.094,227.087 263.859,225.263 254.400 C 221.780 236.341,221.982 234.999,229.389 227.081 C 235.579 220.463,236.170 220.269,251.773 219.715 C 269.371 219.091,286.891 216.538,289.359 214.237 C 291.630 212.121,292.999 208.001,295.242 196.535 L 297.061 187.236 294.134 181.418 C 288.400 170.023,281.189 167.974,250.895 169.137 L 236.400 169.693 232.986 166.202 L 229.572 162.711 228.034 152.230 C 227.188 146.465,226.261 134.965,225.975 126.674 C 225.302 107.203,222.665 97.215,215.960 88.750 C 212.977 84.983,211.895 84.902,197.235 87.348 M218.557 107.939 C 219.814 110.848,220.286 114.559,220.855 126.000 C 221.486 138.700,222.527 148.555,224.421 159.745 C 224.830 162.163,226.093 164.331,228.978 167.568 C 234.803 174.103,235.658 174.400,248.672 174.400 C 256.710 174.400,262.027 174.850,267.712 176.012 C 289.065 180.377,292.443 183.068,289.286 193.201 L 287.542 198.800 279.571 203.086 C 265.875 210.450,261.646 211.822,248.349 213.219 C 231.598 214.978,224.791 219.086,219.194 230.813 L 216.582 236.285 217.271 246.343 C 218.420 263.125,218.308 264.508,215.258 271.034 C 213.410 274.988,212.180 276.733,211.440 276.449 C 209.381 275.659,201.196 273.710,194.230 272.352 L 187.260 270.993 185.966 267.096 C 184.938 264.003,184.710 260.352,184.857 249.400 C 185.237 221.120,177.723 213.235,150.325 213.163 L 136.249 213.126 131.525 208.274 C 126.768 203.390,119.310 197.412,114.725 194.808 C 110.970 192.676,109.199 184.800,112.474 184.800 C 112.703 184.800,118.901 183.219,126.246 181.287 C 138.258 178.128,140.794 177.730,151.480 177.336 C 175.868 176.437,183.584 163.924,183.128 126.011 C 182.957 111.828,182.996 111.455,185.122 106.718 L 187.289 101.888 199.845 99.463 L 212.400 97.038 214.688 100.658 C 215.947 102.649,217.688 105.926,218.557 107.939 " stroke="none" fill="#bbe59d" fill-rule="evenodd"></path></g></svg>