<svg id="svg" version="1.1" width="1000" height="437" xmlns="http://www.w3.org/2000/svg" xmlns:xlink="http://www.w3.org/1999/xlink" style="display: block;"><g id="svgg"><path id="path0" d="M284.263 5.100 C 284.120 7.905,284.003 20.599,284.002 33.310 L 284.000 56.420 282.565 59.269 L 281.130 62.118 276.265 61.861 C 273.589 61.720,214.313 61.599,144.540 61.592 L 17.679 61.580 15.594 62.402 C 12.294 63.703,10.120 65.443,8.087 68.411 L 6.200 71.166 3.100 71.183 L 0.000 71.200 0.000 92.800 L 0.000 114.400 3.100 114.403 L 6.200 114.406 7.156 116.103 C 7.682 117.036,8.358 118.070,8.657 118.400 C 8.956 118.730,9.902 119.916,10.759 121.035 C 12.311 123.064,15.052 125.312,17.480 126.548 C 18.655 127.147,29.041 127.199,144.080 127.191 L 269.400 127.182 275.200 126.219 C 278.390 125.689,281.119 125.379,281.264 125.528 C 283.017 127.336,283.958 138.954,283.981 159.100 L 284.000 174.800 287.000 174.800 L 290.000 174.800 290.003 160.100 C 290.008 129.614,288.631 121.674,281.844 113.070 C 281.300 112.381,280.848 112.365,273.739 112.782 C 268.519 113.089,229.971 113.214,148.005 113.191 C 82.992 113.172,27.190 113.280,24.000 113.431 L 18.200 113.705 15.945 111.497 C 5.028 100.805,5.219 76.392,16.264 70.783 L 18.200 69.800 149.600 70.000 L 281.000 70.200 282.600 69.339 C 283.967 68.604,284.503 67.876,286.279 64.339 C 290.253 56.428,289.916 58.946,290.176 35.200 C 290.302 23.650,290.517 11.005,290.653 7.100 L 290.901 0.000 287.712 0.000 L 284.523 0.000 284.263 5.100 M299.600 3.757 C 299.600 5.824,299.859 10.009,300.175 13.057 C 301.295 23.855,301.720 34.396,301.484 45.552 L 301.252 56.504 307.214 62.575 C 314.547 70.043,315.914 70.713,322.847 70.236 C 325.039 70.085,330.920 69.973,335.916 69.988 C 346.878 70.021,355.796 69.128,356.435 67.935 C 356.992 66.894,358.351 60.260,358.635 57.200 C 358.934 53.964,358.109 48.725,356.023 40.626 C 353.749 31.793,353.701 31.253,354.998 29.039 C 356.304 26.810,355.687 26.812,362.767 29.017 C 371.320 31.682,372.354 33.068,377.593 48.910 C 380.186 56.752,380.651 57.829,382.258 59.710 C 387.466 65.809,391.765 77.920,392.135 87.536 C 392.574 98.948,387.952 115.950,382.095 124.462 C 381.403 125.468,380.182 128.489,379.210 131.603 C 377.512 137.039,372.325 148.420,370.017 151.776 L 368.837 153.491 365.820 152.966 C 362.236 152.343,358.400 151.185,358.400 150.727 C 358.400 150.547,358.158 150.400,357.862 150.400 C 355.400 150.400,354.463 144.882,355.790 138.211 C 358.011 127.047,357.954 115.296,355.674 114.645 C 350.913 113.286,347.898 113.003,339.200 113.100 C 333.090 113.168,328.347 112.998,324.429 112.571 L 318.659 111.942 316.229 113.638 C 310.576 117.583,310.177 118.055,306.825 124.761 C 302.276 133.859,301.911 136.211,301.619 158.300 L 301.400 174.801 307.500 174.800 L 313.600 174.800 313.601 158.900 C 313.602 135.330,314.586 128.510,318.629 124.051 C 318.703 123.970,321.573 124.853,325.007 126.015 L 331.251 128.128 336.326 126.876 C 344.182 124.939,343.722 124.960,344.881 126.482 C 347.433 129.834,347.600 130.562,347.600 138.333 C 347.600 151.549,349.105 160.619,352.234 166.265 C 353.452 168.463,353.600 169.059,353.600 171.765 L 353.600 174.800 361.600 174.800 L 369.600 174.800 369.600 171.741 L 369.600 168.683 371.366 166.795 C 373.391 164.630,374.755 162.119,375.925 158.400 C 376.375 156.970,377.219 154.540,377.802 153.000 C 378.384 151.460,379.215 148.670,379.648 146.800 C 380.737 142.088,380.955 141.640,383.396 139.058 C 385.532 136.799,386.154 135.713,388.999 129.274 C 390.326 126.270,393.600 113.389,393.600 111.172 C 393.600 110.474,393.905 110.400,396.800 110.400 L 400.000 110.400 400.000 91.800 L 400.000 73.200 396.870 73.200 L 393.741 73.200 392.897 70.300 C 392.433 68.705,391.683 65.786,391.231 63.814 C 389.788 57.521,385.815 50.148,382.786 48.143 C 381.032 46.983,380.367 45.374,379.584 40.400 C 379.099 37.323,376.053 27.236,374.983 25.167 C 373.526 22.349,370.242 19.580,367.694 19.021 C 366.987 18.865,366.304 18.568,366.175 18.360 C 365.789 17.736,361.166 15.527,358.621 14.751 L 356.242 14.026 354.897 15.052 C 347.225 20.903,345.231 36.249,350.045 52.391 L 351.175 56.182 350.121 57.282 C 349.541 57.888,347.882 59.173,346.433 60.139 L 343.800 61.894 337.702 61.472 C 331.902 61.071,328.895 61.202,320.200 62.233 C 318.626 62.420,318.558 62.373,316.008 59.360 L 313.415 56.298 313.547 45.788 C 313.620 40.007,313.450 27.340,313.169 17.639 L 312.660 0.000 306.130 0.000 L 299.600 0.000 299.600 3.757 " stroke="none" fill="#cfcfcf" fill-rule="evenodd"></path><path id="path1" d="M0.000 35.600 L 0.000 71.200 3.100 71.183 L 6.200 71.166 8.087 68.411 C 10.120 65.443,12.294 63.703,15.594 62.402 L 17.679 61.580 144.540 61.592 C 214.313 61.599,273.589 61.720,276.265 61.861 L 281.130 62.118 282.525 59.349 L 283.919 56.580 284.060 28.290 L 284.200 -0.000 142.100 -0.000 L 0.000 0.000 0.000 35.600 M312.974 8.900 C 313.139 13.795,313.346 26.509,313.433 37.152 L 313.593 56.505 316.096 59.464 C 318.554 62.368,318.630 62.419,320.200 62.233 C 328.895 61.202,331.902 61.071,337.702 61.472 L 343.800 61.894 346.433 60.139 C 347.882 59.173,349.541 57.888,350.121 57.282 L 351.175 56.182 350.045 52.391 C 345.231 36.249,347.225 20.903,354.897 15.052 L 356.242 14.026 358.621 14.751 C 361.166 15.527,365.789 17.736,366.175 18.360 C 366.304 18.568,366.987 18.865,367.694 19.021 C 370.242 19.580,373.526 22.349,374.983 25.167 C 376.053 27.236,379.099 37.323,379.584 40.400 C 380.367 45.374,381.032 46.983,382.786 48.143 C 385.815 50.148,389.788 57.521,391.231 63.814 C 391.683 65.786,392.433 68.705,392.897 70.300 L 393.741 73.200 396.870 73.200 L 400.000 73.200 400.000 36.600 L 400.000 0.000 356.337 0.000 L 312.674 0.000 312.974 8.900 M393.600 111.172 C 393.600 113.389,390.326 126.270,388.999 129.274 C 386.154 135.713,385.532 136.799,383.396 139.058 C 380.955 141.640,380.737 142.088,379.648 146.800 C 379.215 148.670,378.384 151.460,377.802 153.000 C 377.219 154.540,376.375 156.970,375.925 158.400 C 374.755 162.119,373.391 164.630,371.366 166.795 L 369.600 168.683 369.600 171.741 L 369.600 174.800 384.800 174.800 L 400.000 174.800 400.000 142.600 L 400.000 110.400 396.800 110.400 C 393.905 110.400,393.600 110.474,393.600 111.172 M0.000 144.600 L 0.000 174.800 142.000 174.800 L 284.000 174.800 283.981 159.100 C 283.958 138.954,283.017 127.336,281.264 125.528 C 281.119 125.379,278.390 125.689,275.200 126.219 L 269.400 127.182 144.080 127.191 C 29.041 127.199,18.655 127.147,17.480 126.548 C 15.052 125.312,12.311 123.064,10.759 121.035 C 9.902 119.916,8.956 118.730,8.657 118.400 C 8.358 118.070,7.682 117.036,7.156 116.103 L 6.200 114.406 3.100 114.403 L 0.000 114.400 0.000 144.600 M316.695 127.545 C 314.062 132.473,313.602 137.131,313.601 158.900 L 313.600 174.800 333.600 174.800 L 353.600 174.800 353.600 171.765 C 353.600 169.059,353.452 168.463,352.234 166.265 C 349.105 160.619,347.600 151.549,347.600 138.333 C 347.600 130.562,347.433 129.834,344.881 126.482 C 343.722 124.960,344.182 124.939,336.326 126.876 L 331.251 128.128 325.126 126.060 C 321.756 124.922,318.908 123.994,318.795 123.996 C 318.682 123.998,317.737 125.595,316.695 127.545 " stroke="none" fill="#ffffff" fill-rule="evenodd"></path><path id="path2" d="M292.781 74.552 C 292.282 75.458,290.912 77.339,289.737 78.732 L 287.600 81.264 287.606 87.532 C 287.612 93.739,287.627 93.845,289.156 98.400 C 290.005 100.930,290.832 103.608,290.993 104.352 C 291.282 105.683,293.997 110.592,293.999 109.786 C 294.000 109.559,294.495 109.070,295.100 108.700 C 296.517 107.835,299.383 105.176,299.736 104.400 C 299.886 104.070,300.365 103.260,300.800 102.600 C 301.235 101.940,301.728 101.130,301.895 100.800 C 302.250 100.102,304.496 96.694,304.796 96.400 C 306.595 94.634,306.774 93.800,306.722 87.432 L 306.672 81.195 303.236 79.336 C 301.346 78.313,298.425 76.447,296.744 75.190 L 293.689 72.904 292.781 74.552 " stroke="none" fill="#000d5c" fill-rule="evenodd"></path><path id="path3" d="M367.442 45.348 C 364.887 50.748,364.315 55.980,365.359 64.386 C 365.997 69.527,365.734 70.629,363.337 72.856 C 359.785 76.156,358.435 76.329,335.597 76.419 L 316.200 76.495 308.800 75.023 C 304.730 74.213,299.720 73.097,297.666 72.543 L 293.933 71.536 291.266 72.937 C 289.800 73.708,287.218 74.802,285.529 75.369 L 282.459 76.400 163.204 76.400 C 79.792 76.400,42.184 76.533,38.075 76.843 C 33.542 77.185,30.655 77.168,25.434 76.769 L 18.669 76.251 16.534 78.544 L 14.400 80.837 14.400 87.432 C 14.400 94.582,14.509 95.021,17.460 99.694 C 18.607 101.512,18.833 101.527,26.200 100.280 C 30.999 99.468,31.801 99.436,36.600 99.870 C 40.435 100.217,73.320 100.348,161.910 100.370 L 282.020 100.400 284.910 101.853 C 286.499 102.652,288.584 103.843,289.542 104.501 L 291.285 105.697 290.992 104.348 C 290.832 103.607,290.005 100.930,289.156 98.400 C 287.627 93.845,287.612 93.739,287.606 87.532 L 287.600 81.264 289.737 78.732 C 290.912 77.339,292.282 75.458,292.781 74.552 L 293.689 72.904 296.744 75.190 C 298.425 76.447,301.346 78.313,303.236 79.336 L 306.672 81.195 306.722 87.432 C 306.774 93.800,306.595 94.634,304.796 96.400 C 304.496 96.694,302.250 100.102,301.895 100.800 C 301.728 101.130,301.231 101.940,300.791 102.600 C 300.351 103.260,299.882 104.115,299.749 104.500 C 299.616 104.885,299.348 105.200,299.153 105.200 C 298.959 105.200,298.800 105.354,298.800 105.542 C 298.800 105.730,300.915 105.180,303.500 104.319 C 306.085 103.458,310.540 102.171,313.400 101.458 L 318.600 100.162 338.600 100.389 C 361.320 100.646,361.160 100.624,365.036 104.132 L 366.895 105.815 366.439 108.011 C 366.188 109.219,365.808 112.456,365.595 115.204 C 365.381 117.952,364.875 122.694,364.471 125.741 L 363.735 131.282 364.818 133.541 C 365.413 134.784,366.522 136.508,367.281 137.373 L 368.661 138.946 369.877 137.173 C 372.695 133.062,373.085 131.818,373.372 126.000 C 373.973 113.829,375.288 110.589,380.116 109.384 C 381.649 109.001,382.367 107.402,384.343 99.963 C 387.742 87.171,385.422 73.321,379.457 70.788 C 375.417 69.073,374.548 67.524,373.962 61.000 C 373.546 56.365,373.265 55.267,370.688 48.200 C 368.670 42.664,368.699 42.690,367.442 45.348 " stroke="none" fill="#001fa0" fill-rule="evenodd"></path><path id="path4" d="M290.653 7.100 C 290.517 11.005,290.302 23.650,290.176 35.200 C 289.916 58.946,290.253 56.428,286.279 64.339 C 284.503 67.876,283.967 68.604,282.600 69.339 L 281.000 70.200 149.600 70.000 L 18.200 69.800 16.264 70.783 C 5.219 76.392,5.028 100.805,15.945 111.497 L 18.200 113.705 24.000 113.431 C 27.190 113.280,82.992 113.172,148.005 113.191 C 229.971 113.214,268.519 113.089,273.739 112.782 C 280.848 112.365,281.300 112.381,281.844 113.070 C 288.631 121.675,290.008 129.613,290.003 160.111 L 290.000 174.822 295.700 174.711 L 301.400 174.600 301.617 158.200 C 301.907 136.233,302.277 133.857,306.825 124.761 C 310.177 118.055,310.576 117.583,316.229 113.638 L 318.659 111.942 324.429 112.571 C 328.347 112.998,333.090 113.168,339.200 113.100 C 347.898 113.003,350.913 113.286,355.674 114.645 C 357.954 115.296,358.011 127.047,355.790 138.211 C 354.463 144.882,355.400 150.400,357.862 150.400 C 358.158 150.400,358.400 150.547,358.400 150.727 C 358.400 151.185,362.236 152.343,365.820 152.966 L 368.837 153.491 370.017 151.776 C 372.325 148.420,377.512 137.039,379.210 131.603 C 380.182 128.489,381.403 125.468,382.095 124.462 C 387.952 115.950,392.574 98.948,392.135 87.536 C 391.765 77.920,387.466 65.809,382.258 59.710 C 380.651 57.829,380.186 56.752,377.593 48.910 C 372.354 33.068,371.320 31.682,362.767 29.017 C 355.687 26.812,356.304 26.810,354.998 29.039 C 353.701 31.253,353.749 31.793,356.023 40.626 C 358.109 48.725,358.934 53.964,358.635 57.200 C 358.351 60.260,356.992 66.894,356.435 67.935 C 355.796 69.128,346.878 70.021,335.916 69.988 C 330.920 69.973,325.039 70.085,322.847 70.236 C 315.914 70.713,314.547 70.043,307.214 62.575 L 301.252 56.504 301.484 45.552 C 301.720 34.396,301.295 23.855,300.175 13.057 C 299.859 10.009,299.600 5.824,299.600 3.757 L 299.600 0.000 295.250 0.000 L 290.901 0.000 290.653 7.100 M370.688 48.200 C 373.265 55.267,373.546 56.365,373.962 61.000 C 374.548 67.524,375.417 69.073,379.457 70.788 C 385.422 73.321,387.742 87.171,384.343 99.963 C 382.367 107.402,381.649 109.001,380.116 109.384 C 375.288 110.589,373.973 113.829,373.372 126.000 C 373.085 131.818,372.695 133.062,369.877 137.173 L 368.661 138.946 367.281 137.373 C 366.522 136.508,365.413 134.784,364.818 133.541 L 363.735 131.282 364.471 125.741 C 364.875 122.694,365.381 117.952,365.595 115.204 C 365.808 112.456,366.188 109.219,366.439 108.011 L 366.895 105.815 365.036 104.132 C 361.159 100.622,361.322 100.645,338.600 100.398 C 316.034 100.152,317.023 100.058,306.000 103.522 C 299.706 105.500,298.228 106.126,296.611 107.499 C 293.501 110.140,293.860 110.102,292.630 107.915 C 291.363 105.660,289.481 104.171,285.109 101.962 L 282.018 100.400 161.909 100.370 C 73.320 100.348,40.435 100.217,36.600 99.870 C 31.801 99.436,30.999 99.468,26.200 100.280 C 18.833 101.527,18.607 101.512,17.460 99.694 C 14.509 95.021,14.400 94.582,14.400 87.432 L 14.400 80.837 16.534 78.544 L 18.669 76.251 25.434 76.769 C 30.655 77.168,33.542 77.185,38.075 76.843 C 42.184 76.533,79.792 76.400,163.204 76.400 L 282.459 76.400 285.529 75.369 C 287.218 74.802,289.800 73.708,291.266 72.937 L 293.933 71.536 297.666 72.543 C 299.720 73.097,304.730 74.213,308.800 75.023 L 316.200 76.495 335.597 76.419 C 358.435 76.329,359.785 76.156,363.337 72.856 C 365.734 70.629,365.997 69.527,365.359 64.386 C 364.315 55.980,364.887 50.748,367.442 45.348 C 368.699 42.690,368.670 42.664,370.688 48.200 " stroke="none" fill="#8b91b2" fill-rule="evenodd"></path></g></svg>