<svg id="svg" version="1.1" width="500" height="500" xmlns="http://www.w3.org/2000/svg" xmlns:xlink="http://www.w3.org/1999/xlink" style="display: block;"><g id="svgg"><path id="path0" d="M0.000 61.200 L 0.000 122.400 6.332 122.400 L 12.664 122.400 14.026 116.200 C 18.087 97.716,19.327 94.055,23.292 88.844 C 24.148 87.720,26.023 85.183,27.459 83.207 C 28.896 81.230,31.735 78.350,33.767 76.807 C 37.593 73.901,41.603 68.836,45.402 62.108 C 50.471 53.131,52.339 50.946,57.200 48.300 C 64.374 44.396,74.151 37.420,75.030 35.578 C 78.824 27.623,95.523 17.573,108.879 15.207 C 111.696 14.708,115.350 13.905,117.000 13.423 L 120.000 12.547 120.000 6.273 L 120.000 0.000 60.000 0.000 L 0.000 0.000 0.000 61.200 M280.000 6.296 L 280.000 12.592 283.400 13.470 C 285.270 13.952,288.960 14.761,291.600 15.266 C 304.879 17.807,321.279 27.792,324.964 35.578 C 325.900 37.556,335.584 44.365,341.600 47.276 C 346.919 49.850,350.473 53.452,352.971 58.800 C 355.881 65.031,362.535 74.069,365.340 75.601 C 374.009 80.334,382.128 95.341,386.006 113.800 L 387.309 120.000 393.655 120.000 L 400.000 120.000 400.000 60.000 L 400.000 0.000 340.000 0.000 L 280.000 0.000 280.000 6.296 M166.400 56.710 C 162.660 57.016,156.000 58.033,151.600 58.971 C 147.200 59.910,141.991 60.975,140.025 61.339 C 136.989 61.900,136.184 62.474,134.686 65.145 C 130.925 71.853,125.162 76.328,117.600 78.415 C 112.507 79.821,102.104 86.944,100.781 89.932 C 99.232 93.433,94.137 98.681,90.630 100.389 C 86.665 102.321,80.830 110.682,78.450 117.841 C 76.110 124.885,72.672 129.307,66.762 132.876 C 62.871 135.225,61.894 136.249,61.419 138.476 C 54.002 173.281,52.153 219.073,57.237 242.058 C 57.828 244.730,58.876 250.490,59.567 254.858 C 61.136 264.784,61.952 266.820,64.838 268.016 C 69.479 269.938,75.387 277.492,77.598 284.331 C 78.155 286.053,79.871 289.113,81.412 291.131 C 82.953 293.149,84.956 296.328,85.864 298.196 C 86.772 300.064,88.122 301.785,88.865 302.020 C 90.387 302.504,98.400 310.725,98.400 311.804 C 98.400 312.189,99.570 313.062,101.000 313.745 C 102.430 314.427,105.400 316.364,107.600 318.048 C 109.800 319.733,113.951 322.258,116.825 323.660 C 123.404 326.870,126.668 329.607,129.328 334.147 C 131.820 338.398,133.131 339.010,143.600 340.807 C 148.000 341.562,155.380 342.913,160.000 343.809 C 187.429 349.130,214.993 349.182,240.800 343.962 C 244.980 343.117,251.938 341.865,256.263 341.181 C 266.632 339.540,269.682 338.257,271.575 334.742 C 273.591 330.999,278.499 326.651,283.130 324.506 C 285.194 323.549,288.484 321.468,290.442 319.880 C 292.399 318.292,295.980 315.869,298.400 314.495 C 300.820 313.120,303.677 310.804,304.749 309.347 C 305.821 307.890,307.898 305.821,309.364 304.749 C 310.829 303.677,313.144 300.746,314.506 298.237 C 315.869 295.727,318.143 292.307,319.559 290.637 C 320.975 288.966,323.112 285.440,324.309 282.800 C 326.614 277.712,330.674 272.971,335.058 270.248 C 338.449 268.142,338.927 266.806,341.246 252.954 C 342.300 246.658,343.381 241.154,343.649 240.721 C 347.603 234.324,346.751 175.588,342.414 155.600 C 341.555 151.640,340.466 146.060,339.995 143.200 C 338.796 135.931,337.828 133.888,335.031 132.730 C 330.515 130.859,325.134 124.553,322.663 118.234 C 320.051 111.555,313.262 101.338,310.601 100.084 C 307.832 98.778,302.045 93.157,300.456 90.228 C 298.664 86.926,288.305 79.907,282.514 78.070 C 275.121 75.726,270.415 71.987,266.111 65.039 C 264.426 62.319,263.454 61.584,261.015 61.186 C 259.357 60.916,253.327 59.787,247.616 58.678 C 236.639 56.547,184.001 55.272,166.400 56.710 M217.200 71.122 C 228.717 77.766,231.248 88.185,230.000 123.816 L 229.516 137.631 233.358 141.659 L 237.200 145.686 242.346 141.703 C 245.176 139.513,248.021 136.704,248.668 135.460 C 254.646 123.971,259.717 122.056,276.709 124.872 C 298.574 128.496,302.165 136.612,290.509 156.057 C 288.813 158.886,286.966 163.180,286.404 165.600 C 283.700 177.245,278.728 182.248,266.729 185.397 L 261.381 186.800 260.294 191.052 C 257.894 200.434,252.494 205.934,243.200 208.461 C 235.615 210.523,234.113 211.612,232.479 216.231 C 225.200 236.818,184.621 235.822,174.199 214.800 C 171.825 210.012,170.882 188.217,170.840 137.200 L 170.800 88.400 172.874 84.000 C 177.452 74.288,182.939 70.224,192.400 69.536 C 208.594 68.359,212.885 68.633,217.200 71.122 M0.000 340.000 L 0.000 400.000 58.800 400.000 L 117.600 400.000 117.600 393.654 C 117.600 388.305,117.380 387.241,116.200 386.884 C 115.430 386.652,111.426 385.734,107.303 384.845 C 93.207 381.806,78.401 372.745,74.293 364.644 C 72.983 362.060,66.212 356.967,59.610 353.597 C 53.543 350.502,49.394 346.459,46.920 341.233 C 44.007 335.081,37.878 326.703,34.971 324.900 C 29.861 321.731,20.824 309.660,18.125 302.400 C 17.099 299.639,12.800 281.780,12.800 280.279 C 12.800 280.125,9.920 280.000,6.400 280.000 L 0.000 280.000 0.000 340.000 M386.356 287.000 C 384.301 296.855,382.988 301.291,380.745 305.954 C 375.036 317.820,371.621 322.507,366.247 325.847 C 362.005 328.485,356.158 335.964,354.315 341.113 C 352.545 346.057,347.479 351.165,341.597 353.937 C 334.430 357.315,327.633 362.325,326.374 365.158 C 323.330 372.008,308.163 381.524,295.757 384.369 C 292.591 385.095,288.470 386.076,286.600 386.548 L 283.200 387.408 283.200 393.704 L 283.200 400.000 341.600 400.000 L 400.000 400.000 400.000 341.200 L 400.000 282.400 393.657 282.400 L 387.315 282.400 386.356 287.000 " stroke="none" fill="#fefefe" fill-rule="evenodd"></path><path id="path1" d="M185.600 6.353 C 185.600 14.205,184.728 13.731,200.081 14.221 C 215.585 14.716,215.200 14.917,215.200 6.302 L 215.200 0.000 200.400 0.000 L 185.600 0.000 185.600 6.353 M123.600 33.727 C 109.076 34.714,106.567 36.146,110.532 41.187 C 112.167 43.265,112.517 43.359,116.732 42.855 C 119.190 42.561,124.871 41.994,129.357 41.595 C 155.881 39.236,150.512 31.898,123.600 33.727 M260.088 33.638 C 255.045 35.731,252.764 37.079,253.353 37.615 C 255.063 39.171,262.941 40.866,271.821 41.588 C 277.222 42.028,283.017 42.608,284.698 42.876 C 287.371 43.304,287.970 43.091,289.477 41.175 C 293.198 36.444,290.735 34.736,279.200 34.052 C 274.580 33.778,268.820 33.394,266.400 33.199 C 263.980 33.003,261.139 33.201,260.088 33.638 M84.200 59.891 C 80.926 62.693,80.947 63.420,84.369 66.031 L 87.139 68.143 90.787 65.524 C 94.910 62.562,94.955 61.931,91.220 59.400 C 87.876 57.134,87.380 57.169,84.200 59.891 M308.586 59.629 C 304.883 62.145,304.891 62.233,309.118 65.340 C 312.543 67.857,312.594 67.868,314.887 66.470 C 319.426 63.702,319.591 62.844,316.110 60.087 C 312.322 57.087,312.326 57.087,308.586 59.629 M335.497 82.538 C 331.960 86.418,331.884 87.392,334.851 90.834 L 337.580 94.000 339.990 91.387 C 343.000 88.124,342.984 87.518,339.785 83.738 L 337.195 80.677 335.497 82.538 M59.645 84.412 C 57.314 87.469,57.395 88.906,60.091 92.334 C 62.244 95.071,62.637 94.977,65.531 91.042 C 68.513 86.987,68.505 87.123,65.929 84.061 C 63.276 80.909,62.275 80.964,59.645 84.412 M35.784 110.632 C 34.691 112.299,32.861 133.368,33.419 137.851 C 33.740 140.433,37.017 147.305,37.611 146.643 C 39.196 144.876,40.924 137.005,41.617 128.400 C 42.042 123.120,42.606 117.318,42.870 115.508 C 43.604 110.465,38.289 106.808,35.784 110.632 M358.865 110.676 C 357.372 111.871,356.704 112.996,357.012 113.798 C 357.276 114.488,357.916 120.186,358.433 126.461 C 359.262 136.523,361.186 144.800,362.696 144.800 C 362.889 144.800,363.938 143.270,365.025 141.400 L 367.003 138.000 366.218 125.200 C 365.215 108.856,364.040 106.535,358.865 110.676 M259.278 159.900 C 256.320 162.353,256.447 163.601,259.783 164.870 C 264.070 166.500,266.799 163.373,264.350 159.636 C 262.703 157.122,262.623 157.126,259.278 159.900 M209.522 182.600 C 205.984 187.435,205.985 187.399,209.211 192.259 L 212.137 196.666 217.602 193.889 C 220.850 192.239,226.033 190.518,230.377 189.646 C 238.040 188.109,239.174 187.632,237.947 186.461 C 237.359 185.899,213.744 179.200,212.354 179.200 C 212.165 179.200,210.890 180.730,209.522 182.600 M34.926 258.170 C 33.057 261.878,33.017 262.332,33.660 272.400 C 34.026 278.120,34.342 283.950,34.362 285.355 C 34.384 286.831,35.161 288.764,36.200 289.930 L 38.000 291.950 40.315 290.053 L 42.629 288.157 41.675 275.479 C 40.261 256.683,38.261 251.556,34.926 258.170 M361.089 258.600 C 359.966 260.759,357.886 277.663,357.640 286.636 C 357.599 288.118,360.951 292.000,362.272 292.000 C 364.630 292.000,365.688 287.677,366.405 275.108 L 367.138 262.270 365.159 259.135 C 362.768 255.348,362.779 255.349,361.089 258.600 M59.671 308.861 C 57.025 312.006,57.070 312.546,60.296 316.358 L 62.968 319.517 65.191 316.157 L 67.415 312.796 65.199 309.598 C 62.536 305.756,62.310 305.726,59.671 308.861 M334.862 309.990 C 332.607 312.946,332.775 314.301,335.827 317.800 C 337.537 319.761,337.813 319.639,340.658 315.678 L 343.188 312.156 340.873 309.678 C 337.952 306.551,337.465 306.577,334.862 309.990 M84.200 334.492 C 80.869 336.626,80.927 337.697,84.523 340.440 C 89.683 344.376,95.344 339.441,90.587 335.154 C 87.490 332.363,87.519 332.366,84.200 334.492 M309.793 335.022 C 306.601 337.689,306.600 337.758,309.722 340.676 L 312.244 343.033 315.522 340.659 C 319.504 337.774,319.577 336.988,316.082 334.632 C 312.745 332.384,312.966 332.370,309.793 335.022 M109.659 359.917 L 107.866 362.435 109.733 363.991 C 110.760 364.847,112.500 365.592,113.600 365.647 C 114.700 365.702,120.460 366.022,126.400 366.359 C 137.259 366.975,143.200 365.609,143.200 362.497 C 143.200 361.088,136.118 359.333,128.487 358.851 C 124.134 358.576,118.521 358.137,116.013 357.875 C 111.587 357.413,111.400 357.473,109.659 359.917 M278.800 358.431 C 276.160 358.758,272.020 359.067,269.600 359.118 C 259.563 359.326,255.029 362.023,259.657 365.031 L 262.800 367.075 275.350 366.389 C 291.270 365.519,294.493 364.021,290.036 359.564 C 287.956 357.483,287.118 357.399,278.800 358.431 M183.000 385.253 L 179.200 387.231 179.200 393.615 L 179.200 400.000 200.400 400.000 L 221.600 400.000 221.600 393.658 L 221.600 387.316 217.250 385.258 C 210.757 382.187,188.897 382.183,183.000 385.253 " stroke="none" fill="#001c79" fill-rule="evenodd"></path><path id="path2" d="M167.080 10.237 C 166.862 18.215,166.497 20.935,165.428 22.566 L 164.055 24.659 147.428 25.041 C 114.809 25.788,101.968 29.968,98.441 40.987 C 97.303 44.540,94.573 46.876,90.176 48.060 C 84.670 49.543,72.578 59.329,69.512 64.786 C 68.597 66.413,66.713 68.392,65.325 69.184 C 59.360 72.584,50.206 83.867,48.316 90.148 C 46.872 94.946,45.341 96.611,40.312 98.856 C 33.543 101.877,28.548 109.766,27.683 118.800 C 27.388 121.880,26.598 127.608,25.926 131.529 C 21.911 154.984,33.090 179.923,39.517 161.848 C 43.190 151.518,47.667 136.848,49.480 129.200 C 51.457 120.856,56.205 110.843,59.093 108.927 C 64.195 105.541,75.986 90.685,77.738 85.435 C 78.957 81.784,81.934 78.799,85.440 77.712 C 90.353 76.188,104.203 65.208,108.589 59.359 C 111.949 54.878,120.634 51.324,138.195 47.242 C 142.263 46.297,150.723 43.758,156.995 41.601 L 168.400 37.679 169.266 34.246 C 170.909 27.733,171.551 27.600,201.235 27.600 C 229.176 27.600,231.185 27.909,231.211 32.218 C 231.239 36.778,231.822 37.275,241.065 40.624 C 252.082 44.615,259.286 46.735,267.600 48.432 C 281.033 51.174,290.569 55.605,293.294 60.369 C 296.021 65.137,310.256 76.155,315.003 77.171 C 318.342 77.886,322.117 81.663,322.823 84.997 C 323.127 86.429,324.296 88.860,325.422 90.400 C 331.258 98.382,336.570 104.259,339.133 105.566 C 344.286 108.197,348.142 115.608,350.855 128.100 C 354.207 143.534,360.500 159.286,363.549 159.875 C 372.818 161.666,377.814 148.365,374.470 130.800 C 373.632 126.400,372.695 120.460,372.388 117.600 C 371.482 109.173,365.423 100.487,359.026 98.443 C 355.286 97.249,352.303 93.760,351.634 89.799 C 350.782 84.757,340.171 71.554,334.650 68.666 C 333.247 67.932,331.380 65.921,330.500 64.197 C 328.068 59.429,315.740 49.819,309.908 48.146 C 305.398 46.851,302.694 44.532,301.561 40.987 C 299.302 33.915,291.073 28.665,280.000 27.232 C 275.820 26.691,269.927 25.739,266.904 25.115 C 262.517 24.210,258.886 24.134,248.904 24.736 C 232.913 25.701,232.800 25.563,232.800 5.079 L 232.800 0.000 224.000 0.000 L 215.200 0.000 215.200 6.302 C 215.200 14.917,215.585 14.716,200.081 14.221 C 184.728 13.731,185.600 14.205,185.600 6.353 L 185.600 0.000 176.480 0.000 L 167.361 0.000 167.080 10.237 M143.613 35.123 C 149.713 37.822,144.337 40.263,129.357 41.595 C 124.871 41.994,119.190 42.561,116.732 42.855 C 112.136 43.405,108.800 41.325,108.800 37.911 C 108.800 33.506,135.181 31.394,143.613 35.123 M279.200 34.052 C 290.735 34.736,293.198 36.444,289.477 41.175 C 287.970 43.091,287.371 43.304,284.698 42.876 C 283.017 42.608,277.222 42.028,271.821 41.588 C 262.941 40.866,255.063 39.171,253.353 37.615 C 252.764 37.079,255.045 35.731,260.088 33.638 C 261.139 33.201,263.980 33.003,266.400 33.199 C 268.820 33.394,274.580 33.778,279.200 34.052 M91.220 59.400 C 94.955 61.931,94.910 62.562,90.787 65.524 L 87.139 68.143 84.369 66.031 C 80.947 63.420,80.926 62.693,84.200 59.891 C 87.380 57.169,87.876 57.134,91.220 59.400 M316.110 60.087 C 319.591 62.844,319.426 63.702,314.887 66.470 C 312.594 67.868,312.543 67.857,309.118 65.340 C 304.891 62.233,304.883 62.145,308.586 59.629 C 312.326 57.087,312.322 57.087,316.110 60.087 M342.388 87.787 C 342.395 88.330,341.316 89.950,339.990 91.387 L 337.580 94.000 334.851 90.834 C 331.884 87.392,331.960 86.418,335.497 82.538 L 337.195 80.677 339.785 83.738 C 341.210 85.422,342.382 87.244,342.388 87.787 M65.929 84.061 C 68.505 87.123,68.513 86.987,65.531 91.042 C 62.637 94.977,62.244 95.071,60.091 92.334 C 57.395 88.906,57.314 87.469,59.645 84.412 C 62.275 80.964,63.276 80.909,65.929 84.061 M40.951 110.508 C 43.133 112.062,43.306 112.512,42.870 115.508 C 42.606 117.318,42.042 123.120,41.617 128.400 C 40.924 137.005,39.196 144.876,37.611 146.643 C 37.017 147.305,33.740 140.433,33.419 137.851 C 33.319 137.053,33.541 131.014,33.911 124.432 C 34.773 109.089,35.881 106.897,40.951 110.508 M364.298 110.600 C 365.048 111.790,365.698 116.735,366.218 125.200 L 367.003 138.000 365.025 141.400 C 363.938 143.270,362.889 144.800,362.696 144.800 C 361.186 144.800,359.262 136.523,358.433 126.461 C 357.916 120.186,357.276 114.488,357.012 113.798 C 355.813 110.674,362.496 107.741,364.298 110.600 M255.200 153.508 C 245.358 161.415,244.791 162.160,244.066 168.143 C 243.651 171.569,238.073 171.977,228.689 169.269 C 210.940 164.147,210.262 164.192,203.517 170.936 C 193.784 180.669,194.443 192.464,205.479 206.060 C 211.363 213.309,211.809 213.434,215.597 208.903 C 220.067 203.558,224.840 200.171,232.347 197.017 C 242.325 192.825,245.254 189.527,245.836 181.824 C 246.437 173.877,246.981 173.388,255.825 172.838 C 263.488 172.361,267.220 170.389,271.302 164.657 L 273.034 162.225 271.320 158.698 C 269.709 155.381,263.587 147.973,262.498 148.023 C 262.224 148.035,258.940 150.504,255.200 153.508 M264.350 159.636 C 266.799 163.373,264.070 166.500,259.783 164.870 C 256.447 163.601,256.320 162.353,259.278 159.900 C 262.623 157.126,262.703 157.122,264.350 159.636 M383.319 168.423 C 378.510 172.469,377.999 175.510,378.010 200.000 C 378.025 232.782,379.957 237.600,393.094 237.600 L 400.000 237.600 400.000 202.000 L 400.000 166.400 392.861 166.400 C 386.393 166.400,385.497 166.590,383.319 168.423 M0.000 200.800 L 0.000 228.000 6.600 227.997 C 20.220 227.991,22.000 224.708,22.000 199.600 C 22.000 175.897,20.639 173.658,6.200 173.618 L 0.000 173.600 0.000 200.800 M224.949 182.474 C 241.561 186.913,241.883 187.338,230.377 189.646 C 226.033 190.518,220.850 192.239,217.602 193.889 L 212.137 196.666 209.211 192.259 C 207.602 189.835,206.454 187.435,206.660 186.926 C 207.175 185.652,211.929 179.200,212.354 179.200 C 212.543 179.200,218.211 180.673,224.949 182.474 M31.943 239.181 C 24.786 242.965,23.411 252.996,26.730 277.200 C 28.622 290.996,33.365 299.278,40.619 301.451 C 44.612 302.648,47.150 305.420,48.093 309.616 C 49.389 315.387,59.472 328.430,64.557 330.914 C 66.500 331.863,68.123 333.471,69.048 335.362 C 71.527 340.434,85.378 351.395,90.460 352.307 C 93.940 352.931,97.389 356.343,98.091 359.857 C 99.179 365.294,109.072 371.675,118.169 372.807 C 121.596 373.234,127.418 374.175,131.106 374.898 C 148.247 378.262,157.814 374.232,156.647 364.139 C 156.254 360.740,143.959 354.922,131.924 352.440 C 111.351 348.197,104.698 345.171,103.649 339.579 C 102.830 335.212,91.051 325.824,84.108 324.004 C 79.680 322.844,77.159 320.324,75.991 315.892 C 74.133 308.839,65.665 297.622,60.429 295.278 C 54.749 292.735,51.252 285.047,47.987 267.924 C 46.353 259.358,43.574 250.554,40.049 242.780 C 37.448 237.044,36.653 236.691,31.943 239.181 M360.842 244.508 C 357.234 250.624,353.652 260.696,352.332 268.439 C 349.193 286.858,345.653 295.334,340.640 296.435 C 335.598 297.543,326.609 308.120,324.477 315.455 C 323.012 320.493,320.649 322.921,315.781 324.385 C 308.358 326.620,298.118 334.987,297.269 339.512 C 296.583 343.170,294.135 346.115,290.987 347.067 C 284.386 349.063,272.573 351.957,266.400 353.090 C 258.387 354.562,244.584 361.008,244.123 363.494 C 242.217 373.785,252.340 379.311,266.575 375.750 C 269.339 375.059,274.840 374.078,278.800 373.571 C 290.524 372.070,300.746 366.142,302.436 359.865 C 303.523 355.829,305.455 353.937,309.754 352.700 C 321.286 349.380,349.364 321.349,352.668 309.859 C 353.741 306.127,357.141 302.804,360.680 302.026 C 365.523 300.963,371.628 290.873,372.828 281.952 C 373.298 278.458,374.246 272.540,374.935 268.800 C 377.144 256.802,375.034 245.639,370.135 243.407 C 364.856 241.002,362.765 241.249,360.842 244.508 M39.499 259.009 C 40.171 261.094,41.150 268.505,41.675 275.479 L 42.629 288.157 40.315 290.053 L 38.000 291.950 36.200 289.930 C 35.161 288.764,34.384 286.831,34.362 285.355 C 34.342 283.950,34.026 278.120,33.660 272.400 C 32.721 257.703,36.376 249.320,39.499 259.009 M365.159 259.135 L 367.138 262.270 366.405 275.108 C 365.480 291.323,364.025 294.498,359.564 290.036 C 357.311 287.784,357.366 288.853,358.708 273.200 C 360.092 257.058,361.673 253.612,365.159 259.135 M65.199 309.598 L 67.415 312.796 65.191 316.157 L 62.968 319.517 60.296 316.358 C 57.070 312.546,57.025 312.006,59.671 308.861 C 62.310 305.726,62.536 305.756,65.199 309.598 M340.873 309.678 L 343.188 312.156 340.658 315.678 C 337.813 319.639,337.537 319.761,335.827 317.800 C 332.775 314.301,332.607 312.946,334.862 309.990 C 337.465 306.577,337.952 306.551,340.873 309.678 M90.587 335.154 C 95.344 339.441,89.683 344.376,84.523 340.440 C 80.927 337.697,80.869 336.626,84.200 334.492 C 87.519 332.366,87.490 332.363,90.587 335.154 M316.082 334.632 C 319.577 336.988,319.504 337.774,315.522 340.659 L 312.244 343.033 309.722 340.676 C 306.600 337.758,306.601 337.689,309.793 335.022 C 312.966 332.370,312.745 332.384,316.082 334.632 M128.487 358.851 C 136.118 359.333,143.200 361.088,143.200 362.497 C 143.200 365.609,137.259 366.975,126.400 366.359 C 120.460 366.022,114.700 365.702,113.600 365.647 C 112.500 365.592,110.760 364.847,109.733 363.991 L 107.866 362.435 109.659 359.917 C 111.400 357.473,111.587 357.413,116.013 357.875 C 118.521 358.137,124.134 358.576,128.487 358.851 M290.036 359.564 C 294.493 364.021,291.270 365.519,275.350 366.389 L 262.800 367.075 259.657 365.031 C 255.029 362.023,259.563 359.326,269.600 359.118 C 272.020 359.067,276.160 358.758,278.800 358.431 C 287.118 357.399,287.956 357.483,290.036 359.564 M174.643 374.789 C 162.355 377.018,159.203 380.653,159.201 392.600 L 159.200 400.000 169.200 400.000 L 179.200 400.000 179.200 393.613 L 179.200 387.227 183.173 385.213 C 189.263 382.127,210.691 382.156,217.250 385.258 L 221.600 387.316 221.600 393.658 L 221.600 400.000 232.091 400.000 L 242.581 400.000 242.272 391.633 C 241.819 379.391,239.318 377.125,223.600 374.715 C 214.271 373.285,182.671 373.332,174.643 374.789 " stroke="none" fill="#3e4287" fill-rule="evenodd"></path><path id="path3" d="M146.400 6.313 L 146.400 12.626 143.400 13.823 C 138.670 15.710,130.009 18.109,119.676 20.395 C 106.001 23.420,96.675 28.525,91.951 35.569 C 90.834 37.236,87.435 40.068,84.000 42.194 C 69.697 51.046,51.359 69.051,44.127 81.343 C 41.086 86.511,38.277 90.016,34.388 93.499 C 27.818 99.380,24.468 104.946,22.445 113.337 C 21.615 116.782,19.808 124.380,18.430 130.222 C 17.052 136.065,15.234 142.455,14.390 144.422 L 12.857 148.000 6.428 148.000 L 0.000 148.000 0.000 160.800 L 0.000 173.600 6.200 173.618 C 20.639 173.658,22.000 175.897,22.000 199.600 C 22.000 224.708,20.220 227.991,6.600 227.997 L 0.000 228.000 0.000 241.168 L 0.000 254.335 6.571 254.568 L 13.143 254.800 15.345 261.472 C 16.557 265.142,18.644 273.062,19.985 279.072 C 23.456 294.638,28.664 303.859,37.268 309.673 C 38.186 310.293,41.246 314.580,44.068 319.200 C 50.788 330.200,68.614 348.443,79.600 355.564 C 83.560 358.131,89.500 362.972,92.800 366.321 C 100.350 373.984,105.767 376.770,120.000 380.311 C 125.940 381.789,132.960 383.874,135.600 384.946 L 140.400 386.894 140.632 393.447 L 140.865 400.000 150.032 400.000 L 159.200 400.000 159.201 392.600 C 159.204 376.509,165.119 373.676,198.800 373.634 C 235.085 373.588,241.705 376.329,242.272 391.633 L 242.581 400.000 251.658 400.000 L 260.735 400.000 260.968 393.447 L 261.200 386.894 265.916 385.001 C 268.510 383.959,275.328 381.857,281.069 380.328 C 295.094 376.594,300.617 373.760,307.579 366.722 C 310.671 363.596,316.260 358.946,320.000 356.387 C 337.790 344.217,343.592 338.621,353.624 323.961 C 357.351 318.515,363.046 311.396,366.279 308.142 C 373.563 300.810,377.444 293.143,380.349 280.346 C 381.455 275.477,383.358 268.637,384.580 265.146 L 386.800 258.800 393.400 258.568 L 400.000 258.335 400.000 247.968 L 400.000 237.600 393.094 237.600 C 379.957 237.600,378.025 232.782,378.010 200.000 C 377.996 169.171,379.221 166.400,392.861 166.400 L 400.000 166.400 400.000 155.200 L 400.000 144.000 393.728 144.000 C 387.668 144.000,387.422 143.926,386.433 141.800 C 384.376 137.381,381.763 128.933,380.049 121.160 C 376.808 106.459,372.597 98.422,365.069 92.571 C 362.085 90.253,359.637 87.326,357.228 83.200 C 348.265 67.847,330.599 50.428,315.200 41.760 C 312.514 40.248,309.487 37.591,307.429 34.938 C 301.261 26.990,294.403 23.594,275.200 18.981 C 268.820 17.449,261.530 15.405,259.000 14.440 L 254.400 12.685 254.400 6.343 L 254.400 0.000 243.600 0.000 L 232.800 0.000 232.800 5.079 C 232.800 25.563,232.913 25.701,248.904 24.736 C 258.886 24.134,262.517 24.210,266.904 25.115 C 269.927 25.739,275.820 26.691,280.000 27.232 C 291.073 28.665,299.302 33.915,301.561 40.987 C 302.694 44.532,305.398 46.851,309.908 48.146 C 315.740 49.819,328.068 59.429,330.500 64.197 C 331.380 65.921,333.247 67.932,334.650 68.666 C 340.171 71.554,350.782 84.757,351.634 89.799 C 352.303 93.760,355.286 97.249,359.026 98.443 C 365.423 100.487,371.482 109.173,372.388 117.600 C 372.695 120.460,373.632 126.400,374.470 130.800 C 377.814 148.365,372.818 161.666,363.549 159.875 C 360.500 159.286,354.207 143.534,350.855 128.100 C 348.142 115.608,344.286 108.197,339.133 105.566 C 336.570 104.259,331.258 98.382,325.422 90.400 C 324.296 88.860,323.127 86.429,322.823 84.997 C 322.117 81.663,318.342 77.886,315.003 77.171 C 310.256 76.155,296.021 65.137,293.294 60.369 C 290.569 55.605,281.033 51.174,267.600 48.432 C 259.286 46.735,252.082 44.615,241.065 40.624 C 231.822 37.275,231.239 36.778,231.211 32.218 C 231.185 27.909,229.176 27.600,201.235 27.600 C 171.551 27.600,170.909 27.733,169.266 34.246 L 168.400 37.679 156.995 41.601 C 150.723 43.758,142.263 46.297,138.195 47.242 C 120.634 51.324,111.949 54.878,108.589 59.359 C 104.203 65.208,90.353 76.188,85.440 77.712 C 81.934 78.799,78.957 81.784,77.738 85.435 C 75.986 90.685,64.195 105.541,59.093 108.927 C 56.205 110.843,51.457 120.856,49.480 129.200 C 47.667 136.848,43.190 151.518,39.517 161.848 C 33.090 179.923,21.911 154.984,25.926 131.529 C 26.598 127.608,27.388 121.880,27.683 118.800 C 28.548 109.766,33.543 101.877,40.312 98.856 C 45.341 96.611,46.872 94.946,48.316 90.148 C 50.206 83.867,59.360 72.584,65.325 69.184 C 66.713 68.392,68.597 66.413,69.512 64.786 C 72.578 59.329,84.670 49.543,90.176 48.060 C 94.573 46.876,97.303 44.540,98.441 40.987 C 101.968 29.968,114.809 25.788,147.428 25.041 L 164.055 24.659 165.428 22.566 C 166.497 20.935,166.862 18.215,167.080 10.237 L 167.361 0.000 156.880 0.000 L 146.400 0.000 146.400 6.313 M215.785 42.391 C 218.086 43.266,224.206 44.857,229.385 45.927 C 239.562 48.029,256.548 52.425,266.800 55.610 C 275.128 58.198,279.175 60.628,290.800 70.018 C 296.080 74.283,303.431 79.624,307.136 81.887 C 312.237 85.001,314.374 86.854,315.936 89.518 C 319.161 95.016,326.442 104.633,332.272 111.094 C 340.532 120.249,343.204 125.866,348.494 145.200 C 349.698 149.600,351.524 155.274,352.551 157.809 C 353.579 160.344,355.312 166.644,356.401 171.809 C 357.491 176.974,358.926 183.168,359.591 185.574 C 361.432 192.237,361.240 211.190,359.252 219.067 C 358.400 222.440,357.163 228.080,356.503 231.600 C 355.843 235.120,354.398 239.980,353.292 242.400 C 352.186 244.820,350.351 250.220,349.215 254.400 C 341.948 281.134,340.155 285.380,333.914 290.627 C 328.333 295.319,324.104 300.440,320.692 306.637 C 317.233 312.919,312.818 317.294,306.400 320.800 C 301.889 323.264,294.498 329.848,287.923 337.259 C 285.266 340.253,275.698 344.027,261.600 347.642 C 255.415 349.228,247.894 351.813,244.000 353.691 C 240.260 355.494,234.320 357.666,230.800 358.518 C 227.280 359.369,222.112 360.771,219.316 361.633 C 210.040 364.492,189.107 363.907,178.400 360.489 C 173.780 359.014,168.380 357.546,166.400 357.227 C 164.420 356.908,162.045 356.169,161.122 355.585 C 157.491 353.287,149.325 350.343,137.931 347.222 C 121.059 342.601,115.511 339.800,108.611 332.419 C 103.328 326.766,97.025 321.992,88.621 317.277 C 86.020 315.818,84.178 313.980,82.712 311.379 C 76.806 300.903,75.133 298.505,69.438 292.349 C 59.767 281.896,56.879 276.126,52.653 258.813 C 51.362 253.526,49.274 245.780,48.012 241.600 C 42.498 223.330,39.501 192.794,42.461 185.052 C 42.935 183.813,44.368 177.646,45.647 171.347 C 46.925 165.048,48.159 159.590,48.389 159.218 C 48.618 158.846,50.262 152.840,52.041 145.871 C 55.264 133.244,58.147 125.862,61.719 121.084 C 62.753 119.700,66.300 115.091,69.600 110.842 C 72.900 106.593,78.141 99.445,81.246 94.958 C 86.338 87.600,87.643 86.287,94.563 81.564 C 98.782 78.684,103.802 75.048,105.717 73.483 C 112.829 67.672,123.541 59.859,126.326 58.451 C 130.944 56.116,150.816 50.570,173.600 45.256 C 178.660 44.076,183.880 42.620,185.200 42.020 C 189.312 40.152,210.572 40.410,215.785 42.391 M199.600 84.565 C 192.948 85.201,187.191 86.133,186.682 86.656 C 182.061 91.409,181.854 172.265,186.402 196.000 C 189.623 212.812,191.375 214.920,205.987 219.573 L 212.744 221.724 215.372 219.687 C 216.817 218.566,220.435 215.160,223.412 212.118 C 227.006 208.444,230.769 205.574,234.612 203.576 C 242.626 199.409,247.377 195.813,249.875 192.024 C 251.044 190.251,252.971 187.328,254.157 185.530 C 255.786 183.061,257.849 181.488,262.575 179.112 C 274.396 173.168,280.363 165.598,279.026 158.240 C 277.108 147.689,273.713 142.705,266.604 140.004 L 262.557 138.466 255.478 143.554 C 251.585 146.353,245.921 150.799,242.891 153.435 L 237.382 158.227 234.594 157.062 C 220.755 151.280,216.994 143.757,218.280 124.429 C 219.654 103.785,216.842 84.406,212.351 83.559 C 211.938 83.481,206.200 83.934,199.600 84.565 M266.302 151.586 C 268.120 153.558,270.378 156.759,271.320 158.698 L 273.034 162.225 271.302 164.657 C 267.220 170.389,263.488 172.361,255.825 172.838 C 246.981 173.388,246.437 173.877,245.836 181.824 C 245.254 189.527,242.325 192.825,232.347 197.017 C 224.840 200.171,220.067 203.558,215.597 208.903 C 211.809 213.434,211.363 213.309,205.479 206.060 C 194.443 192.464,193.784 180.669,203.517 170.936 C 210.262 164.192,210.940 164.147,228.689 169.269 C 238.073 171.977,243.651 171.569,244.066 168.143 C 244.791 162.160,245.358 161.415,255.200 153.508 C 263.301 147.000,262.243 147.183,266.302 151.586 M40.049 242.780 C 43.574 250.554,46.353 259.358,47.987 267.924 C 51.252 285.047,54.749 292.735,60.429 295.278 C 65.665 297.622,74.133 308.839,75.991 315.892 C 77.159 320.324,79.680 322.844,84.108 324.004 C 91.051 325.824,102.830 335.212,103.649 339.579 C 104.698 345.171,111.351 348.197,131.924 352.440 C 143.959 354.922,156.254 360.740,156.647 364.139 C 157.814 374.232,148.247 378.262,131.106 374.898 C 127.418 374.175,121.596 373.234,118.169 372.807 C 109.072 371.675,99.179 365.294,98.091 359.857 C 97.389 356.343,93.940 352.931,90.460 352.307 C 85.378 351.395,71.527 340.434,69.048 335.362 C 68.123 333.471,66.500 331.863,64.557 330.914 C 59.472 328.430,49.389 315.387,48.093 309.616 C 47.150 305.420,44.612 302.648,40.619 301.451 C 33.365 299.278,28.622 290.996,26.730 277.200 C 23.411 252.996,24.786 242.965,31.943 239.181 C 36.653 236.691,37.448 237.044,40.049 242.780 M370.135 243.407 C 375.034 245.639,377.144 256.802,374.935 268.800 C 374.246 272.540,373.298 278.458,372.828 281.952 C 371.628 290.873,365.523 300.963,360.680 302.026 C 357.141 302.804,353.741 306.127,352.668 309.859 C 349.364 321.349,321.286 349.380,309.754 352.700 C 305.455 353.937,303.523 355.829,302.436 359.865 C 300.746 366.142,290.524 372.070,278.800 373.571 C 274.840 374.078,269.339 375.059,266.575 375.750 C 252.340 379.311,242.217 373.785,244.123 363.494 C 244.584 361.008,258.387 354.562,266.400 353.090 C 272.573 351.957,284.386 349.063,290.987 347.067 C 294.135 346.115,296.583 343.170,297.269 339.512 C 298.118 334.987,308.358 326.620,315.781 324.385 C 320.649 322.921,323.012 320.493,324.477 315.455 C 326.609 308.120,335.598 297.543,340.640 296.435 C 345.653 295.334,349.193 286.858,352.332 268.439 C 353.652 260.696,357.234 250.624,360.842 244.508 C 362.765 241.249,364.856 241.002,370.135 243.407 " stroke="none" fill="#8284a7" fill-rule="evenodd"></path><path id="path4" d="M120.000 6.273 L 120.000 12.547 117.000 13.423 C 115.350 13.905,111.696 14.708,108.879 15.207 C 95.523 17.573,78.824 27.623,75.030 35.578 C 74.151 37.420,64.374 44.396,57.200 48.300 C 52.339 50.946,50.471 53.131,45.402 62.108 C 41.603 68.836,37.593 73.901,33.767 76.807 C 31.735 78.350,28.896 81.230,27.459 83.207 C 26.023 85.183,24.148 87.720,23.292 88.844 C 19.327 94.055,18.087 97.716,14.026 116.200 L 12.664 122.400 6.332 122.400 L 0.000 122.400 0.000 135.200 L 0.000 148.000 6.428 148.000 L 12.857 148.000 14.390 144.422 C 15.234 142.455,17.052 136.065,18.430 130.222 C 19.808 124.380,21.615 116.782,22.445 113.337 C 24.468 104.946,27.818 99.380,34.388 93.499 C 38.277 90.016,41.086 86.511,44.127 81.343 C 51.359 69.051,69.697 51.046,84.000 42.194 C 87.435 40.068,90.834 37.236,91.951 35.569 C 96.675 28.525,106.001 23.420,119.676 20.395 C 130.009 18.109,138.670 15.710,143.400 13.823 L 146.400 12.626 146.400 6.313 L 146.400 0.000 133.200 0.000 L 120.000 0.000 120.000 6.273 M254.400 6.343 L 254.400 12.685 259.000 14.440 C 261.530 15.405,268.820 17.449,275.200 18.981 C 294.403 23.594,301.261 26.990,307.429 34.938 C 309.487 37.591,312.514 40.248,315.200 41.760 C 330.599 50.428,348.265 67.847,357.228 83.200 C 359.637 87.326,362.085 90.253,365.069 92.571 C 372.597 98.422,376.808 106.459,380.049 121.160 C 381.763 128.933,384.376 137.381,386.433 141.800 C 387.422 143.926,387.668 144.000,393.728 144.000 L 400.000 144.000 400.000 132.000 L 400.000 120.000 393.655 120.000 L 387.309 120.000 386.006 113.800 C 382.128 95.341,374.009 80.334,365.340 75.601 C 362.535 74.069,355.881 65.031,352.971 58.800 C 350.473 53.452,346.919 49.850,341.600 47.276 C 335.584 44.365,325.900 37.556,324.964 35.578 C 321.279 27.792,304.879 17.807,291.600 15.266 C 288.960 14.761,285.270 13.952,283.400 13.470 L 280.000 12.592 280.000 6.296 L 280.000 0.000 267.200 0.000 L 254.400 0.000 254.400 6.343 M185.200 42.020 C 183.880 42.620,178.660 44.076,173.600 45.256 C 150.816 50.570,130.944 56.116,126.326 58.451 C 123.541 59.859,112.829 67.672,105.717 73.483 C 103.802 75.048,98.782 78.684,94.563 81.564 C 87.643 86.287,86.338 87.600,81.246 94.958 C 78.141 99.445,72.900 106.593,69.600 110.842 C 66.300 115.091,62.753 119.700,61.719 121.084 C 58.147 125.862,55.264 133.244,52.041 145.871 C 50.262 152.840,48.618 158.846,48.389 159.218 C 48.159 159.590,46.925 165.048,45.647 171.347 C 44.368 177.646,42.935 183.813,42.461 185.052 C 39.501 192.794,42.498 223.330,48.012 241.600 C 49.274 245.780,51.362 253.526,52.653 258.813 C 56.879 276.126,59.767 281.896,69.438 292.349 C 75.133 298.505,76.806 300.903,82.712 311.379 C 84.178 313.980,86.020 315.818,88.621 317.277 C 97.025 321.992,103.328 326.766,108.611 332.419 C 115.511 339.800,121.059 342.601,137.931 347.222 C 149.325 350.343,157.491 353.287,161.122 355.585 C 162.045 356.169,164.420 356.908,166.400 357.227 C 168.380 357.546,173.780 359.014,178.400 360.489 C 189.107 363.907,210.040 364.492,219.316 361.633 C 222.112 360.771,227.280 359.369,230.800 358.518 C 234.320 357.666,240.260 355.494,244.000 353.691 C 247.894 351.813,255.415 349.228,261.600 347.642 C 275.698 344.027,285.266 340.253,287.923 337.259 C 294.498 329.848,301.889 323.264,306.400 320.800 C 312.818 317.294,317.233 312.919,320.692 306.637 C 324.104 300.440,328.333 295.319,333.914 290.627 C 340.155 285.380,341.948 281.134,349.215 254.400 C 350.351 250.220,352.186 244.820,353.292 242.400 C 354.398 239.980,355.843 235.120,356.503 231.600 C 357.163 228.080,358.400 222.440,359.252 219.067 C 361.240 211.190,361.432 192.237,359.591 185.574 C 358.926 183.168,357.491 176.974,356.401 171.809 C 355.312 166.644,353.579 160.344,352.551 157.809 C 351.524 155.274,349.698 149.600,348.494 145.200 C 343.204 125.866,340.532 120.249,332.272 111.094 C 326.442 104.633,319.161 95.016,315.936 89.518 C 314.374 86.854,312.237 85.001,307.136 81.887 C 303.431 79.624,296.080 74.283,290.800 70.018 C 279.175 60.628,275.128 58.198,266.800 55.610 C 256.548 52.425,239.562 48.029,229.385 45.927 C 224.206 44.857,218.086 43.266,215.785 42.391 C 210.572 40.410,189.312 40.152,185.200 42.020 M247.616 58.678 C 253.327 59.787,259.357 60.916,261.015 61.186 C 263.454 61.584,264.426 62.319,266.111 65.039 C 270.415 71.987,275.121 75.726,282.514 78.070 C 288.305 79.907,298.664 86.926,300.456 90.228 C 302.045 93.157,307.832 98.778,310.601 100.084 C 313.262 101.338,320.051 111.555,322.663 118.234 C 325.134 124.553,330.515 130.859,335.031 132.730 C 337.828 133.888,338.796 135.931,339.995 143.200 C 340.466 146.060,341.555 151.640,342.414 155.600 C 346.751 175.588,347.603 234.324,343.649 240.721 C 343.381 241.154,342.300 246.658,341.246 252.954 C 338.927 266.806,338.449 268.142,335.058 270.248 C 330.674 272.971,326.614 277.712,324.309 282.800 C 323.112 285.440,320.975 288.966,319.559 290.637 C 318.143 292.307,315.869 295.727,314.506 298.237 C 313.144 300.746,310.829 303.677,309.364 304.749 C 307.898 305.821,305.821 307.890,304.749 309.347 C 303.677 310.804,300.820 313.120,298.400 314.495 C 295.980 315.869,292.399 318.292,290.442 319.880 C 288.484 321.468,285.194 323.549,283.130 324.506 C 278.499 326.651,273.591 330.999,271.575 334.742 C 269.682 338.257,266.632 339.540,256.263 341.181 C 251.938 341.865,244.980 343.117,240.800 343.962 C 214.993 349.182,187.429 349.130,160.000 343.809 C 155.380 342.913,148.000 341.562,143.600 340.807 C 133.131 339.010,131.820 338.398,129.328 334.147 C 126.668 329.607,123.404 326.870,116.825 323.660 C 113.951 322.258,109.800 319.733,107.600 318.048 C 105.400 316.364,102.430 314.427,101.000 313.745 C 99.570 313.062,98.400 312.189,98.400 311.804 C 98.400 310.725,90.387 302.504,88.865 302.020 C 88.122 301.785,86.772 300.064,85.864 298.196 C 84.956 296.328,82.953 293.149,81.412 291.131 C 79.871 289.113,78.155 286.053,77.598 284.331 C 75.387 277.492,69.479 269.938,64.838 268.016 C 61.952 266.820,61.136 264.784,59.567 254.858 C 58.876 250.490,57.828 244.730,57.237 242.058 C 52.153 219.073,54.002 173.281,61.419 138.476 C 61.894 136.249,62.871 135.225,66.762 132.876 C 72.672 129.307,76.110 124.885,78.450 117.841 C 80.830 110.682,86.665 102.321,90.630 100.389 C 94.137 98.681,99.232 93.433,100.781 89.932 C 102.104 86.944,112.507 79.821,117.600 78.415 C 125.162 76.328,130.925 71.853,134.686 65.145 C 136.184 62.474,136.989 61.900,140.025 61.339 C 141.991 60.975,147.200 59.910,151.600 58.971 C 169.039 55.254,229.032 55.070,247.616 58.678 M192.400 69.536 C 182.939 70.224,177.452 74.288,172.874 84.000 L 170.800 88.400 170.840 137.200 C 170.882 188.217,171.825 210.012,174.199 214.800 C 179.289 225.066,188.359 229.468,207.318 230.873 C 219.170 231.752,229.018 226.021,232.479 216.231 C 234.113 211.612,235.615 210.523,243.200 208.461 C 252.494 205.934,257.894 200.434,260.294 191.052 L 261.381 186.800 266.729 185.397 C 278.728 182.248,283.700 177.245,286.404 165.600 C 286.966 163.180,288.813 158.886,290.509 156.057 C 302.165 136.612,298.574 128.496,276.709 124.872 C 259.717 122.056,254.646 123.971,248.668 135.460 C 248.021 136.704,245.176 139.513,242.346 141.703 L 237.200 145.686 233.358 141.659 L 229.516 137.631 230.000 123.816 C 231.735 74.280,226.721 67.041,192.400 69.536 M214.652 85.776 C 217.612 89.740,219.353 108.295,218.280 124.429 C 216.994 143.757,220.755 151.280,234.594 157.062 L 237.382 158.227 242.891 153.435 C 245.921 150.799,251.585 146.353,255.478 143.554 L 262.557 138.466 266.604 140.004 C 273.713 142.705,277.108 147.689,279.026 158.240 C 280.363 165.598,274.396 173.168,262.575 179.112 C 257.849 181.488,255.786 183.061,254.157 185.530 C 252.971 187.328,251.044 190.251,249.875 192.024 C 247.377 195.813,242.626 199.409,234.612 203.576 C 230.769 205.574,227.006 208.444,223.412 212.118 C 220.435 215.160,216.817 218.566,215.372 219.687 L 212.744 221.724 205.987 219.573 C 191.375 214.920,189.623 212.812,186.402 196.000 C 181.854 172.265,182.061 91.409,186.682 86.656 C 187.457 85.859,210.077 83.130,212.351 83.559 C 212.765 83.637,213.800 84.635,214.652 85.776 M-0.000 267.168 L 0.000 280.000 6.400 280.000 C 9.920 280.000,12.800 280.125,12.800 280.279 C 12.800 281.780,17.099 299.639,18.125 302.400 C 20.824 309.660,29.861 321.731,34.971 324.900 C 37.878 326.703,44.007 335.081,46.920 341.233 C 49.394 346.459,53.543 350.502,59.610 353.597 C 66.212 356.967,72.983 362.060,74.293 364.644 C 78.401 372.745,93.207 381.806,107.303 384.845 C 111.426 385.734,115.430 386.652,116.200 386.884 C 117.380 387.241,117.600 388.305,117.600 393.654 L 117.600 400.000 129.232 400.000 L 140.865 400.000 140.632 393.447 L 140.400 386.894 135.600 384.946 C 132.960 383.874,125.940 381.789,120.000 380.311 C 105.767 376.770,100.350 373.984,92.800 366.321 C 89.500 362.972,83.560 358.131,79.600 355.564 C 68.614 348.443,50.788 330.200,44.068 319.200 C 41.246 314.580,38.186 310.293,37.268 309.673 C 28.664 303.859,23.456 294.638,19.985 279.072 C 18.644 273.062,16.557 265.142,15.345 261.472 L 13.143 254.800 6.571 254.568 L -0.000 254.335 -0.000 267.168 M386.536 259.800 C 385.232 262.333,381.781 273.848,379.735 282.497 C 376.983 294.123,373.355 301.017,366.189 308.230 C 363.005 311.436,357.351 318.515,353.624 323.961 C 343.592 338.621,337.790 344.217,320.000 356.387 C 316.260 358.946,310.671 363.596,307.579 366.722 C 300.617 373.760,295.094 376.594,281.069 380.328 C 275.328 381.857,268.510 383.959,265.916 385.001 L 261.200 386.894 260.968 393.447 L 260.735 400.000 271.968 400.000 L 283.200 400.000 283.200 393.704 L 283.200 387.408 286.600 386.548 C 288.470 386.076,292.591 385.095,295.757 384.369 C 308.163 381.524,323.330 372.008,326.374 365.158 C 327.633 362.325,334.430 357.315,341.597 353.937 C 347.479 351.165,352.545 346.057,354.315 341.113 C 356.158 335.964,362.005 328.485,366.247 325.847 C 371.621 322.507,375.036 317.820,380.745 305.954 C 382.988 301.291,384.301 296.855,386.356 287.000 L 387.315 282.400 393.657 282.400 L 400.000 282.400 400.000 270.400 L 400.000 258.400 393.628 258.400 C 388.368 258.400,387.131 258.644,386.536 259.800 " stroke="none" fill="#b2b3c8" fill-rule="evenodd"></path></g></svg>