<svg id="svg" version="1.1" width="500" height="500" xmlns="http://www.w3.org/2000/svg" xmlns:xlink="http://www.w3.org/1999/xlink" style="display: block;"><g id="svgg"><path id="path0" d="M0.000 64.800 L 0.000 129.600 6.247 129.600 L 12.494 129.600 14.708 122.200 C 15.926 118.130,17.598 112.214,18.423 109.054 C 20.506 101.073,24.048 94.446,28.135 90.884 C 35.854 84.155,37.378 82.421,39.000 78.518 C 41.386 72.776,45.204 67.497,48.913 64.810 C 50.658 63.546,53.125 61.204,54.394 59.607 C 55.664 58.010,57.901 55.734,59.365 54.551 C 60.829 53.368,63.808 50.480,65.986 48.133 C 70.323 43.457,74.572 40.662,80.313 38.706 C 82.887 37.829,84.852 36.410,86.625 34.149 C 94.076 24.648,98.444 21.852,111.200 18.422 C 114.060 17.652,120.090 15.990,124.600 14.728 L 132.800 12.433 132.800 6.217 L 132.800 0.000 66.400 0.000 L 0.000 0.000 0.000 64.800 M268.000 6.217 L 268.000 12.433 276.200 14.717 C 280.710 15.973,287.538 17.842,291.373 18.871 C 301.259 21.521,304.351 23.349,311.600 30.832 C 316.531 35.922,319.271 38.032,323.539 40.026 C 329.783 42.944,334.965 47.539,352.881 66.044 C 356.211 69.484,359.156 73.458,360.420 76.219 C 361.690 78.994,364.209 82.386,366.920 84.974 C 377.226 94.813,378.446 96.558,380.785 104.800 C 381.721 108.100,383.359 113.680,384.425 117.200 C 385.490 120.720,386.590 124.590,386.868 125.800 C 387.367 127.971,387.455 128.000,393.687 128.000 L 400.000 128.000 400.000 64.000 L 400.000 0.000 334.000 0.000 L 268.000 0.000 268.000 6.217 M205.600 87.152 C 204.060 87.464,201.288 88.501,199.440 89.456 C 197.591 90.411,194.325 91.884,192.181 92.729 C 189.655 93.724,186.434 96.114,183.029 99.519 C 178.173 104.376,169.002 109.915,163.386 111.383 C 160.060 112.253,158.473 170.083,161.286 187.910 C 161.585 189.802,163.057 191.976,166.164 195.110 C 168.890 197.860,171.658 201.762,173.307 205.177 L 176.000 210.755 176.000 223.804 C 176.000 239.183,175.144 241.762,167.880 248.260 C 165.526 250.366,162.700 253.056,161.600 254.239 C 160.500 255.422,158.373 257.472,156.873 258.795 C 155.374 260.118,153.394 262.053,152.473 263.097 C 151.553 264.140,149.430 266.542,147.755 268.434 C 142.625 274.234,130.446 279.469,117.101 281.612 C 114.406 282.045,108.905 283.590,104.877 285.046 L 97.553 287.694 100.576 290.109 C 102.239 291.437,105.237 293.477,107.237 294.642 L 110.875 296.761 200.046 296.821 L 289.217 296.880 293.208 295.135 C 295.404 294.175,298.952 292.115,301.094 290.558 L 304.987 287.726 297.494 285.061 C 293.372 283.594,286.760 281.702,282.800 280.856 C 268.587 277.819,261.080 274.157,253.200 266.415 C 225.056 238.765,226.641 241.241,226.296 224.393 C 225.989 209.452,226.551 207.619,233.982 199.291 C 239.054 193.606,239.532 191.884,241.105 173.600 C 242.581 156.444,240.810 115.707,238.393 111.187 C 238.036 110.519,236.361 109.478,234.672 108.872 C 226.363 105.892,220.799 100.734,216.338 91.877 C 213.325 85.895,212.844 85.683,205.600 87.152 M0.000 336.800 L 0.000 400.000 61.600 400.000 L 123.200 400.000 123.200 393.693 C 123.200 387.839,123.071 387.350,121.400 386.872 C 120.410 386.590,115.314 385.265,110.076 383.930 C 99.147 381.143,94.342 378.941,89.812 374.641 C 88.049 372.969,85.384 370.520,83.891 369.200 C 82.397 367.880,80.442 365.852,79.546 364.694 C 78.651 363.536,76.120 361.677,73.923 360.564 C 71.726 359.450,68.144 356.953,65.964 355.014 C 63.784 353.075,60.252 350.300,58.115 348.848 C 55.979 347.395,53.099 344.575,51.715 342.580 C 50.332 340.585,47.492 336.938,45.404 334.476 C 43.317 332.014,40.642 328.162,39.460 325.916 C 38.278 323.670,36.131 321.024,34.689 320.037 C 33.248 319.049,31.094 316.926,29.902 315.320 C 28.711 313.714,26.685 311.337,25.399 310.038 C 21.541 306.138,12.800 281.136,12.800 274.000 C 12.800 273.780,9.920 273.600,6.400 273.600 L 0.000 273.600 0.000 336.800 M385.163 284.600 C 381.815 299.169,380.956 301.827,378.183 306.208 C 373.782 313.160,368.803 319.214,365.643 321.454 C 363.978 322.634,361.877 324.881,360.972 326.447 C 360.068 328.013,357.772 331.253,355.870 333.647 C 353.968 336.041,351.114 339.997,349.528 342.438 C 347.636 345.350,345.157 347.815,342.322 349.604 C 339.945 351.104,336.380 353.734,334.400 355.448 C 332.420 357.162,329.360 359.288,327.600 360.173 C 325.840 361.058,322.212 363.991,319.538 366.691 C 307.593 378.753,304.549 380.520,288.937 384.452 C 282.936 385.963,277.930 387.200,277.813 387.200 C 277.696 387.200,277.600 390.080,277.600 393.600 L 277.600 400.000 338.800 400.000 L 400.000 400.000 400.000 337.600 L 400.000 275.200 393.661 275.200 L 387.323 275.200 385.163 284.600 " stroke="none" fill="#ffffff" fill-rule="evenodd"></path><path id="path1" d="M185.200 26.886 C 175.955 27.244,154.687 28.646,144.384 29.577 C 131.703 30.722,121.856 34.897,114.304 42.330 C 107.730 48.801,103.201 51.226,94.000 53.202 C 90.480 53.958,86.880 55.048,86.000 55.623 C 81.595 58.504,78.492 62.230,77.235 66.150 C 75.577 71.321,71.103 75.598,66.012 76.880 C 61.134 78.109,54.072 85.528,53.323 90.210 C 51.563 101.216,49.057 105.405,38.783 114.513 C 35.503 117.422,28.868 133.639,27.886 141.149 C 27.480 144.257,26.617 150.760,25.970 155.600 C 22.551 181.152,21.114 206.695,22.345 220.000 C 27.001 270.308,30.537 283.989,41.794 295.246 C 46.243 299.695,47.337 301.400,49.652 307.494 C 53.404 317.373,60.425 325.169,66.150 325.815 C 70.984 326.359,73.174 328.744,73.906 334.259 C 74.638 339.782,81.915 346.651,91.063 350.455 C 98.489 353.542,103.230 356.697,106.101 360.462 C 111.414 367.427,128.253 372.597,164.400 378.362 C 197.802 383.690,203.793 383.771,230.566 379.261 C 240.815 377.534,252.260 375.717,256.000 375.223 C 272.053 373.101,289.474 366.519,295.051 360.469 C 299.117 356.058,303.902 352.800,309.715 350.482 C 318.950 346.802,325.869 339.771,326.761 333.162 C 327.550 327.315,329.461 325.600,335.187 325.600 C 338.825 325.600,347.445 315.676,349.705 308.886 C 351.608 303.166,356.685 296.905,360.802 295.199 C 363.516 294.075,367.586 288.071,368.394 284.000 C 368.699 282.460,369.954 276.880,371.183 271.600 C 375.518 252.967,379.503 215.699,378.795 200.400 C 378.244 188.496,376.434 169.516,374.788 158.400 C 374.169 154.220,373.284 147.692,372.820 143.894 C 371.954 136.789,370.844 132.992,365.886 120.172 C 363.604 114.271,362.541 112.500,360.717 111.557 C 354.057 108.113,349.615 101.604,347.704 92.490 C 346.105 84.861,340.229 77.921,333.836 76.110 C 328.437 74.581,322.400 68.082,322.400 63.798 C 322.400 62.829,317.557 57.778,314.257 55.305 C 313.518 54.751,309.716 53.643,305.808 52.843 C 296.353 50.906,292.674 48.899,286.000 42.042 C 274.371 30.093,239.143 24.796,185.200 26.886 M227.811 69.914 C 236.197 72.198,243.215 77.457,245.301 83.023 C 246.080 85.100,247.882 88.516,249.306 90.614 C 255.400 99.589,262.654 138.128,262.668 161.600 C 262.670 164.457,257.216 190.521,254.048 202.800 C 251.783 211.574,251.293 215.102,250.915 225.370 L 250.466 237.540 253.494 241.370 C 258.206 247.329,261.260 249.247,268.385 250.721 C 276.966 252.495,282.138 255.015,286.848 259.717 C 291.041 263.902,300.982 268.817,314.456 273.365 C 327.163 277.654,330.737 283.079,328.497 294.676 C 327.720 298.704,326.537 305.060,325.869 308.800 C 323.989 319.331,323.287 321.497,321.436 322.488 C 318.486 324.067,83.669 323.497,80.309 321.903 C 76.916 320.293,76.954 320.423,74.787 302.800 L 72.917 287.600 74.946 283.342 C 77.408 278.174,81.303 275.158,88.655 272.725 C 102.615 268.106,113.140 263.205,116.787 259.625 C 120.857 255.630,126.902 252.637,134.000 251.102 C 138.363 250.158,139.337 249.527,144.700 244.171 L 150.599 238.278 150.025 225.339 C 149.709 218.223,148.995 210.600,148.438 208.400 C 147.187 203.453,144.539 188.871,142.157 173.809 C 140.381 162.581,140.374 162.265,141.699 151.705 C 142.439 145.813,143.294 134.199,143.601 125.896 C 144.521 100.939,145.523 98.240,158.406 86.000 C 160.259 84.240,162.684 81.449,163.796 79.797 C 166.229 76.181,173.359 72.488,180.400 71.195 C 197.347 68.084,218.946 67.501,227.811 69.914 M363.154 160.553 C 363.199 177.317,362.303 183.390,361.319 172.977 C 360.660 165.998,360.674 157.811,361.363 146.400 C 362.195 132.639,363.097 139.771,363.154 160.553 M39.609 168.800 C 39.852 178.700,40.395 188.600,40.816 190.800 C 42.072 197.358,44.071 209.613,44.861 215.600 C 52.421 272.823,52.488 271.948,40.446 272.946 L 37.383 273.200 35.492 267.644 C 33.033 260.423,32.948 244.597,35.162 206.000 C 36.020 191.040,36.726 173.090,36.731 166.111 C 36.736 159.132,37.008 151.212,37.334 148.511 L 37.928 143.600 38.548 147.200 C 38.889 149.180,39.366 158.900,39.609 168.800 M364.714 211.647 C 367.601 245.972,366.679 271.262,362.360 276.268 C 360.777 278.103,352.123 271.264,349.442 266.059 C 347.677 262.632,347.715 261.457,349.978 249.600 C 350.692 245.860,351.969 238.480,352.815 233.200 C 354.863 220.420,358.330 204.027,359.839 199.988 C 360.248 198.895,360.840 196.247,361.154 194.103 C 362.174 187.165,362.996 191.216,364.714 211.647 M139.617 211.251 C 140.743 215.403,142.522 222.923,143.571 227.963 L 145.477 237.126 143.883 239.365 C 143.006 240.596,141.112 242.501,139.674 243.598 L 137.060 245.592 130.496 244.275 C 123.553 242.883,116.800 239.394,116.800 237.200 C 116.800 234.762,126.481 217.021,128.805 215.200 C 129.086 214.980,131.019 212.149,133.100 208.909 C 135.182 205.669,137.039 203.172,137.227 203.360 C 137.415 203.548,138.490 207.099,139.617 211.251 M268.486 211.458 C 275.395 219.815,284.800 234.681,284.800 237.243 C 284.800 239.074,278.339 242.212,271.834 243.541 C 262.938 245.358,262.387 245.262,258.418 241.218 L 254.903 237.637 257.128 226.335 C 258.352 220.119,259.890 213.361,260.545 211.317 C 261.200 209.273,261.872 207.156,262.038 206.613 C 262.530 205.002,264.163 206.229,268.486 211.458 M93.515 255.867 C 96.566 261.914,96.515 262.262,92.322 264.117 C 86.666 266.619,75.200 265.117,75.200 261.874 C 75.200 260.445,80.444 254.687,84.298 251.885 L 87.397 249.631 89.717 251.283 C 90.992 252.191,92.702 254.254,93.515 255.867 M315.816 251.491 C 318.964 253.487,326.400 261.037,326.400 262.238 C 326.400 263.079,321.903 264.579,316.518 265.535 C 312.126 266.315,304.848 263.865,304.827 261.600 C 304.806 259.397,308.605 252.228,310.492 250.905 C 312.784 249.300,312.269 249.243,315.816 251.491 M63.858 280.200 C 64.335 282.070,65.486 289.540,66.416 296.800 C 67.346 304.060,68.293 310.649,68.521 311.442 C 68.797 312.407,67.933 313.829,65.910 315.737 L 62.885 318.590 60.322 315.794 C 57.975 313.232,57.714 312.404,57.206 305.899 C 56.901 301.995,56.139 296.460,55.512 293.600 C 53.505 284.447,53.689 281.729,56.509 278.909 C 59.912 275.506,62.791 276.012,63.858 280.200 M339.536 303.958 C 341.340 311.890,340.533 316.000,337.173 316.000 C 334.150 316.000,333.613 312.761,335.414 305.400 C 337.482 296.951,337.908 296.802,339.536 303.958 M125.133 329.990 C 142.575 331.682,259.054 331.694,274.000 330.006 C 288.109 328.412,311.291 328.392,314.344 329.971 C 324.642 335.296,321.071 341.992,305.530 346.497 C 301.144 347.768,296.078 349.741,294.273 350.880 C 290.453 353.292,282.365 359.768,281.196 361.352 C 280.753 361.951,276.433 363.960,271.596 365.817 L 262.800 369.192 200.400 369.161 L 138.000 369.129 130.000 366.043 C 124.931 364.087,121.097 362.048,119.536 360.478 C 112.301 353.203,104.787 349.036,93.416 345.993 C 80.142 342.441,76.688 336.787,84.184 330.879 C 87.383 328.358,104.480 327.987,125.133 329.990 " stroke="none" fill="#043d71" fill-rule="evenodd"></path><path id="path2" d="M177.600 6.328 L 177.600 12.655 171.800 13.570 C 168.610 14.072,161.500 15.527,156.000 16.803 C 150.500 18.078,143.708 19.523,140.907 20.013 C 126.236 22.580,109.355 29.732,101.273 36.804 C 98.711 39.046,93.438 42.436,89.556 44.336 C 79.734 49.145,75.036 52.832,69.726 59.899 C 66.871 63.698,63.485 67.091,60.727 68.916 C 54.074 73.318,48.563 79.859,44.461 88.220 C 42.172 92.886,39.106 97.517,36.126 100.812 C 29.116 108.562,21.508 125.494,18.877 139.200 C 18.582 140.740,17.003 147.489,15.370 154.197 L 12.400 166.394 6.200 166.397 L 0.000 166.400 0.000 202.800 L 0.000 239.200 6.273 239.200 L 12.547 239.200 13.440 242.200 C 13.932 243.850,15.432 250.240,16.775 256.400 C 22.666 283.422,26.740 293.818,34.800 302.400 C 37.595 305.376,41.034 310.103,42.442 312.905 C 47.451 322.868,53.310 329.762,61.032 334.777 C 62.260 335.574,64.534 338.139,66.086 340.477 C 70.295 346.818,77.223 352.759,85.120 356.800 C 89.505 359.044,93.558 361.850,95.878 364.248 C 104.168 372.820,113.760 377.003,142.200 384.450 L 153.600 387.435 153.600 393.717 L 153.600 400.000 200.400 400.000 L 247.200 400.000 247.200 393.721 L 247.200 387.442 254.200 385.652 C 284.773 377.832,295.152 373.641,303.082 365.910 C 306.531 362.547,310.839 359.435,315.339 357.053 C 323.492 352.738,329.333 347.853,334.127 341.341 C 336.031 338.755,338.581 335.896,339.795 334.988 C 346.436 330.017,353.733 321.312,357.458 313.919 C 358.367 312.114,361.765 307.974,365.009 304.719 C 374.246 295.448,375.063 293.209,386.793 245.000 C 387.201 243.320,387.657 243.200,393.615 243.200 L 400.000 243.200 400.000 202.000 L 400.000 160.800 393.678 160.800 L 387.356 160.800 385.720 155.400 C 384.820 152.430,383.331 146.580,382.411 142.400 C 378.084 122.745,371.854 108.062,364.385 99.924 C 361.127 96.374,357.827 91.588,355.439 86.950 C 351.415 79.137,345.320 72.213,338.278 67.457 C 336.231 66.074,333.128 63.010,331.383 60.648 C 326.296 53.761,320.148 48.727,311.841 44.647 C 307.639 42.583,302.102 39.057,299.535 36.811 C 291.116 29.444,274.975 22.785,257.827 19.603 C 253.962 18.886,247.380 17.460,243.200 16.434 C 239.020 15.407,232.630 14.126,229.000 13.586 L 222.400 12.604 222.400 6.302 L 222.400 0.000 200.000 0.000 L 177.600 0.000 177.600 6.328 M247.600 28.738 C 269.990 30.891,277.771 33.587,286.000 42.042 C 292.674 48.899,296.353 50.906,305.808 52.843 C 309.716 53.643,313.518 54.751,314.257 55.305 C 317.557 57.778,322.400 62.829,322.400 63.798 C 322.400 68.082,328.437 74.581,333.836 76.110 C 340.229 77.921,346.105 84.861,347.704 92.490 C 349.615 101.604,354.057 108.113,360.717 111.557 C 362.541 112.500,363.604 114.271,365.886 120.172 C 370.844 132.992,371.954 136.789,372.820 143.894 C 373.284 147.692,374.169 154.220,374.788 158.400 C 376.434 169.516,378.244 188.496,378.795 200.400 C 379.503 215.699,375.518 252.967,371.183 271.600 C 369.954 276.880,368.699 282.460,368.394 284.000 C 367.586 288.071,363.516 294.075,360.802 295.199 C 356.685 296.905,351.608 303.166,349.705 308.886 C 347.445 315.676,338.825 325.600,335.187 325.600 C 329.461 325.600,327.550 327.315,326.761 333.162 C 325.869 339.771,318.950 346.802,309.715 350.482 C 303.902 352.800,299.117 356.058,295.051 360.469 C 289.474 366.519,272.053 373.101,256.000 375.223 C 252.260 375.717,240.815 377.534,230.566 379.261 C 203.793 383.771,197.802 383.690,164.400 378.362 C 128.253 372.597,111.414 367.427,106.101 360.462 C 103.230 356.697,98.489 353.542,91.063 350.455 C 81.915 346.651,74.638 339.782,73.906 334.259 C 73.174 328.744,70.984 326.359,66.150 325.815 C 60.425 325.169,53.404 317.373,49.652 307.494 C 47.337 301.400,46.243 299.695,41.794 295.246 C 35.084 288.535,34.894 288.214,31.626 278.024 C 27.047 263.747,25.496 254.049,22.345 220.000 C 21.114 206.695,22.551 181.152,25.970 155.600 C 26.617 150.760,27.480 144.257,27.886 141.149 C 28.868 133.639,35.503 117.422,38.783 114.513 C 49.057 105.405,51.563 101.216,53.323 90.210 C 54.072 85.528,61.134 78.109,66.012 76.880 C 71.103 75.598,75.577 71.321,77.235 66.150 C 78.492 62.230,81.595 58.504,86.000 55.623 C 86.880 55.048,90.480 53.958,94.000 53.202 C 103.201 51.226,107.730 48.801,114.304 42.330 C 121.856 34.897,131.703 30.722,144.384 29.577 C 182.163 26.164,217.827 25.874,247.600 28.738 M195.200 69.190 C 175.448 71.410,167.673 74.036,163.796 79.797 C 162.684 81.449,160.259 84.240,158.406 86.000 C 145.523 98.240,144.521 100.939,143.601 125.896 C 143.294 134.199,142.439 145.813,141.699 151.705 C 140.374 162.265,140.381 162.581,142.157 173.809 C 144.539 188.871,147.187 203.453,148.438 208.400 C 148.995 210.600,149.709 218.223,150.025 225.339 L 150.599 238.278 144.700 244.171 C 139.337 249.527,138.363 250.158,134.000 251.102 C 126.902 252.637,120.857 255.630,116.787 259.625 C 113.140 263.205,102.615 268.106,88.655 272.725 C 81.303 275.158,77.408 278.174,74.946 283.342 L 72.917 287.600 74.787 302.800 C 76.954 320.423,76.916 320.293,80.309 321.903 C 83.669 323.497,318.486 324.067,321.436 322.488 C 323.287 321.497,323.989 319.331,325.869 308.800 C 326.537 305.060,327.720 298.704,328.497 294.676 C 330.737 283.079,327.163 277.654,314.456 273.365 C 300.982 268.817,291.041 263.902,286.848 259.717 C 282.138 255.015,276.966 252.495,268.385 250.721 C 261.260 249.247,258.206 247.329,253.494 241.370 L 250.466 237.540 250.915 225.370 C 251.293 215.102,251.783 211.574,254.048 202.800 C 257.216 190.521,262.670 164.457,262.668 161.600 C 262.654 138.128,255.400 99.589,249.306 90.614 C 247.882 88.516,246.080 85.100,245.301 83.023 C 240.847 71.141,222.617 66.108,195.200 69.190 M218.023 79.505 C 225.371 83.069,241.699 99.357,245.385 106.800 C 253.751 123.693,253.452 172.606,244.804 201.512 C 235.898 231.287,242.141 250.066,264.000 259.248 C 266.420 260.265,270.670 262.696,273.445 264.651 C 278.842 268.453,287.940 272.642,304.000 278.721 C 309.513 280.807,315.230 283.548,316.740 284.828 L 319.480 287.151 316.692 300.175 L 313.904 313.200 300.352 313.005 C 292.898 312.898,283.380 312.400,279.200 311.899 C 267.657 310.515,137.205 310.307,127.200 311.657 C 111.621 313.758,87.541 313.535,86.826 311.281 C 86.561 310.446,85.456 304.793,84.371 298.720 L 82.399 287.677 84.951 285.045 C 86.354 283.597,88.244 282.183,89.151 281.904 C 103.684 277.431,125.946 268.004,130.081 264.573 C 131.356 263.515,135.336 261.130,138.925 259.274 C 154.685 251.124,159.416 243.682,160.082 226.000 L 160.563 213.200 157.533 203.932 C 151.727 186.176,149.716 169.378,151.067 149.913 C 151.552 142.921,152.186 131.620,152.476 124.800 C 153.169 108.483,155.351 103.800,165.507 96.831 C 167.978 95.136,171.800 91.898,174.000 89.635 C 182.173 81.231,188.194 79.189,211.623 76.881 C 212.075 76.836,214.955 78.017,218.023 79.505 " stroke="none" fill="#7a8899" fill-rule="evenodd"></path><path id="path3" d="M132.800 6.217 L 132.800 12.433 124.600 14.728 C 120.090 15.990,114.060 17.652,111.200 18.422 C 98.444 21.852,94.076 24.648,86.625 34.149 C 84.852 36.410,82.887 37.829,80.313 38.706 C 74.572 40.662,70.323 43.457,65.986 48.133 C 63.808 50.480,60.829 53.368,59.365 54.551 C 57.901 55.734,55.664 58.010,54.394 59.607 C 53.125 61.204,50.658 63.546,48.913 64.810 C 45.204 67.497,41.386 72.776,39.000 78.518 C 37.378 82.421,35.854 84.155,28.135 90.884 C 24.048 94.446,20.506 101.073,18.423 109.054 C 17.598 112.214,15.926 118.130,14.708 122.200 L 12.494 129.600 6.247 129.600 L 0.000 129.600 0.000 148.000 L 0.000 166.400 6.200 166.397 L 12.400 166.394 15.370 154.197 C 17.003 147.489,18.582 140.740,18.877 139.200 C 21.508 125.494,29.116 108.562,36.126 100.812 C 39.106 97.517,42.172 92.886,44.461 88.220 C 48.563 79.859,54.074 73.318,60.727 68.916 C 63.485 67.091,66.871 63.698,69.726 59.899 C 75.036 52.832,79.734 49.145,89.556 44.336 C 93.438 42.436,98.711 39.046,101.273 36.804 C 109.355 29.732,126.236 22.580,140.907 20.013 C 143.708 19.523,150.500 18.078,156.000 16.803 C 161.500 15.527,168.610 14.072,171.800 13.570 L 177.600 12.655 177.600 6.328 L 177.600 0.000 155.200 0.000 L 132.800 0.000 132.800 6.217 M222.400 6.302 L 222.400 12.604 229.000 13.586 C 232.630 14.126,239.020 15.407,243.200 16.434 C 247.380 17.460,253.962 18.886,257.827 19.603 C 274.975 22.785,291.116 29.444,299.535 36.811 C 302.102 39.057,307.639 42.583,311.841 44.647 C 320.148 48.727,326.296 53.761,331.383 60.648 C 333.128 63.010,336.231 66.074,338.278 67.457 C 345.320 72.213,351.415 79.137,355.439 86.950 C 357.827 91.588,361.127 96.374,364.385 99.924 C 371.854 108.062,378.084 122.745,382.411 142.400 C 383.331 146.580,384.820 152.430,385.720 155.400 L 387.356 160.800 393.678 160.800 L 400.000 160.800 400.000 144.400 L 400.000 128.000 393.687 128.000 C 387.455 128.000,387.367 127.971,386.868 125.800 C 386.590 124.590,385.490 120.720,384.425 117.200 C 383.359 113.680,381.721 108.100,380.785 104.800 C 378.446 96.558,377.226 94.813,366.920 84.974 C 364.209 82.386,361.690 78.994,360.420 76.219 C 359.156 73.458,356.211 69.484,352.881 66.044 C 334.965 47.539,329.783 42.944,323.539 40.026 C 319.271 38.032,316.531 35.922,311.600 30.832 C 304.351 23.349,301.259 21.521,291.373 18.871 C 287.538 17.842,280.710 15.973,276.200 14.717 L 268.000 12.433 268.000 6.217 L 268.000 0.000 245.200 0.000 L 222.400 0.000 222.400 6.302 M198.381 78.681 C 184.322 80.627,181.548 81.873,174.000 89.635 C 171.800 91.898,167.978 95.136,165.507 96.831 C 155.351 103.800,153.169 108.483,152.476 124.800 C 152.186 131.620,151.552 142.921,151.067 149.913 C 149.716 169.378,151.727 186.176,157.533 203.932 L 160.563 213.200 160.082 226.000 C 159.416 243.682,154.685 251.124,138.925 259.274 C 135.336 261.130,131.356 263.515,130.081 264.573 C 125.946 268.004,103.684 277.431,89.151 281.904 C 88.244 282.183,86.354 283.597,84.951 285.045 L 82.399 287.677 84.371 298.720 C 85.456 304.793,86.561 310.446,86.826 311.281 C 87.541 313.535,111.621 313.758,127.200 311.657 C 137.205 310.307,267.657 310.515,279.200 311.899 C 283.380 312.400,292.898 312.898,300.352 313.005 L 313.904 313.200 316.692 300.175 L 319.480 287.151 316.740 284.828 C 315.230 283.548,309.513 280.807,304.000 278.721 C 287.940 272.642,278.842 268.453,273.445 264.651 C 270.670 262.696,266.420 260.265,264.000 259.248 C 242.141 250.066,235.898 231.287,244.804 201.512 C 253.452 172.606,253.751 123.693,245.385 106.800 C 240.272 96.476,217.505 76.301,211.623 76.881 C 211.170 76.926,205.211 77.736,198.381 78.681 M216.338 91.877 C 220.799 100.734,226.363 105.892,234.672 108.872 C 236.361 109.478,238.036 110.519,238.393 111.187 C 240.810 115.707,242.581 156.444,241.105 173.600 C 239.532 191.884,239.054 193.606,233.982 199.291 C 226.551 207.619,225.989 209.452,226.296 224.393 C 226.641 241.241,225.056 238.765,253.200 266.415 C 261.080 274.157,268.587 277.819,282.800 280.856 C 286.760 281.702,293.372 283.594,297.494 285.061 L 304.987 287.726 301.094 290.558 C 298.952 292.115,295.404 294.175,293.208 295.135 L 289.217 296.880 200.046 296.821 L 110.875 296.761 107.237 294.642 C 105.237 293.477,102.239 291.437,100.576 290.109 L 97.553 287.694 104.877 285.046 C 108.905 283.590,114.406 282.045,117.101 281.612 C 130.446 279.469,142.625 274.234,147.755 268.434 C 149.430 266.542,151.553 264.140,152.473 263.097 C 153.394 262.053,155.374 260.118,156.873 258.795 C 158.373 257.472,160.500 255.422,161.600 254.239 C 162.700 253.056,165.526 250.366,167.880 248.260 C 175.144 241.762,176.000 239.183,176.000 223.804 L 176.000 210.755 173.307 205.177 C 171.658 201.762,168.890 197.860,166.164 195.110 C 161.062 189.963,161.180 190.389,160.115 173.200 C 159.423 162.032,159.845 142.613,161.262 120.496 C 161.756 112.781,161.997 111.746,163.386 111.383 C 169.002 109.915,178.173 104.376,183.029 99.519 C 186.434 96.114,189.655 93.724,192.181 92.729 C 194.325 91.884,197.591 90.411,199.440 89.456 C 208.739 84.650,213.007 85.262,216.338 91.877 M0.000 256.400 L 0.000 273.600 6.400 273.600 C 9.920 273.600,12.800 273.780,12.800 274.000 C 12.800 281.136,21.541 306.138,25.399 310.038 C 26.685 311.337,28.711 313.714,29.902 315.320 C 31.094 316.926,33.248 319.049,34.689 320.037 C 36.131 321.024,38.278 323.670,39.460 325.916 C 40.642 328.162,43.317 332.014,45.404 334.476 C 47.492 336.938,50.332 340.585,51.715 342.580 C 53.099 344.575,55.979 347.395,58.115 348.848 C 60.252 350.300,63.784 353.075,65.964 355.014 C 68.144 356.953,71.726 359.450,73.923 360.564 C 76.120 361.677,78.651 363.536,79.546 364.694 C 80.442 365.852,82.397 367.880,83.891 369.200 C 85.384 370.520,88.049 372.969,89.812 374.641 C 94.342 378.941,99.147 381.143,110.076 383.930 C 115.314 385.265,120.410 386.590,121.400 386.872 C 123.071 387.350,123.200 387.839,123.200 393.693 L 123.200 400.000 138.400 400.000 L 153.600 400.000 153.600 393.717 L 153.600 387.435 142.200 384.450 C 113.760 377.003,104.168 372.820,95.878 364.248 C 93.558 361.850,89.505 359.044,85.120 356.800 C 77.223 352.759,70.295 346.818,66.086 340.477 C 64.534 338.139,62.260 335.574,61.032 334.777 C 53.310 329.762,47.451 322.868,42.442 312.905 C 41.034 310.103,37.595 305.376,34.800 302.400 C 26.740 293.818,22.666 283.422,16.775 256.400 C 15.432 250.240,13.932 243.850,13.440 242.200 L 12.547 239.200 6.273 239.200 L 0.000 239.200 0.000 256.400 M386.793 245.000 C 375.063 293.209,374.246 295.448,365.009 304.719 C 361.765 307.974,358.367 312.114,357.458 313.919 C 353.733 321.312,346.436 330.017,339.795 334.988 C 338.581 335.896,336.031 338.755,334.127 341.341 C 329.333 347.853,323.492 352.738,315.339 357.053 C 310.839 359.435,306.531 362.547,303.082 365.910 C 295.152 373.641,284.773 377.832,254.200 385.652 L 247.200 387.442 247.200 393.721 L 247.200 400.000 262.400 400.000 L 277.600 400.000 277.600 393.600 C 277.600 390.080,277.696 387.200,277.813 387.200 C 277.930 387.200,282.936 385.963,288.937 384.452 C 304.549 380.520,307.593 378.753,319.538 366.691 C 322.212 363.991,325.840 361.058,327.600 360.173 C 329.360 359.288,332.420 357.162,334.400 355.448 C 336.380 353.734,339.945 351.104,342.322 349.604 C 345.157 347.815,347.636 345.350,349.528 342.438 C 351.114 339.997,353.968 336.041,355.870 333.647 C 357.772 331.253,360.068 328.013,360.972 326.447 C 361.877 324.881,363.978 322.634,365.643 321.454 C 368.803 319.214,373.782 313.160,378.183 306.208 C 380.956 301.827,381.815 299.169,385.163 284.600 L 387.323 275.200 393.661 275.200 L 400.000 275.200 400.000 259.200 L 400.000 243.200 393.615 243.200 C 387.657 243.200,387.201 243.320,386.793 245.000 " stroke="none" fill="#afb3b9" fill-rule="evenodd"></path><path id="path4" d="M361.363 146.400 C 360.392 162.475,360.990 178.872,362.514 177.930 C 363.348 177.414,363.348 144.893,362.514 140.400 C 362.034 137.818,361.812 138.975,361.363 146.400 M37.334 148.511 C 37.008 151.212,36.736 159.132,36.731 166.111 C 36.726 173.090,36.020 191.040,35.162 206.000 C 32.948 244.597,33.033 260.423,35.492 267.644 L 37.383 273.200 40.446 272.946 C 52.488 271.948,52.421 272.823,44.861 215.600 C 44.071 209.613,42.072 197.358,40.816 190.800 C 40.395 188.600,39.852 178.700,39.609 168.800 C 39.366 158.900,38.889 149.180,38.548 147.200 L 37.928 143.600 37.334 148.511 M361.154 194.103 C 360.840 196.247,360.248 198.895,359.839 199.988 C 358.330 204.027,354.863 220.420,352.815 233.200 C 351.969 238.480,350.692 245.860,349.978 249.600 C 347.715 261.457,347.677 262.632,349.442 266.059 C 352.123 271.264,360.777 278.103,362.360 276.268 C 366.679 271.262,367.601 245.972,364.714 211.647 C 362.996 191.216,362.174 187.165,361.154 194.103 M133.100 208.909 C 131.019 212.149,129.086 214.980,128.805 215.200 C 126.481 217.021,116.800 234.762,116.800 237.200 C 116.800 239.394,123.553 242.883,130.496 244.275 L 137.060 245.592 139.674 243.598 C 141.112 242.501,143.006 240.596,143.883 239.365 L 145.477 237.126 143.571 227.963 C 141.637 218.666,137.851 203.984,137.227 203.360 C 137.039 203.172,135.182 205.669,133.100 208.909 M262.038 206.613 C 261.872 207.156,261.200 209.273,260.545 211.317 C 259.890 213.361,258.352 220.119,257.128 226.335 L 254.903 237.637 258.418 241.218 C 262.387 245.262,262.938 245.358,271.834 243.541 C 278.339 242.212,284.800 239.074,284.800 237.243 C 284.800 231.883,263.199 202.815,262.038 206.613 M84.298 251.885 C 76.464 257.582,73.775 262.287,77.400 263.956 C 84.201 267.089,96.840 264.765,95.557 260.619 C 94.354 256.730,91.935 252.863,89.717 251.283 L 87.397 249.631 84.298 251.885 M310.492 250.905 C 308.605 252.228,304.806 259.397,304.827 261.600 C 304.862 265.466,314.637 266.674,323.400 263.895 C 327.218 262.685,327.179 262.366,322.600 257.457 C 316.373 250.781,313.156 249.040,310.492 250.905 M56.509 278.909 C 53.689 281.729,53.505 284.447,55.512 293.600 C 56.139 296.460,56.901 301.995,57.206 305.899 C 57.714 312.404,57.975 313.232,60.322 315.794 L 62.885 318.590 65.910 315.737 C 67.933 313.829,68.797 312.407,68.521 311.442 C 68.293 310.649,67.346 304.060,66.416 296.800 C 63.705 275.638,62.306 273.112,56.509 278.909 M335.414 305.400 C 333.613 312.761,334.150 316.000,337.173 316.000 C 340.533 316.000,341.340 311.890,339.536 303.958 C 337.908 296.802,337.482 296.951,335.414 305.400 M84.184 330.879 C 76.688 336.787,80.142 342.441,93.416 345.993 C 104.787 349.036,112.301 353.203,119.536 360.478 C 121.097 362.048,124.931 364.087,130.000 366.043 L 138.000 369.129 200.400 369.161 L 262.800 369.192 271.596 365.817 C 276.433 363.960,280.753 361.951,281.196 361.352 C 282.365 359.768,290.453 353.292,294.273 350.880 C 296.078 349.741,301.144 347.768,305.530 346.497 C 321.071 341.992,324.642 335.296,314.344 329.971 C 311.291 328.392,288.109 328.412,274.000 330.006 C 259.054 331.694,142.575 331.682,125.133 329.990 C 104.480 327.987,87.383 328.358,84.184 330.879 " stroke="none" fill="#000225" fill-rule="evenodd"></path></g></svg>