<svg id="svg" version="1.1" width="1000" height="437" xmlns="http://www.w3.org/2000/svg" xmlns:xlink="http://www.w3.org/1999/xlink" style="display: block;"><g id="svgg"><path id="path0" d="M0.000 35.800 L 0.000 71.600 78.180 71.600 L 156.359 71.600 157.448 70.173 C 158.498 68.796,158.548 68.503,158.858 61.873 C 159.652 44.876,161.758 37.993,167.518 33.565 C 168.749 32.619,168.875 32.292,169.422 28.651 C 170.829 19.290,174.286 12.608,178.856 10.419 C 180.097 9.824,181.884 8.677,182.828 7.869 C 183.772 7.061,184.692 6.400,184.872 6.400 C 185.052 6.400,185.200 4.960,185.200 3.200 L 185.200 0.000 92.600 0.000 L 0.000 0.000 0.000 35.800 M211.600 3.101 L 211.600 6.201 213.466 7.191 C 215.612 8.330,217.315 10.713,218.233 13.861 C 218.833 15.920,219.852 17.064,224.164 20.524 C 227.144 22.916,229.243 30.736,230.623 44.600 C 231.153 49.914,231.470 51.639,232.074 52.495 C 233.681 54.770,235.983 60.355,237.019 64.491 L 238.094 68.781 241.111 70.409 C 242.814 71.327,244.401 71.932,244.755 71.796 C 246.771 71.022,384.659 71.589,389.345 72.391 C 391.949 72.836,395.412 73.200,397.040 73.200 L 400.000 73.200 400.000 36.600 L 400.000 0.000 305.800 0.000 L 211.600 0.000 211.600 3.101 M390.962 95.816 C 386.068 98.138,382.105 98.949,377.132 98.648 C 374.784 98.506,347.424 98.432,316.332 98.483 C 285.239 98.534,258.540 98.550,257.000 98.518 C 254.678 98.470,246.920 96.825,244.400 95.847 C 243.971 95.680,243.354 96.407,242.235 98.399 C 241.374 99.931,239.508 102.352,238.088 103.779 C 235.795 106.083,235.379 106.753,234.360 109.788 C 233.728 111.666,232.782 114.057,232.257 115.102 C 231.687 116.236,231.192 118.126,231.027 119.800 C 228.969 140.698,226.232 148.875,220.440 151.430 C 218.630 152.229,216.504 155.415,215.649 158.609 C 214.208 163.992,210.523 165.821,199.131 166.807 C 189.613 167.631,184.634 165.902,182.200 160.927 C 180.670 157.800,179.584 156.652,176.706 155.117 C 173.820 153.579,172.317 151.412,171.422 147.494 C 171.058 145.902,170.421 143.340,170.006 141.800 C 169.591 140.260,169.134 138.403,168.988 137.674 C 168.819 136.823,168.083 135.756,166.935 134.697 C 162.282 130.408,160.102 123.916,159.208 111.679 C 158.862 106.946,157.133 98.596,156.236 97.325 C 156.207 97.284,153.757 97.507,150.792 97.820 C 146.333 98.292,132.824 98.391,72.700 98.395 L 0.000 98.400 0.000 136.600 L 0.000 174.800 200.000 174.800 L 400.000 174.800 400.000 134.600 L 400.000 94.400 396.900 94.435 C 394.252 94.465,393.387 94.666,390.962 95.816 " stroke="none" fill="#ffffff" fill-rule="evenodd"></path><path id="path1" d="M191.614 16.626 C 189.982 18.153,189.521 18.921,188.799 21.326 C 187.513 25.605,183.431 31.200,181.594 31.200 C 181.038 31.200,177.836 41.719,177.818 43.608 C 177.799 45.552,179.996 50.670,181.018 51.062 C 181.315 51.176,182.693 50.464,184.079 49.479 C 185.466 48.494,188.233 46.711,190.229 45.517 L 193.857 43.347 195.802 44.660 C 199.121 46.902,201.881 49.502,203.880 52.271 C 204.936 53.733,206.907 56.041,208.260 57.399 C 210.991 60.140,212.295 62.412,213.596 66.697 C 214.451 69.511,217.946 75.200,218.819 75.200 C 219.038 75.200,219.758 74.348,220.419 73.306 C 224.108 67.489,222.361 50.748,217.611 46.400 C 215.033 44.040,213.148 40.011,211.742 33.854 C 210.937 30.330,206.733 20.551,205.487 19.306 C 204.673 18.491,195.226 14.800,193.956 14.800 C 193.741 14.800,192.687 15.621,191.614 16.626 M178.400 76.256 C 175.463 78.220,172.400 80.780,172.400 81.272 C 172.400 82.420,180.291 92.400,181.199 92.400 C 181.608 92.400,183.763 86.820,184.676 83.396 L 185.351 80.859 183.545 77.930 C 181.388 74.430,181.215 74.374,178.400 76.256 M215.392 100.694 C 213.637 103.716,211.990 106.759,211.734 107.456 C 210.918 109.677,209.916 110.841,207.784 112.044 C 205.353 113.416,202.044 116.777,199.674 120.281 C 198.073 122.648,196.496 124.134,194.479 125.175 C 193.281 125.794,190.544 124.264,188.129 121.625 C 180.349 113.124,181.299 113.673,179.663 116.741 C 178.469 118.982,178.404 119.351,178.147 125.316 L 177.878 131.550 179.585 134.375 C 180.524 135.929,181.467 137.200,181.681 137.200 C 182.623 137.200,185.770 139.951,186.709 141.596 C 187.691 143.314,190.934 147.529,192.821 149.538 C 193.445 150.203,194.007 150.422,194.751 150.292 C 195.328 150.191,198.140 149.712,201.000 149.229 C 208.390 147.980,209.785 146.510,210.977 138.716 C 212.176 130.878,214.193 125.463,216.861 122.917 C 219.114 120.766,219.498 119.855,220.822 113.497 C 222.424 105.800,222.358 104.266,220.155 98.100 C 218.839 94.418,219.131 94.259,215.392 100.694 " stroke="none" fill="#cd2212" fill-rule="evenodd"></path><path id="path2" d="M191.599 10.434 C 188.678 12.028,186.029 14.696,184.143 17.940 C 183.294 19.400,181.776 21.509,180.768 22.626 C 174.917 29.117,172.003 38.323,171.996 50.341 C 171.993 56.950,171.982 57.030,170.571 61.000 C 169.789 63.200,168.822 66.020,168.421 67.267 C 167.637 69.710,164.487 74.798,161.472 78.494 C 159.187 81.296,159.157 80.628,161.804 86.069 C 163.017 88.561,165.080 93.570,166.389 97.200 C 168.428 102.854,168.972 103.972,170.184 105.000 L 171.600 106.200 171.613 112.200 C 171.651 130.026,173.524 136.494,181.459 146.200 C 188.217 154.466,191.842 158.473,193.235 159.219 C 193.881 159.564,195.890 158.971,204.390 155.927 C 209.430 154.122,213.786 148.796,216.549 141.060 C 217.323 138.893,218.678 135.923,219.559 134.460 C 223.905 127.246,226.014 118.564,227.202 103.000 C 228.030 92.155,228.766 90.210,234.024 84.976 C 238.342 80.678,238.348 81.330,233.965 78.758 C 228.500 75.550,227.936 74.213,227.195 62.714 C 226.447 51.117,224.033 42.096,219.268 33.092 C 217.960 30.622,215.943 26.440,214.785 23.800 C 210.417 13.843,208.656 12.309,199.400 10.400 C 197.200 9.946,195.040 9.498,194.599 9.404 C 194.158 9.311,192.808 9.774,191.599 10.434 M199.439 16.575 C 202.468 17.631,204.919 18.737,205.487 19.306 C 206.733 20.551,210.937 30.330,211.742 33.854 C 213.148 40.011,215.033 44.040,217.611 46.400 C 222.361 50.748,224.108 67.489,220.419 73.306 C 219.758 74.348,219.038 75.200,218.819 75.200 C 217.946 75.200,214.451 69.511,213.596 66.697 C 212.295 62.412,210.991 60.140,208.260 57.399 C 206.907 56.041,204.936 53.733,203.880 52.271 C 201.881 49.502,199.121 46.902,195.802 44.660 L 193.857 43.347 190.229 45.517 C 188.233 46.711,185.466 48.494,184.079 49.479 C 182.693 50.464,181.315 51.176,181.018 51.062 C 179.996 50.670,177.799 45.552,177.818 43.608 C 177.836 41.719,181.038 31.200,181.594 31.200 C 183.431 31.200,187.513 25.605,188.799 21.326 C 189.521 18.921,189.982 18.153,191.614 16.626 C 193.973 14.419,193.267 14.424,199.439 16.575 M198.066 58.197 C 199.772 61.548,201.289 63.338,204.162 65.387 C 206.877 67.325,207.009 67.521,208.787 72.234 C 209.458 74.013,210.907 76.774,212.006 78.369 L 214.004 81.270 213.013 84.535 C 212.468 86.331,211.753 89.089,211.424 90.665 C 210.735 93.965,207.332 100.006,205.018 102.038 C 204.255 102.708,203.272 103.836,202.835 104.544 C 202.397 105.253,200.683 107.228,199.026 108.934 C 197.369 110.640,195.532 112.668,194.943 113.440 L 193.872 114.844 189.611 110.556 L 185.350 106.269 186.851 102.623 C 189.243 96.814,192.400 84.849,192.400 81.594 C 192.400 79.844,190.305 74.657,188.255 71.332 L 186.496 68.480 187.676 62.325 L 188.857 56.169 191.311 54.484 L 193.766 52.800 195.306 54.300 C 196.153 55.125,197.395 56.879,198.066 58.197 M183.545 77.930 L 185.351 80.859 184.676 83.396 C 183.763 86.820,181.608 92.400,181.199 92.400 C 180.291 92.400,172.400 82.420,172.400 81.272 C 172.400 80.349,180.162 74.703,181.170 74.893 C 181.483 74.952,182.552 76.318,183.545 77.930 M220.155 98.100 C 223.160 106.512,221.581 118.412,216.861 122.917 C 214.193 125.463,212.176 130.878,210.977 138.716 C 209.785 146.510,208.390 147.980,201.000 149.229 C 198.140 149.712,195.328 150.191,194.751 150.292 C 194.007 150.422,193.445 150.203,192.821 149.538 C 190.934 147.529,187.691 143.314,186.709 141.596 C 185.770 139.951,182.623 137.200,181.681 137.200 C 181.467 137.200,180.524 135.929,179.585 134.375 L 177.878 131.550 178.147 125.316 C 178.404 119.351,178.469 118.982,179.663 116.741 C 181.299 113.673,180.349 113.124,188.129 121.625 C 190.544 124.264,193.281 125.794,194.479 125.175 C 196.496 124.134,198.073 122.648,199.674 120.281 C 202.044 116.777,205.353 113.416,207.784 112.044 C 209.916 110.841,210.918 109.677,211.734 107.456 C 212.337 105.815,218.502 95.200,218.852 95.200 C 218.999 95.200,219.585 96.505,220.155 98.100 " stroke="none" fill="#dd858a" fill-rule="evenodd"></path><path id="path3" d="M191.157 7.342 C 186.664 9.190,183.755 11.742,181.846 15.509 C 181.283 16.621,179.948 18.238,178.806 19.195 C 174.300 22.967,172.682 26.961,169.568 42.000 C 169.135 44.090,168.124 47.330,167.321 49.200 C 165.394 53.687,164.620 56.749,163.777 63.228 C 163.025 69.009,162.281 70.589,157.880 75.757 L 156.554 77.313 78.277 77.230 L 0.000 77.147 0.000 82.171 L 0.000 87.195 65.500 87.298 C 128.326 87.396,145.332 87.263,152.834 86.614 L 156.267 86.316 157.916 89.485 C 159.992 93.476,163.583 104.500,165.164 111.734 C 165.829 114.778,166.864 118.288,167.464 119.534 C 168.933 122.586,169.101 123.171,169.833 127.800 C 171.543 138.605,174.646 145.455,180.432 151.197 C 182.539 153.289,185.016 156.117,185.935 157.483 C 187.587 159.937,189.964 161.924,192.527 162.995 C 193.935 163.583,198.158 162.986,204.084 161.360 C 208.550 160.135,216.066 151.522,218.011 145.400 C 218.291 144.520,219.319 142.907,220.296 141.816 C 224.700 136.899,227.643 126.952,229.010 112.371 C 229.644 105.605,230.349 101.226,231.132 99.191 C 231.342 98.646,234.278 95.360,237.657 91.890 L 243.800 85.579 249.600 86.493 L 255.400 87.407 312.000 87.200 C 363.887 87.011,369.129 87.051,374.956 87.688 L 381.313 88.382 384.471 86.739 C 387.456 85.186,391.600 81.948,391.600 81.169 C 391.600 80.666,387.365 78.586,384.106 77.489 C 381.654 76.664,380.986 76.601,377.782 76.893 C 375.812 77.073,347.339 77.204,314.509 77.184 C 271.808 77.159,253.244 77.283,249.289 77.620 L 243.759 78.092 241.580 76.706 C 240.381 75.944,237.636 74.373,235.479 73.214 C 230.362 70.466,230.485 70.705,229.785 62.147 C 228.227 43.087,224.982 31.064,219.977 25.800 C 219.070 24.846,217.876 22.827,217.021 20.800 C 212.718 10.603,210.671 8.918,200.686 7.355 C 193.348 6.207,193.914 6.208,191.157 7.342 M199.400 10.400 C 208.656 12.309,210.417 13.843,214.785 23.800 C 215.943 26.440,217.960 30.622,219.268 33.092 C 224.033 42.096,226.447 51.117,227.195 62.714 C 227.936 74.213,228.500 75.550,233.965 78.758 C 238.348 81.330,238.342 80.678,234.024 84.976 C 228.766 90.210,228.030 92.155,227.202 103.000 C 226.014 118.564,223.905 127.246,219.559 134.460 C 218.678 135.923,217.323 138.893,216.549 141.060 C 213.786 148.796,209.430 154.122,204.390 155.927 C 195.890 158.971,193.881 159.564,193.235 159.219 C 191.842 158.473,188.217 154.466,181.459 146.200 C 173.524 136.494,171.651 130.026,171.613 112.200 L 171.600 106.200 170.184 105.000 C 168.972 103.972,168.428 102.854,166.389 97.200 C 165.080 93.570,163.017 88.561,161.804 86.069 C 159.157 80.628,159.187 81.296,161.472 78.494 C 164.487 74.798,167.637 69.710,168.421 67.267 C 168.822 66.020,169.789 63.200,170.571 61.000 C 171.982 57.030,171.993 56.950,171.996 50.341 C 172.003 38.323,174.917 29.117,180.768 22.626 C 181.776 21.509,183.294 19.400,184.143 17.940 C 186.702 13.536,192.349 8.927,194.599 9.404 C 195.040 9.498,197.200 9.946,199.400 10.400 M191.311 54.484 L 188.857 56.169 187.676 62.325 L 186.496 68.480 188.255 71.332 C 190.305 74.657,192.400 79.844,192.400 81.594 C 192.400 84.849,189.243 96.814,186.851 102.623 L 185.350 106.269 189.611 110.556 L 193.872 114.844 194.943 113.440 C 195.532 112.668,197.369 110.640,199.026 108.934 C 200.683 107.228,202.397 105.253,202.835 104.544 C 203.272 103.836,204.255 102.708,205.018 102.038 C 207.332 100.006,210.735 93.965,211.424 90.665 C 211.753 89.089,212.468 86.331,213.013 84.535 L 214.004 81.270 212.006 78.369 C 210.907 76.774,209.458 74.013,208.787 72.234 C 207.009 67.521,206.877 67.325,204.162 65.387 C 201.289 63.338,199.772 61.548,198.066 58.197 C 197.395 56.879,196.153 55.125,195.306 54.300 L 193.766 52.800 191.311 54.484 M196.259 67.659 C 197.445 68.900,197.010 70.031,194.860 71.301 L 193.685 71.995 193.017 70.326 C 192.392 68.765,192.393 68.478,193.025 65.898 L 193.701 63.139 194.474 64.870 C 194.899 65.821,195.703 67.077,196.259 67.659 M207.171 79.138 C 208.070 81.056,208.072 81.114,207.446 84.838 C 207.098 86.907,206.695 89.640,206.551 90.911 C 205.947 96.210,202.410 88.149,202.402 81.453 C 202.400 80.335,204.967 77.200,205.885 77.200 C 206.093 77.200,206.672 78.072,207.171 79.138 M195.176 103.644 C 195.553 105.985,195.520 106.234,194.711 107.094 L 193.840 108.022 192.930 107.111 L 192.020 106.200 192.910 102.473 C 193.922 98.234,194.340 98.449,195.176 103.644 " stroke="none" fill="#e7b4b6" fill-rule="evenodd"></path><path id="path4" d="M185.200 3.200 C 185.200 4.960,185.052 6.400,184.872 6.400 C 184.692 6.400,183.772 7.061,182.828 7.869 C 181.884 8.677,180.097 9.824,178.856 10.419 C 174.286 12.608,170.829 19.290,169.422 28.651 C 168.875 32.292,168.749 32.619,167.518 33.565 C 161.758 37.993,159.652 44.876,158.858 61.873 C 158.548 68.503,158.498 68.796,157.448 70.173 L 156.359 71.600 78.180 71.600 L 0.000 71.600 0.000 74.374 L 0.000 77.148 78.100 77.284 L 156.200 77.420 157.709 75.810 C 161.948 71.287,163.017 69.071,163.777 63.228 C 164.620 56.749,165.394 53.687,167.321 49.200 C 168.124 47.330,169.135 44.090,169.568 42.000 C 172.677 26.987,174.303 22.965,178.778 19.218 C 179.966 18.224,181.302 16.571,182.046 15.173 C 184.093 11.334,187.857 8.327,192.495 6.825 C 193.739 6.422,194.976 6.485,199.895 7.203 C 210.423 8.739,212.692 10.540,217.021 20.800 C 217.876 22.827,219.070 24.846,219.977 25.800 C 224.982 31.064,228.227 43.087,229.785 62.147 C 230.485 70.705,230.362 70.466,235.479 73.214 C 237.636 74.373,240.381 75.944,241.580 76.706 L 243.759 78.092 249.289 77.620 C 253.244 77.283,271.808 77.159,314.509 77.184 C 347.339 77.204,375.812 77.073,377.782 76.893 C 380.986 76.601,381.654 76.664,384.106 77.489 C 387.365 78.586,391.600 80.666,391.600 81.169 C 391.600 81.948,387.456 85.186,384.471 86.739 L 381.313 88.382 374.956 87.688 C 369.129 87.051,363.887 87.011,312.000 87.200 L 255.400 87.407 249.600 86.493 L 243.800 85.579 237.657 91.890 C 234.278 95.360,231.342 98.646,231.132 99.191 C 230.349 101.226,229.644 105.605,229.010 112.371 C 227.643 126.952,224.700 136.899,220.296 141.816 C 219.319 142.907,218.291 144.520,218.011 145.400 C 216.066 151.522,208.550 160.135,204.084 161.360 C 198.158 162.986,193.935 163.583,192.527 162.995 C 189.964 161.924,187.587 159.937,185.935 157.483 C 185.016 156.117,182.539 153.289,180.432 151.197 C 174.646 145.455,171.543 138.605,169.833 127.800 C 169.101 123.171,168.933 122.586,167.464 119.534 C 166.864 118.288,165.829 114.778,165.164 111.734 C 162.567 99.847,157.405 86.384,155.455 86.412 C 154.985 86.419,152.350 86.595,149.600 86.803 C 146.726 87.020,113.865 87.184,72.300 87.188 L 0.000 87.195 0.000 92.798 L 0.000 98.400 72.700 98.395 C 132.824 98.391,146.333 98.292,150.792 97.820 C 153.757 97.507,156.207 97.284,156.236 97.325 C 157.133 98.596,158.862 106.946,159.208 111.679 C 160.102 123.916,162.282 130.408,166.935 134.697 C 168.083 135.756,168.819 136.823,168.988 137.674 C 169.134 138.403,169.591 140.260,170.006 141.800 C 170.421 143.340,171.058 145.902,171.422 147.494 C 172.317 151.412,173.820 153.579,176.706 155.117 C 179.584 156.652,180.670 157.800,182.200 160.927 C 184.634 165.902,189.613 167.631,199.131 166.807 C 210.523 165.821,214.208 163.992,215.649 158.609 C 216.504 155.415,218.630 152.229,220.440 151.430 C 226.232 148.875,228.969 140.698,231.027 119.800 C 231.192 118.126,231.687 116.236,232.257 115.102 C 232.782 114.057,233.728 111.666,234.360 109.788 C 235.379 106.753,235.795 106.083,238.088 103.779 C 239.508 102.352,241.374 99.931,242.235 98.399 C 243.354 96.407,243.971 95.680,244.400 95.847 C 246.920 96.825,254.678 98.470,257.000 98.518 C 258.540 98.550,285.239 98.534,316.332 98.483 C 347.424 98.432,374.784 98.506,377.132 98.648 C 382.104 98.949,385.990 98.153,391.130 95.778 C 393.675 94.602,394.545 94.400,397.056 94.400 L 400.000 94.400 400.000 83.800 L 400.000 73.200 397.040 73.200 C 395.412 73.200,391.949 72.836,389.345 72.391 C 384.659 71.589,246.771 71.022,244.755 71.796 C 244.401 71.932,242.814 71.327,241.111 70.409 L 238.094 68.781 237.019 64.491 C 235.983 60.355,233.681 54.770,232.074 52.495 C 231.470 51.639,231.153 49.914,230.623 44.600 C 229.243 30.736,227.144 22.916,224.164 20.524 C 219.852 17.064,218.833 15.920,218.233 13.861 C 217.315 10.713,215.612 8.330,213.466 7.191 L 211.600 6.201 211.600 3.101 L 211.600 0.000 198.400 0.000 L 185.200 0.000 185.200 3.200 M193.025 65.898 C 192.393 68.478,192.392 68.765,193.017 70.326 L 193.685 71.995 194.860 71.301 C 197.010 70.031,197.445 68.900,196.259 67.659 C 195.703 67.077,194.899 65.821,194.474 64.870 L 193.701 63.139 193.025 65.898 M203.953 78.753 C 202.869 79.836,202.400 80.653,202.402 81.453 C 202.410 88.149,205.947 96.210,206.551 90.911 C 206.695 89.640,207.098 86.907,207.446 84.838 C 208.072 81.114,208.070 81.056,207.171 79.138 C 206.076 76.799,205.925 76.781,203.953 78.753 M192.910 102.473 L 192.020 106.200 192.930 107.111 L 193.840 108.022 194.711 107.094 C 195.650 106.095,195.454 102.794,194.285 99.933 C 193.815 98.784,193.772 98.864,192.910 102.473 " stroke="none" fill="#f2d9da" fill-rule="evenodd"></path></g></svg>