<svg id="svg" version="1.1" width="500" height="500" xmlns="http://www.w3.org/2000/svg" xmlns:xlink="http://www.w3.org/1999/xlink" style="display: block;"><g id="svgg"><path id="path0" d="M37.317 63.800 C 37.102 64.570,36.702 86.620,36.428 112.800 C 36.088 145.328,35.527 165.213,34.657 175.600 C 33.600 188.236,33.494 196.467,34.028 224.400 C 34.797 264.632,34.786 262.425,34.409 304.000 C 34.044 344.114,33.692 342.400,42.301 342.400 C 48.574 342.400,52.489 341.277,53.626 339.151 C 54.466 337.582,54.037 314.088,52.868 297.600 C 52.401 291.000,52.561 284.745,53.436 275.468 C 54.631 262.799,54.622 262.458,53.012 258.668 C 50.355 252.417,46.386 232.404,44.710 216.800 C 43.845 208.747,44.176 160.269,45.170 149.600 C 46.000 140.679,45.763 136.092,43.763 122.400 C 42.366 112.830,41.572 103.211,41.254 92.000 C 40.894 79.299,39.988 66.052,39.243 62.600 C 39.066 61.780,37.631 62.675,37.317 63.800 M359.385 75.400 C 358.147 84.287,357.579 92.233,357.587 100.516 C 357.604 116.536,355.060 125.116,347.632 134.085 L 344.912 137.371 348.422 139.845 C 357.662 146.358,358.884 156.573,356.780 209.713 C 355.455 243.169,352.863 252.947,344.000 257.928 L 339.600 260.400 274.000 260.218 C 165.018 259.915,79.273 260.423,75.200 261.396 C 71.630 262.250,71.730 263.007,75.824 266.130 C 82.842 271.483,85.022 271.810,109.200 271.136 C 133.228 270.466,146.641 270.741,156.800 272.112 C 161.725 272.776,173.197 272.838,198.400 272.337 C 217.540 271.957,237.160 271.816,242.000 272.023 C 260.823 272.829,307.429 271.504,328.800 269.555 L 338.000 268.716 342.127 273.117 C 344.733 275.896,346.908 279.229,348.027 282.159 L 349.799 286.800 348.232 300.800 C 347.067 311.204,346.815 316.855,347.252 322.800 C 348.316 337.288,348.145 346.084,346.777 347.219 C 344.115 349.428,321.463 346.490,315.545 343.168 C 312.665 341.552,293.321 339.594,286.400 340.219 C 261.581 342.458,261.123 342.468,257.472 340.811 C 255.562 339.944,253.082 339.227,251.960 339.218 C 249.129 339.193,247.954 337.824,248.817 335.554 C 249.338 334.184,249.128 333.216,247.998 331.779 C 246.620 330.028,246.591 329.684,247.684 328.123 C 248.423 327.068,248.550 326.400,248.011 326.400 C 247.486 326.400,247.225 325.194,247.365 323.411 L 247.600 320.421 241.513 318.811 C 235.078 317.108,232.476 315.597,233.115 313.934 C 233.368 313.273,232.483 312.774,230.551 312.491 C 195.851 307.397,188.321 307.045,181.459 310.195 C 177.133 312.180,176.717 312.585,177.089 314.444 C 177.315 315.574,177.217 317.751,176.872 319.283 C 174.920 327.935,180.900 334.392,192.458 336.111 C 197.554 336.869,198.345 337.175,197.100 337.912 C 194.327 339.553,150.940 338.539,151.420 336.844 C 151.519 336.496,150.703 335.478,149.607 334.582 C 147.701 333.024,147.675 332.885,149.004 331.416 C 150.529 329.731,150.607 328.896,150.086 319.829 C 149.650 312.256,149.719 312.367,143.704 309.521 C 138.524 307.070,135.816 306.701,132.441 307.984 C 131.307 308.416,128.314 309.108,125.789 309.523 C 123.265 309.939,119.805 310.869,118.100 311.591 L 115.001 312.905 117.112 315.108 C 118.273 316.320,119.039 317.495,118.814 317.719 C 118.590 317.943,119.305 318.971,120.403 320.003 C 121.501 321.035,122.400 322.289,122.400 322.790 C 122.400 323.291,123.482 324.738,124.805 326.005 C 126.429 327.560,126.947 328.573,126.400 329.120 C 125.854 329.666,126.685 331.045,128.959 333.361 C 132.964 337.443,132.711 337.857,125.200 339.499 C 122.120 340.173,117.980 341.123,116.000 341.611 C 113.802 342.153,109.596 342.298,105.200 341.983 C 94.865 341.243,88.951 341.424,80.151 342.751 C 75.888 343.394,69.908 344.117,66.862 344.358 C 58.040 345.056,57.512 345.707,56.419 357.219 C 55.967 361.982,55.997 362.071,58.981 364.920 L 62.000 367.802 86.000 368.309 C 99.200 368.588,115.220 369.023,121.600 369.276 C 156.766 370.673,165.986 370.737,186.937 369.733 C 204.772 368.878,212.303 368.857,224.800 369.627 C 236.929 370.375,244.306 370.376,257.957 369.631 C 267.614 369.104,289.620 368.574,306.861 368.453 L 338.207 368.233 343.195 365.203 L 348.183 362.173 347.737 355.798 C 347.491 352.292,347.093 349.226,346.852 348.985 C 345.505 347.638,348.296 346.705,352.188 347.202 C 354.505 347.497,357.480 347.647,358.800 347.534 C 360.120 347.422,361.562 347.301,362.004 347.265 C 366.275 346.920,367.056 334.919,365.471 294.000 C 364.710 274.362,364.718 266.369,365.510 255.600 C 366.933 236.244,367.451 199.893,366.485 187.200 C 365.753 177.573,364.958 150.104,363.483 83.400 C 362.922 58.015,362.044 56.301,359.385 75.400 M104.481 136.084 C 101.885 136.462,99.628 136.905,99.466 137.067 C 98.847 137.686,112.998 138.387,116.101 137.891 L 119.362 137.370 116.281 136.297 C 112.863 135.107,111.363 135.080,104.481 136.084 M233.600 136.817 C 231.662 137.213,233.242 137.422,238.733 137.495 C 243.097 137.553,246.517 137.470,246.333 137.312 C 245.571 136.653,236.188 136.288,233.600 136.817 M280.400 136.734 C 276.331 137.657,285.399 138.553,291.778 137.858 L 297.200 137.267 293.600 136.693 C 289.188 135.989,283.606 136.006,280.400 136.734 M84.152 309.765 C 80.154 312.535,80.182 312.272,83.200 318.928 C 84.520 321.839,85.600 324.667,85.600 325.213 C 85.600 326.882,87.485 327.880,89.800 327.436 C 91.010 327.204,92.000 326.556,92.000 325.996 C 92.000 325.436,93.260 324.742,94.800 324.453 C 96.340 324.164,97.600 323.584,97.600 323.164 C 97.600 322.744,98.320 322.400,99.200 322.400 C 100.080 322.400,100.800 322.040,100.800 321.600 C 100.800 321.160,101.340 320.800,102.000 320.800 C 102.660 320.800,103.200 320.440,103.200 320.000 C 103.200 319.560,103.740 319.200,104.400 319.200 C 105.067 319.200,105.600 318.489,105.600 317.600 C 105.600 316.720,105.960 316.000,106.400 316.000 C 106.840 316.000,107.200 315.460,107.200 314.800 C 107.200 314.140,107.560 313.600,108.000 313.600 C 108.440 313.600,108.800 313.276,108.800 312.880 C 108.800 312.204,105.962 311.426,96.400 309.481 C 94.200 309.033,91.298 308.391,89.952 308.055 C 87.956 307.556,86.886 307.872,84.152 309.765 M277.400 310.710 C 266.869 312.170,264.639 312.933,267.886 313.964 C 268.954 314.303,269.267 314.982,268.999 316.381 C 268.699 317.954,269.026 318.426,270.714 318.850 C 271.861 319.138,272.800 319.874,272.800 320.487 C 272.800 321.099,273.314 321.600,273.943 321.600 C 274.571 321.600,275.669 322.183,276.382 322.896 C 277.094 323.609,279.190 324.645,281.039 325.199 C 283.402 325.907,284.330 326.591,284.165 327.503 C 283.991 328.464,284.554 328.800,286.340 328.800 C 288.133 328.800,288.634 329.101,288.298 329.977 C 287.986 330.792,290.228 330.186,295.565 328.014 C 302.249 325.295,303.220 325.075,302.807 326.379 C 302.365 327.770,302.726 327.728,307.494 325.836 C 314.213 323.170,318.087 315.225,314.791 310.869 C 313.119 308.660,292.801 308.573,277.400 310.710 " stroke="none" fill="#1d0202" fill-rule="evenodd"></path><path id="path1" d="M316.800 30.148 C 307.686 30.971,297.405 31.148,278.000 30.815 C 263.480 30.566,222.800 30.430,187.600 30.514 C 152.400 30.597,109.843 30.557,93.030 30.424 L 62.460 30.182 58.401 33.278 C 56.111 35.024,53.348 38.134,52.061 40.415 C 49.650 44.687,45.934 47.716,40.000 50.243 C 36.596 51.694,31.379 56.541,28.509 60.921 C 26.929 63.333,25.553 177.156,25.884 278.038 L 26.082 338.077 29.172 343.638 C 30.872 346.697,34.474 351.360,37.177 354.000 C 39.879 356.640,43.562 360.780,45.362 363.200 C 53.142 373.661,59.195 377.945,70.270 380.832 C 74.962 382.055,81.760 384.078,85.379 385.328 L 91.957 387.600 91.979 393.800 L 92.000 400.000 204.000 400.000 L 316.000 400.000 316.000 393.675 L 316.000 387.349 321.800 384.970 C 324.990 383.662,329.580 382.148,332.000 381.605 C 336.353 380.630,347.156 375.222,358.000 368.591 C 364.470 364.634,367.569 359.571,372.418 345.042 L 375.034 337.200 374.769 218.400 C 374.470 83.987,373.960 64.177,370.654 58.500 C 367.812 53.620,363.428 48.952,360.055 47.212 C 357.024 45.649,353.195 41.862,350.894 38.151 C 350.127 36.914,347.029 34.304,344.010 32.351 C 337.664 28.246,337.764 28.254,316.800 30.148 M39.243 62.600 C 39.988 66.052,40.894 79.299,41.254 92.000 C 41.572 103.211,42.366 112.830,43.763 122.400 C 45.763 136.092,46.000 140.679,45.170 149.600 C 44.176 160.269,43.845 208.747,44.710 216.800 C 46.386 232.404,50.355 252.417,53.012 258.668 C 54.622 262.458,54.631 262.799,53.436 275.468 C 52.561 284.745,52.401 291.000,52.868 297.600 C 54.037 314.088,54.466 337.582,53.626 339.151 C 52.489 341.277,48.574 342.400,42.301 342.400 C 33.692 342.400,34.044 344.114,34.409 304.000 C 34.786 262.425,34.797 264.632,34.028 224.400 C 33.494 196.467,33.600 188.236,34.657 175.600 C 35.527 165.213,36.088 145.328,36.428 112.800 C 36.702 86.620,37.102 64.570,37.317 63.800 C 37.631 62.675,39.066 61.780,39.243 62.600 M363.483 83.400 C 364.958 150.104,365.753 177.573,366.485 187.200 C 367.451 199.893,366.933 236.244,365.510 255.600 C 364.718 266.369,364.710 274.362,365.471 294.000 C 367.056 334.919,366.275 346.920,362.004 347.265 C 361.562 347.301,360.120 347.422,358.800 347.534 C 357.480 347.647,354.505 347.497,352.188 347.202 C 348.296 346.705,345.505 347.638,346.852 348.985 C 347.093 349.226,347.491 352.292,347.737 355.798 L 348.183 362.173 343.195 365.203 L 338.207 368.233 306.861 368.453 C 289.620 368.574,267.614 369.104,257.957 369.631 C 244.306 370.376,236.929 370.375,224.800 369.627 C 212.303 368.857,204.772 368.878,186.937 369.733 C 165.986 370.737,156.766 370.673,121.600 369.276 C 115.220 369.023,99.200 368.588,86.000 368.309 L 62.000 367.802 58.981 364.920 C 55.997 362.071,55.967 361.982,56.419 357.219 C 57.512 345.707,58.040 345.056,66.862 344.358 C 69.908 344.117,75.888 343.394,80.151 342.751 C 88.951 341.424,94.865 341.243,105.200 341.983 C 109.596 342.298,113.802 342.153,116.000 341.611 C 117.980 341.123,122.120 340.173,125.200 339.499 C 132.711 337.857,132.964 337.443,128.959 333.361 C 126.685 331.045,125.854 329.666,126.400 329.120 C 126.947 328.573,126.429 327.560,124.805 326.005 C 123.482 324.738,122.400 323.291,122.400 322.790 C 122.400 322.289,121.501 321.035,120.403 320.003 C 119.305 318.971,118.590 317.943,118.814 317.719 C 119.039 317.495,118.273 316.320,117.112 315.108 L 115.001 312.905 118.100 311.591 C 119.805 310.869,123.265 309.939,125.789 309.523 C 128.314 309.108,131.307 308.416,132.441 307.984 C 135.816 306.701,138.524 307.070,143.704 309.521 C 149.719 312.367,149.650 312.256,150.086 319.829 C 150.607 328.896,150.529 329.731,149.004 331.416 C 147.675 332.885,147.701 333.024,149.607 334.582 C 150.703 335.478,151.519 336.496,151.420 336.844 C 150.940 338.539,194.327 339.553,197.100 337.912 C 198.345 337.175,197.554 336.869,192.458 336.111 C 180.900 334.392,174.920 327.935,176.872 319.283 C 177.217 317.751,177.315 315.574,177.089 314.444 C 176.717 312.585,177.133 312.180,181.459 310.195 C 188.321 307.045,195.851 307.397,230.551 312.491 C 232.483 312.774,233.368 313.273,233.115 313.934 C 232.476 315.597,235.078 317.108,241.513 318.811 L 247.600 320.421 247.365 323.411 C 247.225 325.194,247.486 326.400,248.011 326.400 C 248.550 326.400,248.423 327.068,247.684 328.123 C 246.591 329.684,246.620 330.028,247.998 331.779 C 249.128 333.216,249.338 334.184,248.817 335.554 C 247.954 337.824,249.129 339.193,251.960 339.218 C 253.082 339.227,255.562 339.944,257.472 340.811 C 261.123 342.468,261.581 342.458,286.400 340.219 C 293.321 339.594,312.665 341.552,315.545 343.168 C 321.463 346.490,344.115 349.428,346.777 347.219 C 348.145 346.084,348.316 337.288,347.252 322.800 C 346.815 316.855,347.067 311.204,348.232 300.800 L 349.799 286.800 348.027 282.159 C 346.908 279.229,344.733 275.896,342.127 273.117 L 338.000 268.716 328.800 269.555 C 307.429 271.504,260.823 272.829,242.000 272.023 C 237.160 271.816,217.540 271.957,198.400 272.337 C 173.197 272.838,161.725 272.776,156.800 272.112 C 146.641 270.741,133.228 270.466,109.200 271.136 C 85.022 271.810,82.842 271.483,75.824 266.130 C 71.730 263.007,71.630 262.250,75.200 261.396 C 79.273 260.423,165.018 259.915,274.000 260.218 L 339.600 260.400 344.000 257.928 C 352.863 252.947,355.455 243.169,356.780 209.713 C 358.884 156.573,357.662 146.358,348.422 139.845 L 344.912 137.371 347.632 134.085 C 355.060 125.116,357.604 116.536,357.587 100.516 C 357.573 86.967,360.486 62.400,362.107 62.400 C 362.754 62.400,363.153 68.487,363.483 83.400 M116.281 136.297 L 119.362 137.370 116.101 137.891 C 112.998 138.387,98.847 137.686,99.466 137.067 C 99.821 136.713,108.384 135.430,111.200 135.310 C 112.300 135.263,114.587 135.707,116.281 136.297 M246.333 137.312 C 246.517 137.470,243.097 137.553,238.733 137.495 C 233.242 137.422,231.662 137.213,233.600 136.817 C 236.188 136.288,245.571 136.653,246.333 137.312 M293.600 136.693 L 297.200 137.267 291.778 137.858 C 285.399 138.553,276.331 137.657,280.400 136.734 C 283.606 136.006,289.188 135.989,293.600 136.693 M320.745 154.883 C 329.562 157.572,336.250 160.975,338.223 163.775 C 349.588 179.904,350.581 210.530,340.450 232.458 C 337.307 239.259,333.836 241.531,320.465 245.535 L 313.200 247.711 200.800 247.572 L 88.400 247.432 83.878 245.688 C 73.893 241.836,65.099 231.323,59.378 216.400 C 56.675 209.347,58.271 188.816,62.111 181.253 C 67.418 170.803,76.504 160.807,84.114 157.047 C 90.479 153.902,106.430 153.471,208.186 153.692 C 259.548 153.804,301.818 153.649,302.119 153.348 C 303.474 151.993,314.157 152.873,320.745 154.883 M96.400 309.481 C 105.962 311.426,108.800 312.204,108.800 312.880 C 108.800 313.276,108.440 313.600,108.000 313.600 C 107.560 313.600,107.200 314.140,107.200 314.800 C 107.200 315.460,106.840 316.000,106.400 316.000 C 105.960 316.000,105.600 316.720,105.600 317.600 C 105.600 318.489,105.067 319.200,104.400 319.200 C 103.740 319.200,103.200 319.560,103.200 320.000 C 103.200 320.440,102.660 320.800,102.000 320.800 C 101.340 320.800,100.800 321.160,100.800 321.600 C 100.800 322.040,100.080 322.400,99.200 322.400 C 98.320 322.400,97.600 322.744,97.600 323.164 C 97.600 323.584,96.340 324.164,94.800 324.453 C 93.260 324.742,92.000 325.436,92.000 325.996 C 92.000 326.556,91.010 327.204,89.800 327.436 C 87.485 327.880,85.600 326.882,85.600 325.213 C 85.600 324.667,84.520 321.839,83.200 318.928 C 80.182 312.272,80.154 312.535,84.152 309.765 C 86.886 307.872,87.956 307.556,89.952 308.055 C 91.298 308.391,94.200 309.033,96.400 309.481 M314.791 310.869 C 318.087 315.225,314.213 323.170,307.494 325.836 C 302.726 327.728,302.365 327.770,302.807 326.379 C 303.220 325.075,302.249 325.295,295.565 328.014 C 290.228 330.186,287.986 330.792,288.298 329.977 C 288.634 329.101,288.133 328.800,286.340 328.800 C 284.554 328.800,283.991 328.464,284.165 327.503 C 284.330 326.591,283.402 325.907,281.039 325.199 C 279.190 324.645,277.094 323.609,276.382 322.896 C 275.669 322.183,274.571 321.600,273.943 321.600 C 273.314 321.600,272.800 321.099,272.800 320.487 C 272.800 319.874,271.861 319.138,270.714 318.850 C 269.026 318.426,268.699 317.954,268.999 316.381 C 269.267 314.982,268.954 314.303,267.886 313.964 C 264.639 312.933,266.869 312.170,277.400 310.710 C 292.801 308.573,313.119 308.660,314.791 310.869 " stroke="none" fill="#6d3338" fill-rule="evenodd"></path><path id="path2" d="M64.786 19.158 C 55.995 20.068,47.467 25.878,41.074 35.311 C 39.302 37.925,37.101 39.799,33.623 41.652 C 27.892 44.707,23.773 49.087,20.413 55.701 L 18.025 60.400 17.432 81.133 C 17.105 92.537,16.920 155.177,17.019 220.333 L 17.200 338.800 19.391 345.263 C 21.458 351.356,23.223 354.448,31.230 365.997 C 36.550 373.669,44.251 381.775,49.096 384.800 L 53.580 387.600 53.590 393.800 L 53.600 400.000 72.800 400.000 L 92.000 400.000 91.979 393.800 L 91.957 387.600 85.379 385.328 C 81.760 384.078,74.962 382.055,70.270 380.832 C 59.195 377.945,53.142 373.661,45.362 363.200 C 43.562 360.780,39.879 356.640,37.177 354.000 C 34.474 351.360,30.872 346.697,29.172 343.638 L 26.082 338.077 25.884 278.038 C 25.553 177.156,26.929 63.333,28.509 60.921 C 31.379 56.541,36.596 51.694,40.000 50.243 C 45.934 47.716,49.650 44.687,52.061 40.415 C 53.348 38.134,56.111 35.024,58.401 33.278 L 62.460 30.182 93.030 30.424 C 109.843 30.557,153.120 30.598,189.200 30.515 C 225.280 30.432,264.880 30.604,277.200 30.898 C 295.105 31.325,303.466 31.143,318.870 29.993 L 338.140 28.554 343.819 32.228 C 346.943 34.249,350.127 36.914,350.894 38.151 C 353.195 41.862,357.024 45.649,360.055 47.212 C 363.428 48.952,367.812 53.620,370.654 58.500 C 373.960 64.177,374.470 83.987,374.769 218.400 L 375.034 337.200 372.418 345.042 C 367.569 359.571,364.470 364.634,358.000 368.591 C 347.156 375.222,336.353 380.630,332.000 381.605 C 329.580 382.148,324.990 383.662,321.800 384.970 L 316.000 387.349 316.000 393.675 L 316.000 400.000 332.800 400.000 L 349.600 400.000 349.600 393.698 L 349.600 387.396 358.894 382.298 C 382.048 369.598,384.482 359.675,384.867 276.400 C 385.681 100.404,384.669 63.322,378.709 50.691 C 374.439 41.642,359.182 27.022,348.850 22.078 L 342.000 18.800 206.000 18.709 C 131.200 18.659,67.654 18.861,64.786 19.158 M302.119 153.348 C 301.818 153.649,259.548 153.804,208.186 153.692 C 106.430 153.471,90.479 153.902,84.114 157.047 C 76.504 160.807,67.418 170.803,62.111 181.253 C 58.271 188.816,56.675 209.347,59.378 216.400 C 65.099 231.323,73.893 241.836,83.878 245.688 L 88.400 247.432 200.800 247.572 L 313.200 247.711 320.465 245.535 C 333.836 241.531,337.307 239.259,340.450 232.458 C 352.708 205.926,348.326 167.441,332.114 159.258 C 322.378 154.343,304.622 150.844,302.119 153.348 M318.669 173.568 C 321.821 175.750,326.577 179.800,329.238 182.568 L 334.076 187.600 333.763 200.337 L 333.451 213.074 325.326 221.225 C 320.857 225.709,316.270 229.969,315.134 230.693 C 312.377 232.448,216.073 233.255,140.022 232.159 L 87.644 231.404 84.578 227.902 C 82.891 225.976,79.751 221.746,77.599 218.503 L 73.687 212.607 74.172 200.103 L 74.656 187.600 77.644 183.600 C 79.287 181.400,82.199 178.123,84.116 176.319 L 87.600 173.037 97.600 171.994 C 105.169 171.204,131.572 170.918,206.190 170.818 C 260.415 170.745,305.025 170.442,305.324 170.143 C 307.254 168.213,313.104 169.714,318.669 173.568 " stroke="none" fill="#b08184" fill-rule="evenodd"></path><path id="path3" d="M51.200 6.272 L 51.200 12.544 48.170 13.544 C 46.503 14.094,43.353 15.843,41.170 17.431 C 38.986 19.019,35.135 21.352,32.612 22.616 C 27.585 25.133,24.129 28.795,21.512 34.375 C 20.577 36.369,18.633 39.309,17.191 40.908 C 15.749 42.508,14.099 45.118,13.524 46.708 L 12.479 49.600 6.239 49.600 L 0.000 49.600 0.000 198.400 L 0.000 347.200 6.273 347.200 L 12.545 347.200 13.561 351.800 C 14.120 354.330,15.098 357.660,15.736 359.200 C 16.373 360.740,17.399 364.625,18.015 367.832 C 19.393 375.007,22.462 380.814,26.973 384.785 L 30.400 387.802 30.400 393.901 L 30.400 400.000 42.000 400.000 L 53.600 400.000 53.590 393.800 L 53.580 387.600 49.096 384.800 C 44.251 381.775,36.550 373.669,31.230 365.997 C 23.223 354.448,21.458 351.356,19.391 345.263 L 17.200 338.800 17.019 220.333 C 16.920 155.177,17.105 92.537,17.432 81.133 L 18.025 60.400 20.413 55.701 C 23.773 49.087,27.892 44.707,33.623 41.652 C 37.101 39.799,39.302 37.925,41.074 35.311 C 45.166 29.274,50.613 24.389,56.471 21.505 L 61.966 18.800 201.983 18.800 L 342.000 18.800 348.850 22.078 C 359.182 27.022,374.439 41.642,378.709 50.691 C 384.669 63.322,385.681 100.404,384.867 276.400 C 384.482 359.675,382.048 369.598,358.894 382.298 L 349.600 387.396 349.600 393.698 L 349.600 400.000 361.200 400.000 L 372.800 400.000 372.800 393.621 C 372.800 387.415,372.862 387.209,375.081 386.061 C 380.739 383.136,384.335 375.982,386.471 363.400 L 387.456 357.600 393.728 357.600 L 400.000 357.600 400.000 200.000 L 400.000 42.400 393.721 42.400 L 387.443 42.400 386.201 39.400 C 385.518 37.750,384.364 34.717,383.637 32.661 C 380.475 23.722,376.295 20.321,362.600 15.542 L 353.600 12.402 353.600 6.201 L 353.600 0.000 202.400 0.000 L 51.200 0.000 51.200 6.272 M305.324 170.143 C 305.025 170.442,260.415 170.745,206.190 170.818 C 131.572 170.918,105.169 171.204,97.600 171.994 L 87.600 173.037 84.116 176.319 C 82.199 178.123,79.287 181.400,77.644 183.600 L 74.656 187.600 74.172 200.103 L 73.687 212.607 77.599 218.503 C 79.751 221.746,82.891 225.976,84.578 227.902 L 87.644 231.404 140.022 232.159 C 216.073 233.255,312.377 232.448,315.134 230.693 C 316.270 229.969,320.857 225.709,325.326 221.225 L 333.451 213.074 333.763 200.337 L 334.076 187.600 329.238 182.568 C 319.757 172.706,308.572 166.895,305.324 170.143 M315.461 185.148 L 318.400 187.390 318.400 199.938 L 318.400 212.486 315.800 214.967 L 313.200 217.449 291.200 217.921 C 178.688 220.336,89.967 218.736,86.155 214.222 C 84.454 212.209,84.929 188.515,86.708 186.613 C 89.730 183.382,119.234 182.545,223.261 182.740 L 312.522 182.907 315.461 185.148 " stroke="none" fill="#fdc5c6" fill-rule="evenodd"></path><path id="path4" d="M0.000 24.800 L 0.000 49.600 6.239 49.600 L 12.479 49.600 13.524 46.708 C 14.099 45.118,15.749 42.508,17.191 40.908 C 18.633 39.309,20.577 36.369,21.512 34.375 C 24.129 28.795,27.585 25.133,32.612 22.616 C 35.135 21.352,38.986 19.019,41.170 17.431 C 43.353 15.843,46.503 14.094,48.170 13.544 L 51.200 12.544 51.200 6.272 L 51.200 0.000 25.600 0.000 L 0.000 0.000 0.000 24.800 M353.600 6.201 L 353.600 12.402 362.600 15.542 C 376.295 20.321,380.475 23.722,383.637 32.661 C 384.364 34.717,385.518 37.750,386.201 39.400 L 387.443 42.400 393.721 42.400 L 400.000 42.400 400.000 21.200 L 400.000 0.000 376.800 0.000 L 353.600 0.000 353.600 6.201 M118.800 183.198 C 100.416 183.954,87.954 185.280,86.708 186.613 C 84.929 188.515,84.454 212.209,86.155 214.222 C 89.967 218.736,178.688 220.336,291.200 217.921 L 313.200 217.449 315.800 214.967 L 318.400 212.486 318.400 199.938 L 318.400 187.390 315.461 185.148 L 312.522 182.907 223.261 182.740 C 174.168 182.648,127.160 182.854,118.800 183.198 M0.000 373.600 L 0.000 400.000 15.200 400.000 L 30.400 400.000 30.400 393.901 L 30.400 387.802 26.973 384.785 C 22.462 380.814,19.393 375.007,18.015 367.832 C 17.399 364.625,16.373 360.740,15.736 359.200 C 15.098 357.660,14.120 354.330,13.561 351.800 L 12.545 347.200 6.273 347.200 L 0.000 347.200 0.000 373.600 M386.471 363.400 C 384.335 375.982,380.739 383.136,375.081 386.061 C 372.862 387.209,372.800 387.415,372.800 393.621 L 372.800 400.000 386.400 400.000 L 400.000 400.000 400.000 378.800 L 400.000 357.600 393.728 357.600 L 387.456 357.600 386.471 363.400 " stroke="none" fill="#fff6fb" fill-rule="evenodd"></path></g></svg>