<svg id="svg" version="1.1" width="500" height="500" xmlns="http://www.w3.org/2000/svg" xmlns:xlink="http://www.w3.org/1999/xlink" style="display: block;"><g id="svgg"><path id="path0" d="M152.000 44.056 C 127.314 47.602,97.487 48.602,71.157 46.765 L 62.714 46.176 59.394 54.488 L 56.073 62.800 55.977 80.400 C 55.924 90.080,55.832 104.300,55.772 112.000 C 55.713 119.700,55.754 138.780,55.864 154.400 C 56.004 174.201,55.703 187.160,54.873 197.200 C 53.074 218.947,52.722 228.056,52.401 261.200 C 52.239 277.920,51.731 295.920,51.272 301.200 C 50.813 306.480,50.429 316.928,50.419 324.417 L 50.400 338.033 54.116 344.417 C 56.160 347.928,58.910 352.175,60.227 353.855 L 62.621 356.910 87.911 356.374 C 117.590 355.745,122.873 356.139,163.600 362.013 C 185.951 365.237,190.589 365.124,207.010 360.954 C 212.905 359.457,218.398 359.740,232.886 362.290 C 237.654 363.129,244.205 362.554,254.000 360.438 C 257.462 359.690,264.029 359.209,271.200 359.180 C 277.580 359.153,289.640 358.807,298.000 358.410 C 306.360 358.013,318.780 357.455,325.600 357.168 L 338.000 356.648 346.920 347.477 C 356.925 337.190,356.335 338.555,357.587 322.800 C 358.042 317.080,358.817 307.360,359.309 301.200 C 360.490 286.415,360.503 286.672,357.998 275.599 C 356.415 268.598,355.550 261.562,354.803 249.600 C 353.989 236.570,353.280 231.145,351.353 223.200 C 347.207 206.110,345.115 188.145,346.370 180.426 C 346.946 176.892,347.684 170.940,348.012 167.200 C 348.340 163.460,349.281 155.900,350.104 150.400 C 353.623 126.878,350.091 67.300,344.673 58.800 C 343.551 57.040,342.377 54.790,342.063 53.800 C 341.749 52.810,341.184 52.000,340.808 52.000 C 340.432 52.000,339.689 50.650,339.157 49.000 C 337.847 44.935,337.603 44.607,336.529 45.457 C 336.018 45.862,331.640 46.430,326.800 46.720 C 303.533 48.114,299.419 48.202,298.874 47.319 C 298.483 46.688,294.368 46.577,284.755 46.940 C 274.800 47.316,270.026 47.174,266.828 46.407 L 262.470 45.361 253.485 50.393 C 237.867 59.139,236.723 59.253,221.243 53.610 C 218.296 52.536,214.035 51.772,210.043 51.602 C 206.256 51.440,198.983 50.184,192.400 48.553 C 186.240 47.028,177.600 45.191,173.200 44.472 C 168.800 43.752,164.480 43.041,163.600 42.892 C 162.720 42.742,157.500 43.266,152.000 44.056 M154.586 108.468 C 162.496 108.914,163.401 109.135,166.096 111.276 C 167.704 112.554,169.303 113.600,169.649 113.600 C 173.286 113.600,178.650 122.761,180.818 132.676 C 181.650 136.484,183.547 143.361,185.033 147.958 L 187.734 156.315 194.467 161.998 C 206.211 171.911,208.925 177.995,210.348 197.600 C 211.488 213.318,211.930 216.800,212.787 216.800 C 214.655 216.800,215.381 210.680,214.861 199.293 L 214.328 187.600 216.681 182.704 C 219.825 176.162,223.242 173.655,231.885 171.552 C 240.522 169.451,244.243 165.777,245.656 157.957 C 248.673 141.259,252.451 138.472,273.435 137.470 C 288.841 136.734,288.582 136.674,294.668 142.343 C 298.511 145.923,300.192 149.194,302.097 156.800 C 303.773 163.491,310.553 172.000,314.209 172.000 C 325.794 172.000,334.616 182.388,332.931 194.046 C 330.621 210.021,326.577 216.483,316.605 220.130 C 310.989 222.184,301.153 232.806,297.464 240.800 C 292.541 251.467,290.358 252.684,270.989 255.555 C 259.536 257.253,255.689 254.320,251.685 240.837 C 248.844 231.270,239.561 222.823,232.511 223.389 C 217.523 224.593,215.947 230.744,223.709 257.733 C 225.215 262.969,224.167 265.646,219.038 269.669 C 214.417 273.293,213.052 273.641,199.756 274.579 L 186.718 275.499 182.359 273.004 C 177.789 270.388,174.016 266.917,172.499 263.933 C 169.974 258.965,163.592 256.140,149.916 253.936 L 137.033 251.860 126.118 257.072 C 120.114 259.938,114.588 262.898,113.837 263.649 C 111.669 265.817,102.854 269.455,94.833 271.491 L 87.454 273.365 84.327 271.798 C 82.607 270.936,79.531 268.613,77.492 266.636 L 73.784 263.042 72.863 252.521 C 72.356 246.734,71.820 240.920,71.672 239.600 C 70.416 228.402,78.171 202.829,85.373 194.415 C 87.926 191.432,88.283 190.362,89.590 181.778 C 90.375 176.620,91.577 170.240,92.261 167.600 C 92.944 164.960,93.915 159.742,94.417 156.004 C 94.919 152.266,95.619 148.846,95.973 148.404 C 96.326 147.962,96.877 146.340,97.196 144.800 C 98.365 139.167,104.798 128.174,110.323 122.368 C 115.834 116.577,117.660 115.296,122.851 113.583 C 124.504 113.038,127.869 111.606,130.328 110.402 C 136.556 107.354,136.676 107.325,141.600 107.673 C 144.020 107.843,149.864 108.201,154.586 108.468 " stroke="none" fill="#98c858" fill-rule="evenodd"></path><path id="path1" d="M126.000 31.274 C 104.690 32.137,75.919 32.325,68.800 31.647 C 60.692 30.875,57.130 33.343,53.908 41.966 C 52.751 45.065,50.373 50.840,48.625 54.800 L 45.447 62.000 45.704 78.000 C 46.340 117.597,45.932 160.783,44.171 240.000 C 43.697 261.340,43.066 291.940,42.769 308.000 L 42.230 337.200 46.290 345.399 C 51.929 356.787,55.395 361.952,59.296 364.777 L 62.640 367.200 90.720 367.204 C 106.164 367.206,125.640 367.555,134.000 367.979 C 142.360 368.403,153.520 368.967,158.800 369.233 C 164.080 369.498,172.720 369.989,178.000 370.324 C 185.317 370.788,190.548 370.591,200.000 369.498 C 210.490 368.285,214.310 368.189,224.800 368.873 C 231.620 369.318,240.800 369.472,245.200 369.214 C 249.600 368.956,272.013 368.404,295.006 367.987 L 336.812 367.229 342.047 365.015 C 348.904 362.114,361.075 349.995,364.373 342.784 C 368.214 334.387,369.078 307.745,367.422 248.800 C 366.324 209.699,365.893 160.472,366.263 116.400 C 366.614 74.526,365.218 60.311,359.978 52.427 C 356.201 46.742,352.000 39.387,352.000 38.457 C 352.000 37.961,348.992 36.140,345.316 34.409 L 338.632 31.263 316.316 31.035 C 304.042 30.909,282.840 30.967,269.200 31.163 C 239.273 31.594,219.943 31.571,175.200 31.052 C 156.500 30.835,134.360 30.935,126.000 31.274 M173.200 44.472 C 177.600 45.191,186.240 47.028,192.400 48.553 C 198.983 50.184,206.256 51.440,210.043 51.602 C 214.035 51.772,218.296 52.536,221.243 53.610 C 236.723 59.253,237.867 59.139,253.485 50.393 L 262.470 45.361 266.828 46.407 C 270.026 47.174,274.800 47.316,284.755 46.940 C 294.368 46.577,298.483 46.688,298.874 47.319 C 299.419 48.202,303.533 48.114,326.800 46.720 C 331.640 46.430,336.018 45.862,336.529 45.457 C 337.603 44.607,337.847 44.935,339.157 49.000 C 339.689 50.650,340.432 52.000,340.808 52.000 C 341.184 52.000,341.749 52.810,342.063 53.800 C 342.377 54.790,343.551 57.040,344.673 58.800 C 347.824 63.744,349.586 75.680,350.519 98.400 C 351.830 130.350,351.759 139.339,350.104 150.400 C 349.281 155.900,348.340 163.460,348.012 167.200 C 347.684 170.940,346.946 176.892,346.370 180.426 C 345.115 188.145,347.207 206.110,351.353 223.200 C 353.280 231.145,353.989 236.570,354.803 249.600 C 355.550 261.562,356.415 268.598,357.998 275.599 C 360.503 286.672,360.490 286.415,359.309 301.200 C 358.817 307.360,358.042 317.080,357.587 322.800 C 356.335 338.555,356.925 337.190,346.920 347.477 L 338.000 356.648 325.600 357.168 C 318.780 357.455,306.360 358.013,298.000 358.410 C 289.640 358.807,277.580 359.153,271.200 359.180 C 264.029 359.209,257.462 359.690,254.000 360.438 C 244.205 362.554,237.654 363.129,232.886 362.290 C 218.398 359.740,212.905 359.457,207.010 360.954 C 190.589 365.124,185.951 365.237,163.600 362.013 C 122.873 356.139,117.590 355.745,87.911 356.374 L 62.621 356.910 60.227 353.855 C 58.910 352.175,56.160 347.928,54.116 344.417 L 50.400 338.033 50.419 324.417 C 50.429 316.928,50.813 306.480,51.272 301.200 C 51.731 295.920,52.239 277.920,52.401 261.200 C 52.722 228.056,53.074 218.947,54.873 197.200 C 55.703 187.160,56.004 174.201,55.864 154.400 C 55.754 138.780,55.713 119.700,55.772 112.000 C 55.832 104.300,55.924 90.080,55.977 80.400 L 56.073 62.800 59.394 54.488 L 62.714 46.176 71.157 46.765 C 97.487 48.602,127.314 47.602,152.000 44.056 C 157.500 43.266,162.720 42.742,163.600 42.892 C 164.480 43.041,168.800 43.752,173.200 44.472 M136.000 107.788 C 135.340 108.022,132.788 109.199,130.328 110.402 C 127.869 111.606,124.504 113.038,122.851 113.583 C 117.660 115.296,115.834 116.577,110.323 122.368 C 104.798 128.174,98.365 139.167,97.196 144.800 C 96.877 146.340,96.326 147.962,95.973 148.404 C 95.619 148.846,94.919 152.266,94.417 156.004 C 93.915 159.742,92.944 164.960,92.261 167.600 C 91.577 170.240,90.375 176.620,89.590 181.778 C 88.283 190.362,87.926 191.432,85.373 194.415 C 78.171 202.829,70.416 228.402,71.672 239.600 C 71.820 240.920,72.356 246.734,72.863 252.521 L 73.784 263.042 77.492 266.636 C 79.531 268.613,82.607 270.936,84.327 271.798 L 87.454 273.365 94.833 271.491 C 102.854 269.455,111.669 265.817,113.837 263.649 C 114.588 262.898,120.114 259.938,126.118 257.072 L 137.033 251.860 149.916 253.936 C 163.592 256.140,169.974 258.965,172.499 263.933 C 174.016 266.917,177.789 270.388,182.359 273.004 L 186.718 275.499 199.756 274.579 C 213.052 273.641,214.417 273.293,219.038 269.669 C 224.167 265.646,225.215 262.969,223.709 257.733 C 215.947 230.744,217.523 224.593,232.511 223.389 C 239.561 222.823,248.844 231.270,251.685 240.837 C 255.689 254.320,259.536 257.253,270.989 255.555 C 290.358 252.684,292.541 251.467,297.464 240.800 C 301.153 232.806,310.989 222.184,316.605 220.130 C 326.577 216.483,330.621 210.021,332.931 194.046 C 334.616 182.388,325.794 172.000,314.209 172.000 C 310.553 172.000,303.773 163.491,302.097 156.800 C 300.192 149.194,298.511 145.923,294.668 142.343 C 288.582 136.674,288.841 136.734,273.435 137.470 C 252.451 138.472,248.673 141.259,245.656 157.957 C 244.243 165.777,240.522 169.451,231.885 171.552 C 223.242 173.655,219.825 176.162,216.681 182.704 L 214.328 187.600 214.861 199.293 C 215.381 210.680,214.655 216.800,212.787 216.800 C 211.930 216.800,211.488 213.318,210.348 197.600 C 208.925 177.995,206.211 171.911,194.467 161.998 L 187.734 156.315 185.033 147.958 C 183.547 143.361,181.650 136.484,180.818 132.676 C 178.650 122.761,173.286 113.600,169.649 113.600 C 169.303 113.600,167.704 112.554,166.096 111.276 C 163.401 109.135,162.496 108.914,154.586 108.468 C 149.864 108.201,144.020 107.843,141.600 107.673 C 139.180 107.502,136.660 107.553,136.000 107.788 M147.600 118.874 C 158.685 120.078,163.338 121.352,165.329 123.729 C 171.233 130.775,173.327 135.504,179.258 155.200 C 182.370 165.537,186.127 173.111,189.972 176.800 C 196.950 183.496,199.544 189.868,203.652 210.399 C 207.556 229.909,212.168 246.629,216.524 257.059 C 220.368 266.263,217.290 268.479,199.581 269.257 L 186.774 269.820 180.109 262.520 C 169.420 250.811,165.481 248.654,150.163 246.117 L 137.525 244.024 128.563 248.496 C 123.633 250.955,117.800 254.287,115.600 255.900 C 111.890 258.619,107.536 261.628,102.475 264.971 C 99.609 266.863,92.091 270.452,89.237 271.289 C 87.062 271.927,86.535 271.633,82.637 267.608 L 78.400 263.234 78.348 256.217 C 78.320 252.358,78.133 246.435,77.934 243.056 C 77.505 235.798,80.629 224.548,85.296 216.549 C 88.600 210.886,91.013 203.482,94.863 187.200 C 96.711 179.386,99.056 171.989,101.203 167.200 C 103.077 163.020,105.568 157.455,106.737 154.834 C 107.907 152.212,109.741 148.918,110.812 147.513 C 111.884 146.107,113.488 143.115,114.375 140.863 C 120.064 126.432,130.814 116.840,140.000 118.000 C 141.540 118.194,144.960 118.588,147.600 118.874 M276.400 148.130 C 288.518 149.227,289.531 149.869,293.864 159.200 C 296.964 165.877,305.471 174.466,313.201 178.723 C 316.280 180.419,320.108 183.052,321.706 184.574 L 324.611 187.341 323.461 191.870 C 322.233 196.703,320.064 203.082,319.200 204.400 C 318.912 204.840,318.041 206.918,317.265 209.017 C 316.326 211.560,315.111 213.219,313.626 213.986 C 309.044 216.356,298.388 227.398,293.174 235.179 L 287.924 243.016 281.362 243.965 C 277.753 244.486,272.140 245.430,268.888 246.062 C 261.776 247.444,261.876 247.505,257.910 239.341 C 251.883 226.932,244.008 218.830,234.627 215.387 C 229.270 213.421,227.787 209.757,224.448 190.235 C 223.763 186.234,227.733 181.771,235.099 178.261 C 242.732 174.624,249.545 167.569,253.216 159.499 C 256.518 152.242,260.918 147.203,263.962 147.194 C 265.083 147.191,270.680 147.612,276.400 148.130 " stroke="none" fill="#a8c67a" fill-rule="evenodd"></path><path id="path2" d="M57.857 22.004 C 47.486 24.843,44.418 27.398,36.870 39.484 C 26.589 55.947,26.149 57.588,27.327 75.092 C 27.820 82.411,28.352 91.100,28.509 94.400 C 29.099 106.732,28.795 138.432,27.970 150.581 C 27.334 159.945,27.357 165.265,28.061 171.381 C 29.068 180.135,29.206 216.608,28.370 252.800 C 27.943 271.318,27.087 322.637,26.976 336.400 C 26.905 345.285,36.617 364.410,44.725 371.350 C 47.431 373.667,53.721 376.472,58.000 377.271 C 62.435 378.099,65.468 378.100,76.101 377.274 C 82.865 376.749,99.560 376.220,113.200 376.098 C 126.840 375.977,143.580 375.582,150.400 375.221 C 157.762 374.831,167.188 374.883,173.600 375.349 C 179.540 375.781,190.520 375.951,198.000 375.727 C 205.480 375.503,217.360 375.745,224.400 376.265 C 232.374 376.855,241.423 376.985,248.400 376.611 C 259.628 376.009,287.273 376.329,317.200 377.407 C 348.473 378.533,359.655 376.308,368.574 367.188 C 376.619 358.960,377.225 353.536,376.260 298.400 C 375.863 275.740,375.755 249.820,376.020 240.800 C 376.284 231.780,376.364 201.540,376.196 173.600 C 376.028 145.660,375.826 104.620,375.746 82.400 L 375.600 42.000 373.384 37.487 C 369.651 29.887,361.921 23.952,354.400 22.913 C 339.900 20.908,336.393 20.947,322.211 23.274 C 312.932 24.796,310.751 24.874,297.811 24.147 C 282.238 23.272,100.079 23.362,98.650 24.245 C 96.824 25.374,84.069 24.841,76.400 23.315 C 64.316 20.911,62.355 20.772,57.857 22.004 M226.800 31.483 C 236.480 31.504,255.560 31.360,269.200 31.163 C 282.840 30.967,304.042 30.909,316.316 31.035 L 338.632 31.263 345.316 34.409 C 348.992 36.140,352.000 37.961,352.000 38.457 C 352.000 39.387,356.201 46.742,359.978 52.427 C 365.218 60.311,366.614 74.526,366.263 116.400 C 365.893 160.472,366.324 209.699,367.422 248.800 C 369.078 307.745,368.214 334.387,364.373 342.784 C 361.075 349.995,348.904 362.114,342.047 365.015 L 336.812 367.229 295.006 367.987 C 272.013 368.404,249.600 368.956,245.200 369.214 C 240.800 369.472,231.620 369.318,224.800 368.873 C 214.310 368.189,210.490 368.285,200.000 369.498 C 190.548 370.591,185.317 370.788,178.000 370.324 C 172.720 369.989,164.080 369.498,158.800 369.233 C 153.520 368.967,142.360 368.403,134.000 367.979 C 125.640 367.555,106.164 367.206,90.720 367.204 L 62.640 367.200 59.296 364.777 C 55.395 361.952,51.929 356.787,46.290 345.399 L 42.230 337.200 42.769 308.000 C 43.066 291.940,43.697 261.340,44.171 240.000 C 45.932 160.783,46.340 117.597,45.704 78.000 L 45.447 62.000 48.625 54.800 C 50.373 50.840,52.751 45.065,53.908 41.966 C 57.130 33.343,60.692 30.875,68.800 31.647 C 75.919 32.325,104.690 32.137,126.000 31.274 C 134.360 30.935,156.500 30.835,175.200 31.052 C 193.900 31.269,217.120 31.463,226.800 31.483 M133.006 119.295 C 124.988 122.377,118.870 129.460,114.375 140.863 C 113.488 143.115,111.884 146.107,110.812 147.513 C 109.741 148.918,107.907 152.212,106.737 154.834 C 105.568 157.455,103.077 163.020,101.203 167.200 C 99.056 171.989,96.711 179.386,94.863 187.200 C 91.024 203.437,88.605 210.871,85.313 216.549 C 83.830 219.107,81.630 224.193,80.426 227.851 C 78.065 235.018,78.046 237.696,80.401 231.418 C 83.189 223.983,85.829 219.557,89.596 216.000 C 93.010 212.777,95.003 209.483,94.559 207.800 C 94.471 207.470,94.719 207.200,95.108 207.200 C 95.498 207.200,96.772 203.150,97.939 198.200 C 102.621 178.350,104.044 175.123,112.107 166.065 C 115.399 162.367,117.357 157.395,118.748 149.200 C 118.898 148.320,119.440 145.095,119.952 142.033 C 121.103 135.160,124.800 128.017,129.144 124.271 C 134.892 119.316,136.172 118.937,145.567 119.414 C 152.073 119.745,152.903 119.687,149.200 119.162 C 138.479 117.640,137.287 117.650,133.006 119.295 M168.842 129.440 C 168.819 130.012,169.397 131.632,170.127 133.040 C 171.243 135.193,172.578 142.447,174.795 158.400 C 175.462 163.206,176.014 165.858,177.248 170.194 C 177.904 172.501,178.347 174.481,178.232 174.594 C 177.727 175.090,182.138 181.512,185.243 184.800 C 190.891 190.783,195.918 202.952,198.461 216.800 C 198.986 219.660,199.728 222.342,200.108 222.760 C 200.489 223.178,200.800 224.024,200.800 224.639 C 200.800 228.114,210.353 245.914,211.566 244.700 C 211.746 244.521,211.002 241.140,209.914 237.187 C 208.826 233.234,206.860 224.960,205.545 218.800 C 199.181 188.982,197.903 185.417,190.830 177.762 C 185.393 171.878,182.480 165.990,178.452 152.737 C 173.440 136.251,169.001 125.490,168.842 129.440 M259.003 150.200 C 257.396 151.850,254.792 156.035,253.216 159.499 C 249.545 167.569,242.732 174.624,235.099 178.261 C 227.733 181.771,223.763 186.234,224.448 190.235 C 227.787 209.757,229.270 213.421,234.627 215.387 C 243.649 218.698,252.187 227.252,257.214 238.017 C 260.206 244.424,262.232 247.210,263.854 247.149 C 264.864 247.111,264.771 246.925,263.483 246.406 C 262.358 245.952,261.284 244.245,260.369 241.457 C 255.923 227.911,250.476 221.219,239.620 215.964 C 232.631 212.581,231.257 210.779,230.191 203.600 C 230.061 202.720,229.673 201.550,229.330 201.000 C 228.986 200.450,228.913 199.665,229.166 199.255 C 229.419 198.846,229.283 198.299,228.864 198.040 C 228.445 197.780,228.111 196.946,228.121 196.184 C 228.142 194.679,227.393 190.674,226.754 188.875 C 226.076 186.968,233.713 180.372,238.804 178.467 C 245.577 175.933,249.922 173.150,253.016 169.362 C 255.854 165.889,258.799 160.800,257.971 160.800 C 257.712 160.800,258.480 159.000,259.677 156.800 C 262.231 152.107,262.491 152.061,273.200 154.398 C 283.201 156.581,283.563 156.688,283.849 157.547 C 283.989 157.967,284.598 158.120,285.202 157.889 C 285.907 157.618,286.923 158.708,288.040 160.934 C 290.938 166.704,303.987 176.800,308.549 176.800 C 308.729 176.800,306.038 174.010,302.570 170.600 C 297.948 166.056,295.621 163.011,293.856 159.200 C 289.539 149.873,288.520 149.227,276.400 148.130 C 261.942 146.821,262.340 146.774,259.003 150.200 M132.792 178.600 C 126.257 183.047,125.418 188.297,129.671 198.133 C 130.591 200.260,131.472 202.637,131.629 203.416 C 131.966 205.089,134.571 208.882,136.458 210.448 C 137.656 211.443,144.204 205.554,144.449 203.262 C 144.477 203.008,145.435 200.820,146.579 198.400 C 151.013 189.024,151.107 187.598,147.537 183.889 C 140.874 176.967,137.152 175.632,132.792 178.600 M135.921 216.165 C 135.315 217.614,134.897 219.046,134.992 219.346 C 135.086 219.646,134.628 221.174,133.973 222.742 C 133.318 224.310,132.786 225.774,132.791 225.996 C 132.796 226.218,132.772 226.490,132.739 226.600 C 132.511 227.345,132.049 229.659,131.583 232.395 C 131.020 235.704,129.298 239.653,128.211 240.128 C 127.318 240.518,117.600 252.774,117.600 253.509 C 117.600 253.847,122.066 251.849,127.525 249.068 L 137.451 244.012 150.125 246.124 C 164.160 248.463,167.251 249.842,175.275 257.347 C 177.434 259.367,179.200 260.797,179.200 260.526 C 179.200 259.157,176.331 252.891,174.679 250.653 C 173.646 249.253,172.800 247.759,172.800 247.334 C 172.800 246.035,164.359 238.759,160.488 236.720 C 155.939 234.324,148.010 228.623,148.004 227.743 C 147.998 226.707,145.844 224.822,145.295 225.371 C 145.023 225.644,144.800 225.294,144.800 224.595 C 144.800 223.895,143.900 222.253,142.800 220.946 C 141.700 219.639,140.800 218.234,140.800 217.824 C 140.800 217.414,139.950 216.281,138.911 215.305 L 137.023 213.531 135.921 216.165 " stroke="none" fill="#b8d092" fill-rule="evenodd"></path><path id="path3" d="M172.800 13.594 C 168.180 13.941,144.600 14.445,120.400 14.715 C 57.820 15.413,59.436 15.214,50.227 23.330 L 46.800 26.351 50.162 24.775 C 52.011 23.909,55.586 22.662,58.107 22.006 C 62.962 20.741,62.840 20.731,79.600 23.765 C 85.662 24.863,89.151 25.067,94.000 24.607 C 104.188 23.641,281.663 23.241,297.811 24.148 C 310.749 24.874,312.933 24.795,322.211 23.274 C 335.960 21.018,342.639 20.929,354.000 22.847 L 356.400 23.252 354.400 22.113 C 346.078 17.371,338.749 15.929,316.800 14.712 C 287.713 13.100,285.825 13.088,246.400 14.270 C 219.607 15.073,209.759 15.100,203.600 14.386 C 192.553 13.105,182.702 12.852,172.800 13.594 M375.728 65.393 C 375.440 75.407,375.439 95.300,375.727 109.600 C 376.015 123.900,376.231 156.840,376.207 182.800 C 376.183 208.760,376.204 248.720,376.255 271.600 C 376.305 294.480,376.359 320.580,376.373 329.600 C 376.388 338.620,376.133 348.160,375.807 350.800 C 375.013 357.230,376.113 355.195,379.075 344.757 C 382.323 333.307,383.637 320.835,383.411 303.600 C 382.310 219.461,381.883 133.052,382.416 102.000 C 382.867 75.693,380.189 51.144,376.458 47.393 C 376.345 47.279,376.016 55.379,375.728 65.393 M25.926 81.200 C 26.191 92.200,26.623 110.083,26.884 120.941 C 27.189 133.574,27.033 143.655,26.452 148.941 C 25.413 158.381,24.563 311.395,25.455 328.400 C 26.343 345.348,27.349 333.290,27.623 302.400 C 27.750 288.100,28.082 265.780,28.361 252.800 C 29.201 213.708,29.078 180.215,28.061 171.381 C 27.357 165.263,27.334 159.947,27.970 150.581 C 28.795 138.429,29.099 106.726,28.509 94.400 C 27.828 80.177,26.418 62.152,25.950 61.695 C 25.671 61.423,25.660 70.200,25.926 81.200 M132.617 121.587 C 125.607 126.296,121.466 133.002,119.939 142.117 C 119.434 145.133,118.898 148.320,118.748 149.200 C 117.357 157.395,115.399 162.367,112.107 166.065 C 104.044 175.123,102.621 178.350,97.939 198.200 C 96.772 203.150,95.498 207.200,95.108 207.200 C 94.719 207.200,94.471 207.470,94.559 207.800 C 95.003 209.483,93.010 212.777,89.596 216.000 C 85.790 219.594,83.502 223.475,80.022 232.244 C 78.135 236.999,78.053 238.115,78.298 255.817 L 78.400 263.234 82.637 267.608 C 86.535 271.633,87.062 271.927,89.237 271.289 C 92.085 270.453,99.601 266.868,102.480 264.971 C 112.313 258.490,116.290 255.486,117.405 253.694 C 119.174 250.850,127.450 240.466,128.217 240.128 C 129.299 239.650,131.022 235.695,131.583 232.395 C 132.377 227.734,132.389 227.690,133.070 226.600 C 133.413 226.050,133.502 225.600,133.267 225.600 C 133.032 225.600,133.234 224.610,133.716 223.400 C 134.198 222.190,134.696 220.480,134.823 219.600 C 134.950 218.720,135.338 217.283,135.687 216.406 C 137.064 212.939,119.896 228.929,115.832 234.898 C 106.421 248.720,101.250 201.802,110.114 183.019 C 113.436 175.981,119.839 178.526,122.998 188.140 C 125.583 196.006,132.590 208.529,131.649 203.600 C 131.481 202.720,130.581 200.235,129.648 198.078 C 127.719 193.617,126.907 189.666,127.105 185.706 C 127.224 183.336,132.573 177.888,135.504 177.153 C 138.381 176.431,142.138 178.467,146.958 183.361 L 150.677 187.136 149.668 190.568 C 149.114 192.456,147.751 195.980,146.641 198.400 C 145.530 200.820,144.697 202.924,144.789 203.075 C 144.881 203.226,143.931 204.457,142.678 205.811 L 140.400 208.273 143.049 206.447 C 145.571 204.708,156.527 192.735,158.951 189.066 C 163.372 182.378,152.718 173.588,140.205 173.598 C 135.656 173.602,131.415 171.185,129.441 167.466 L 127.654 164.097 129.462 159.048 C 130.457 156.272,132.451 150.220,133.894 145.600 C 136.993 135.678,138.542 134.540,141.858 139.750 C 144.210 143.445,152.337 151.276,158.563 155.846 C 163.917 159.777,163.795 159.340,164.250 176.225 L 164.569 188.050 167.483 192.282 C 170.350 196.444,181.829 207.928,185.719 210.526 C 187.557 211.753,187.778 212.614,188.699 222.126 C 189.247 227.777,189.855 233.660,190.051 235.200 C 190.294 237.108,189.950 238.586,188.972 239.838 L 187.536 241.675 183.768 239.569 C 181.696 238.411,180.000 237.150,180.000 236.767 C 180.000 233.131,172.267 227.200,167.526 227.200 C 163.594 227.200,149.483 221.412,141.717 216.613 L 139.034 214.956 140.117 216.875 C 140.713 217.930,142.010 219.813,143.000 221.058 C 143.990 222.304,144.800 223.895,144.800 224.595 C 144.800 225.294,145.023 225.644,145.295 225.371 C 145.844 224.822,147.998 226.707,148.004 227.743 C 148.010 228.623,155.939 234.324,160.488 236.720 C 164.359 238.759,172.800 246.035,172.800 247.334 C 172.800 247.759,173.655 249.253,174.699 250.653 C 175.743 252.054,177.386 255.360,178.350 258.000 C 179.432 260.963,181.384 264.134,183.451 266.285 L 186.800 269.769 199.594 269.232 C 217.279 268.489,220.361 266.275,216.537 257.059 C 215.474 254.497,214.179 251.077,213.660 249.460 C 213.140 247.843,211.648 245.323,210.344 243.860 C 207.462 240.628,200.800 227.210,200.800 224.639 C 200.800 224.024,200.489 223.178,200.108 222.760 C 199.728 222.342,198.986 219.660,198.461 216.800 C 195.918 202.952,190.891 190.783,185.243 184.800 C 182.058 181.427,178.564 176.361,178.479 174.994 C 178.458 174.661,177.904 172.501,177.248 170.194 C 176.014 165.858,175.462 163.206,174.795 158.400 C 172.578 142.447,171.243 135.193,170.127 133.040 C 169.397 131.632,168.800 129.922,168.800 129.240 C 168.800 128.558,168.440 128.000,168.000 128.000 C 167.560 128.000,167.200 127.527,167.200 126.950 C 167.200 122.729,160.407 120.366,146.000 119.574 L 136.400 119.046 132.617 121.587 M259.677 156.800 C 258.480 159.000,257.712 160.800,257.971 160.800 C 258.799 160.800,255.854 165.889,253.016 169.362 C 249.922 173.150,245.577 175.933,238.804 178.467 C 233.713 180.372,226.076 186.968,226.754 188.875 C 227.393 190.674,228.142 194.679,228.121 196.184 C 228.111 196.946,228.445 197.780,228.864 198.040 C 229.283 198.299,229.419 198.846,229.166 199.255 C 228.913 199.665,228.986 200.450,229.330 201.000 C 229.673 201.550,230.061 202.720,230.191 203.600 C 231.257 210.779,232.631 212.581,239.620 215.964 C 250.458 221.210,255.926 227.917,260.347 241.391 C 262.241 247.162,261.377 247.064,282.171 243.875 L 287.942 242.990 293.183 235.166 C 298.388 227.398,309.048 216.354,313.626 213.986 C 315.111 213.219,316.326 211.560,317.265 209.017 C 318.041 206.918,318.912 204.840,319.200 204.400 C 320.064 203.082,322.233 196.703,323.461 191.870 L 324.611 187.341 321.706 184.543 C 318.728 181.677,313.218 178.643,303.953 174.771 C 297.736 172.172,290.560 165.930,288.045 160.934 C 286.925 158.708,285.907 157.618,285.202 157.889 C 284.598 158.120,283.989 157.967,283.849 157.547 C 283.563 156.688,283.201 156.581,273.200 154.398 C 262.491 152.061,262.231 152.107,259.677 156.800 M275.628 182.023 C 286.220 183.209,287.840 183.589,289.684 185.320 L 291.767 187.276 289.779 193.907 L 287.791 200.538 280.895 202.749 C 277.103 203.964,271.427 206.328,268.282 208.002 L 262.565 211.045 261.714 207.722 C 261.246 205.895,260.500 202.542,260.055 200.271 C 259.611 198.000,258.530 194.254,257.654 191.948 L 256.060 187.754 259.230 184.678 C 260.974 182.986,262.400 181.220,262.400 180.754 C 262.400 180.287,262.683 180.080,263.028 180.294 C 263.373 180.507,269.043 181.285,275.628 182.023 M149.200 375.186 C 143.480 375.525,127.460 375.918,113.600 376.059 C 99.740 376.201,82.840 376.749,76.044 377.277 C 69.249 377.805,62.769 378.078,61.644 377.883 C 57.861 377.225,56.412 376.896,53.785 376.098 C 49.537 374.807,51.638 376.547,56.615 378.442 C 62.194 380.566,69.648 381.415,88.000 382.017 C 95.700 382.270,113.520 383.089,127.600 383.838 C 156.802 385.392,166.867 385.496,188.800 384.472 C 197.380 384.071,219.700 383.662,238.400 383.562 C 298.944 383.240,331.970 381.807,343.010 379.021 C 351.361 376.913,350.981 376.502,341.720 377.628 C 337.712 378.115,334.151 378.341,333.808 378.129 C 332.177 377.121,262.201 375.873,248.400 376.605 C 242.240 376.932,233.600 376.914,229.200 376.565 C 224.800 376.215,209.680 375.818,195.600 375.683 C 181.520 375.548,167.660 375.242,164.800 375.003 C 161.940 374.764,154.920 374.846,149.200 375.186 " stroke="none" fill="#c7f08a" fill-rule="evenodd"></path><path id="path4" d="M0.000 200.000 L 0.000 400.000 200.000 400.000 L 400.000 400.000 400.000 200.000 L 400.000 0.000 200.000 0.000 L 0.000 0.000 0.000 200.000 M203.600 14.386 C 209.759 15.100,219.607 15.073,246.400 14.270 C 285.825 13.088,287.713 13.100,316.800 14.712 C 342.435 16.133,357.417 20.457,367.138 29.239 C 377.809 38.880,383.069 63.930,382.416 102.000 C 381.809 137.342,382.608 274.656,383.574 301.200 C 383.815 307.800,383.648 316.260,383.205 320.000 C 382.761 323.740,382.063 329.680,381.654 333.200 C 381.244 336.720,379.669 343.380,378.153 348.000 C 367.623 380.092,356.434 382.939,238.400 383.563 C 219.700 383.662,197.380 384.071,188.800 384.472 C 166.867 385.496,156.802 385.392,127.600 383.838 C 113.520 383.089,95.700 382.270,88.000 382.017 C 50.166 380.776,40.376 374.775,28.593 345.600 L 25.200 337.200 25.200 250.000 C 25.200 184.749,25.460 160.182,26.231 152.400 C 27.247 142.153,27.204 132.137,25.927 81.895 L 25.436 62.590 28.131 55.895 C 34.658 39.680,47.426 23.415,57.700 18.230 C 63.238 15.435,65.068 15.332,120.400 14.715 C 144.600 14.445,168.180 13.941,172.800 13.594 C 182.702 12.852,192.553 13.105,203.600 14.386 M136.387 137.800 C 136.187 138.350,134.953 142.220,133.644 146.400 C 132.336 150.580,130.453 156.272,129.460 159.048 L 127.654 164.097 129.441 167.466 C 131.434 171.221,135.660 173.600,140.341 173.600 C 158.091 173.600,164.161 182.986,154.138 194.933 C 148.858 201.226,138.541 211.200,137.312 211.200 C 134.932 211.200,125.689 196.342,123.031 188.245 C 119.840 178.525,113.454 175.942,110.114 183.019 C 101.276 201.746,106.396 248.579,115.795 234.995 C 118.815 230.630,127.196 222.267,135.270 215.560 L 137.244 213.920 140.822 216.100 C 149.654 221.479,163.417 227.200,167.526 227.200 C 172.267 227.200,180.000 233.131,180.000 236.767 C 180.000 237.150,181.696 238.411,183.768 239.569 L 187.536 241.675 188.972 239.838 C 189.950 238.586,190.294 237.108,190.051 235.200 C 189.855 233.660,189.247 227.777,188.699 222.126 C 187.778 212.614,187.557 211.753,185.719 210.526 C 181.829 207.928,170.350 196.444,167.483 192.282 L 164.569 188.050 164.250 176.225 C 163.795 159.340,163.917 159.777,158.563 155.846 C 152.369 151.299,144.214 143.451,141.890 139.800 C 139.978 136.797,137.127 135.761,136.387 137.800 M262.400 180.754 C 262.400 181.220,260.974 182.986,259.230 184.678 L 256.060 187.754 257.654 191.948 C 258.530 194.254,259.611 198.000,260.055 200.271 C 260.500 202.542,261.246 205.895,261.714 207.722 L 262.565 211.045 268.282 208.002 C 271.427 206.328,277.103 203.964,280.895 202.749 L 287.791 200.538 289.779 193.907 L 291.767 187.276 289.684 185.320 C 287.840 183.589,286.220 183.209,275.628 182.023 C 269.043 181.285,263.373 180.507,263.028 180.294 C 262.683 180.080,262.400 180.287,262.400 180.754 " stroke="none" fill="#f5fee9" fill-rule="evenodd"></path></g></svg>