<svg id="svg" version="1.1" width="500" height="500" xmlns="http://www.w3.org/2000/svg" xmlns:xlink="http://www.w3.org/1999/xlink" style="display: block;"><g id="svgg"><path id="path0" d="M19.200 6.494 C 19.200 16.097,16.097 19.200,6.494 19.200 L 0.000 19.200 0.000 37.600 L 0.000 56.000 7.000 55.999 C 19.304 55.998,26.788 50.922,30.134 40.309 C 31.794 35.043,35.055 31.829,40.542 30.051 C 51.012 26.660,55.998 19.224,55.999 7.000 L 56.000 0.000 37.600 0.000 L 19.200 0.000 19.200 6.494 M88.000 6.400 L 88.000 12.800 76.953 12.800 C 62.284 12.800,63.095 12.040,62.584 26.266 L 62.176 37.600 51.488 37.600 C 41.867 37.600,40.640 37.760,39.200 39.200 C 37.760 40.640,37.600 41.867,37.600 51.488 L 37.600 62.176 26.266 62.584 C 12.040 63.095,12.800 62.284,12.800 76.953 L 12.800 88.000 6.400 88.000 L 0.000 88.000 0.000 200.400 L 0.000 312.800 6.400 312.800 L 12.800 312.800 12.800 323.847 C 12.800 338.516,12.040 337.705,26.266 338.216 L 37.600 338.624 37.600 349.312 C 37.600 363.624,37.176 363.200,51.488 363.200 L 62.176 363.200 62.584 374.534 C 63.095 388.760,62.284 388.000,76.953 388.000 L 88.000 388.000 88.000 394.000 L 88.000 400.000 200.000 400.000 L 312.000 400.000 312.000 394.000 L 312.000 388.000 323.047 388.000 C 337.716 388.000,336.905 388.760,337.416 374.534 L 337.824 363.200 348.512 363.200 C 362.824 363.200,362.400 363.624,362.400 349.312 L 362.400 338.624 373.734 338.216 C 387.960 337.705,387.200 338.516,387.200 323.847 L 387.200 312.800 393.600 312.800 L 400.000 312.800 400.000 200.400 L 400.000 88.000 393.600 88.000 L 387.200 88.000 387.200 76.953 C 387.200 62.284,387.960 63.095,373.734 62.584 L 362.400 62.176 362.400 51.488 C 362.400 37.176,362.824 37.600,348.512 37.600 L 337.824 37.600 337.416 26.266 C 336.905 12.040,337.716 12.800,323.047 12.800 L 312.000 12.800 312.000 6.400 L 312.000 0.000 200.000 0.000 L 88.000 0.000 88.000 6.400 M344.001 7.000 C 344.002 19.304,349.078 26.788,359.691 30.134 C 364.957 31.794,368.171 35.055,369.949 40.542 C 373.340 51.012,380.776 55.998,393.000 55.999 L 400.000 56.000 400.000 37.600 L 400.000 19.200 393.506 19.200 C 383.903 19.200,380.800 16.097,380.800 6.494 L 380.800 0.000 362.400 0.000 L 344.000 0.000 344.001 7.000 M220.425 104.759 C 237.325 111.267,259.200 129.164,259.200 136.484 C 259.200 136.833,261.853 139.687,265.095 142.826 C 275.943 153.327,278.383 161.377,273.585 170.829 C 270.863 176.192,269.109 178.330,262.754 184.028 C 261.019 185.583,257.876 189.829,255.769 193.463 C 253.187 197.917,249.274 202.807,243.769 208.460 C 234.545 217.933,234.106 218.698,232.750 227.705 C 231.088 238.741,233.515 248.176,239.513 254.000 C 247.687 261.938,247.727 263.162,240.020 269.660 C 235.753 273.259,228.789 281.763,223.051 290.384 C 217.455 298.790,215.074 299.829,199.884 300.490 C 184.409 301.163,180.644 299.318,174.138 287.876 C 171.672 283.537,167.903 280.365,161.200 276.988 C 152.628 272.668,147.486 266.258,148.218 260.803 C 149.139 253.937,155.063 243.893,160.314 240.297 C 162.299 238.937,163.277 237.164,165.167 231.497 C 166.469 227.594,168.742 221.763,170.219 218.539 C 173.703 210.937,171.222 207.127,159.911 202.703 C 152.822 199.930,144.000 191.031,144.000 186.653 C 144.000 184.972,139.147 180.015,134.741 177.197 C 130.771 174.657,127.381 170.635,124.542 165.097 C 122.445 161.005,132.240 146.400,137.082 146.400 C 139.746 146.400,144.069 141.185,148.057 133.161 C 152.720 123.777,156.673 119.203,163.055 115.802 C 165.325 114.593,168.895 112.286,170.991 110.675 C 173.086 109.065,177.320 106.557,180.400 105.102 L 186.000 102.457 200.149 102.429 C 213.931 102.401,214.457 102.461,220.425 104.759 M186.809 136.786 C 186.528 137.240,186.787 137.799,187.383 138.027 C 189.370 138.790,212.796 138.033,213.002 137.200 C 213.277 136.087,187.492 135.680,186.809 136.786 M0.000 362.800 L 0.000 381.600 6.494 381.600 C 15.952 381.600,19.200 384.746,19.200 393.906 L 19.200 400.000 37.600 400.000 L 56.000 400.000 56.000 392.928 C 56.000 380.878,50.906 373.305,40.542 369.949 C 35.055 368.171,31.794 364.957,30.134 359.691 C 26.788 349.078,19.304 344.002,7.000 344.001 L 0.000 344.000 0.000 362.800 M381.045 346.345 C 375.310 349.058,371.955 353.064,369.866 359.691 C 368.206 364.957,364.945 368.171,359.458 369.949 C 349.094 373.305,344.000 380.878,344.000 392.928 L 344.000 400.000 362.400 400.000 L 380.800 400.000 380.800 393.906 C 380.800 384.746,384.048 381.600,393.506 381.600 L 400.000 381.600 400.000 362.800 L 400.000 344.000 393.000 344.001 C 386.921 344.001,385.348 344.310,381.045 346.345 " stroke="none" fill="#000000" fill-rule="evenodd"></path><path id="path1" d="M180.400 105.102 C 177.320 106.557,173.086 109.065,170.991 110.675 C 168.895 112.286,165.325 114.593,163.055 115.802 C 156.673 119.203,152.720 123.777,148.057 133.161 C 144.069 141.185,139.746 146.400,137.082 146.400 C 132.240 146.400,122.445 161.005,124.542 165.097 C 127.381 170.635,130.771 174.657,134.741 177.197 C 139.147 180.015,144.000 184.972,144.000 186.653 C 144.000 191.031,152.822 199.930,159.911 202.703 C 171.222 207.127,173.703 210.937,170.219 218.539 C 168.742 221.763,166.469 227.594,165.167 231.497 C 163.277 237.164,162.299 238.937,160.314 240.297 C 155.063 243.893,149.139 253.937,148.218 260.803 C 147.486 266.258,152.628 272.668,161.200 276.988 C 167.903 280.365,171.672 283.537,174.138 287.876 C 180.644 299.318,184.409 301.163,199.884 300.490 C 215.074 299.829,217.455 298.790,223.051 290.384 C 228.789 281.763,235.753 273.259,240.020 269.660 C 247.727 263.162,247.687 261.938,239.513 254.000 C 233.515 248.176,231.088 238.741,232.750 227.705 C 234.106 218.698,234.545 217.933,243.769 208.460 C 249.274 202.807,253.187 197.917,255.769 193.463 C 257.876 189.829,261.019 185.583,262.754 184.028 C 279.613 168.912,280.261 157.507,265.095 142.826 C 261.853 139.687,259.200 136.833,259.200 136.484 C 259.200 131.783,246.305 118.809,234.960 112.094 C 220.133 103.320,216.803 102.395,200.149 102.429 L 186.000 102.457 180.400 105.102 M242.823 131.223 C 246.125 134.560,247.553 136.638,247.666 138.274 C 247.754 139.549,248.084 141.404,248.399 142.396 C 248.727 143.430,248.611 144.423,248.126 144.722 C 247.571 145.065,248.209 148.115,249.989 153.622 C 252.214 160.509,252.722 161.502,252.841 159.200 C 252.932 157.440,253.128 156.994,253.370 158.000 C 253.854 160.012,255.200 161.529,255.200 160.062 C 255.200 159.212,255.436 159.200,256.400 160.000 C 257.357 160.795,257.843 160.795,258.800 160.000 C 259.777 159.189,260.000 159.229,260.000 160.213 C 260.000 160.878,260.616 161.372,261.369 161.311 C 262.127 161.250,262.878 161.877,263.050 162.714 C 263.297 163.914,263.012 164.137,261.681 163.789 C 260.514 163.484,260.000 163.724,260.000 164.573 C 260.000 165.569,259.778 165.611,258.800 164.800 C 257.843 164.005,257.357 164.005,256.400 164.800 C 255.506 165.542,255.200 165.555,255.200 164.851 C 255.200 163.160,253.603 164.842,253.495 166.647 C 253.432 167.693,253.178 167.271,252.865 165.600 L 252.340 162.800 251.651 166.000 C 251.053 168.783,250.899 168.954,250.473 167.314 C 250.071 165.770,249.667 166.398,248.242 170.780 C 246.928 174.822,246.771 176.029,247.600 175.711 C 248.513 175.360,248.502 175.844,247.534 178.588 C 246.669 181.038,246.608 182.034,247.293 182.458 C 248.833 183.410,246.909 187.447,241.958 193.653 C 238.724 197.705,237.173 199.093,236.561 198.481 C 235.949 197.869,235.271 198.012,234.202 198.979 C 233.015 200.053,232.569 200.120,232.062 199.301 C 231.584 198.527,231.006 198.794,229.775 200.359 C 228.354 202.166,228.089 202.258,227.843 201.027 C 227.623 199.924,227.062 200.324,225.379 202.786 C 223.696 205.246,223.186 205.610,223.139 204.386 C 223.103 203.457,222.118 204.774,220.760 207.566 C 219.348 210.472,218.757 212.527,219.249 212.830 C 219.692 213.104,219.823 213.929,219.542 214.664 C 219.236 215.460,219.421 216.000,220.000 216.000 C 220.534 216.000,220.768 216.530,220.519 217.179 C 220.270 217.827,220.502 218.637,221.033 218.979 C 221.565 219.320,222.080 220.500,222.177 221.600 C 223.137 232.417,226.637 252.335,228.863 259.654 L 229.852 262.907 225.243 268.854 C 222.708 272.124,219.524 276.327,218.168 278.194 C 216.811 280.060,215.048 281.794,214.251 282.047 C 213.453 282.301,212.800 282.812,212.800 283.184 C 212.800 283.555,206.680 283.864,199.200 283.870 C 187.783 283.879,185.600 283.693,185.600 282.709 C 185.600 281.134,175.462 270.294,172.643 268.855 C 171.409 268.225,170.400 267.310,170.400 266.821 C 170.400 266.332,168.768 265.495,166.773 264.962 C 161.953 263.673,161.620 262.322,165.212 258.635 C 169.829 253.895,171.556 249.543,172.773 239.580 C 173.201 236.071,174.264 230.860,175.135 228.000 C 176.006 225.140,177.132 221.180,177.637 219.200 C 178.142 217.220,178.850 215.024,179.210 214.320 C 179.569 213.617,179.683 211.637,179.463 209.920 C 179.243 208.204,178.977 205.720,178.871 204.400 C 178.765 203.080,178.239 201.183,177.702 200.183 C 177.165 199.184,176.912 198.067,177.138 197.700 C 177.365 197.333,176.752 196.323,175.775 195.456 C 174.115 193.982,172.681 193.457,164.330 191.270 C 159.633 190.040,158.065 188.019,158.704 184.020 C 159.026 182.009,158.909 180.800,158.394 180.800 C 157.914 180.800,157.779 179.965,158.071 178.800 C 158.422 177.404,158.245 176.796,157.487 176.788 C 156.646 176.778,156.671 176.597,157.600 175.988 C 158.667 175.288,158.667 175.112,157.600 174.412 C 156.600 173.756,156.667 173.617,158.000 173.580 C 159.352 173.543,159.259 173.351,157.400 172.342 C 154.939 171.007,154.449 170.169,156.600 170.975 C 157.826 171.434,157.864 171.332,156.902 170.150 C 156.298 169.407,156.091 168.800,156.441 168.800 C 156.792 168.800,156.248 167.916,155.233 166.835 C 154.218 165.755,153.165 164.897,152.894 164.930 C 152.622 164.963,152.130 164.902,151.800 164.795 C 151.470 164.688,150.750 164.555,150.200 164.500 C 149.643 164.444,149.132 163.159,149.046 161.600 C 148.910 159.115,148.969 159.025,149.567 160.800 C 149.937 161.900,150.288 162.260,150.347 161.600 C 150.405 160.940,151.647 157.262,153.106 153.427 C 154.583 149.547,155.407 146.336,154.965 146.188 C 154.465 146.022,154.522 145.266,155.119 144.151 C 155.751 142.971,155.812 141.922,155.302 141.010 C 153.035 136.960,164.880 125.846,167.296 129.755 C 167.628 130.293,168.368 130.259,169.498 129.654 C 170.898 128.905,171.200 128.967,171.200 130.000 C 171.200 131.008,171.516 131.087,172.800 130.400 C 173.966 129.776,174.400 129.792,174.400 130.457 C 174.400 130.976,174.968 131.153,175.713 130.867 C 176.435 130.590,177.883 130.926,178.932 131.613 C 179.980 132.300,181.279 132.772,181.819 132.663 C 183.809 132.261,186.404 134.631,185.359 135.898 C 184.533 136.900,184.656 136.925,186.247 136.078 C 187.553 135.382,191.921 135.168,201.172 135.347 C 208.365 135.486,214.106 135.368,213.930 135.084 C 213.753 134.800,214.150 134.360,214.812 134.106 C 215.474 133.852,215.922 133.185,215.807 132.622 C 215.691 132.051,216.199 131.699,216.958 131.825 C 217.705 131.949,218.726 131.286,219.227 130.350 C 219.846 129.194,220.648 128.783,221.732 129.066 C 222.891 129.369,223.205 129.166,222.881 128.323 C 222.513 127.363,222.737 127.324,224.180 128.096 C 225.480 128.792,226.001 128.797,226.228 128.116 C 226.403 127.592,227.318 127.400,228.379 127.666 C 229.395 127.921,230.414 127.830,230.644 127.465 C 232.356 124.749,238.201 126.553,242.823 131.223 M248.118 153.800 C 250.168 160.408,250.255 160.596,250.331 158.574 C 250.400 156.744,248.419 151.200,247.697 151.200 C 247.485 151.200,247.675 152.370,248.118 153.800 M153.576 154.444 C 153.092 155.349,152.815 156.444,152.960 156.879 C 153.105 157.314,153.637 156.574,154.142 155.235 C 155.193 152.450,154.879 152.011,153.576 154.444 M147.988 162.600 C 147.980 164.280,147.742 164.831,147.314 164.158 C 146.951 163.585,146.168 163.225,145.574 163.358 C 144.981 163.491,144.357 162.970,144.189 162.200 C 144.020 161.430,144.269 160.800,144.741 160.800 C 145.214 160.800,145.611 161.250,145.624 161.800 C 145.638 162.355,146.012 162.177,146.464 161.400 C 147.642 159.377,148.002 159.660,147.988 162.600 M154.800 167.200 C 155.596 168.080,155.845 168.800,155.352 168.800 C 154.859 168.800,154.071 168.080,153.600 167.200 C 153.129 166.320,152.881 165.600,153.048 165.600 C 153.215 165.600,154.004 166.320,154.800 167.200 " stroke="none" fill="#0c0c0c" fill-rule="evenodd"></path><path id="path2" d="M230.644 127.465 C 230.414 127.830,229.395 127.921,228.379 127.666 C 227.318 127.400,226.403 127.592,226.228 128.116 C 226.001 128.797,225.480 128.792,224.180 128.096 C 222.737 127.324,222.513 127.363,222.881 128.323 C 223.205 129.166,222.891 129.369,221.732 129.066 C 220.648 128.783,219.846 129.194,219.227 130.350 C 218.726 131.286,217.705 131.949,216.958 131.825 C 216.199 131.699,215.691 132.051,215.807 132.622 C 215.922 133.185,215.474 133.852,214.812 134.106 C 214.150 134.360,213.753 134.800,213.928 135.084 C 214.104 135.368,207.832 135.600,199.990 135.600 C 192.149 135.600,185.868 135.465,186.033 135.301 C 186.624 134.709,182.831 132.192,181.891 132.553 C 181.362 132.756,180.051 132.346,178.977 131.643 C 177.904 130.939,176.435 130.590,175.713 130.867 C 174.968 131.153,174.400 130.976,174.400 130.457 C 174.400 129.792,173.966 129.776,172.800 130.400 C 171.516 131.087,171.200 131.008,171.200 130.000 C 171.200 128.967,170.898 128.905,169.498 129.654 C 168.368 130.259,167.628 130.293,167.296 129.755 C 164.880 125.846,153.035 136.960,155.302 141.010 C 155.812 141.922,155.751 142.971,155.119 144.151 C 154.522 145.266,154.465 146.022,154.965 146.188 C 155.407 146.336,154.583 149.547,153.106 153.427 C 151.647 157.262,150.405 160.940,150.347 161.600 C 150.288 162.260,149.937 161.900,149.567 160.800 C 148.969 159.025,148.910 159.115,149.046 161.600 C 149.132 163.159,149.643 164.444,150.200 164.500 C 150.750 164.555,151.470 164.688,151.800 164.795 C 152.130 164.902,152.622 164.963,152.894 164.930 C 153.165 164.897,154.218 165.755,155.233 166.835 C 156.248 167.916,156.792 168.800,156.441 168.800 C 156.091 168.800,156.298 169.407,156.902 170.150 C 157.864 171.332,157.826 171.434,156.600 170.975 C 154.449 170.169,154.939 171.007,157.400 172.342 C 159.259 173.351,159.352 173.543,158.000 173.580 C 156.667 173.617,156.600 173.756,157.600 174.412 C 158.667 175.112,158.667 175.288,157.600 175.988 C 156.671 176.597,156.646 176.778,157.487 176.788 C 158.245 176.796,158.422 177.404,158.071 178.800 C 157.779 179.965,157.914 180.800,158.394 180.800 C 158.909 180.800,159.026 182.009,158.704 184.020 C 158.065 188.019,159.633 190.040,164.330 191.270 C 172.681 193.457,174.115 193.982,175.775 195.456 C 176.752 196.323,177.365 197.333,177.138 197.700 C 176.912 198.067,177.165 199.184,177.702 200.183 C 178.239 201.183,178.765 203.080,178.871 204.400 C 178.977 205.720,179.243 208.204,179.463 209.920 C 179.683 211.637,179.569 213.617,179.210 214.320 C 178.850 215.024,178.142 217.220,177.637 219.200 C 177.132 221.180,176.006 225.140,175.135 228.000 C 174.264 230.860,173.201 236.071,172.773 239.580 C 171.556 249.543,169.829 253.895,165.212 258.635 C 161.620 262.322,161.953 263.673,166.773 264.962 C 168.768 265.495,170.400 266.332,170.400 266.821 C 170.400 267.310,171.409 268.225,172.643 268.855 C 175.462 270.294,185.600 281.134,185.600 282.709 C 185.600 283.693,187.783 283.879,199.200 283.870 C 206.680 283.864,212.800 283.555,212.800 283.184 C 212.800 282.812,213.453 282.301,214.251 282.047 C 215.048 281.794,216.811 280.060,218.168 278.194 C 219.524 276.327,222.708 272.124,225.243 268.854 L 229.852 262.907 228.863 259.654 C 226.637 252.335,223.137 232.417,222.177 221.600 C 222.080 220.500,221.565 219.320,221.033 218.979 C 220.502 218.637,220.270 217.827,220.519 217.179 C 220.768 216.530,220.534 216.000,220.000 216.000 C 219.421 216.000,219.236 215.460,219.542 214.664 C 219.823 213.929,219.692 213.104,219.249 212.830 C 218.757 212.527,219.348 210.472,220.760 207.566 C 222.118 204.774,223.103 203.457,223.139 204.386 C 223.186 205.610,223.696 205.246,225.379 202.786 C 227.062 200.324,227.623 199.924,227.843 201.027 C 228.089 202.258,228.354 202.166,229.775 200.359 C 231.006 198.794,231.584 198.527,232.062 199.301 C 232.569 200.120,233.015 200.053,234.202 198.979 C 235.271 198.012,235.949 197.869,236.561 198.481 C 237.173 199.093,238.724 197.705,241.958 193.653 C 246.909 187.447,248.833 183.410,247.293 182.458 C 246.608 182.034,246.669 181.038,247.534 178.588 C 248.502 175.844,248.513 175.360,247.600 175.711 C 246.771 176.029,246.928 174.822,248.242 170.780 C 249.667 166.398,250.071 165.770,250.473 167.314 C 250.899 168.954,251.053 168.783,251.651 166.000 L 252.340 162.800 252.865 165.600 C 253.178 167.271,253.432 167.693,253.495 166.647 C 253.603 164.842,255.200 163.160,255.200 164.851 C 255.200 165.555,255.506 165.542,256.400 164.800 C 257.357 164.005,257.843 164.005,258.800 164.800 C 259.778 165.611,260.000 165.569,260.000 164.573 C 260.000 163.724,260.514 163.484,261.681 163.789 C 263.012 164.137,263.297 163.914,263.050 162.714 C 262.878 161.877,262.127 161.250,261.369 161.311 C 260.616 161.372,260.000 160.878,260.000 160.213 C 260.000 159.229,259.777 159.189,258.800 160.000 C 257.843 160.795,257.357 160.795,256.400 160.000 C 255.436 159.200,255.200 159.212,255.200 160.062 C 255.200 161.529,253.854 160.012,253.370 158.000 C 253.128 156.994,252.932 157.440,252.841 159.200 C 252.722 161.502,252.214 160.509,249.989 153.622 C 248.209 148.115,247.571 145.065,248.126 144.722 C 248.611 144.423,248.727 143.430,248.399 142.396 C 248.084 141.404,247.754 139.549,247.666 138.274 C 247.235 132.052,233.322 123.217,230.644 127.465 M239.092 135.485 C 240.709 137.207,240.823 137.919,240.396 143.685 C 240.140 147.158,239.860 151.170,239.774 152.600 C 239.688 154.030,239.434 155.200,239.209 155.200 C 238.800 155.200,238.462 157.914,238.422 161.517 C 238.411 162.572,237.951 163.991,237.401 164.671 C 236.601 165.659,236.601 165.786,237.400 165.306 C 238.373 164.722,238.628 165.496,238.614 169.000 C 238.611 169.770,238.832 170.400,239.104 170.401 C 239.377 170.401,239.646 172.111,239.701 174.201 C 239.757 176.290,239.907 180.293,240.036 183.095 C 240.307 189.007,238.858 190.836,233.709 191.086 C 230.944 191.220,227.832 191.690,227.400 192.039 C 227.290 192.127,226.480 192.290,225.600 192.400 C 224.720 192.510,223.820 192.645,223.600 192.700 C 223.380 192.755,222.930 192.848,222.600 192.908 C 222.270 192.967,221.518 193.704,220.928 194.546 C 220.139 195.672,219.585 195.852,218.832 195.226 C 217.332 193.982,214.268 201.588,213.848 207.600 C 213.411 213.848,213.411 213.737,213.841 215.600 C 214.045 216.480,214.476 218.820,214.800 220.800 C 215.124 222.780,215.538 225.120,215.721 226.000 C 215.904 226.880,216.236 229.580,216.459 232.000 C 216.682 234.420,217.217 238.020,217.648 240.000 C 218.079 241.980,218.614 245.400,218.837 247.600 C 219.488 254.021,220.605 260.638,221.201 261.602 C 221.840 262.635,218.665 267.481,215.131 270.865 C 212.829 273.070,200.002 274.635,200.000 272.711 C 200.000 272.442,199.163 272.382,198.140 272.577 C 190.430 274.051,177.395 265.549,178.859 260.000 C 179.149 258.900,179.523 255.300,179.691 252.000 C 180.328 239.467,180.693 234.724,181.197 232.400 C 181.484 231.080,181.825 229.100,181.956 228.000 C 182.087 226.900,182.283 225.820,182.392 225.600 C 182.500 225.380,182.539 224.907,182.478 224.549 C 182.416 224.191,182.710 222.571,183.130 220.949 C 183.551 219.327,184.105 216.597,184.362 214.882 C 185.204 209.260,187.981 201.496,187.995 204.724 C 187.999 205.582,188.378 205.506,189.600 204.400 C 190.676 203.426,191.200 203.287,191.200 203.974 C 191.200 204.636,191.552 204.746,192.200 204.288 C 192.750 203.898,194.460 203.584,196.000 203.590 C 197.950 203.597,199.095 203.114,199.772 202.000 L 200.743 200.400 200.835 202.000 C 200.907 203.254,201.104 203.113,201.748 201.347 C 202.267 199.920,202.978 199.251,203.684 199.522 C 204.510 199.839,204.815 199.176,204.856 196.975 C 204.901 194.583,205.047 194.313,205.600 195.600 C 206.116 196.800,206.302 196.239,206.344 193.353 C 206.378 191.004,206.712 189.698,207.200 190.000 C 207.640 190.272,208.000 189.753,208.000 188.847 C 208.000 187.941,207.672 187.200,207.271 187.200 C 206.870 187.200,206.640 186.570,206.760 185.800 C 206.880 185.030,206.695 183.636,206.348 182.702 C 205.994 181.750,206.058 180.662,206.492 180.228 C 206.993 179.727,206.760 179.053,205.834 178.326 C 204.496 177.275,204.480 177.307,205.600 178.800 C 206.703 180.271,206.691 180.314,205.448 179.342 C 204.674 178.736,204.304 177.738,204.584 177.010 C 204.945 176.068,204.777 175.915,203.936 176.422 C 202.966 177.007,202.961 176.909,203.898 175.754 C 204.716 174.745,204.745 174.400,204.012 174.400 C 203.452 174.400,203.234 173.866,203.505 173.158 C 203.778 172.447,203.644 172.125,203.191 172.406 C 202.062 173.103,202.212 171.718,203.400 170.470 C 204.218 169.612,204.035 169.529,202.400 170.016 C 200.462 170.594,200.444 170.564,201.798 169.045 C 203.160 167.519,203.128 167.487,200.598 167.848 L 198.000 168.218 199.600 166.371 C 200.480 165.356,200.777 164.771,200.260 165.073 C 199.092 165.753,195.094 164.019,195.672 163.083 C 195.904 162.707,195.623 162.364,195.047 162.320 C 194.471 162.276,194.900 161.952,196.000 161.600 C 197.983 160.965,197.979 160.958,195.600 160.766 C 193.406 160.590,193.474 160.524,196.400 160.000 L 199.600 159.427 196.400 159.200 L 193.200 158.973 196.400 158.400 L 199.600 157.827 196.400 157.619 C 193.259 157.415,193.244 157.399,195.600 156.800 C 196.920 156.464,197.370 156.147,196.600 156.095 C 194.587 155.959,194.874 154.574,197.000 154.165 C 198.277 153.919,197.987 153.762,196.000 153.627 C 193.249 153.439,193.278 153.410,197.600 151.967 L 202.000 150.498 197.200 150.377 C 192.923 150.269,192.673 150.177,194.905 149.529 C 202.323 147.380,202.409 146.419,195.200 146.264 L 188.400 146.117 194.000 145.600 C 197.080 145.315,198.520 144.994,197.200 144.885 C 193.039 144.543,191.199 143.564,193.400 142.864 C 195.342 142.247,195.826 140.901,194.200 140.638 C 193.650 140.549,197.700 140.262,203.200 140.000 L 213.200 139.524 200.665 139.362 C 188.021 139.199,185.202 139.509,186.101 140.964 C 186.372 141.401,185.740 141.286,184.697 140.708 C 182.290 139.374,181.463 139.304,180.113 140.321 C 179.320 140.918,178.726 140.728,177.913 139.617 C 177.301 138.779,176.800 138.381,176.800 138.732 C 176.800 139.532,180.582 144.071,181.187 143.995 C 181.433 143.965,182.256 144.329,183.017 144.805 C 184.099 145.481,183.791 145.558,181.600 145.156 C 180.060 144.874,177.990 144.130,177.000 143.503 C 176.010 142.876,175.200 142.557,175.200 142.793 C 175.200 143.030,176.370 143.960,177.800 144.860 L 180.400 146.496 176.873 146.248 C 174.576 146.086,173.227 146.349,173.006 147.000 C 172.770 147.696,173.722 148.010,176.133 148.031 L 179.600 148.063 177.000 149.193 C 175.570 149.814,174.400 150.541,174.400 150.809 C 174.400 151.076,174.766 151.068,175.213 150.792 C 178.500 148.760,179.756 149.684,177.193 152.247 C 175.268 154.172,174.390 155.922,173.981 158.648 C 173.393 162.568,171.284 164.000,171.105 160.600 C 171.032 159.208,170.895 159.344,170.498 161.200 C 170.068 163.210,169.591 163.607,167.566 163.645 C 166.236 163.670,164.763 163.929,164.292 164.220 C 163.032 164.998,160.724 163.016,160.756 161.185 C 160.772 160.313,160.973 156.180,161.204 152.000 C 161.434 147.820,161.707 142.621,161.811 140.446 L 162.000 136.493 166.800 136.777 C 169.440 136.934,173.310 137.035,175.400 137.001 C 177.524 136.967,179.200 137.306,179.200 137.768 C 179.200 138.287,179.621 138.246,180.329 137.659 C 181.107 137.013,181.620 136.985,181.980 137.567 C 182.328 138.131,182.870 138.044,183.608 137.306 C 185.334 135.580,212.129 135.443,213.837 137.151 C 214.516 137.830,215.190 138.036,215.336 137.608 C 215.658 136.660,222.436 135.324,229.993 134.719 C 233.075 134.472,235.747 134.120,235.931 133.935 C 236.601 133.266,237.355 133.636,239.092 135.485 M184.453 138.150 C 183.820 139.801,184.373 140.322,185.857 139.473 C 186.823 138.921,186.847 138.627,185.989 137.836 C 185.165 137.076,184.840 137.142,184.453 138.150 M182.588 141.465 C 182.289 142.243,182.456 142.460,183.064 142.084 C 183.579 141.766,184.000 141.887,184.000 142.353 C 184.000 143.417,183.502 143.418,181.525 142.360 C 179.822 141.448,180.027 140.267,181.889 140.267 C 182.589 140.267,182.866 140.740,182.588 141.465 M249.241 153.974 C 249.878 155.500,250.369 157.570,250.331 158.574 C 250.255 160.596,250.168 160.408,248.118 153.800 C 247.051 150.359,247.777 150.472,249.241 153.974 M154.142 155.235 C 153.637 156.574,153.105 157.314,152.960 156.879 C 152.702 156.106,154.160 152.800,154.759 152.800 C 154.925 152.800,154.647 153.896,154.142 155.235 M146.464 161.400 C 146.012 162.177,145.638 162.355,145.624 161.800 C 145.611 161.250,145.214 160.800,144.741 160.800 C 144.269 160.800,144.020 161.430,144.189 162.200 C 144.357 162.970,144.981 163.491,145.574 163.358 C 146.168 163.225,146.951 163.585,147.314 164.158 C 147.742 164.831,147.980 164.280,147.988 162.600 C 148.002 159.660,147.642 159.377,146.464 161.400 M153.600 167.200 C 154.071 168.080,154.859 168.800,155.352 168.800 C 155.845 168.800,155.596 168.080,154.800 167.200 C 154.004 166.320,153.215 165.600,153.048 165.600 C 152.881 165.600,153.129 166.320,153.600 167.200 " stroke="none" fill="#121212" fill-rule="evenodd"></path><path id="path3" d="M235.931 133.935 C 235.747 134.120,233.075 134.472,229.993 134.719 C 222.480 135.320,215.796 136.635,215.179 137.633 C 214.280 139.089,185.723 139.056,186.177 137.600 C 186.500 136.564,186.439 136.559,185.728 137.562 C 185.276 138.201,185.083 139.011,185.300 139.362 C 185.517 139.713,185.289 140.000,184.793 140.000 C 184.256 140.000,184.097 139.354,184.400 138.400 C 184.691 137.482,184.544 136.800,184.054 136.800 C 183.584 136.800,183.200 137.204,183.200 137.698 C 183.200 138.352,182.913 138.357,182.141 137.717 C 181.368 137.075,180.828 137.092,180.141 137.779 C 179.481 138.439,179.200 138.454,179.200 137.830 C 179.200 137.294,177.692 136.965,175.400 137.001 C 173.310 137.035,169.440 136.934,166.800 136.777 L 162.000 136.493 161.811 140.446 C 161.707 142.621,161.434 147.820,161.204 152.000 C 160.973 156.180,160.772 160.313,160.756 161.185 C 160.724 163.016,163.032 164.998,164.292 164.220 C 164.763 163.929,166.236 163.670,167.566 163.645 C 169.591 163.607,170.068 163.210,170.498 161.200 C 170.895 159.344,171.032 159.208,171.105 160.600 C 171.284 164.000,173.393 162.568,173.981 158.648 C 174.390 155.922,175.268 154.172,177.193 152.247 C 179.756 149.684,178.500 148.760,175.213 150.792 C 174.766 151.068,174.400 151.076,174.400 150.809 C 174.400 150.541,175.570 149.814,177.000 149.193 L 179.600 148.063 176.133 148.031 C 173.722 148.010,172.770 147.696,173.006 147.000 C 173.227 146.349,174.576 146.086,176.873 146.248 L 180.400 146.496 177.800 144.860 C 176.370 143.960,175.200 143.030,175.200 142.793 C 175.200 142.557,176.010 142.876,177.000 143.503 C 177.990 144.130,180.060 144.874,181.600 145.156 C 183.791 145.558,184.099 145.481,183.017 144.805 C 182.256 144.329,181.433 143.965,181.187 143.995 C 180.582 144.071,176.800 139.532,176.800 138.732 C 176.800 138.381,177.301 138.779,177.913 139.617 C 178.726 140.728,179.320 140.918,180.113 140.321 C 181.463 139.304,182.290 139.374,184.697 140.708 C 185.740 141.286,186.372 141.401,186.101 140.964 C 185.202 139.509,188.021 139.199,200.665 139.362 L 213.200 139.524 203.200 140.000 C 197.700 140.262,193.650 140.549,194.200 140.638 C 195.826 140.901,195.342 142.247,193.400 142.864 C 191.199 143.564,193.039 144.543,197.200 144.885 C 198.520 144.994,197.080 145.315,194.000 145.600 L 188.400 146.117 195.200 146.264 C 202.409 146.419,202.323 147.380,194.905 149.529 C 192.673 150.177,192.923 150.269,197.200 150.377 L 202.000 150.498 197.600 151.967 C 193.278 153.410,193.249 153.439,196.000 153.627 C 197.987 153.762,198.277 153.919,197.000 154.165 C 194.874 154.574,194.587 155.959,196.600 156.095 C 197.370 156.147,196.920 156.464,195.600 156.800 C 193.244 157.399,193.259 157.415,196.400 157.619 L 199.600 157.827 196.400 158.400 L 193.200 158.973 196.400 159.200 L 199.600 159.427 196.400 160.000 C 193.474 160.524,193.406 160.590,195.600 160.766 C 197.979 160.958,197.983 160.965,196.000 161.600 C 194.900 161.952,194.471 162.276,195.047 162.320 C 195.623 162.364,195.904 162.707,195.672 163.083 C 195.094 164.019,199.092 165.753,200.260 165.073 C 200.777 164.771,200.480 165.356,199.600 166.371 L 198.000 168.218 200.598 167.848 C 203.128 167.487,203.160 167.519,201.798 169.045 C 200.444 170.564,200.462 170.594,202.400 170.016 C 204.035 169.529,204.218 169.612,203.400 170.470 C 202.212 171.718,202.062 173.103,203.191 172.406 C 203.644 172.125,203.778 172.447,203.505 173.158 C 203.234 173.866,203.452 174.400,204.012 174.400 C 204.745 174.400,204.716 174.745,203.898 175.754 C 202.961 176.909,202.966 177.007,203.936 176.422 C 204.777 175.915,204.945 176.068,204.584 177.010 C 204.304 177.738,204.674 178.736,205.448 179.342 C 206.691 180.314,206.703 180.271,205.600 178.800 C 204.480 177.307,204.496 177.275,205.834 178.326 C 206.760 179.053,206.993 179.727,206.492 180.228 C 206.058 180.662,205.994 181.750,206.348 182.702 C 206.695 183.636,206.880 185.030,206.760 185.800 C 206.640 186.570,206.870 187.200,207.271 187.200 C 207.672 187.200,208.000 187.941,208.000 188.847 C 208.000 189.753,207.640 190.272,207.200 190.000 C 206.712 189.698,206.378 191.004,206.344 193.353 C 206.302 196.239,206.116 196.800,205.600 195.600 C 205.047 194.313,204.901 194.583,204.856 196.975 C 204.815 199.176,204.510 199.839,203.684 199.522 C 202.978 199.251,202.267 199.920,201.748 201.347 C 201.104 203.113,200.907 203.254,200.835 202.000 L 200.743 200.400 199.772 202.000 C 199.095 203.114,197.950 203.597,196.000 203.590 C 194.460 203.584,192.750 203.898,192.200 204.288 C 191.552 204.746,191.200 204.636,191.200 203.974 C 191.200 203.287,190.676 203.426,189.600 204.400 C 188.378 205.506,187.999 205.582,187.995 204.724 C 187.981 201.496,185.204 209.260,184.362 214.882 C 184.105 216.597,183.551 219.327,183.130 220.949 C 182.710 222.571,182.416 224.191,182.478 224.549 C 182.539 224.907,182.500 225.380,182.392 225.600 C 182.283 225.820,182.087 226.900,181.956 228.000 C 181.825 229.100,181.484 231.080,181.197 232.400 C 180.693 234.724,180.328 239.467,179.691 252.000 C 179.523 255.300,179.149 258.900,178.859 260.000 C 177.395 265.549,190.430 274.051,198.140 272.577 C 199.163 272.382,200.000 272.442,200.000 272.711 C 200.002 274.635,212.829 273.070,215.131 270.865 C 218.665 267.481,221.840 262.635,221.201 261.602 C 220.605 260.638,219.488 254.021,218.837 247.600 C 218.614 245.400,218.079 241.980,217.648 240.000 C 217.217 238.020,216.682 234.420,216.459 232.000 C 216.236 229.580,215.904 226.880,215.721 226.000 C 215.538 225.120,215.124 222.780,214.800 220.800 C 214.476 218.820,214.045 216.480,213.841 215.600 C 213.411 213.737,213.411 213.848,213.848 207.600 C 214.268 201.588,217.332 193.982,218.832 195.226 C 219.585 195.852,220.139 195.672,220.928 194.546 C 221.518 193.704,222.270 192.967,222.600 192.908 C 222.930 192.848,223.380 192.755,223.600 192.700 C 223.820 192.645,224.720 192.510,225.600 192.400 C 226.480 192.290,227.290 192.127,227.400 192.039 C 227.832 191.690,230.944 191.220,233.709 191.086 C 238.858 190.836,240.307 189.007,240.036 183.095 C 239.907 180.293,239.757 176.290,239.701 174.201 C 239.646 172.111,239.402 170.401,239.160 170.401 C 238.918 170.400,238.676 169.590,238.623 168.600 C 238.421 164.846,238.046 163.324,237.421 163.711 C 237.065 163.931,237.015 164.501,237.311 164.979 C 237.614 165.470,237.478 165.619,236.999 165.323 C 236.532 165.034,236.328 163.989,236.545 162.999 C 236.871 161.508,236.780 161.405,236.008 162.400 C 235.182 163.467,235.115 163.467,235.408 162.400 C 235.589 161.740,236.427 161.200,237.269 161.199 C 238.505 161.198,238.800 160.619,238.800 158.199 C 238.800 156.550,238.984 155.200,239.209 155.200 C 239.434 155.200,239.688 154.030,239.774 152.600 C 239.860 151.170,240.140 147.158,240.396 143.685 C 240.892 136.982,238.377 131.490,235.931 133.935 M180.342 140.893 C 180.129 141.238,180.662 141.898,181.525 142.360 C 183.502 143.418,184.000 143.417,184.000 142.353 C 184.000 141.887,183.579 141.766,183.064 142.084 C 182.456 142.460,182.289 142.243,182.588 141.465 C 183.063 140.227,181.068 139.719,180.342 140.893 M163.800 161.185 C 163.800 163.615,163.130 163.752,161.784 161.597 C 160.981 160.311,160.982 160.034,161.791 160.197 C 162.346 160.309,162.701 159.923,162.580 159.341 C 162.459 158.758,162.684 158.481,163.080 158.726 C 163.476 158.971,163.800 160.077,163.800 161.185 M220.903 182.865 C 222.060 183.457,223.238 184.546,223.522 185.285 C 223.806 186.024,224.258 186.409,224.527 186.139 C 224.796 185.870,224.365 184.649,223.569 183.425 C 222.372 181.586,222.348 181.386,223.429 182.272 C 224.149 182.862,224.985 184.122,225.287 185.072 C 225.825 186.763,225.850 186.766,226.462 185.200 C 227.004 183.813,227.095 183.893,227.144 185.800 C 227.191 187.652,226.852 188.019,225.000 188.122 C 221.781 188.300,221.481 188.383,218.234 189.993 C 216.603 190.802,215.454 191.764,215.681 192.132 C 215.909 192.499,215.762 192.800,215.356 192.800 C 214.950 192.800,214.100 194.150,213.467 195.800 L 212.318 198.800 211.260 193.851 C 210.083 188.340,210.638 183.365,212.511 182.647 C 213.508 182.264,213.537 182.041,212.667 181.441 C 211.043 180.321,218.425 181.597,220.903 182.865 M194.082 217.384 C 193.580 217.887,187.200 215.050,187.200 214.324 C 187.200 213.937,188.812 214.404,190.782 215.361 C 192.753 216.319,194.238 217.229,194.082 217.384 M194.400 219.494 C 195.060 219.777,194.520 219.842,193.200 219.637 C 190.916 219.283,190.945 219.334,193.801 220.698 C 195.451 221.487,196.561 222.372,196.267 222.666 C 195.974 222.960,196.393 223.200,197.200 223.200 C 198.007 223.200,198.406 223.461,198.086 223.780 C 197.767 224.099,198.697 224.792,200.153 225.319 C 202.606 226.208,202.653 226.289,200.800 226.419 L 198.800 226.559 200.800 227.200 C 202.665 227.797,202.611 227.853,200.000 228.026 L 197.200 228.211 200.000 228.800 C 201.540 229.124,202.170 229.437,201.400 229.495 C 200.630 229.553,200.000 229.960,200.000 230.400 C 200.000 230.840,200.630 231.206,201.400 231.212 C 202.596 231.223,202.626 231.337,201.600 232.000 C 200.602 232.645,200.669 232.787,202.000 232.844 L 203.600 232.912 202.000 233.600 L 200.400 234.288 202.000 234.356 C 203.331 234.413,203.398 234.555,202.400 235.200 C 201.420 235.833,201.514 235.978,202.914 235.988 C 203.857 235.994,204.836 236.540,205.089 237.200 C 205.343 237.860,206.088 238.400,206.747 238.400 C 207.405 238.400,208.329 239.120,208.800 240.000 C 209.271 240.880,210.193 241.600,210.848 241.600 C 212.235 241.600,213.288 244.028,214.015 248.902 C 214.299 250.807,214.703 252.642,214.911 252.980 C 215.312 253.628,215.483 254.424,216.348 259.636 C 216.843 262.618,213.220 269.753,211.887 268.421 C 211.707 268.240,206.231 267.933,199.718 267.737 C 185.768 267.318,182.670 265.839,183.545 260.013 C 184.329 254.792,184.757 250.826,185.185 244.800 C 185.420 241.500,185.844 236.280,186.129 233.200 C 186.679 227.249,186.908 223.857,187.088 218.984 L 187.200 215.967 190.200 217.473 C 191.850 218.301,193.740 219.210,194.400 219.494 " stroke="none" fill="#242424" fill-rule="evenodd"></path><path id="path4" d="M162.689 159.021 C 162.985 159.499,162.876 160.106,162.448 160.370 C 161.596 160.897,162.197 163.200,163.186 163.200 C 164.108 163.200,163.925 159.248,162.976 158.662 C 162.521 158.380,162.392 158.540,162.689 159.021 M212.667 181.441 C 213.537 182.041,213.508 182.264,212.511 182.647 C 210.638 183.365,210.083 188.340,211.260 193.851 L 212.318 198.800 213.467 195.800 C 214.100 194.150,214.950 192.800,215.356 192.800 C 215.762 192.800,215.909 192.499,215.681 192.132 C 215.454 191.764,216.603 190.802,218.234 189.993 C 221.481 188.383,221.781 188.300,225.000 188.122 C 226.852 188.019,227.191 187.652,227.144 185.800 C 227.095 183.893,227.004 183.813,226.462 185.200 C 225.850 186.766,225.825 186.763,225.287 185.072 C 224.985 184.122,224.149 182.862,223.429 182.272 C 222.348 181.386,222.372 181.586,223.569 183.425 C 224.365 184.649,224.796 185.870,224.527 186.139 C 224.258 186.409,223.806 186.024,223.522 185.285 C 223.238 184.546,222.060 183.457,220.903 182.865 C 218.425 181.597,211.043 180.321,212.667 181.441 M187.200 214.324 C 187.200 215.050,193.580 217.887,194.082 217.384 C 194.238 217.229,192.753 216.319,190.782 215.361 C 188.812 214.404,187.200 213.937,187.200 214.324 M187.088 218.984 C 186.908 223.857,186.679 227.249,186.129 233.200 C 185.844 236.280,185.420 241.500,185.185 244.800 C 184.757 250.826,184.329 254.792,183.545 260.013 C 182.670 265.839,185.768 267.318,199.718 267.737 C 206.231 267.933,211.707 268.240,211.887 268.421 C 213.220 269.753,216.843 262.618,216.348 259.636 C 215.483 254.424,215.312 253.628,214.911 252.980 C 214.703 252.642,214.299 250.807,214.015 248.902 C 213.288 244.028,212.235 241.600,210.848 241.600 C 210.193 241.600,209.271 240.880,208.800 240.000 C 208.329 239.120,207.405 238.400,206.747 238.400 C 206.088 238.400,205.343 237.860,205.089 237.200 C 204.836 236.540,203.857 235.994,202.914 235.988 C 201.514 235.978,201.420 235.833,202.400 235.200 C 203.398 234.555,203.331 234.413,202.000 234.356 L 200.400 234.288 202.000 233.600 L 203.600 232.912 202.000 232.844 C 200.669 232.787,200.602 232.645,201.600 232.000 C 202.626 231.337,202.596 231.223,201.400 231.212 C 200.630 231.206,200.000 230.840,200.000 230.400 C 200.000 229.960,200.630 229.553,201.400 229.495 C 202.170 229.437,201.540 229.124,200.000 228.800 L 197.200 228.211 200.000 228.026 C 202.611 227.853,202.665 227.797,200.800 227.200 L 198.800 226.559 200.800 226.419 C 202.653 226.289,202.606 226.208,200.153 225.319 C 198.697 224.792,197.767 224.099,198.086 223.780 C 198.406 223.461,198.007 223.200,197.200 223.200 C 196.393 223.200,195.974 222.960,196.267 222.666 C 196.561 222.372,195.451 221.487,193.801 220.698 C 190.945 219.334,190.916 219.283,193.200 219.637 C 194.520 219.842,195.060 219.777,194.400 219.494 C 193.740 219.210,191.850 218.301,190.200 217.473 L 187.200 215.967 187.088 218.984 " stroke="none" fill="#2c2c2c" fill-rule="evenodd"></path></g></svg>