<svg id="svg" version="1.1" width="500" height="500" xmlns="http://www.w3.org/2000/svg" xmlns:xlink="http://www.w3.org/1999/xlink" style="display: block;"><g id="svgg"><path id="path0" d="M0.000 57.600 L 0.000 115.200 6.343 115.200 L 12.687 115.200 13.608 110.600 C 17.217 92.575,24.644 78.406,32.977 73.647 C 37.493 71.068,43.508 63.771,44.889 59.197 C 46.761 52.996,53.208 46.406,58.606 45.174 C 59.819 44.897,62.690 43.259,64.985 41.535 C 67.279 39.811,69.431 38.400,69.765 38.400 C 70.099 38.400,71.243 36.690,72.307 34.600 C 77.166 25.052,91.523 17.162,110.600 13.556 L 115.200 12.687 115.200 6.343 L 115.200 0.000 57.600 0.000 L 0.000 0.000 0.000 57.600 M284.800 6.343 L 284.800 12.687 289.400 13.556 C 307.762 17.027,322.968 25.258,327.211 34.023 C 328.171 36.005,329.731 38.039,330.678 38.543 C 331.625 39.047,333.660 40.427,335.200 41.610 C 336.740 42.792,339.786 44.413,341.969 45.210 C 347.162 47.109,352.891 52.838,354.790 58.031 C 355.587 60.214,357.208 63.260,358.390 64.800 C 359.573 66.340,360.953 68.375,361.457 69.322 C 361.961 70.269,363.995 71.829,365.977 72.789 C 374.742 77.032,382.973 92.238,386.444 110.600 L 387.313 115.200 393.657 115.200 L 400.000 115.200 400.000 57.600 L 400.000 0.000 342.400 0.000 L 284.800 0.000 284.800 6.343 M178.800 84.415 C 174.840 84.991,170.160 85.495,168.400 85.536 C 162.230 85.677,159.633 86.891,158.443 90.192 C 155.618 98.030,151.338 101.964,142.424 104.917 C 135.864 107.091,131.860 110.932,130.492 116.367 C 128.181 125.542,123.229 131.560,115.801 134.216 C 112.600 135.361,111.942 135.954,111.620 137.987 C 106.678 169.164,108.582 192.994,116.600 200.322 C 119.084 202.592,121.894 206.212,123.236 208.871 C 124.516 211.408,125.939 213.715,126.397 213.998 C 128.265 215.152,131.224 222.667,132.432 229.321 C 134.447 240.424,136.506 244.123,142.432 247.281 C 147.913 250.203,150.156 252.726,153.220 259.418 C 154.366 261.921,155.645 264.181,156.063 264.439 C 157.499 265.326,160.017 271.172,161.246 276.473 C 162.654 282.545,165.807 286.277,172.033 289.242 C 178.272 292.213,181.690 298.298,183.579 309.797 C 183.850 311.445,184.865 313.693,185.836 314.791 L 187.600 316.789 194.325 314.706 C 200.441 312.810,201.440 312.199,205.376 307.949 C 207.756 305.378,210.400 303.054,211.251 302.784 C 212.103 302.513,212.800 301.769,212.800 301.129 C 212.800 299.914,216.609 291.460,218.715 288.000 C 219.384 286.900,220.899 283.945,222.080 281.432 C 224.704 275.851,226.451 274.151,232.884 270.916 C 238.965 267.857,240.442 265.517,242.445 255.764 C 244.167 247.380,246.830 242.492,251.419 239.296 C 258.516 234.352,262.376 229.499,263.963 223.524 C 264.770 220.486,265.991 216.380,266.676 214.400 C 267.361 212.420,268.502 207.560,269.211 203.600 C 269.920 199.640,271.380 194.240,272.456 191.600 C 274.279 187.127,277.749 169.017,277.821 163.600 C 277.838 162.280,276.897 158.631,275.730 155.491 C 274.563 152.351,273.097 147.111,272.472 143.846 C 271.848 140.582,270.592 136.483,269.682 134.737 C 267.926 131.369,264.800 120.133,264.800 117.191 C 264.800 112.340,263.406 110.762,258.176 109.692 C 248.600 107.734,242.401 103.777,239.206 97.582 C 233.866 87.227,223.941 83.694,199.600 83.484 C 191.908 83.418,182.872 83.822,178.800 84.415 M195.031 109.910 C 200.196 112.179,202.787 112.764,210.953 113.504 C 225.923 114.860,233.439 118.433,236.285 125.546 C 236.995 127.320,238.566 129.280,239.919 130.079 C 245.445 133.344,252.618 145.739,254.919 156.000 C 257.707 168.434,250.796 186.816,240.333 194.797 C 238.820 195.951,237.027 198.224,236.350 199.848 C 233.765 206.046,227.311 210.388,218.811 211.647 C 216.616 211.972,212.656 213.426,210.011 214.878 C 193.577 223.896,186.367 224.240,178.803 216.367 C 176.092 213.547,173.710 211.873,171.579 211.295 C 169.831 210.820,167.140 209.758,165.600 208.935 C 164.060 208.112,160.841 206.793,158.447 206.004 C 135.470 198.433,133.050 132.836,155.340 121.768 C 163.428 117.752,171.931 114.464,176.531 113.573 C 180.386 112.827,182.034 112.028,184.088 109.910 C 187.320 106.574,187.438 106.574,195.031 109.910 M0.000 342.400 L 0.000 400.000 57.600 400.000 L 115.200 400.000 115.200 393.657 L 115.200 387.313 110.600 386.444 C 92.238 382.973,77.032 374.742,72.789 365.977 C 71.829 363.995,70.269 361.966,69.322 361.469 C 68.375 360.972,66.436 359.554,65.013 358.319 C 63.591 357.083,61.069 355.665,59.410 355.168 C 52.579 353.122,47.242 347.687,44.456 339.941 C 43.707 337.857,42.361 335.489,41.465 334.678 C 40.569 333.867,39.343 332.250,38.740 331.084 C 38.137 329.918,36.018 328.177,34.031 327.215 C 25.257 322.968,17.028 307.769,13.556 289.400 L 12.687 284.800 6.343 284.800 L 0.000 284.800 0.000 342.400 M386.444 289.400 C 382.838 308.477,374.948 322.834,365.400 327.693 C 363.310 328.757,361.600 329.930,361.600 330.301 C 361.600 330.672,360.381 332.515,358.892 334.397 C 357.402 336.279,355.754 339.120,355.228 340.710 C 353.042 347.325,347.168 353.189,340.803 355.111 C 336.255 356.485,328.932 362.508,326.381 366.974 C 321.550 375.433,307.632 382.741,289.400 386.392 L 284.800 387.313 284.800 393.657 L 284.800 400.000 342.400 400.000 L 400.000 400.000 400.000 342.400 L 400.000 284.800 393.657 284.800 L 387.313 284.800 386.444 289.400 " stroke="none" fill="#ffffff" fill-rule="evenodd"></path><path id="path1" d="M170.800 31.603 C 164.640 32.153,154.560 33.037,148.400 33.568 C 134.633 34.755,130.508 36.240,128.530 40.724 C 124.394 50.098,107.132 58.019,90.000 58.404 C 85.754 58.499,83.403 61.288,82.432 67.380 C 80.654 78.546,77.887 81.064,65.528 82.757 C 60.194 83.487,58.798 85.745,58.081 94.800 C 56.476 115.066,52.237 123.496,41.392 127.991 C 34.378 130.898,33.929 132.558,32.377 161.308 C 30.594 194.350,30.573 213.731,32.292 239.985 C 34.096 267.535,34.810 270.125,41.060 271.795 C 45.260 272.917,50.594 277.285,51.823 280.609 C 54.576 288.051,56.254 294.707,57.465 302.987 C 59.152 314.524,60.172 316.307,65.847 317.633 C 76.626 320.152,79.846 323.362,82.351 334.089 C 83.697 339.852,85.717 341.115,95.574 342.356 C 99.959 342.908,105.719 343.998,108.374 344.777 C 111.028 345.557,115.339 346.643,117.953 347.189 C 124.358 348.529,126.764 350.992,128.131 357.609 C 129.509 364.283,132.723 365.921,146.000 366.722 C 150.840 367.014,162.314 367.817,171.497 368.507 C 190.630 369.944,209.431 369.718,241.200 367.667 C 268.148 365.928,269.554 365.472,271.912 357.710 C 274.018 350.775,276.448 348.437,283.210 346.838 C 286.064 346.164,290.091 345.092,292.158 344.457 C 294.225 343.821,299.625 342.857,304.158 342.312 C 315.067 341.003,316.255 340.128,318.042 332.091 C 319.956 323.478,323.478 319.956,332.091 318.042 C 339.480 316.399,341.105 314.671,341.919 307.589 C 344.536 284.799,349.971 274.159,360.257 271.684 C 362.006 271.263,362.928 270.202,364.354 266.970 C 370.330 253.423,370.360 146.646,364.392 133.116 C 362.638 129.139,362.484 129.017,358.560 128.497 C 349.524 127.298,347.698 125.505,346.420 116.574 C 346.028 113.838,345.160 109.694,344.490 107.365 C 343.820 105.036,342.831 99.598,342.293 95.280 C 340.952 84.539,340.107 83.556,331.269 82.453 C 320.814 81.147,318.853 79.186,317.547 68.731 C 316.606 61.188,314.647 58.508,310.000 58.404 C 292.456 58.010,277.163 51.039,272.573 41.345 C 269.801 35.492,265.839 33.889,252.400 33.184 C 247.120 32.907,235.960 32.167,227.600 31.540 C 209.591 30.190,186.357 30.215,170.800 31.603 M217.693 48.067 C 222.693 50.569,225.682 53.690,228.194 59.034 C 230.411 63.750,233.619 65.121,246.262 66.757 C 265.200 69.207,273.110 73.318,278.131 83.320 C 282.683 92.386,287.320 98.372,290.540 99.336 C 295.248 100.747,298.893 104.287,300.751 109.253 C 301.661 111.684,303.120 115.075,303.993 116.786 C 309.931 128.426,310.231 208.511,304.392 223.010 C 302.355 228.066,299.645 229.623,289.466 231.586 C 286.105 232.234,284.301 236.139,283.287 244.962 C 282.796 249.231,281.678 255.711,280.803 259.362 C 279.927 263.013,279.209 266.803,279.206 267.784 C 279.185 274.252,275.197 278.057,267.417 279.031 C 261.069 279.826,258.659 283.221,257.127 293.532 C 255.483 304.590,254.413 305.673,243.441 307.379 C 236.355 308.480,233.669 310.541,233.625 314.912 C 233.494 327.984,226.082 344.157,217.782 349.483 C 213.569 352.186,199.708 355.123,190.000 355.368 C 181.751 355.576,174.380 350.581,170.852 342.393 C 166.959 333.358,162.703 328.226,158.599 327.620 C 151.667 326.597,148.697 323.750,147.591 317.071 C 147.311 315.382,146.218 311.996,145.162 309.548 C 144.107 307.099,142.575 300.895,141.758 295.762 C 140.047 285.005,139.187 283.614,133.752 282.817 C 123.634 281.335,119.848 277.496,117.632 266.474 C 115.921 257.958,113.382 254.689,108.047 254.131 C 98.823 253.167,97.274 251.591,95.594 241.464 C 94.986 237.799,94.094 232.820,93.612 230.400 C 93.130 227.980,92.251 222.365,91.659 217.923 C 90.155 206.632,88.348 202.788,84.234 202.130 C 75.706 200.767,73.227 196.517,71.501 180.305 C 68.649 153.513,71.792 141.100,83.387 133.361 L 87.600 130.548 90.156 120.674 C 91.562 115.243,93.113 108.752,93.602 106.249 C 95.246 97.848,99.310 94.047,107.627 93.127 C 112.369 92.603,117.600 89.278,117.600 86.788 C 117.600 83.858,120.475 77.079,122.817 74.487 C 126.021 70.941,128.246 69.928,141.600 65.936 C 151.359 63.019,151.706 62.836,156.000 58.351 C 162.269 51.804,168.003 49.173,184.400 45.321 C 190.190 43.961,213.294 45.867,217.693 48.067 M340.264 134.882 C 342.012 136.630,342.287 137.498,341.977 140.282 C 340.545 153.148,340.000 166.362,340.000 188.204 C 340.000 211.632,339.319 221.518,337.570 223.477 C 335.990 225.248,335.200 214.426,335.200 191.006 C 335.200 169.609,334.544 152.459,333.270 140.575 C 332.659 134.873,336.846 131.464,340.264 134.882 M185.113 135.476 C 182.723 137.047,182.644 137.304,181.822 146.146 C 180.892 156.147,179.963 158.332,175.522 160.952 L 172.762 162.581 175.381 163.954 C 179.204 165.958,180.744 169.777,181.572 179.309 C 182.656 191.788,183.287 192.104,203.600 190.358 C 215.319 189.351,214.511 190.337,216.245 174.937 L 217.646 162.492 215.150 153.139 C 212.687 143.912,208.054 136.844,204.429 136.787 C 203.973 136.780,199.992 136.119,195.582 135.320 C 187.649 133.882,187.537 133.883,185.113 135.476 M64.829 225.600 C 65.686 237.258,65.653 239.151,64.541 241.800 C 61.218 249.718,58.940 241.191,60.141 225.328 C 61.597 206.102,63.402 206.206,64.829 225.600 M89.569 260.151 C 91.480 262.202,91.562 264.146,90.314 277.862 C 89.816 283.335,89.028 287.856,88.514 288.185 C 87.384 288.909,85.600 286.652,85.600 284.498 C 85.600 281.556,83.020 272.448,80.768 267.441 C 78.269 261.885,78.376 261.600,83.684 259.655 C 87.801 258.146,87.692 258.137,89.569 260.151 M314.647 260.824 C 315.651 262.257,315.585 262.879,314.092 266.127 L 312.400 269.807 311.837 266.704 C 310.763 260.777,312.325 257.509,314.647 260.824 M297.369 286.517 L 299.938 287.304 297.326 289.597 C 294.227 292.318,290.653 298.622,288.782 304.669 C 287.970 307.295,287.197 308.643,286.838 308.062 C 286.284 307.165,284.893 294.289,284.829 289.457 C 284.768 284.895,288.907 283.924,297.369 286.517 M115.204 308.933 C 117.816 312.538,117.547 314.112,113.908 316.528 C 111.474 318.145,105.984 313.503,107.302 310.943 C 110.297 305.127,112.113 304.665,115.204 308.933 M139.233 336.440 C 140.923 338.477,138.144 340.887,136.269 339.012 C 134.961 337.704,135.836 335.200,137.600 335.200 C 137.932 335.200,138.667 335.758,139.233 336.440 " stroke="none" fill="#13adec" fill-rule="evenodd"></path><path id="path2" d="M184.690 18.777 C 183.993 19.474,160.512 23.881,148.629 25.545 C 132.779 27.765,117.544 33.766,109.807 40.838 C 105.187 45.059,99.771 47.915,92.400 50.015 C 85.447 51.997,76.653 58.935,73.592 64.855 C 72.043 67.850,67.573 72.096,63.122 74.800 C 57.659 78.119,52.322 85.657,50.005 93.325 C 47.482 101.675,45.193 105.866,40.055 111.539 C 33.347 118.947,27.004 133.904,25.610 145.600 C 24.332 156.327,21.050 175.156,19.182 182.471 C 16.936 191.268,16.933 210.322,19.176 218.591 C 21.183 225.990,24.348 243.550,25.631 254.400 C 26.981 265.817,35.206 285.672,39.966 289.006 C 42.896 291.058,47.129 298.488,49.314 305.413 C 52.393 315.174,57.179 321.557,65.401 326.868 C 67.712 328.360,70.592 331.064,71.801 332.875 C 78.073 342.270,84.727 347.594,93.600 350.317 C 100.650 352.481,105.460 355.103,109.950 359.232 C 117.348 366.035,133.351 372.887,145.200 374.326 C 153.855 375.377,173.226 378.602,181.600 380.386 C 192.316 382.669,209.770 382.723,219.200 380.503 C 228.732 378.259,243.198 375.751,254.400 374.400 C 266.137 372.986,280.726 366.784,288.670 359.832 C 293.571 355.543,301.669 351.333,309.027 349.250 C 314.759 347.627,322.263 341.521,326.651 334.909 C 328.329 332.381,331.157 329.342,332.936 328.156 C 341.903 322.177,347.855 314.997,349.977 307.600 C 352.017 300.489,355.143 294.599,359.292 290.049 C 365.387 283.364,373.062 266.393,373.967 257.600 C 374.989 247.660,378.452 227.556,380.420 220.129 C 383.286 209.315,383.287 191.577,380.422 180.232 C 378.123 171.125,375.701 157.213,374.370 145.463 C 373.109 134.337,364.784 114.321,360.034 110.994 C 357.108 108.945,352.872 101.516,350.679 94.587 C 347.874 85.727,338.941 73.600,335.220 73.600 C 333.776 73.600,327.930 67.798,326.408 64.855 C 323.177 58.606,314.817 52.255,306.400 49.655 C 298.295 47.152,295.373 45.570,290.306 40.945 C 281.041 32.489,267.170 27.287,246.381 24.475 C 237.790 23.312,226.816 21.470,221.995 20.381 C 213.793 18.527,186.129 17.338,184.690 18.777 M227.600 31.540 C 235.960 32.167,247.120 32.907,252.400 33.184 C 265.839 33.889,269.801 35.492,272.573 41.345 C 277.163 51.039,292.456 58.010,310.000 58.404 C 314.647 58.508,316.606 61.188,317.547 68.731 C 318.853 79.186,320.814 81.147,331.269 82.453 C 340.107 83.556,340.952 84.539,342.293 95.280 C 342.831 99.598,343.820 105.036,344.490 107.365 C 345.160 109.694,346.028 113.838,346.420 116.574 C 347.698 125.505,349.524 127.298,358.560 128.497 C 365.185 129.376,365.844 131.705,367.697 160.800 C 371.340 217.995,367.860 269.854,360.257 271.684 C 349.971 274.159,344.536 284.799,341.919 307.589 C 341.105 314.671,339.480 316.399,332.091 318.042 C 323.478 319.956,319.956 323.478,318.042 332.091 C 316.255 340.128,315.067 341.003,304.158 342.312 C 299.625 342.857,294.225 343.821,292.158 344.457 C 290.091 345.092,286.064 346.164,283.210 346.838 C 276.448 348.437,274.018 350.775,271.912 357.710 C 269.554 365.472,268.148 365.928,241.200 367.667 C 209.431 369.718,190.630 369.944,171.497 368.507 C 162.314 367.817,150.840 367.014,146.000 366.722 C 132.723 365.921,129.509 364.283,128.131 357.609 C 126.764 350.992,124.358 348.529,117.953 347.189 C 115.339 346.643,111.028 345.557,108.374 344.777 C 105.719 343.998,99.959 342.908,95.574 342.356 C 85.717 341.115,83.697 339.852,82.351 334.089 C 79.846 323.362,76.626 320.152,65.847 317.633 C 60.172 316.307,59.152 314.524,57.465 302.987 C 56.254 294.707,54.576 288.051,51.823 280.609 C 50.594 277.285,45.260 272.917,41.060 271.795 C 34.810 270.125,34.096 267.535,32.292 239.985 C 30.573 213.731,30.594 194.350,32.377 161.308 C 33.929 132.558,34.378 130.898,41.392 127.991 C 52.237 123.496,56.476 115.066,58.081 94.800 C 58.798 85.745,60.194 83.487,65.528 82.757 C 77.887 81.064,80.654 78.546,82.432 67.380 C 83.403 61.288,85.754 58.499,90.000 58.404 C 107.132 58.019,124.394 50.098,128.530 40.724 C 130.508 36.240,134.633 34.755,148.400 33.568 C 154.560 33.037,164.640 32.153,170.800 31.603 C 186.357 30.215,209.591 30.190,227.600 31.540 M184.400 45.321 C 168.003 49.173,162.269 51.804,156.000 58.351 C 151.706 62.836,151.359 63.019,141.600 65.936 C 128.246 69.928,126.021 70.941,122.817 74.487 C 120.475 77.079,117.600 83.858,117.600 86.788 C 117.600 89.278,112.369 92.603,107.627 93.127 C 99.310 94.047,95.246 97.848,93.602 106.249 C 93.113 108.752,91.562 115.243,90.156 120.674 L 87.600 130.548 83.387 133.361 C 71.792 141.100,68.649 153.513,71.501 180.305 C 73.227 196.517,75.706 200.767,84.234 202.130 C 88.348 202.788,90.155 206.632,91.659 217.923 C 92.251 222.365,93.130 227.980,93.612 230.400 C 94.094 232.820,94.986 237.799,95.594 241.464 C 97.274 251.591,98.823 253.167,108.047 254.131 C 113.382 254.689,115.921 257.958,117.632 266.474 C 119.848 277.496,123.634 281.335,133.752 282.817 C 139.187 283.614,140.047 285.005,141.758 295.762 C 142.575 300.895,144.107 307.099,145.162 309.548 C 146.218 311.996,147.311 315.382,147.591 317.071 C 148.697 323.750,151.667 326.597,158.599 327.620 C 162.703 328.226,166.959 333.358,170.852 342.393 C 174.380 350.581,181.751 355.576,190.000 355.368 C 199.708 355.123,213.569 352.186,217.782 349.483 C 226.082 344.157,233.494 327.984,233.625 314.912 C 233.669 310.541,236.355 308.480,243.441 307.379 C 254.413 305.673,255.483 304.590,257.127 293.532 C 258.659 283.221,261.069 279.826,267.417 279.031 C 275.197 278.057,279.185 274.252,279.206 267.784 C 279.209 266.803,279.927 263.013,280.803 259.362 C 281.678 255.711,282.796 249.231,283.287 244.962 C 284.301 236.139,286.105 232.234,289.466 231.586 C 299.645 229.623,302.355 228.066,304.392 223.010 C 310.231 208.511,309.931 128.426,303.993 116.786 C 303.120 115.075,301.661 111.684,300.751 109.253 C 298.893 104.287,295.248 100.747,290.540 99.336 C 287.320 98.372,282.683 92.386,278.131 83.320 C 273.110 73.318,265.200 69.207,246.262 66.757 C 233.619 65.121,230.411 63.750,228.194 59.034 C 223.244 48.504,217.941 45.972,199.600 45.382 C 192.120 45.142,185.280 45.114,184.400 45.321 M201.468 58.747 C 208.527 59.494,212.589 60.285,213.472 61.084 C 214.207 61.749,217.326 63.537,220.404 65.057 C 225.332 67.491,230.222 69.227,246.000 74.147 C 259.216 78.268,276.062 93.729,283.492 108.557 C 285.079 111.723,287.821 115.650,289.586 117.283 C 293.493 120.898,297.184 126.520,299.362 132.175 C 303.149 142.004,303.639 183.607,300.156 199.600 C 297.140 213.453,297.210 213.307,290.136 220.319 C 282.625 227.764,279.365 233.292,276.350 243.696 C 273.778 252.570,271.126 257.497,265.838 263.224 C 262.130 267.240,253.241 280.955,248.924 289.322 C 247.077 292.901,242.270 297.686,238.738 299.461 C 233.927 301.879,229.108 309.146,225.119 320.000 C 220.901 331.473,212.566 337.269,191.306 343.509 L 187.012 344.770 181.046 338.585 C 174.277 331.569,168.121 323.296,164.780 316.726 C 163.528 314.266,161.491 311.616,160.252 310.838 C 155.056 307.575,150.242 300.005,147.613 290.964 C 145.782 284.666,140.235 277.509,134.751 274.372 C 129.850 271.568,127.692 269.031,124.110 261.867 C 119.190 252.024,112.897 241.914,109.253 238.000 C 104.774 233.189,101.457 226.629,99.137 218.000 C 98.191 214.480,95.337 205.840,92.795 198.800 C 90.252 191.760,87.972 184.740,87.728 183.200 C 87.485 181.660,86.349 176.327,85.205 171.350 L 83.125 162.299 85.558 158.344 C 86.923 156.127,89.255 149.912,90.868 144.195 C 99.128 114.915,102.641 107.160,109.485 103.093 C 113.698 100.589,122.839 91.531,126.436 86.294 C 132.655 77.242,142.764 72.251,169.946 64.812 C 173.436 63.857,178.656 61.861,181.546 60.377 C 187.632 57.251,187.460 57.265,201.468 58.747 M184.800 129.388 C 176.912 134.533,174.626 136.787,172.109 141.900 C 170.359 145.455,168.208 148.278,165.529 150.537 C 163.341 152.383,160.466 155.788,159.140 158.104 L 156.731 162.316 158.879 166.555 C 160.060 168.886,163.073 172.775,165.574 175.197 C 168.261 177.798,170.991 181.450,172.247 184.122 C 174.377 188.653,177.036 191.266,183.854 195.528 L 187.307 197.688 200.159 196.689 L 213.010 195.690 217.173 191.886 L 221.336 188.081 223.164 177.441 C 224.170 171.588,225.158 165.720,225.360 164.400 C 226.599 156.295,217.052 133.748,211.668 132.065 C 202.949 129.340,187.270 127.778,184.800 129.388 M334.944 135.175 C 333.386 137.027,333.017 138.216,333.270 140.575 C 334.544 152.459,335.200 169.609,335.200 191.006 C 335.200 214.426,335.990 225.248,337.570 223.477 C 339.319 221.518,340.000 211.632,340.000 188.204 C 340.000 166.362,340.545 153.148,341.977 140.282 C 342.635 134.372,338.280 131.210,334.944 135.175 M204.429 136.787 C 208.054 136.844,212.687 143.912,215.150 153.139 L 217.646 162.492 216.245 174.937 C 214.511 190.337,215.319 189.351,203.600 190.358 C 183.287 192.104,182.656 191.788,181.572 179.309 C 180.744 169.777,179.204 165.958,175.381 163.954 L 172.762 162.581 175.522 160.952 C 179.963 158.332,180.892 156.147,181.822 146.146 C 182.968 133.810,183.771 133.179,195.582 135.320 C 199.992 136.119,203.973 136.780,204.429 136.787 M61.856 212.166 C 60.098 214.448,59.102 237.130,60.584 241.128 C 63.983 250.298,66.081 242.622,64.829 225.600 C 63.861 212.443,63.366 210.206,61.856 212.166 M83.684 259.655 C 78.376 261.600,78.269 261.885,80.768 267.441 C 83.020 272.448,85.600 281.556,85.600 284.498 C 85.600 286.652,87.384 288.909,88.514 288.185 C 89.028 287.856,89.816 283.335,90.314 277.862 C 91.562 264.146,91.480 262.202,89.569 260.151 C 87.692 258.137,87.801 258.146,83.684 259.655 M311.701 261.400 C 311.467 262.610,311.528 264.997,311.837 266.704 L 312.400 269.807 314.092 266.127 C 315.585 262.879,315.651 262.257,314.647 260.824 C 313.097 258.611,312.207 258.785,311.701 261.400 M286.092 286.022 C 284.628 287.486,284.585 288.554,285.550 299.349 C 286.427 309.160,287.067 310.214,288.782 304.669 C 290.653 298.622,294.227 292.318,297.326 289.597 L 299.938 287.304 297.369 286.517 C 291.941 284.854,287.457 284.657,286.092 286.022 M109.839 307.400 C 106.200 311.396,106.134 312.465,109.369 315.130 C 114.601 319.443,119.245 314.511,115.204 308.933 C 112.413 305.079,112.048 304.975,109.839 307.400 M135.967 336.440 C 134.277 338.477,137.056 340.887,138.931 339.012 C 140.239 337.704,139.364 335.200,137.600 335.200 C 137.268 335.200,136.533 335.758,135.967 336.440 " stroke="none" fill="#4bb7ee" fill-rule="evenodd"></path><path id="path3" d="M156.800 6.235 L 156.800 12.470 147.400 14.705 C 125.257 19.970,105.378 28.032,97.681 34.869 C 95.656 36.667,90.760 39.848,86.800 41.938 C 77.288 46.958,72.076 50.971,67.865 56.517 C 63.586 62.152,62.278 63.467,56.436 68.000 C 51.035 72.191,46.330 78.512,41.653 87.861 C 39.821 91.524,36.976 96.024,35.331 97.861 C 27.285 106.846,20.300 123.411,14.778 146.600 L 12.540 156.000 6.270 156.000 L 0.000 156.000 0.000 200.000 L 0.000 244.000 6.270 244.000 L 12.540 244.000 14.777 253.400 C 20.394 277.012,27.729 294.228,36.216 303.724 C 37.728 305.416,40.854 310.495,43.163 315.012 C 47.540 323.574,53.424 330.543,59.889 334.821 C 61.640 335.980,64.020 338.360,65.179 340.111 C 69.311 346.356,76.249 352.242,85.118 357.030 C 89.836 359.576,95.638 363.241,98.011 365.175 C 107.977 373.292,123.642 379.755,146.600 385.222 L 156.000 387.460 156.000 393.730 L 156.000 400.000 200.000 400.000 L 244.000 400.000 244.000 393.730 L 244.000 387.460 253.400 385.222 C 276.589 379.700,293.154 372.715,302.139 364.669 C 303.976 363.024,308.476 360.179,312.139 358.347 C 321.488 353.670,327.809 348.965,332.000 343.564 C 336.533 337.722,337.848 336.414,343.483 332.135 C 349.029 327.924,353.042 322.712,358.062 313.200 C 360.152 309.240,363.397 304.280,365.274 302.177 C 372.060 294.574,380.492 273.907,385.176 253.400 L 387.323 244.000 393.661 244.000 L 400.000 244.000 400.000 200.000 L 400.000 156.000 393.670 156.000 L 387.340 156.000 385.251 147.000 C 379.753 123.312,372.382 105.896,363.784 96.276 C 362.272 94.584,359.104 89.420,356.745 84.800 C 352.402 76.294,345.164 67.796,339.325 64.347 C 338.056 63.597,336.403 61.944,335.653 60.675 C 332.190 54.812,323.694 47.585,314.800 42.936 C 309.960 40.406,303.840 36.525,301.200 34.312 C 293.146 27.560,276.958 20.620,259.600 16.476 C 254.760 15.321,249.270 13.974,247.400 13.484 L 244.000 12.592 244.000 6.296 L 244.000 0.000 200.400 0.000 L 156.800 0.000 156.800 6.235 M221.995 20.381 C 226.816 21.470,237.790 23.312,246.381 24.475 C 267.170 27.287,281.041 32.489,290.306 40.945 C 295.373 45.570,298.295 47.152,306.400 49.655 C 314.817 52.255,323.177 58.606,326.408 64.855 C 327.930 67.798,333.776 73.600,335.220 73.600 C 338.941 73.600,347.874 85.727,350.679 94.587 C 352.872 101.516,357.108 108.945,360.034 110.994 C 364.784 114.321,373.109 134.337,374.370 145.463 C 375.701 157.213,378.123 171.125,380.422 180.232 C 383.287 191.577,383.286 209.315,380.420 220.129 C 378.452 227.556,374.989 247.660,373.967 257.600 C 373.062 266.393,365.387 283.364,359.292 290.049 C 355.143 294.599,352.017 300.489,349.977 307.600 C 347.855 314.997,341.903 322.177,332.936 328.156 C 331.157 329.342,328.329 332.381,326.651 334.909 C 322.263 341.521,314.759 347.627,309.027 349.250 C 301.669 351.333,293.571 355.543,288.670 359.832 C 280.726 366.784,266.137 372.986,254.400 374.400 C 243.198 375.751,228.732 378.259,219.200 380.503 C 209.770 382.723,192.316 382.669,181.600 380.386 C 173.226 378.602,153.855 375.377,145.200 374.326 C 133.351 372.887,117.348 366.035,109.950 359.232 C 105.460 355.103,100.650 352.481,93.600 350.317 C 84.727 347.594,78.073 342.270,71.801 332.875 C 70.592 331.064,67.712 328.360,65.401 326.868 C 57.179 321.557,52.393 315.174,49.314 305.413 C 47.129 298.488,42.896 291.058,39.966 289.006 C 35.206 285.672,26.981 265.817,25.631 254.400 C 24.348 243.550,21.183 225.990,19.176 218.591 C 16.933 210.322,16.936 191.268,19.182 182.471 C 21.050 175.156,24.332 156.327,25.610 145.600 C 27.004 133.904,33.347 118.947,40.055 111.539 C 45.193 105.866,47.482 101.675,50.005 93.325 C 52.322 85.657,57.659 78.119,63.122 74.800 C 67.573 72.096,72.043 67.850,73.592 64.855 C 76.653 58.935,85.447 51.997,92.400 50.015 C 99.771 47.915,105.187 45.059,109.807 40.838 C 117.544 33.766,132.779 27.765,148.629 25.545 C 160.512 23.881,183.993 19.474,184.690 18.777 C 186.129 17.338,213.793 18.527,221.995 20.381 M181.546 60.377 C 178.656 61.861,173.436 63.857,169.946 64.812 C 142.764 72.251,132.655 77.242,126.436 86.294 C 122.839 91.531,113.698 100.589,109.485 103.093 C 102.641 107.160,99.128 114.915,90.868 144.195 C 89.255 149.912,86.923 156.127,85.558 158.344 L 83.125 162.299 85.205 171.350 C 86.349 176.327,87.485 181.660,87.728 183.200 C 87.972 184.740,90.252 191.760,92.795 198.800 C 95.337 205.840,98.191 214.480,99.137 218.000 C 101.457 226.629,104.774 233.189,109.253 238.000 C 112.897 241.914,119.190 252.024,124.110 261.867 C 127.692 269.031,129.850 271.568,134.751 274.372 C 140.235 277.509,145.782 284.666,147.613 290.964 C 150.242 300.005,155.056 307.575,160.252 310.838 C 161.491 311.616,163.528 314.266,164.780 316.726 C 168.121 323.296,174.277 331.569,181.046 338.585 L 187.012 344.770 191.306 343.509 C 212.566 337.269,220.901 331.473,225.119 320.000 C 229.108 309.146,233.927 301.879,238.738 299.461 C 242.270 297.686,247.077 292.901,248.924 289.322 C 253.241 280.955,262.130 267.240,265.838 263.224 C 271.126 257.497,273.778 252.570,276.350 243.696 C 279.365 233.292,282.625 227.764,290.136 220.319 C 297.210 213.307,297.140 213.453,300.156 199.600 C 303.639 183.607,303.149 142.004,299.362 132.175 C 297.184 126.520,293.493 120.898,289.586 117.283 C 287.821 115.650,285.079 111.723,283.492 108.557 C 279.219 100.030,276.041 96.097,266.012 86.930 C 256.986 78.679,253.601 76.517,246.000 74.147 C 230.222 69.227,225.332 67.491,220.404 65.057 C 217.326 63.537,214.207 61.749,213.472 61.084 C 212.589 60.285,208.527 59.494,201.468 58.747 C 187.460 57.265,187.632 57.251,181.546 60.377 M216.278 73.638 C 218.545 74.502,224.360 76.324,229.200 77.685 C 241.406 81.119,246.929 83.906,252.083 89.231 C 254.457 91.684,257.660 94.447,259.200 95.370 C 265.961 99.423,271.584 106.295,277.115 117.261 C 279.141 121.278,282.659 126.587,285.051 129.238 C 292.563 137.563,294.077 144.669,293.830 170.433 C 293.627 191.587,290.346 202.517,280.173 215.930 C 276.763 220.425,274.183 225.532,270.689 234.702 C 267.212 243.827,264.723 248.114,259.951 253.200 C 256.518 256.858,253.829 261.184,242.150 281.839 C 239.680 286.208,237.356 289.299,236.025 289.987 C 231.385 292.386,224.513 301.086,219.829 310.490 C 213.914 322.365,213.876 322.395,199.603 326.711 L 187.605 330.339 184.539 327.370 C 180.421 323.381,174.678 315.695,172.281 310.964 C 171.205 308.842,167.732 304.472,164.562 301.254 C 158.820 295.422,157.782 293.799,152.495 282.373 C 149.293 275.454,144.757 269.931,139.596 266.669 C 136.315 264.595,135.311 263.061,127.904 248.800 C 119.435 232.494,118.351 230.685,113.525 224.800 C 109.241 219.576,107.474 215.590,104.008 203.334 C 102.308 197.320,100.521 191.363,100.038 190.095 C 99.259 188.051,97.033 170.758,96.730 164.400 C 96.595 161.579,100.895 141.886,103.280 134.400 C 105.803 126.481,111.843 114.667,114.628 112.201 C 122.183 105.516,131.275 96.282,134.416 92.104 C 137.644 87.812,138.835 86.938,146.400 83.312 C 158.787 77.375,160.140 76.913,172.776 74.305 C 179.143 72.990,184.543 71.710,184.776 71.459 C 185.882 70.271,212.227 72.093,216.278 73.638 M181.421 122.338 C 174.781 125.171,168.882 129.428,165.477 133.845 C 164.054 135.690,161.199 139.026,159.133 141.259 C 154.964 145.764,152.646 149.878,149.976 157.513 L 148.187 162.629 150.146 168.457 C 155.316 183.831,170.110 199.700,183.727 204.476 C 189.206 206.398,211.062 204.919,216.244 202.276 C 224.137 198.249,229.349 191.246,231.633 181.600 C 232.415 178.300,234.068 172.589,235.307 168.910 C 236.778 164.541,237.323 161.765,236.879 160.910 C 236.505 160.189,234.521 154.582,232.471 148.449 C 225.609 127.921,221.218 124.179,200.896 121.546 C 186.389 119.666,187.821 119.608,181.421 122.338 M198.752 129.647 C 217.095 132.538,216.881 132.355,222.029 149.608 C 224.296 157.206,225.585 162.929,225.360 164.400 C 225.158 165.720,224.170 171.588,223.164 177.441 L 221.336 188.081 217.173 191.886 L 213.010 195.690 200.159 196.689 L 187.307 197.688 183.854 195.528 C 177.036 191.266,174.377 188.653,172.247 184.122 C 170.991 181.450,168.261 177.798,165.574 175.197 C 163.073 172.775,160.060 168.886,158.879 166.555 L 156.731 162.316 159.140 158.104 C 160.466 155.788,163.341 152.383,165.529 150.537 C 168.208 148.278,170.359 145.455,172.109 141.900 C 174.626 136.787,176.912 134.533,184.800 129.388 C 187.339 127.732,186.506 127.717,198.752 129.647 " stroke="none" fill="#79c2f0" fill-rule="evenodd"></path><path id="path4" d="M115.200 6.343 L 115.200 12.687 110.600 13.556 C 91.523 17.162,77.166 25.052,72.307 34.600 C 71.243 36.690,70.099 38.400,69.765 38.400 C 69.431 38.400,67.279 39.811,64.985 41.535 C 62.690 43.259,59.819 44.897,58.606 45.174 C 53.208 46.406,46.761 52.996,44.889 59.197 C 43.508 63.771,37.493 71.068,32.977 73.647 C 24.644 78.406,17.217 92.575,13.608 110.600 L 12.687 115.200 6.343 115.200 L 0.000 115.200 0.000 135.600 L 0.000 156.000 6.270 156.000 L 12.540 156.000 14.778 146.600 C 20.300 123.411,27.285 106.846,35.331 97.861 C 36.976 96.024,39.821 91.524,41.653 87.861 C 46.330 78.512,51.035 72.191,56.436 68.000 C 62.278 63.467,63.586 62.152,67.865 56.517 C 72.076 50.971,77.288 46.958,86.800 41.938 C 90.760 39.848,95.656 36.667,97.681 34.869 C 105.378 28.032,125.257 19.970,147.400 14.705 L 156.800 12.470 156.800 6.235 L 156.800 0.000 136.000 0.000 L 115.200 0.000 115.200 6.343 M244.000 6.296 L 244.000 12.592 247.400 13.484 C 249.270 13.974,254.760 15.321,259.600 16.476 C 276.958 20.620,293.146 27.560,301.200 34.312 C 303.840 36.525,309.960 40.406,314.800 42.936 C 323.694 47.585,332.190 54.812,335.653 60.675 C 336.403 61.944,338.056 63.597,339.325 64.347 C 345.164 67.796,352.402 76.294,356.745 84.800 C 359.104 89.420,362.272 94.584,363.784 96.276 C 372.382 105.896,379.753 123.312,385.251 147.000 L 387.340 156.000 393.670 156.000 L 400.000 156.000 400.000 135.600 L 400.000 115.200 393.657 115.200 L 387.313 115.200 386.444 110.600 C 382.973 92.238,374.742 77.032,365.977 72.789 C 363.995 71.829,361.961 70.269,361.457 69.322 C 360.953 68.375,359.573 66.340,358.390 64.800 C 357.208 63.260,355.587 60.214,354.790 58.031 C 352.891 52.838,347.162 47.109,341.969 45.210 C 339.786 44.413,336.740 42.792,335.200 41.610 C 333.660 40.427,331.625 39.047,330.678 38.543 C 329.731 38.039,328.171 36.005,327.211 34.023 C 322.968 25.258,307.762 17.027,289.400 13.556 L 284.800 12.687 284.800 6.343 L 284.800 0.000 264.400 0.000 L 244.000 0.000 244.000 6.296 M184.776 71.459 C 184.543 71.710,179.143 72.990,172.776 74.305 C 160.140 76.913,158.787 77.375,146.400 83.312 C 138.835 86.938,137.644 87.812,134.416 92.104 C 131.275 96.282,122.183 105.516,114.628 112.201 C 111.843 114.667,105.803 126.481,103.280 134.400 C 100.895 141.886,96.595 161.579,96.730 164.400 C 97.033 170.758,99.259 188.051,100.038 190.095 C 100.521 191.363,102.308 197.320,104.008 203.334 C 107.474 215.590,109.241 219.576,113.525 224.800 C 118.351 230.685,119.435 232.494,127.904 248.800 C 135.311 263.061,136.315 264.595,139.596 266.669 C 144.757 269.931,149.293 275.454,152.495 282.373 C 157.782 293.799,158.820 295.422,164.562 301.254 C 167.732 304.472,171.205 308.842,172.281 310.964 C 174.678 315.695,180.421 323.381,184.539 327.370 L 187.605 330.339 199.603 326.711 C 213.876 322.395,213.914 322.365,219.829 310.490 C 224.513 301.086,231.385 292.386,236.025 289.987 C 237.356 289.299,239.680 286.208,242.150 281.839 C 253.829 261.184,256.518 256.858,259.951 253.200 C 264.723 248.114,267.212 243.827,270.689 234.702 C 274.183 225.532,276.763 220.425,280.173 215.930 C 290.346 202.517,293.627 191.587,293.830 170.433 C 294.077 144.669,292.563 137.563,285.051 129.238 C 282.659 126.587,279.141 121.278,277.115 117.261 C 271.584 106.295,265.961 99.423,259.200 95.370 C 257.660 94.447,254.457 91.684,252.083 89.231 C 246.929 83.906,241.406 81.119,229.200 77.685 C 224.360 76.324,218.545 74.502,216.278 73.638 C 212.227 72.093,185.882 70.271,184.776 71.459 M221.840 85.546 C 231.256 87.666,235.670 90.725,239.206 97.582 C 242.401 103.777,248.600 107.734,258.176 109.692 C 263.406 110.762,264.800 112.340,264.800 117.191 C 264.800 120.133,267.926 131.369,269.682 134.737 C 270.592 136.483,271.848 140.582,272.472 143.846 C 273.097 147.111,274.563 152.351,275.730 155.491 C 276.897 158.631,277.838 162.280,277.821 163.600 C 277.749 169.017,274.279 187.127,272.456 191.600 C 271.380 194.240,269.920 199.640,269.211 203.600 C 268.502 207.560,267.361 212.420,266.676 214.400 C 265.991 216.380,264.770 220.486,263.963 223.524 C 262.376 229.499,258.516 234.352,251.419 239.296 C 246.830 242.492,244.167 247.380,242.445 255.764 C 240.442 265.517,238.965 267.857,232.884 270.916 C 226.451 274.151,224.704 275.851,222.080 281.432 C 220.899 283.945,219.384 286.900,218.715 288.000 C 216.609 291.460,212.800 299.914,212.800 301.129 C 212.800 301.769,212.103 302.513,211.251 302.784 C 210.400 303.054,207.756 305.378,205.376 307.949 C 201.440 312.199,200.441 312.810,194.325 314.706 L 187.600 316.789 185.836 314.791 C 184.865 313.693,183.850 311.445,183.579 309.797 C 181.690 298.298,178.272 292.213,172.033 289.242 C 165.807 286.277,162.654 282.545,161.246 276.473 C 160.017 271.172,157.499 265.326,156.063 264.439 C 155.645 264.181,154.366 261.921,153.220 259.418 C 150.156 252.726,147.913 250.203,142.432 247.281 C 136.506 244.123,134.447 240.424,132.432 229.321 C 131.224 222.667,128.265 215.152,126.397 213.998 C 125.939 213.715,124.516 211.408,123.236 208.871 C 121.894 206.212,119.084 202.592,116.600 200.322 C 108.582 192.994,106.678 169.164,111.620 137.987 C 111.942 135.954,112.600 135.361,115.801 134.216 C 123.229 131.560,128.181 125.542,130.492 116.367 C 131.860 110.932,135.864 107.091,142.424 104.917 C 151.338 101.964,155.618 98.030,158.443 90.192 C 159.633 86.891,162.230 85.677,168.400 85.536 C 170.160 85.495,174.840 84.991,178.800 84.415 C 190.753 82.675,211.508 83.221,221.840 85.546 M184.088 109.910 C 182.034 112.028,180.386 112.827,176.531 113.573 C 171.931 114.464,163.428 117.752,155.340 121.768 C 143.723 127.537,136.978 153.312,141.080 176.264 C 144.463 195.195,148.947 202.874,158.447 206.004 C 160.841 206.793,164.060 208.112,165.600 208.935 C 167.140 209.758,169.831 210.820,171.579 211.295 C 173.710 211.873,176.092 213.547,178.803 216.367 C 186.367 224.240,193.577 223.896,210.011 214.878 C 212.656 213.426,216.616 211.972,218.811 211.647 C 227.311 210.388,233.765 206.046,236.350 199.848 C 237.027 198.224,238.820 195.951,240.333 194.797 C 250.796 186.816,257.707 168.434,254.919 156.000 C 252.618 145.739,245.445 133.344,239.919 130.079 C 238.566 129.280,236.995 127.320,236.285 125.546 C 233.439 118.433,225.923 114.860,210.953 113.504 C 202.787 112.764,200.196 112.179,195.031 109.910 C 187.438 106.574,187.320 106.574,184.088 109.910 M200.896 121.546 C 221.218 124.179,225.609 127.921,232.471 148.449 C 234.521 154.582,236.505 160.189,236.879 160.910 C 237.323 161.765,236.778 164.541,235.307 168.910 C 234.068 172.589,232.415 178.300,231.633 181.600 C 229.349 191.246,224.137 198.249,216.244 202.276 C 211.062 204.919,189.206 206.398,183.727 204.476 C 170.110 199.700,155.316 183.831,150.146 168.457 L 148.187 162.629 149.976 157.513 C 152.646 149.878,154.964 145.764,159.133 141.259 C 161.199 139.026,164.054 135.690,165.477 133.845 C 168.882 129.428,174.781 125.171,181.421 122.338 C 187.821 119.608,186.389 119.666,200.896 121.546 M0.000 264.400 L 0.000 284.800 6.343 284.800 L 12.687 284.800 13.556 289.400 C 17.028 307.769,25.257 322.968,34.031 327.215 C 36.018 328.177,38.137 329.918,38.740 331.084 C 39.343 332.250,40.569 333.867,41.465 334.678 C 42.361 335.489,43.707 337.857,44.456 339.941 C 47.242 347.687,52.579 353.122,59.410 355.168 C 61.069 355.665,63.591 357.083,65.013 358.319 C 66.436 359.554,68.375 360.972,69.322 361.469 C 70.269 361.966,71.829 363.995,72.789 365.977 C 77.032 374.742,92.238 382.973,110.600 386.444 L 115.200 387.313 115.200 393.657 L 115.200 400.000 135.600 400.000 L 156.000 400.000 156.000 393.730 L 156.000 387.460 146.600 385.222 C 123.642 379.755,107.977 373.292,98.011 365.175 C 95.638 363.241,89.836 359.576,85.118 357.030 C 76.249 352.242,69.311 346.356,65.179 340.111 C 64.020 338.360,61.640 335.980,59.889 334.821 C 53.424 330.543,47.540 323.574,43.163 315.012 C 40.854 310.495,37.728 305.416,36.216 303.724 C 27.729 294.228,20.394 277.012,14.777 253.400 L 12.540 244.000 6.270 244.000 L 0.000 244.000 0.000 264.400 M385.176 253.400 C 380.492 273.907,372.060 294.574,365.274 302.177 C 363.397 304.280,360.152 309.240,358.062 313.200 C 353.042 322.712,349.029 327.924,343.483 332.135 C 337.848 336.414,336.533 337.722,332.000 343.564 C 327.809 348.965,321.488 353.670,312.139 358.347 C 308.476 360.179,303.976 363.024,302.139 364.669 C 293.154 372.715,276.589 379.700,253.400 385.222 L 244.000 387.460 244.000 393.730 L 244.000 400.000 264.400 400.000 L 284.800 400.000 284.800 393.657 L 284.800 387.313 289.400 386.392 C 307.632 382.741,321.550 375.433,326.381 366.974 C 328.932 362.508,336.255 356.485,340.803 355.111 C 347.168 353.189,353.042 347.325,355.228 340.710 C 355.754 339.120,357.402 336.279,358.892 334.397 C 360.381 332.515,361.600 330.672,361.600 330.301 C 361.600 329.930,363.310 328.757,365.400 327.693 C 374.948 322.834,382.838 308.477,386.444 289.400 L 387.313 284.800 393.657 284.800 L 400.000 284.800 400.000 264.400 L 400.000 244.000 393.661 244.000 L 387.323 244.000 385.176 253.400 " stroke="none" fill="#d2e8f9" fill-rule="evenodd"></path></g></svg>