<svg id="svg" version="1.1" width="500" height="500" xmlns="http://www.w3.org/2000/svg" xmlns:xlink="http://www.w3.org/1999/xlink" style="display: block;"><g id="svgg"><path id="path0" d="M0.000 62.432 L 0.000 124.865 6.565 124.632 L 13.130 124.400 15.334 121.200 C 16.790 119.085,19.043 112.709,21.976 102.400 C 26.818 85.382,28.437 82.189,34.420 77.861 C 42.334 72.136,43.344 70.952,47.225 62.846 C 51.650 53.603,54.113 50.955,62.162 46.782 C 68.018 43.747,69.287 42.392,73.869 34.284 C 76.296 29.990,79.792 26.820,84.374 24.759 C 86.149 23.961,89.957 22.257,92.838 20.972 C 95.719 19.687,99.409 17.465,101.038 16.035 L 104.000 13.434 104.000 6.717 L 104.000 0.000 52.000 0.000 L 0.000 0.000 0.000 62.432 M296.000 6.291 L 296.000 12.581 299.800 16.101 C 301.890 18.037,305.220 20.301,307.200 21.133 C 320.361 26.661,322.768 28.333,326.131 34.284 C 330.713 42.392,331.982 43.747,337.838 46.782 C 345.671 50.843,348.364 53.627,352.172 61.600 C 356.313 70.269,357.235 71.404,363.789 75.901 C 371.725 81.346,373.322 84.237,377.932 101.502 C 380.787 112.193,382.532 117.214,384.329 119.902 L 386.800 123.600 393.400 123.832 L 400.000 124.065 400.000 62.032 L 400.000 0.000 348.000 0.000 L 296.000 0.000 296.000 6.291 M162.000 26.899 C 137.655 29.244,134.609 30.249,127.295 38.349 C 122.106 44.096,120.808 45.018,110.239 50.471 C 96.290 57.667,84.855 68.174,74.085 83.692 C 69.493 90.310,66.695 93.468,63.147 96.039 C 55.941 101.259,53.065 106.462,50.789 118.400 C 47.466 135.824,42.868 146.806,36.726 151.985 C 26.137 160.913,25.008 184.968,33.326 224.400 C 35.525 234.828,36.186 236.579,40.418 243.200 C 43.751 248.414,48.426 262.496,51.974 278.013 C 53.380 284.162,54.933 289.735,55.425 290.397 C 57.917 293.747,60.688 296.295,63.309 297.643 C 67.717 299.911,72.601 305.355,75.299 311.008 C 78.448 317.606,81.419 320.901,87.469 324.506 C 93.422 328.053,96.367 330.678,98.568 334.400 C 104.394 344.250,106.973 346.184,118.334 349.225 C 126.096 351.302,132.221 354.076,136.772 357.576 C 151.428 368.846,155.990 370.571,175.950 372.397 C 192.626 373.923,207.374 373.923,224.050 372.397 C 244.010 370.571,248.572 368.846,263.228 357.576 C 267.779 354.076,273.904 351.302,281.666 349.225 C 293.027 346.184,295.606 344.250,301.432 334.400 C 303.633 330.678,306.578 328.053,312.531 324.506 C 318.591 320.895,321.459 317.707,324.856 310.807 C 327.344 305.754,334.211 298.400,336.442 298.400 C 340.833 298.400,345.958 290.348,348.023 280.208 C 351.411 263.571,356.431 250.150,361.992 242.864 C 368.200 234.732,370.758 219.804,370.091 195.600 C 369.201 163.274,368.734 160.573,362.449 151.366 C 357.334 143.873,348.053 118.669,348.007 112.150 C 347.979 108.049,336.670 93.600,333.488 93.600 C 333.137 93.600,329.878 89.370,326.246 84.200 C 313.934 66.675,303.269 56.972,287.381 48.839 C 280.337 45.234,278.392 43.774,273.781 38.635 C 263.888 27.609,261.017 27.117,204.800 26.808 C 183.020 26.688,163.760 26.729,162.000 26.899 M191.695 152.200 C 193.846 153.643,196.872 156.758,198.494 159.200 C 200.213 161.789,203.724 165.343,207.022 167.835 L 212.629 172.071 222.017 167.642 C 227.460 165.075,232.840 161.892,234.818 160.068 C 238.425 156.744,245.826 153.913,257.140 151.530 C 264.685 149.941,273.823 152.794,283.307 159.700 C 287.838 163.000,287.245 163.005,295.195 159.602 C 309.216 153.601,312.791 153.540,317.919 159.215 L 320.899 162.515 320.421 171.057 C 319.495 187.617,319.411 187.985,315.744 191.573 C 311.743 195.489,307.278 206.552,304.756 218.800 C 301.721 233.546,292.548 246.418,285.850 245.331 C 277.815 244.027,267.240 237.398,264.534 231.969 L 262.531 227.949 260.709 231.190 C 258.664 234.830,255.225 236.739,244.178 240.370 L 237.556 242.546 234.429 239.721 C 229.333 235.117,214.135 230.564,208.541 231.965 C 200.938 233.869,194.889 236.772,191.413 240.183 L 188.011 243.522 183.185 242.526 C 180.531 241.977,174.679 240.459,170.180 239.151 C 155.821 234.976,106.334 234.795,92.300 238.866 L 88.201 240.055 82.144 236.044 C 72.902 229.924,70.161 224.098,68.384 206.800 C 67.797 201.080,67.069 194.051,66.766 191.179 C 65.217 176.483,72.372 166.738,86.672 164.068 C 89.383 163.562,96.249 162.196,101.931 161.033 C 112.652 158.838,122.169 159.005,137.200 161.651 C 139.400 162.039,145.160 162.732,150.000 163.192 C 154.840 163.653,159.741 164.221,160.892 164.454 C 162.577 164.797,163.822 164.123,167.292 160.994 C 173.385 155.499,176.372 153.560,181.932 151.493 C 188.044 149.221,187.158 149.157,191.695 152.200 M0.000 334.000 L 0.000 400.000 59.600 400.000 L 119.200 400.000 119.200 393.611 L 119.200 387.223 116.200 385.301 C 114.550 384.244,107.322 380.909,100.138 377.890 C 85.827 371.875,82.471 369.573,77.636 362.452 C 73.780 356.775,70.401 353.773,63.550 349.943 C 56.179 345.820,53.540 342.904,48.758 333.594 C 45.342 326.944,43.415 324.347,37.617 318.577 C 27.993 309.000,26.103 305.114,19.109 280.531 C 18.128 277.083,16.305 272.853,15.058 271.131 L 12.790 268.000 6.395 268.000 L 0.000 268.000 0.000 334.000 M384.541 272.200 C 381.508 276.264,380.979 277.612,377.963 288.941 C 373.829 304.466,370.862 310.118,362.434 318.516 C 356.813 324.118,354.687 326.967,351.251 333.503 C 346.585 342.378,342.669 346.621,336.043 349.978 C 330.738 352.667,326.192 356.816,322.343 362.483 C 317.530 369.571,314.160 371.881,299.862 377.890 C 292.678 380.909,285.450 384.244,283.800 385.301 L 280.800 387.223 280.800 393.611 L 280.800 400.000 340.400 400.000 L 400.000 400.000 400.000 334.800 L 400.000 269.600 393.241 269.600 C 386.546 269.600,386.463 269.625,384.541 272.200 " stroke="none" fill="#ffffff" fill-rule="evenodd"></path><path id="path1" d="M104.000 6.717 L 104.000 13.434 101.038 16.035 C 99.409 17.465,95.719 19.687,92.838 20.972 C 89.957 22.257,86.149 23.961,84.374 24.759 C 79.792 26.820,76.296 29.990,73.869 34.284 C 69.287 42.392,68.018 43.747,62.162 46.782 C 54.113 50.955,51.650 53.603,47.225 62.846 C 43.344 70.952,42.334 72.136,34.420 77.861 C 28.437 82.189,26.818 85.382,21.976 102.400 C 19.043 112.709,16.790 119.085,15.334 121.200 L 13.130 124.400 6.565 124.632 L 0.000 124.865 0.000 196.432 L 0.000 268.000 6.395 268.000 L 12.790 268.000 15.058 271.131 C 16.305 272.853,18.128 277.083,19.109 280.531 C 26.103 305.114,27.993 309.000,37.617 318.577 C 43.415 324.347,45.342 326.944,48.758 333.594 C 53.540 342.904,56.179 345.820,63.550 349.943 C 70.401 353.773,73.780 356.775,77.636 362.452 C 82.471 369.573,85.827 371.875,100.138 377.890 C 107.322 380.909,114.550 384.244,116.200 385.301 L 119.200 387.223 119.200 393.611 L 119.200 400.000 200.000 400.000 L 280.800 400.000 280.800 393.611 L 280.800 387.223 283.800 385.301 C 285.450 384.244,292.678 380.909,299.862 377.890 C 314.160 371.881,317.530 369.571,322.343 362.483 C 326.192 356.816,330.738 352.667,336.043 349.978 C 342.669 346.621,346.585 342.378,351.251 333.503 C 354.687 326.967,356.813 324.118,362.434 318.516 C 370.862 310.118,373.829 304.466,377.963 288.941 C 380.979 277.612,381.508 276.264,384.541 272.200 C 386.463 269.625,386.546 269.600,393.241 269.600 L 400.000 269.600 400.000 196.832 L 400.000 124.065 393.400 123.832 L 386.800 123.600 384.329 119.902 C 382.532 117.214,380.787 112.193,377.932 101.502 C 373.322 84.237,371.725 81.346,363.789 75.901 C 357.235 71.404,356.313 70.269,352.172 61.600 C 348.364 53.627,345.671 50.843,337.838 46.782 C 331.982 43.747,330.713 42.392,326.131 34.284 C 322.768 28.333,320.361 26.661,307.200 21.133 C 305.220 20.301,301.890 18.037,299.800 16.101 L 296.000 12.581 296.000 6.291 L 296.000 0.000 200.000 0.000 L 104.000 0.000 104.000 6.717 M253.340 28.266 C 264.472 29.811,267.025 31.106,273.781 38.635 C 278.392 43.774,280.337 45.234,287.381 48.839 C 303.269 56.972,313.934 66.675,326.246 84.200 C 329.878 89.370,333.137 93.600,333.488 93.600 C 336.670 93.600,347.979 108.049,348.007 112.150 C 348.053 118.669,357.334 143.873,362.449 151.366 C 368.734 160.573,369.201 163.274,370.091 195.600 C 370.758 219.804,368.200 234.732,361.992 242.864 C 356.431 250.150,351.411 263.571,348.023 280.208 C 345.958 290.348,340.833 298.400,336.442 298.400 C 334.211 298.400,327.344 305.754,324.856 310.807 C 321.459 317.707,318.591 320.895,312.531 324.506 C 306.578 328.053,303.633 330.678,301.432 334.400 C 295.606 344.250,293.027 346.184,281.666 349.225 C 273.904 351.302,267.779 354.076,263.228 357.576 C 248.572 368.846,244.010 370.571,224.050 372.397 C 207.374 373.923,192.626 373.923,175.950 372.397 C 155.990 370.571,151.428 368.846,136.772 357.576 C 132.221 354.076,126.096 351.302,118.334 349.225 C 106.973 346.184,104.394 344.250,98.568 334.400 C 96.367 330.678,93.422 328.053,87.469 324.506 C 81.419 320.901,78.448 317.606,75.299 311.008 C 72.601 305.355,67.717 299.911,63.309 297.643 C 60.688 296.295,57.917 293.747,55.425 290.397 C 54.933 289.735,53.380 284.162,51.974 278.013 C 48.426 262.496,43.751 248.414,40.418 243.200 C 36.186 236.579,35.525 234.828,33.326 224.400 C 25.008 184.968,26.137 160.913,36.726 151.985 C 42.868 146.806,47.466 135.824,50.789 118.400 C 53.065 106.462,55.941 101.259,63.147 96.039 C 66.695 93.468,69.493 90.310,74.085 83.692 C 84.855 68.174,96.290 57.667,110.239 50.471 C 120.808 45.018,122.106 44.096,127.295 38.349 C 134.609 30.249,137.655 29.244,162.000 26.899 C 171.417 25.991,244.870 27.091,253.340 28.266 M181.932 151.493 C 176.372 153.560,173.385 155.499,167.292 160.994 C 163.822 164.123,162.577 164.797,160.892 164.454 C 159.741 164.221,154.840 163.653,150.000 163.192 C 145.160 162.732,139.400 162.039,137.200 161.651 C 122.169 159.005,112.652 158.838,101.931 161.033 C 96.249 162.196,89.383 163.562,86.672 164.068 C 72.372 166.738,65.217 176.483,66.766 191.179 C 67.069 194.051,67.797 201.080,68.384 206.800 C 70.161 224.098,72.902 229.924,82.144 236.044 L 88.201 240.055 92.300 238.866 C 106.334 234.795,155.821 234.976,170.180 239.151 C 174.679 240.459,180.531 241.977,183.185 242.526 L 188.011 243.522 191.413 240.183 C 194.889 236.772,200.938 233.869,208.541 231.965 C 214.135 230.564,229.333 235.117,234.429 239.721 L 237.556 242.546 244.178 240.370 C 255.225 236.739,258.664 234.830,260.709 231.190 L 262.531 227.949 264.534 231.969 C 267.240 237.398,277.815 244.027,285.850 245.331 C 292.548 246.418,301.721 233.546,304.756 218.800 C 307.278 206.552,311.743 195.489,315.744 191.573 C 319.411 187.985,319.495 187.617,320.421 171.057 L 320.899 162.515 317.919 159.215 C 312.791 153.540,309.216 153.601,295.195 159.602 C 287.245 163.005,287.838 163.000,283.307 159.700 C 273.823 152.794,264.685 149.941,257.140 151.530 C 245.826 153.913,238.425 156.744,234.818 160.068 C 232.840 161.892,227.460 165.075,222.017 167.642 L 212.629 172.071 207.022 167.835 C 203.724 165.343,200.213 161.789,198.494 159.200 C 196.021 155.477,189.028 149.501,187.310 149.642 C 187.029 149.665,184.609 150.498,181.932 151.493 M212.521 184.768 C 213.028 184.786,218.914 182.280,225.600 179.200 L 237.757 173.600 249.484 173.600 C 255.934 173.600,262.468 173.229,264.005 172.775 C 280.958 167.772,299.034 171.933,303.678 181.906 C 306.172 187.261,306.308 186.330,300.866 201.127 C 294.060 219.635,289.831 228.000,287.282 228.000 C 285.777 228.000,278.446 220.603,275.984 216.602 C 270.863 208.278,262.963 196.800,262.355 196.800 C 260.920 196.800,256.609 203.496,253.942 209.868 C 250.745 217.506,246.435 222.974,241.192 226.047 L 237.741 228.069 230.671 226.063 C 215.197 221.672,212.830 221.369,202.579 222.468 C 196.698 223.099,177.981 223.563,152.400 223.712 C 120.692 223.896,108.848 224.251,99.250 225.307 L 86.901 226.665 84.244 223.592 C 77.453 215.736,75.737 204.642,78.886 188.958 C 82.174 172.584,128.483 166.397,157.134 178.504 L 162.669 180.843 167.463 177.480 C 170.100 175.631,175.653 172.241,179.802 169.948 L 187.347 165.779 199.474 175.258 C 206.143 180.470,212.015 184.750,212.521 184.768 " stroke="none" fill="#dbe7e8" fill-rule="evenodd"></path><path id="path2" d="M284.400 181.795 C 283.080 182.273,280.309 183.704,278.243 184.974 L 274.485 187.285 279.229 194.509 C 281.838 198.482,284.778 203.166,285.762 204.918 L 287.552 208.102 289.301 203.051 C 290.262 200.273,291.947 195.582,293.044 192.627 L 295.038 187.254 291.537 184.027 C 287.711 180.500,287.853 180.545,284.400 181.795 M184.311 184.563 C 179.679 187.632,179.663 187.666,181.449 190.555 C 185.644 197.344,187.647 197.823,191.132 192.871 C 193.965 188.846,193.875 187.689,190.520 184.992 L 187.421 182.502 184.311 184.563 M108.600 186.530 C 105.771 187.563,105.830 188.569,109.000 193.296 L 111.600 197.174 121.059 198.105 C 126.261 198.617,132.120 199.276,134.079 199.570 L 137.641 200.104 139.532 195.852 C 142.578 189.004,142.701 187.594,140.347 186.521 C 137.824 185.372,111.752 185.379,108.600 186.530 M236.800 203.002 C 236.800 203.480,234.989 205.853,232.775 208.275 L 228.750 212.679 233.235 213.239 C 238.913 213.948,239.356 213.472,238.411 207.665 C 237.724 203.448,236.800 200.772,236.800 203.002 " stroke="none" fill="#bbbdbf" fill-rule="evenodd"></path><path id="path3" d="M180.677 177.904 C 167.430 185.956,166.627 186.685,165.126 192.034 C 163.061 199.395,161.982 199.281,159.467 191.440 C 155.834 180.110,126.414 174.456,104.000 180.781 C 85.630 185.964,86.348 185.230,83.835 201.397 L 82.111 212.492 84.596 216.103 L 87.080 219.714 96.140 218.490 C 102.451 217.637,110.641 217.317,123.135 217.434 C 137.518 217.570,145.440 217.180,163.135 215.463 C 175.271 214.286,186.100 213.343,187.200 213.367 C 192.266 213.481,212.835 216.297,224.600 218.488 L 237.601 220.908 239.883 219.283 C 243.839 216.466,246.157 212.677,246.795 207.985 C 247.871 200.071,250.247 193.828,253.478 190.432 L 256.491 187.264 252.700 185.633 C 250.614 184.736,246.480 183.439,243.513 182.751 L 238.117 181.499 231.105 184.440 C 225.380 186.840,223.688 187.965,221.888 190.561 C 220.676 192.311,218.051 195.179,216.056 196.936 L 212.428 200.129 209.867 197.334 C 208.458 195.797,206.847 192.978,206.287 191.070 C 205.727 189.161,204.592 187.108,203.765 186.506 C 202.938 185.904,198.921 182.801,194.839 179.610 L 187.416 173.807 180.677 177.904 M280.828 176.852 C 270.329 179.600,262.271 186.505,265.975 189.579 C 266.621 190.115,270.907 196.189,275.500 203.077 C 280.093 209.965,284.724 216.416,285.791 217.413 L 287.731 219.226 289.791 215.413 C 291.627 212.016,293.138 208.184,299.039 191.968 C 300.875 186.923,300.668 186.175,296.096 181.332 C 293.761 178.858,288.083 175.044,287.032 175.244 C 286.904 175.268,284.113 175.992,280.828 176.852 M291.537 184.027 L 295.038 187.254 293.044 192.627 C 291.947 195.582,290.262 200.273,289.301 203.051 L 287.552 208.102 285.762 204.918 C 284.778 203.166,281.838 198.482,279.229 194.509 L 274.485 187.285 278.243 184.974 C 281.632 182.890,285.783 181.030,287.418 180.863 C 287.758 180.828,289.611 182.252,291.537 184.027 M193.104 189.141 C 192.485 191.138,190.149 194.548,188.414 195.988 C 186.937 197.214,184.286 195.146,181.449 190.555 C 179.663 187.666,179.679 187.632,184.311 184.563 L 187.421 182.502 190.520 184.992 C 192.918 186.920,193.502 187.857,193.104 189.141 M140.347 186.521 C 142.701 187.594,142.578 189.004,139.532 195.852 L 137.641 200.104 134.079 199.570 C 132.120 199.276,126.261 198.617,121.059 198.105 L 111.600 197.174 109.000 193.296 C 105.830 188.569,105.771 187.563,108.600 186.530 C 111.752 185.379,137.824 185.372,140.347 186.521 M238.411 207.665 C 239.356 213.472,238.913 213.948,233.235 213.239 L 228.750 212.679 232.775 208.275 C 234.989 205.853,236.800 203.480,236.800 203.002 C 236.800 200.772,237.724 203.448,238.411 207.665 " stroke="none" fill="#cecfd0" fill-rule="evenodd"></path><path id="path4" d="M179.802 169.948 C 175.653 172.241,170.100 175.631,167.463 177.480 L 162.669 180.843 157.134 178.504 C 134.087 168.765,94.517 170.688,83.508 182.082 C 78.728 187.029,78.532 187.735,77.860 202.456 C 77.308 214.547,77.782 216.117,84.244 223.592 L 86.901 226.665 99.250 225.307 C 108.848 224.251,120.692 223.896,152.400 223.712 C 177.981 223.563,196.698 223.099,202.579 222.468 C 212.830 221.369,215.197 221.672,230.671 226.063 L 237.741 228.069 241.192 226.047 C 246.435 222.974,250.745 217.506,253.942 209.868 C 256.609 203.496,260.920 196.800,262.355 196.800 C 262.963 196.800,270.863 208.278,275.984 216.602 C 278.446 220.603,285.777 228.000,287.282 228.000 C 289.831 228.000,294.060 219.635,300.866 201.127 C 306.308 186.330,306.172 187.261,303.678 181.906 C 299.034 171.933,280.958 167.772,264.005 172.775 C 262.468 173.229,255.934 173.600,249.484 173.600 L 237.757 173.600 225.600 179.200 C 210.761 186.035,213.862 186.503,199.474 175.258 L 187.347 165.779 179.802 169.948 M203.765 186.506 C 204.592 187.108,205.727 189.161,206.287 191.070 C 206.847 192.978,208.458 195.797,209.867 197.334 L 212.428 200.129 216.056 196.936 C 218.051 195.179,220.676 192.311,221.888 190.561 C 223.688 187.965,225.380 186.840,231.105 184.440 L 238.117 181.499 243.513 182.751 C 246.480 183.439,250.614 184.736,252.700 185.633 L 256.491 187.264 253.478 190.432 C 250.247 193.828,247.871 200.071,246.795 207.985 C 246.157 212.677,243.839 216.466,239.883 219.283 L 237.601 220.908 224.600 218.488 C 212.835 216.297,192.266 213.481,187.200 213.367 C 186.100 213.343,175.271 214.286,163.135 215.463 C 145.440 217.180,137.518 217.570,123.135 217.434 C 110.641 217.317,102.451 217.637,96.140 218.490 L 87.080 219.714 84.596 216.103 L 82.111 212.492 83.835 201.397 C 86.348 185.230,85.630 185.964,104.000 180.781 C 126.414 174.456,155.834 180.110,159.467 191.440 C 161.982 199.281,163.061 199.395,165.126 192.034 C 166.627 186.685,167.430 185.956,180.677 177.904 L 187.416 173.807 194.839 179.610 C 198.921 182.801,202.938 185.904,203.765 186.506 M290.232 176.732 C 293.283 178.307,298.351 183.188,299.822 185.968 C 300.445 187.145,300.249 188.642,299.039 191.968 C 293.138 208.184,291.627 212.016,289.791 215.413 L 287.731 219.226 285.791 217.413 C 284.724 216.416,280.093 209.965,275.500 203.077 C 270.907 196.189,266.621 190.115,265.975 189.579 C 261.439 185.815,273.071 177.896,287.032 175.244 C 287.159 175.220,288.599 175.889,290.232 176.732 " stroke="none" fill="#d4d5d6" fill-rule="evenodd"></path></g></svg>